<svg xmlns="http://www.w3.org/2000/svg" xmlns:xlink="http://www.w3.org/1999/xlink" width="303.36" height="226.56" viewBox="0 0 227.52 169.92"><defs><style>*{stroke-linejoin:round;stroke-linecap:butt}</style></defs><g id="figure_1"><path id="patch_1" d="M0 169.92h227.52V0H0z" style="fill:none"/><g id="axes_1"><path id="patch_2" d="M26.2 143.446h197.72V16.084H26.2z" style="fill:none"/><g id="matplotlib.axis_1"><g id="xtick_1"><g id="line2d_1"><defs><path id="mfeef7ccfd0" d="M0 0v-3" style="stroke:#000;stroke-width:.5"/></defs><use xlink:href="#mfeef7ccfd0" x="35.178" y="143.446" style="stroke:#000;stroke-width:.5"/></g><g id="line2d_2"><defs><path id="m700b479048" d="M0 0v3" style="stroke:#000;stroke-width:.5"/></defs><use xlink:href="#m700b479048" x="35.178" y="16.084" style="stroke:#000;stroke-width:.5"/></g><g id="text_1" transform="matrix(.08 0 0 -.08 28.096 152.35)"><defs><path id="NimbusRomNo9L-Regu-30" d="M1626 4352c-352 0-621-108-858-332-371-359-614-1095-614-1844 0-697 211-1446 512-1804C902 90 1229-64 1600-64c326 0 602 109 832 333 371 352 614 1095 614 1869 0 1312-582 2214-1420 2214m-20-166c538 0 826-723 826-2061 0-1337-282-2022-832-2022S768 788 768 2119c0 1357 288 2067 838 2067" transform="scale(.01563)"/><path id="CMMI10-3a" d="M1229 338c0 184-154 337-339 337-186 0-340-153-340-337C550 153 704 0 890 0c185 0 339 153 339 338" transform="scale(.01563)"/></defs><use xlink:href="#NimbusRomNo9L-Regu-30" transform="scale(.99626)"/><use xlink:href="#CMMI10-3a" transform="matrix(.99626 0 0 .99626 49.813 0)"/><use xlink:href="#NimbusRomNo9L-Regu-30" transform="matrix(.99626 0 0 .99626 77.409 0)"/><use xlink:href="#NimbusRomNo9L-Regu-30" transform="matrix(.99626 0 0 .99626 127.222 0)"/></g></g><g id="xtick_2"><use xlink:href="#mfeef7ccfd0" id="line2d_3" x="80.116" y="143.446" style="stroke:#000;stroke-width:.5"/><use xlink:href="#m700b479048" id="line2d_4" x="80.116" y="16.084" style="stroke:#000;stroke-width:.5"/><g id="text_2" transform="matrix(.08 0 0 -.08 73.035 152.35)"><defs><path id="NimbusRomNo9L-Regu-35" d="M1158 3776h1255c102 0 128 13 147 58l243 569-57 45c-96-134-160-166-295-166H1114L416 2759c-6-13-6-19-6-32 0-32 25-51 76-51 205 0 461-45 724-129 736-238 1075-637 1075-1273 0-618-391-1101-890-1101-128 0-237 45-429 187-204 148-352 212-486 212-186 0-275-77-275-238C205 90 506-64 986-64c537 0 998 174 1318 502 294 290 429 656 429 1145 0 463-122 759-442 1080-281 284-646 431-1401 566z" transform="scale(.01563)"/></defs><use xlink:href="#NimbusRomNo9L-Regu-30" transform="scale(.99626)"/><use xlink:href="#CMMI10-3a" transform="matrix(.99626 0 0 .99626 49.813 0)"/><use xlink:href="#NimbusRomNo9L-Regu-30" transform="matrix(.99626 0 0 .99626 77.409 0)"/><use xlink:href="#NimbusRomNo9L-Regu-35" transform="matrix(.99626 0 0 .99626 127.222 0)"/></g></g><g id="xtick_3"><use xlink:href="#mfeef7ccfd0" id="line2d_5" x="125.055" y="143.446" style="stroke:#000;stroke-width:.5"/><use xlink:href="#m700b479048" id="line2d_6" x="125.055" y="16.084" style="stroke:#000;stroke-width:.5"/><g id="text_3" transform="matrix(.08 0 0 -.08 117.974 152.35)"><defs><path id="NimbusRomNo9L-Regu-31" d="M1862 4339 710 3757v-90c77 32 148 58 173 71 115 45 224 70 288 70 135 0 192-97 192-303V592c0-213-51-360-153-419-96-57-186-77-455-77V0h1767v96c-506 0-608 64-608 374v3857z" transform="scale(.01563)"/></defs><use xlink:href="#NimbusRomNo9L-Regu-30" transform="scale(.99626)"/><use xlink:href="#CMMI10-3a" transform="matrix(.99626 0 0 .99626 49.813 0)"/><use xlink:href="#NimbusRomNo9L-Regu-31" transform="matrix(.99626 0 0 .99626 77.409 0)"/><use xlink:href="#NimbusRomNo9L-Regu-30" transform="matrix(.99626 0 0 .99626 127.222 0)"/></g></g><g id="xtick_4"><use xlink:href="#mfeef7ccfd0" id="line2d_7" x="169.994" y="143.446" style="stroke:#000;stroke-width:.5"/><use xlink:href="#m700b479048" id="line2d_8" x="169.994" y="16.084" style="stroke:#000;stroke-width:.5"/><g id="text_4" transform="matrix(.08 0 0 -.08 162.913 152.35)"><use xlink:href="#NimbusRomNo9L-Regu-30" transform="scale(.99626)"/><use xlink:href="#CMMI10-3a" transform="matrix(.99626 0 0 .99626 49.813 0)"/><use xlink:href="#NimbusRomNo9L-Regu-31" transform="matrix(.99626 0 0 .99626 77.409 0)"/><use xlink:href="#NimbusRomNo9L-Regu-35" transform="matrix(.99626 0 0 .99626 127.222 0)"/></g></g><g id="xtick_5"><use xlink:href="#mfeef7ccfd0" id="line2d_9" x="214.933" y="143.446" style="stroke:#000;stroke-width:.5"/><use xlink:href="#m700b479048" id="line2d_10" x="214.933" y="16.084" style="stroke:#000;stroke-width:.5"/><g id="text_5" transform="matrix(.08 0 0 -.08 207.851 152.35)"><defs><path id="NimbusRomNo9L-Regu-32" d="m3040 875-83 32c-237-363-320-421-608-421H819l1075 1123c570 593 820 1078 820 1576 0 638-519 1128-1184 1128-352 0-685-140-922-395-205-218-301-422-410-875l135-32c256 625 486 829 928 829 537 0 902-364 902-900 0-497-294-1090-832-1658L192 77V0h2496z" transform="scale(.01563)"/></defs><use xlink:href="#NimbusRomNo9L-Regu-30" transform="scale(.99626)"/><use xlink:href="#CMMI10-3a" transform="matrix(.99626 0 0 .99626 49.813 0)"/><use xlink:href="#NimbusRomNo9L-Regu-32" transform="matrix(.99626 0 0 .99626 77.409 0)"/><use xlink:href="#NimbusRomNo9L-Regu-30" transform="matrix(.99626 0 0 .99626 127.222 0)"/></g></g><g id="xtick_6"><g id="line2d_11"><defs><path id="ma3feae53af" d="M0 0v-1.5" style="stroke:#000;stroke-width:.5"/></defs><use xlink:href="#ma3feae53af" x="44.165" y="143.446" style="stroke:#000;stroke-width:.5"/></g><g id="line2d_12"><defs><path id="me2135c6e25" d="M0 0v1.5" style="stroke:#000;stroke-width:.5"/></defs><use xlink:href="#me2135c6e25" x="44.165" y="16.084" style="stroke:#000;stroke-width:.5"/></g></g><g id="xtick_7"><use xlink:href="#ma3feae53af" id="line2d_13" x="53.153" y="143.446" style="stroke:#000;stroke-width:.5"/><use xlink:href="#me2135c6e25" id="line2d_14" x="53.153" y="16.084" style="stroke:#000;stroke-width:.5"/></g><g id="xtick_8"><use xlink:href="#ma3feae53af" id="line2d_15" x="62.141" y="143.446" style="stroke:#000;stroke-width:.5"/><use xlink:href="#me2135c6e25" id="line2d_16" x="62.141" y="16.084" style="stroke:#000;stroke-width:.5"/></g><g id="xtick_9"><use xlink:href="#ma3feae53af" id="line2d_17" x="71.129" y="143.446" style="stroke:#000;stroke-width:.5"/><use xlink:href="#me2135c6e25" id="line2d_18" x="71.129" y="16.084" style="stroke:#000;stroke-width:.5"/></g><g id="xtick_10"><use xlink:href="#ma3feae53af" id="line2d_19" x="89.104" y="143.446" style="stroke:#000;stroke-width:.5"/><use xlink:href="#me2135c6e25" id="line2d_20" x="89.104" y="16.084" style="stroke:#000;stroke-width:.5"/></g><g id="xtick_11"><use xlink:href="#ma3feae53af" id="line2d_21" x="98.092" y="143.446" style="stroke:#000;stroke-width:.5"/><use xlink:href="#me2135c6e25" id="line2d_22" x="98.092" y="16.084" style="stroke:#000;stroke-width:.5"/></g><g id="xtick_12"><use xlink:href="#ma3feae53af" id="line2d_23" x="107.08" y="143.446" style="stroke:#000;stroke-width:.5"/><use xlink:href="#me2135c6e25" id="line2d_24" x="107.08" y="16.084" style="stroke:#000;stroke-width:.5"/></g><g id="xtick_13"><use xlink:href="#ma3feae53af" id="line2d_25" x="116.067" y="143.446" style="stroke:#000;stroke-width:.5"/><use xlink:href="#me2135c6e25" id="line2d_26" x="116.067" y="16.084" style="stroke:#000;stroke-width:.5"/></g><g id="xtick_14"><use xlink:href="#ma3feae53af" id="line2d_27" x="134.043" y="143.446" style="stroke:#000;stroke-width:.5"/><use xlink:href="#me2135c6e25" id="line2d_28" x="134.043" y="16.084" style="stroke:#000;stroke-width:.5"/></g><g id="xtick_15"><use xlink:href="#ma3feae53af" id="line2d_29" x="143.031" y="143.446" style="stroke:#000;stroke-width:.5"/><use xlink:href="#me2135c6e25" id="line2d_30" x="143.031" y="16.084" style="stroke:#000;stroke-width:.5"/></g><g id="xtick_16"><use xlink:href="#ma3feae53af" id="line2d_31" x="152.018" y="143.446" style="stroke:#000;stroke-width:.5"/><use xlink:href="#me2135c6e25" id="line2d_32" x="152.018" y="16.084" style="stroke:#000;stroke-width:.5"/></g><g id="xtick_17"><use xlink:href="#ma3feae53af" id="line2d_33" x="161.006" y="143.446" style="stroke:#000;stroke-width:.5"/><use xlink:href="#me2135c6e25" id="line2d_34" x="161.006" y="16.084" style="stroke:#000;stroke-width:.5"/></g><g id="xtick_18"><use xlink:href="#ma3feae53af" id="line2d_35" x="178.982" y="143.446" style="stroke:#000;stroke-width:.5"/><use xlink:href="#me2135c6e25" id="line2d_36" x="178.982" y="16.084" style="stroke:#000;stroke-width:.5"/></g><g id="xtick_19"><use xlink:href="#ma3feae53af" id="line2d_37" x="187.969" y="143.446" style="stroke:#000;stroke-width:.5"/><use xlink:href="#me2135c6e25" id="line2d_38" x="187.969" y="16.084" style="stroke:#000;stroke-width:.5"/></g><g id="xtick_20"><use xlink:href="#ma3feae53af" id="line2d_39" x="196.957" y="143.446" style="stroke:#000;stroke-width:.5"/><use xlink:href="#me2135c6e25" id="line2d_40" x="196.957" y="16.084" style="stroke:#000;stroke-width:.5"/></g><g id="xtick_21"><use xlink:href="#ma3feae53af" id="line2d_41" x="205.945" y="143.446" style="stroke:#000;stroke-width:.5"/><use xlink:href="#me2135c6e25" id="line2d_42" x="205.945" y="16.084" style="stroke:#000;stroke-width:.5"/></g><g id="text_6" transform="matrix(.08 0 0 -.08 106.83 164.595)"><defs><path id="NimbusRomNo9L-Regu-41" d="M4518 128c-288 0-352 64-576 539L2349 4320h-128L890 1168C480 231 403 128 96 128V0h1267v128c-307 0-435 84-435 265 0 77 19 167 51 252l295 756h1676l263-623c77-176 121-344 121-436 0-162-108-214-448-214V0h1632zM1382 1664l736 1752 743-1752z" transform="scale(.01563)"/><path id="NimbusRomNo9L-Regu-72" d="M45 2496c89 19 147 26 224 26 160 0 217-103 217-384V538c0-320-44-365-454-442V0h1536v102c-435 0-544 97-544 463v1448c0 206 275 528 448 528 38 0 96-32 166-96 103-90 173-128 256-128 154 0 250 109 250 288 0 211-134 339-352 339-269 0-454-147-768-601v588l-32 13c-339-141-570-223-947-345z" transform="scale(.01563)"/><path id="NimbusRomNo9L-Regu-65" d="M2611 1053c-307-489-582-675-992-675-365 0-640 186-825 552-116 244-160 456-173 849h1971c-51 414-115 598-275 802-192 230-487 363-819 363-320 0-621-115-864-333-301-262-474-717-474-1241C160 486 621-64 1357-64c608 0 1088 379 1357 1072zM634 1984c70 495 288 730 678 730s544-179 627-730z" transform="scale(.01563)"/><path id="NimbusRomNo9L-Regu-61" d="M2829 423c-109-90-186-122-282-122-147 0-192 89-192 371v1248c0 333-32 518-128 672-141 230-416 352-793 352-602 0-1076-314-1076-717 0-147 128-275 276-275 153 0 288 128 288 269 0 25-7 57-13 102-13 58-19 109-19 154 0 173 204 313 460 313 314 0 487-185 487-531v-390c-986-397-1095-448-1370-691-141-128-230-346-230-557 0-403 281-685 672-685 281 0 544 134 934 467 32-333 147-467 410-467 217 0 352 77 576 320zm-992 360c0-199-32-257-167-334-153-90-332-148-467-148-224 0-403 219-403 495v26c0 379 262 611 1037 893z" transform="scale(.01563)"/><path id="NimbusRomNo9L-Regu-5b" d="M1914-864h-551c-211 0-313 108-313 333v4312c0 200 83 283 288 283h576v160H563v-5248h1351z" transform="scale(.01563)"/><path id="NimbusRomNo9L-Regu-6b" d="M45 3987c83 7 141 13 205 13 211 0 275-83 275-390V525c0-333-19-352-480-429V0h1497v102h-128c-256 0-352 91-352 317v1187l896-1191 20-26c12-19 25-38 44-58 52-64 71-102 71-133 0-58-58-96-135-96h-121V0h1395v102c-282 0-480 123-749 451l-979 1252 186 173c454 422 851 716 1036 768 96 25 186 38 295 38h51v96H1766v-96c250 0 320-26 320-115 0-51-57-141-147-218l-877-781v2688l-25 13c-243-77-429-128-800-230l-192-51z" transform="scale(.01563)"/><path id="NimbusRomNo9L-Regu-6d" d="M122 2547c83 19 134 26 204 26 167 0 224-103 224-411V539c0-347-89-443-448-443V0h1421v96c-339 0-435 70-435 322v1816c0 12 51 76 96 121 160 147 435 256 659 256 282 0 423-226 423-679V528c0-361-71-432-436-432V0h1434v96c-365 0-461 109-461 507v1618c192 275 403 390 698 390 365 0 480-173 480-704V557c0-365-51-416-423-461V0h1402v96l-166 19c-192 0-276 115-276 365v1322c0 757-249 1142-742 1142-371 0-698-166-1043-537-115 364-333 537-679 537-281 0-460-90-992-493v480l-44 13c-327-122-544-192-896-288z" transform="scale(.01563)"/><path id="NimbusRomNo9L-Regu-5d" d="M218-864v-160h1350v5248H218v-160h550c211 0 314-109 314-334V-582c0-199-90-282-288-282z" transform="scale(.01563)"/></defs><use xlink:href="#NimbusRomNo9L-Regu-41" transform="scale(.99626)"/><use xlink:href="#NimbusRomNo9L-Regu-72" transform="matrix(.99626 0 0 .99626 71.93 0)"/><use xlink:href="#NimbusRomNo9L-Regu-65" transform="matrix(.99626 0 0 .99626 105.105 0)"/><use xlink:href="#NimbusRomNo9L-Regu-61" transform="matrix(.99626 0 0 .99626 149.339 0)"/><use xlink:href="#NimbusRomNo9L-Regu-5b" transform="matrix(.99626 0 0 .99626 218.479 0)"/><use xlink:href="#NimbusRomNo9L-Regu-6b" transform="matrix(.99626 0 0 .99626 251.654 0)"/><use xlink:href="#NimbusRomNo9L-Regu-6d" transform="matrix(.99626 0 0 .99626 301.467 0)"/><use xlink:href="#NimbusRomNo9L-Regu-32" transform="translate(378.976 36.163)scale(.73724)"/><use xlink:href="#NimbusRomNo9L-Regu-5d" transform="matrix(.99626 0 0 .99626 416.336 0)"/></g></g><g id="matplotlib.axis_2"><g id="ytick_1"><g id="line2d_43"><defs><path id="m5ae473eef9" d="M0 0h3" style="stroke:#000;stroke-width:.5"/></defs><use xlink:href="#m5ae473eef9" x="26.199" y="137.66" style="stroke:#000;stroke-width:.5"/></g><g id="line2d_44"><defs><path id="m08599a6c54" d="M0 0h-3" style="stroke:#000;stroke-width:.5"/></defs><use xlink:href="#m08599a6c54" x="223.92" y="137.66" style="stroke:#000;stroke-width:.5"/></g><use xlink:href="#NimbusRomNo9L-Regu-30" id="text_7" transform="matrix(.0797 0 0 -.0797 18.714 140.362)"/></g><g id="ytick_2"><use xlink:href="#m5ae473eef9" id="line2d_45" x="26.199" y="113.22" style="stroke:#000;stroke-width:.5"/><use xlink:href="#m08599a6c54" id="line2d_46" x="223.92" y="113.22" style="stroke:#000;stroke-width:.5"/><g id="text_8" transform="matrix(.08 0 0 -.08 14.73 115.922)"><use xlink:href="#NimbusRomNo9L-Regu-31" transform="scale(.99626)"/><use xlink:href="#NimbusRomNo9L-Regu-30" transform="matrix(.99626 0 0 .99626 49.813 0)"/></g></g><g id="ytick_3"><use xlink:href="#m5ae473eef9" id="line2d_47" x="26.199" y="88.781" style="stroke:#000;stroke-width:.5"/><use xlink:href="#m08599a6c54" id="line2d_48" x="223.92" y="88.781" style="stroke:#000;stroke-width:.5"/><g id="text_9" transform="matrix(.08 0 0 -.08 14.73 91.483)"><use xlink:href="#NimbusRomNo9L-Regu-32" transform="scale(.99626)"/><use xlink:href="#NimbusRomNo9L-Regu-30" transform="matrix(.99626 0 0 .99626 49.813 0)"/></g></g><g id="ytick_4"><use xlink:href="#m5ae473eef9" id="line2d_49" x="26.199" y="64.341" style="stroke:#000;stroke-width:.5"/><use xlink:href="#m08599a6c54" id="line2d_50" x="223.92" y="64.341" style="stroke:#000;stroke-width:.5"/><g id="text_10" transform="matrix(.08 0 0 -.08 14.73 67.043)"><defs><path id="NimbusRomNo9L-Regu-33" d="M979 2138c378 0 525-13 679-70 396-141 646-506 646-948 0-537-365-953-838-953-173 0-301 45-538 198-192 115-301 160-410 160-147 0-243-89-243-224C275 77 550-64 998-64c493 0 999 167 1300 429 300 263 467 634 467 1063 0 326-103 627-288 825-128 141-250 218-531 339 441 301 601 538 601 884 0 518-409 876-998 876-320 0-602-108-832-313-192-173-288-340-429-724l96-25c262 467 550 678 954 678 416 0 704-281 704-684 0-231-96-461-256-621-192-192-372-288-807-442z" transform="scale(.01563)"/></defs><use xlink:href="#NimbusRomNo9L-Regu-33" transform="scale(.99626)"/><use xlink:href="#NimbusRomNo9L-Regu-30" transform="matrix(.99626 0 0 .99626 49.813 0)"/></g></g><g id="ytick_5"><use xlink:href="#m5ae473eef9" id="line2d_51" x="26.199" y="39.902" style="stroke:#000;stroke-width:.5"/><use xlink:href="#m08599a6c54" id="line2d_52" x="223.92" y="39.902" style="stroke:#000;stroke-width:.5"/><g id="text_11" transform="matrix(.08 0 0 -.08 14.73 42.604)"><defs><path id="NimbusRomNo9L-Regu-34" d="M3021 1497h-653v2855h-282L77 1497v-409h1798V32h493v1056h653zm-1152 0H333l1536 2201z" transform="scale(.01563)"/></defs><use xlink:href="#NimbusRomNo9L-Regu-34" transform="scale(.99626)"/><use xlink:href="#NimbusRomNo9L-Regu-30" transform="matrix(.99626 0 0 .99626 49.813 0)"/></g></g><g id="ytick_6"><g id="line2d_53"><defs><path id="mdcfbb27dd6" d="M0 0h1.5" style="stroke:#000;stroke-width:.5"/></defs><use xlink:href="#mdcfbb27dd6" x="26.199" y="142.548" style="stroke:#000;stroke-width:.5"/></g><g id="line2d_54"><defs><path id="m3af603cccc" d="M0 0h-1.5" style="stroke:#000;stroke-width:.5"/></defs><use xlink:href="#m3af603cccc" x="223.92" y="142.548" style="stroke:#000;stroke-width:.5"/></g></g><g id="ytick_7"><use xlink:href="#mdcfbb27dd6" id="line2d_55" x="26.199" y="132.772" style="stroke:#000;stroke-width:.5"/><use xlink:href="#m3af603cccc" id="line2d_56" x="223.92" y="132.772" style="stroke:#000;stroke-width:.5"/></g><g id="ytick_8"><use xlink:href="#mdcfbb27dd6" id="line2d_57" x="26.199" y="127.884" style="stroke:#000;stroke-width:.5"/><use xlink:href="#m3af603cccc" id="line2d_58" x="223.92" y="127.884" style="stroke:#000;stroke-width:.5"/></g><g id="ytick_9"><use xlink:href="#mdcfbb27dd6" id="line2d_59" x="26.199" y="122.996" style="stroke:#000;stroke-width:.5"/><use xlink:href="#m3af603cccc" id="line2d_60" x="223.92" y="122.996" style="stroke:#000;stroke-width:.5"/></g><g id="ytick_10"><use xlink:href="#mdcfbb27dd6" id="line2d_61" x="26.199" y="118.108" style="stroke:#000;stroke-width:.5"/><use xlink:href="#m3af603cccc" id="line2d_62" x="223.92" y="118.108" style="stroke:#000;stroke-width:.5"/></g><g id="ytick_11"><use xlink:href="#mdcfbb27dd6" id="line2d_63" x="26.199" y="108.333" style="stroke:#000;stroke-width:.5"/><use xlink:href="#m3af603cccc" id="line2d_64" x="223.92" y="108.333" style="stroke:#000;stroke-width:.5"/></g><g id="ytick_12"><use xlink:href="#mdcfbb27dd6" id="line2d_65" x="26.199" y="103.445" style="stroke:#000;stroke-width:.5"/><use xlink:href="#m3af603cccc" id="line2d_66" x="223.92" y="103.445" style="stroke:#000;stroke-width:.5"/></g><g id="ytick_13"><use xlink:href="#mdcfbb27dd6" id="line2d_67" x="26.199" y="98.557" style="stroke:#000;stroke-width:.5"/><use xlink:href="#m3af603cccc" id="line2d_68" x="223.92" y="98.557" style="stroke:#000;stroke-width:.5"/></g><g id="ytick_14"><use xlink:href="#mdcfbb27dd6" id="line2d_69" x="26.199" y="93.669" style="stroke:#000;stroke-width:.5"/><use xlink:href="#m3af603cccc" id="line2d_70" x="223.92" y="93.669" style="stroke:#000;stroke-width:.5"/></g><g id="ytick_15"><use xlink:href="#mdcfbb27dd6" id="line2d_71" x="26.199" y="83.893" style="stroke:#000;stroke-width:.5"/><use xlink:href="#m3af603cccc" id="line2d_72" x="223.92" y="83.893" style="stroke:#000;stroke-width:.5"/></g><g id="ytick_16"><use xlink:href="#mdcfbb27dd6" id="line2d_73" x="26.199" y="79.005" style="stroke:#000;stroke-width:.5"/><use xlink:href="#m3af603cccc" id="line2d_74" x="223.92" y="79.005" style="stroke:#000;stroke-width:.5"/></g><g id="ytick_17"><use xlink:href="#mdcfbb27dd6" id="line2d_75" x="26.199" y="74.117" style="stroke:#000;stroke-width:.5"/><use xlink:href="#m3af603cccc" id="line2d_76" x="223.92" y="74.117" style="stroke:#000;stroke-width:.5"/></g><g id="ytick_18"><use xlink:href="#mdcfbb27dd6" id="line2d_77" x="26.199" y="69.229" style="stroke:#000;stroke-width:.5"/><use xlink:href="#m3af603cccc" id="line2d_78" x="223.92" y="69.229" style="stroke:#000;stroke-width:.5"/></g><g id="ytick_19"><use xlink:href="#mdcfbb27dd6" id="line2d_79" x="26.199" y="59.454" style="stroke:#000;stroke-width:.5"/><use xlink:href="#m3af603cccc" id="line2d_80" x="223.92" y="59.454" style="stroke:#000;stroke-width:.5"/></g><g id="ytick_20"><use xlink:href="#mdcfbb27dd6" id="line2d_81" x="26.199" y="54.566" style="stroke:#000;stroke-width:.5"/><use xlink:href="#m3af603cccc" id="line2d_82" x="223.92" y="54.566" style="stroke:#000;stroke-width:.5"/></g><g id="ytick_21"><use xlink:href="#mdcfbb27dd6" id="line2d_83" x="26.199" y="49.678" style="stroke:#000;stroke-width:.5"/><use xlink:href="#m3af603cccc" id="line2d_84" x="223.92" y="49.678" style="stroke:#000;stroke-width:.5"/></g><g id="ytick_22"><use xlink:href="#mdcfbb27dd6" id="line2d_85" x="26.199" y="44.79" style="stroke:#000;stroke-width:.5"/><use xlink:href="#m3af603cccc" id="line2d_86" x="223.92" y="44.79" style="stroke:#000;stroke-width:.5"/></g><g id="ytick_23"><use xlink:href="#mdcfbb27dd6" id="line2d_87" x="26.199" y="35.014" style="stroke:#000;stroke-width:.5"/><use xlink:href="#m3af603cccc" id="line2d_88" x="223.92" y="35.014" style="stroke:#000;stroke-width:.5"/></g><g id="ytick_24"><use xlink:href="#mdcfbb27dd6" id="line2d_89" x="26.199" y="30.126" style="stroke:#000;stroke-width:.5"/><use xlink:href="#m3af603cccc" id="line2d_90" x="223.92" y="30.126" style="stroke:#000;stroke-width:.5"/></g><g id="ytick_25"><use xlink:href="#mdcfbb27dd6" id="line2d_91" x="26.199" y="25.238" style="stroke:#000;stroke-width:.5"/><use xlink:href="#m3af603cccc" id="line2d_92" x="223.92" y="25.238" style="stroke:#000;stroke-width:.5"/></g><g id="ytick_26"><use xlink:href="#mdcfbb27dd6" id="line2d_93" x="26.199" y="20.35" style="stroke:#000;stroke-width:.5"/><use xlink:href="#m3af603cccc" id="line2d_94" x="223.92" y="20.35" style="stroke:#000;stroke-width:.5"/></g><g id="text_12" transform="matrix(0 -.08 -.08 0 9.004 117.703)"><defs><path id="NimbusRomNo9L-Regu-45" d="M3821 1078h-179c-320-689-596-841-1511-841h-173c-313 0-582 32-627 78-32 19-45 89-45 199v1592h986c525 0 621-86 704-634h147v1485h-147c-45-254-70-347-141-434-83-106-262-155-563-155h-986v1398c0 177 39 215 212 215h864c723 0 864-95 972-667h160l-19 910H77v-122c473-38 557-128 557-577V679c0-449-90-545-557-545V0h3456z" transform="scale(.01563)"/><path id="NimbusRomNo9L-Regu-6e" d="M102 2579c39 19 103 26 173 26 179 0 237-96 237-410V608c0-365-70-454-397-480V32h1357v96c-326 26-422 102-422 333v1798c307 288 448 365 659 365 313 0 467-198 467-621V666c0-404-83-512-403-538V32h1331v96c-314 32-390 109-390 422v1466c0 602-282 960-756 960-294 0-492-109-928-518v505l-44 13c-314-115-532-186-884-288z" transform="scale(.01563)"/><path id="NimbusRomNo9L-Regu-67" d="M3008 2496v250h-493c-128 0-224 17-352 56l-141 45c-172 56-345 84-512 84-595 0-1068-464-1068-1050 0-405 172-651 595-863-122-112-237-219-275-250-212-180-295-305-295-430 0-132 77-207 339-332-454-335-627-549-627-787 0-343 499-627 1107-627 480 0 980 170 1312 446 244 203 352 414 352 663 0 407-300 683-774 683h-826c-339 0-499 59-499 164 0 130 211 360 384 412 58-7 103-13 122-13 121-13 205-19 243-19 237 0 493 98 691 275 211 184 307 414 307 742 0 190-32 341-121 551zM941-13c211-45 723-83 1037-83 582 0 793-84 793-318 0-377-486-629-1209-629-564 0-935 188-935 473 0 150 45 234 314 557m32 2158c0 381 179 607 473 607 199 0 365-110 468-303 115-226 192-522 192-774 0-361-186-587-480-587-384 0-653 419-653 1038z" transform="scale(.01563)"/><path id="NimbusRomNo9L-Regu-79" d="M3040 2880h-864v-96c205 0 307-58 307-161 0-26-6-64-25-109L1837 742l-736 1635c-39 91-64 175-64 245 0 117 96 162 371 162v96H90v-90c166-25 275-96 326-205l730-1580 19-52 96-192c179-321 281-552 281-649 0-96-147-501-256-694-89-167-230-289-320-289-38 0-96 13-160 45-121 45-230 71-339 71-147 0-275-128-275-282 0-211 205-371 474-371 428 0 736 359 1081 1284l986 2619c83 206 153 270 307 289z" transform="scale(.01563)"/><path id="NimbusRomNo9L-Regu-78" d="M1779 0h1287v96c-199 0-327 102-525 384l-819 1255 531 767c121 173 313 276 518 276v102H1760v-102c192 0 256-38 256-129 0-78-77-219-237-420-32-38-109-154-192-283l-89 128c-180 268-295 486-295 569 0 90 83 135 275 135v102H154v-102h57c192 0 295-83 493-382l602-917L576 422C384 160 320 115 109 96V0h928v96c-179 0-256 32-256 115 0 39 45 135 128 263l505 787 583-896c25-39 38-77 38-115 0-127-45-154-256-154z" transform="scale(.01563)"/><path id="NimbusRomNo9L-Regu-70" d="M58 2516c57 6 102 6 160 6 217 0 262-64 262-367V-855c0-334-70-406-448-444v-109h1549v115c-480 0-563 71-563 477V199c224-212 377-276 646-276 755 0 1344 720 1344 1652 0 797-448 1369-1069 1369-358 0-640-160-921-506v493l-39 13c-345-134-569-218-921-326zm960-380c0 193 358 424 652 424 474 0 788-489 788-1236 0-713-314-1196-775-1196-301 0-665 231-665 424z" transform="scale(.01563)"/><path id="NimbusRomNo9L-Regu-6f" d="M1600 2944c-832 0-1414-614-1414-1498C186 582 781-64 1587-64c807 0 1421 678 1421 1562 0 838-589 1446-1408 1446m-83-179c537 0 915-615 915-1491 0-724-288-1159-768-1159-250 0-486 154-621 410-179 333-281 781-281 1235 0 608 300 1005 755 1005" transform="scale(.01563)"/><path id="NimbusRomNo9L-Regu-74" d="M1632 2880H986v742c0 64-7 84-45 84-45-58-83-116-128-180-243-352-519-659-621-685-70-47-109-93-109-126 0-20 7-33 26-33h339V751c0-539 192-815 570-815 313 0 556 154 768 487l-84 70c-134-160-243-224-384-224-236 0-332 174-332 578v1835h646z" transform="scale(.01563)"/><path id="NimbusRomNo9L-Regu-47" d="M4538 2304H2906v-128c275 0 352-19 428-71 96-58 135-207 135-484V574c0-207-391-382-851-382-1044 0-1684 730-1684 1920 0 602 180 1184 461 1498 282 314 679 486 1114 486 358 0 672-121 921-352 192-179 295-352 455-742h147l-51 1350h-141c-38-121-154-211-288-211-64 0-166 19-282 64-288 96-582 147-870 147-1280 0-2195-940-2195-2246 0-627 173-1107 531-1485C1165 180 1779-64 2483-64c551 0 1351 224 1607 449v1309c0 379 76 463 448 495z" transform="scale(.01563)"/><path id="NimbusRomNo9L-Regu-57" d="M5965 4224H4698v-122c326-32 441-102 441-276 0-134-38-302-102-481l-800-2176-845 2189c-13 32-70 173-77 193-57 134-96 256-96 326 0 155 147 219 493 219v128H2003v-128c365 0 429-58 647-572l211-526-685-1810-922 2424c-44 116-70 226-70 297 0 142 90 187 416 187v128H32v-122c326-32 422-147 659-751L1926-96h96l986 2715L4032-96h96c544 1675 608 1855 1306 3743 121 334 192 391 531 455z" transform="scale(.01563)"/><path id="NimbusRomNo9L-Regu-68" d="M1005 2222c269 294 461 402 710 402 320 0 480-229 480-676V684c0-434-64-518-435-556V32h1357v96c-346 64-384 115-384 556v1270c0 671-269 1016-787 1016-378 0-647-154-941-538v1958l-32 19c-218-77-378-128-736-230l-173-51v-102c26 6 45 6 77 6 275 0 326-52 326-327V686c0-449-38-507-409-558V32h1382v96c-371 38-435 115-435 556z" transform="scale(.01563)"/><path id="NimbusRomNo9L-Regu-2f" d="M1837 4352h-429L-58-64h436z" transform="scale(.01563)"/></defs><use xlink:href="#NimbusRomNo9L-Regu-45" transform="scale(.99626)"/><use xlink:href="#NimbusRomNo9L-Regu-6e" transform="matrix(.99626 0 0 .99626 60.872 0)"/><use xlink:href="#NimbusRomNo9L-Regu-65" transform="matrix(.99626 0 0 .99626 110.685 0)"/><use xlink:href="#NimbusRomNo9L-Regu-72" transform="matrix(.99626 0 0 .99626 154.918 0)"/><use xlink:href="#NimbusRomNo9L-Regu-67" transform="matrix(.99626 0 0 .99626 186.301 0)"/><use xlink:href="#NimbusRomNo9L-Regu-79" transform="matrix(.99626 0 0 .99626 236.114 0)"/><use xlink:href="#NimbusRomNo9L-Regu-65" transform="matrix(.99626 0 0 .99626 310.834 0)"/><use xlink:href="#NimbusRomNo9L-Regu-78" transform="matrix(.99626 0 0 .99626 353.574 0)"/><use xlink:href="#NimbusRomNo9L-Regu-70" transform="matrix(.99626 0 0 .99626 403.387 0)"/><use xlink:href="#NimbusRomNo9L-Regu-6f" transform="matrix(.99626 0 0 .99626 453.2 0)"/><use xlink:href="#NimbusRomNo9L-Regu-72" transform="matrix(.99626 0 0 .99626 503.014 0)"/><use xlink:href="#NimbusRomNo9L-Regu-74" transform="matrix(.99626 0 0 .99626 536.19 0)"/><use xlink:href="#NimbusRomNo9L-Regu-5b" transform="matrix(.99626 0 0 .99626 588.79 0)"/><use xlink:href="#NimbusRomNo9L-Regu-47" transform="matrix(.99626 0 0 .99626 621.966 0)"/><use xlink:href="#NimbusRomNo9L-Regu-57" transform="matrix(.99626 0 0 .99626 693.896 0)"/><use xlink:href="#NimbusRomNo9L-Regu-68" transform="matrix(.99626 0 0 .99626 787.943 0)"/><use xlink:href="#NimbusRomNo9L-Regu-2f" transform="matrix(.99626 0 0 .99626 837.756 0)"/><use xlink:href="#NimbusRomNo9L-Regu-79" transform="matrix(.99626 0 0 .99626 865.451 0)"/><use xlink:href="#NimbusRomNo9L-Regu-5d" transform="matrix(.99626 0 0 .99626 915.264 0)"/></g></g><path id="line2d_95" d="m35.187 137.657 19.971-12.865 19.972-12.865 19.972-12.865 19.972-12.864 19.972-12.865 19.971-12.865 19.972-12.865 19.972-12.865 19.972-12.864" clip-path="url(#pfec6f90da7)" style="fill:none;stroke:#000;stroke-linecap:square"/><path id="patch_3" d="M26.2 143.446V16.084" style="fill:none;stroke:#000;stroke-width:.5;stroke-linejoin:miter;stroke-linecap:square"/><path id="patch_4" d="M223.92 143.446V16.084" style="fill:none;stroke:#000;stroke-width:.5;stroke-linejoin:miter;stroke-linecap:square"/><path id="patch_5" d="M26.2 143.446h197.72" style="fill:none;stroke:#000;stroke-width:.5;stroke-linejoin:miter;stroke-linecap:square"/><path id="patch_6" d="M26.2 16.084h197.72" style="fill:none;stroke:#000;stroke-width:.5;stroke-linejoin:miter;stroke-linecap:square"/><g id="text_13" transform="matrix(.096 0 0 -.096 82.858 10.084)"><defs><path id="NimbusRomNo9L-Regu-76" d="M3053 2854h-890v-96c205-19 301-83 301-206 0-64-13-128-38-193L1792 695l-653 1645c-38 91-57 180-57 238 0 116 70 161 294 180v96H122v-102c243 0 288-64 582-728l768-1849c13-38 32-84 51-135 39-116 77-168 115-168 39 0 84 84 180 321l819 2064c185 437 224 482 416 501z" transform="scale(.01563)"/><path id="NimbusRomNo9L-Regu-73" d="m2016 2010-26 870h-70l-13-13c-57-45-64-51-89-51-39 0-103 13-173 45-141 54-282 83-448 83-506 0-871-328-871-790 0-358 205-615 749-923l371-211c224-128 333-283 333-481 0-283-205-462-531-462-218 0-416 82-538 221-134 157-192 302-275 662H333V-39h83c45 72 70 87 147 87 58 0 147-13 295-50 179-37 352-62 467-62 493 0 902 372 902 821 0 320-153 532-537 763l-692 410c-179 103-275 264-275 437 0 257 199 436 493 436 365 0 557-220 704-793z" transform="scale(.01563)"/></defs><use xlink:href="#NimbusRomNo9L-Regu-41" transform="scale(.99626)"/><use xlink:href="#NimbusRomNo9L-Regu-72" transform="matrix(.99626 0 0 .99626 71.93 0)"/><use xlink:href="#NimbusRomNo9L-Regu-65" transform="matrix(.99626 0 0 .99626 105.105 0)"/><use xlink:href="#NimbusRomNo9L-Regu-61" transform="matrix(.99626 0 0 .99626 149.339 0)"/><use xlink:href="#NimbusRomNo9L-Regu-76" transform="matrix(.99626 0 0 .99626 218.479 0)"/><use xlink:href="#NimbusRomNo9L-Regu-73" transform="matrix(.99626 0 0 .99626 268.292 0)"/><use xlink:href="#NimbusRomNo9L-Regu-65" transform="matrix(.99626 0 0 .99626 331.952 0)"/><use xlink:href="#NimbusRomNo9L-Regu-6e" transform="matrix(.99626 0 0 .99626 376.186 0)"/><use xlink:href="#NimbusRomNo9L-Regu-65" transform="matrix(.99626 0 0 .99626 426 0)"/><use xlink:href="#NimbusRomNo9L-Regu-72" transform="matrix(.99626 0 0 .99626 470.233 0)"/><use xlink:href="#NimbusRomNo9L-Regu-67" transform="matrix(.99626 0 0 .99626 501.615 0)"/><use xlink:href="#NimbusRomNo9L-Regu-79" transform="matrix(.99626 0 0 .99626 551.429 0)"/><use xlink:href="#NimbusRomNo9L-Regu-65" transform="matrix(.99626 0 0 .99626 626.148 0)"/><use xlink:href="#NimbusRomNo9L-Regu-78" transform="matrix(.99626 0 0 .99626 668.889 0)"/><use xlink:href="#NimbusRomNo9L-Regu-70" transform="matrix(.99626 0 0 .99626 718.702 0)"/><use xlink:href="#NimbusRomNo9L-Regu-6f" transform="matrix(.99626 0 0 .99626 768.515 0)"/><use xlink:href="#NimbusRomNo9L-Regu-72" transform="matrix(.99626 0 0 .99626 818.328 0)"/><use xlink:href="#NimbusRomNo9L-Regu-74" transform="matrix(.99626 0 0 .99626 851.503 0)"/></g></g></g><defs><clipPath id="pfec6f90da7"><path d="M26.199 16.084H223.92v127.362H26.199z"/></clipPath></defs></svg>