<svg xmlns="http://www.w3.org/2000/svg" xmlns:xlink="http://www.w3.org/1999/xlink" width="466.56" height="274.56" viewBox="0 0 349.92 205.92"><defs><style>*{stroke-linejoin:round;stroke-linecap:butt}</style></defs><g id="figure_1"><path id="patch_1" d="M0 205.92h349.92V0H0z" style="fill:none"/><g id="axes_1"><path id="patch_2" d="M28.407 164.676H346.32V16.084H28.407z" style="fill:none"/><g id="matplotlib.axis_1"><g id="xtick_1"><path id="line2d_1" d="M54.9 164.676V16.084" clip-path="url(#pfdfe844e7e)" style="fill:none;stroke-dasharray:1.85,.8;stroke-dashoffset:0;stroke:#b0b0b0;stroke-opacity:.5;stroke-width:.5"/><g id="line2d_2"><defs><path id="mdca05102bb" d="M0 0v-3" style="stroke:#000;stroke-width:.5"/></defs><use xlink:href="#mdca05102bb" x="54.9" y="164.676" style="stroke:#000;stroke-width:.5"/></g><g id="line2d_3"><defs><path id="mf2a953a5d9" d="M0 0v3" style="stroke:#000;stroke-width:.5"/></defs><use xlink:href="#mf2a953a5d9" x="54.9" y="16.084" style="stroke:#000;stroke-width:.5"/></g><g id="text_1" transform="scale(.08 -.08)rotate(45 3184.358 -501.257)"><defs><path id="NimbusRomNo9L-Regu-53" d="M2861 4352h-135c-25-147-96-217-204-217-64 0-173 25-282 77-237 89-474 140-678 140-276 0-557-108-768-294-224-199-340-468-340-802 0-513 282-871 999-1250 461-243 793-507 953-750 58-83 90-218 90-372 0-430-320-724-787-724-570 0-973 353-1293 1136H269L461-64h141c6 121 83 211 179 211 70 0 179-25 301-68 243-93 499-143 755-143 736 0 1305 506 1305 1165 0 525-352 941-1196 1395-672 372-941 653-941 999 0 352 269 595 665 595 288 0 557-122 781-352 199-205 288-371 391-749h160z" transform="scale(.01563)"/><path id="NimbusRomNo9L-Regu-31" d="M1862 4339 710 3757v-90c77 32 148 58 173 71 115 45 224 70 288 70 135 0 192-97 192-303V592c0-213-51-360-153-419-96-57-186-77-455-77V0h1767v96c-506 0-608 64-608 374v3857z" transform="scale(.01563)"/><path id="NimbusRomNo9L-Regu-42" d="M109 4237v-141c537 0 614-70 614-548V689c0-477-83-561-614-561V0h2137c500 0 954 136 1191 356 230 208 358 499 358 809 0 286-115 545-313 732-192 175-365 253-781 356 333 82 467 145 621 278 160 140 256 372 256 632 0 708-570 1074-1677 1074zm1267-2125c621 0 915-32 1146-130 364-155 537-414 537-823 0-350-134-604-390-753-205-116-467-168-890-168-313 0-403 58-403 266zm0 256v1444c0 132 45 189 141 189h281c736 0 1127-302 1127-864 0-491-339-769-941-769z" transform="scale(.01563)"/><path id="NimbusRomNo9L-Regu-61" d="M2829 423c-109-90-186-122-282-122-147 0-192 89-192 371v1248c0 333-32 518-128 672-141 230-416 352-793 352-602 0-1076-314-1076-717 0-147 128-275 276-275 153 0 288 128 288 269 0 25-7 57-13 102-13 58-19 109-19 154 0 173 204 313 460 313 314 0 487-185 487-531v-390c-986-397-1095-448-1370-691-141-128-230-346-230-557 0-403 281-685 672-685 281 0 544 134 934 467 32-333 147-467 410-467 217 0 352 77 576 320zm-992 360c0-199-32-257-167-334-153-90-332-148-467-148-224 0-403 219-403 495v26c0 379 262 611 1037 893z" transform="scale(.01563)"/><path id="NimbusRomNo9L-Regu-73" d="m2016 2010-26 870h-70l-13-13c-57-45-64-51-89-51-39 0-103 13-173 45-141 54-282 83-448 83-506 0-871-328-871-790 0-358 205-615 749-923l371-211c224-128 333-283 333-481 0-283-205-462-531-462-218 0-416 82-538 221-134 157-192 302-275 662H333V-39h83c45 72 70 87 147 87 58 0 147-13 295-50 179-37 352-62 467-62 493 0 902 372 902 821 0 320-153 532-537 763l-692 410c-179 103-275 264-275 437 0 257 199 436 493 436 365 0 557-220 704-793z" transform="scale(.01563)"/><path id="NimbusRomNo9L-Regu-69" d="m1120 2929-992-350v-95l51 6c77 12 160 19 218 19 153 0 211-103 211-384V640c0-461-64-531-506-531V0h1517v96c-422 32-473 95-473 554v2260zM819 4352c-173 0-320-147-320-326s141-327 320-327c186 0 333 141 333 327 0 179-147 326-333 326" transform="scale(.01563)"/><path id="NimbusRomNo9L-Regu-63" d="M2547 998c-307-448-537-601-902-601-583 0-992 512-992 1248 0 659 352 1113 870 1113 231 0 314-70 378-307l38-141c51-179 167-294 301-294 166 0 307 122 307 269 0 358-448 659-985 659-314 0-640-128-903-358-320-282-499-717-499-1223C160 531 666-64 1376-64c288 0 544 102 774 301 173 153 295 326 487 704z" transform="scale(.01563)"/></defs><use xlink:href="#NimbusRomNo9L-Regu-53" transform="scale(.99626)"/><use xlink:href="#NimbusRomNo9L-Regu-31" transform="matrix(.99626 0 0 .99626 55.392 0)"/><use xlink:href="#NimbusRomNo9L-Regu-42" transform="matrix(.99626 0 0 .99626 130.111 0)"/><use xlink:href="#NimbusRomNo9L-Regu-61" transform="matrix(.99626 0 0 .99626 196.562 0)"/><use xlink:href="#NimbusRomNo9L-Regu-73" transform="matrix(.99626 0 0 .99626 240.795 0)"/><use xlink:href="#NimbusRomNo9L-Regu-69" transform="matrix(.99626 0 0 .99626 279.549 0)"/><use xlink:href="#NimbusRomNo9L-Regu-63" transform="matrix(.99626 0 0 .99626 307.244 0)"/></g></g><g id="xtick_2"><path id="line2d_4" d="M107.885 164.676V16.084" clip-path="url(#pfdfe844e7e)" style="fill:none;stroke-dasharray:1.85,.8;stroke-dashoffset:0;stroke:#b0b0b0;stroke-opacity:.5;stroke-width:.5"/><use xlink:href="#mdca05102bb" id="line2d_5" x="107.885" y="164.676" style="stroke:#000;stroke-width:.5"/><use xlink:href="#mf2a953a5d9" id="line2d_6" x="107.885" y="16.084" style="stroke:#000;stroke-width:.5"/><g id="text_2" transform="scale(.08 -.08)rotate(45 3625.827 171.045)"><defs><path id="NimbusRomNo9L-Regu-32" d="m3040 875-83 32c-237-363-320-421-608-421H819l1075 1123c570 593 820 1078 820 1576 0 638-519 1128-1184 1128-352 0-685-140-922-395-205-218-301-422-410-875l135-32c256 625 486 829 928 829 537 0 902-364 902-900 0-497-294-1090-832-1658L192 77V0h2496z" transform="scale(.01563)"/><path id="NimbusRomNo9L-Regu-49" d="M736 689c0-483-83-561-621-561V0h1901v128c-525 0-627 89-627 560v2854c0 470 89 554 627 554v135H115v-135c544 0 621-70 621-548z" transform="scale(.01563)"/><path id="NimbusRomNo9L-Regu-6d" d="M122 2547c83 19 134 26 204 26 167 0 224-103 224-411V539c0-347-89-443-448-443V0h1421v96c-339 0-435 70-435 322v1816c0 12 51 76 96 121 160 147 435 256 659 256 282 0 423-226 423-679V528c0-361-71-432-436-432V0h1434v96c-365 0-461 109-461 507v1618c192 275 403 390 698 390 365 0 480-173 480-704V557c0-365-51-416-423-461V0h1402v96l-166 19c-192 0-276 115-276 365v1322c0 757-249 1142-742 1142-371 0-698-166-1043-537-115 364-333 537-679 537-281 0-460-90-992-493v480l-44 13c-327-122-544-192-896-288z" transform="scale(.01563)"/><path id="NimbusRomNo9L-Regu-70" d="M58 2516c57 6 102 6 160 6 217 0 262-64 262-367V-855c0-334-70-406-448-444v-109h1549v115c-480 0-563 71-563 477V199c224-212 377-276 646-276 755 0 1344 720 1344 1652 0 797-448 1369-1069 1369-358 0-640-160-921-506v493l-39 13c-345-134-569-218-921-326zm960-380c0 193 358 424 652 424 474 0 788-489 788-1236 0-713-314-1196-775-1196-301 0-665 231-665 424z" transform="scale(.01563)"/><path id="NimbusRomNo9L-Regu-72" d="M45 2496c89 19 147 26 224 26 160 0 217-103 217-384V538c0-320-44-365-454-442V0h1536v102c-435 0-544 97-544 463v1448c0 206 275 528 448 528 38 0 96-32 166-96 103-90 173-128 256-128 154 0 250 109 250 288 0 211-134 339-352 339-269 0-454-147-768-601v588l-32 13c-339-141-570-223-947-345z" transform="scale(.01563)"/><path id="NimbusRomNo9L-Regu-6f" d="M1600 2944c-832 0-1414-614-1414-1498C186 582 781-64 1587-64c807 0 1421 678 1421 1562 0 838-589 1446-1408 1446m-83-179c537 0 915-615 915-1491 0-724-288-1159-768-1159-250 0-486 154-621 410-179 333-281 781-281 1235 0 608 300 1005 755 1005" transform="scale(.01563)"/><path id="NimbusRomNo9L-Regu-76" d="M3053 2854h-890v-96c205-19 301-83 301-206 0-64-13-128-38-193L1792 695l-653 1645c-38 91-57 180-57 238 0 116 70 161 294 180v96H122v-102c243 0 288-64 582-728l768-1849c13-38 32-84 51-135 39-116 77-168 115-168 39 0 84 84 180 321l819 2064c185 437 224 482 416 501z" transform="scale(.01563)"/><path id="NimbusRomNo9L-Regu-65" d="M2611 1053c-307-489-582-675-992-675-365 0-640 186-825 552-116 244-160 456-173 849h1971c-51 414-115 598-275 802-192 230-487 363-819 363-320 0-621-115-864-333-301-262-474-717-474-1241C160 486 621-64 1357-64c608 0 1088 379 1357 1072zM634 1984c70 495 288 730 678 730s544-179 627-730z" transform="scale(.01563)"/><path id="NimbusRomNo9L-Regu-64" d="m2202-64 940 333v96h-147c-230 0-281 70-281 366v3633l-32 13c-308-109-532-173-941-281v-102c51 6 89 6 141 6 236 0 294-64 294-328V2669c-243 205-416 275-672 275-736 0-1331-723-1331-1632C173 493 653-64 1357-64c358 0 601 128 819 429V-45zm-26 717c0-45-45-122-109-192-115-128-275-192-461-192-531 0-883 512-883 1299 0 723 314 1197 800 1197 339 0 653-301 653-640z" transform="scale(.01563)"/></defs><use xlink:href="#NimbusRomNo9L-Regu-53" transform="scale(.99626)"/><use xlink:href="#NimbusRomNo9L-Regu-32" transform="matrix(.99626 0 0 .99626 55.392 0)"/><use xlink:href="#NimbusRomNo9L-Regu-49" transform="matrix(.99626 0 0 .99626 130.111 0)"/><use xlink:href="#NimbusRomNo9L-Regu-6d" transform="matrix(.99626 0 0 .99626 163.287 0)"/><use xlink:href="#NimbusRomNo9L-Regu-70" transform="matrix(.99626 0 0 .99626 240.795 0)"/><use xlink:href="#NimbusRomNo9L-Regu-72" transform="matrix(.99626 0 0 .99626 290.608 0)"/><use xlink:href="#NimbusRomNo9L-Regu-6f" transform="matrix(.99626 0 0 .99626 323.784 0)"/><use xlink:href="#NimbusRomNo9L-Regu-76" transform="matrix(.99626 0 0 .99626 372.103 0)"/><use xlink:href="#NimbusRomNo9L-Regu-65" transform="matrix(.99626 0 0 .99626 420.423 0)"/><use xlink:href="#NimbusRomNo9L-Regu-64" transform="matrix(.99626 0 0 .99626 464.657 0)"/></g></g><g id="xtick_3"><path id="line2d_7" d="M160.87 164.676V16.084" clip-path="url(#pfdfe844e7e)" style="fill:none;stroke-dasharray:1.85,.8;stroke-dashoffset:0;stroke:#b0b0b0;stroke-opacity:.5;stroke-width:.5"/><use xlink:href="#mdca05102bb" id="line2d_8" x="160.871" y="164.676" style="stroke:#000;stroke-width:.5"/><use xlink:href="#mf2a953a5d9" id="line2d_9" x="160.871" y="16.084" style="stroke:#000;stroke-width:.5"/><g id="text_3" transform="scale(.08 -.08)rotate(45 3927.318 1004.743)"><defs><path id="NimbusRomNo9L-Regu-33" d="M979 2138c378 0 525-13 679-70 396-141 646-506 646-948 0-537-365-953-838-953-173 0-301 45-538 198-192 115-301 160-410 160-147 0-243-89-243-224C275 77 550-64 998-64c493 0 999 167 1300 429 300 263 467 634 467 1063 0 326-103 627-288 825-128 141-250 218-531 339 441 301 601 538 601 884 0 518-409 876-998 876-320 0-602-108-832-313-192-173-288-340-429-724l96-25c262 467 550 678 954 678 416 0 704-281 704-684 0-231-96-461-256-621-192-192-372-288-807-442z" transform="scale(.01563)"/><path id="NimbusRomNo9L-Regu-48" d="M1338 2304v1229c0 457 70 526 563 571v120H122v-120c492-45 563-115 563-577V749c0-539-64-615-563-615V0h1779v121c-480 38-563 121-563 578v1323h1939V757c0-546-64-623-563-623V0h1779v121c-480 38-563 121-563 575v2833c0 460 70 530 563 575v120H2714v-120c492-45 563-114 563-571V2304z" transform="scale(.01563)"/><path id="NimbusRomNo9L-Regu-67" d="M3008 2496v250h-493c-128 0-224 17-352 56l-141 45c-172 56-345 84-512 84-595 0-1068-464-1068-1050 0-405 172-651 595-863-122-112-237-219-275-250-212-180-295-305-295-430 0-132 77-207 339-332-454-335-627-549-627-787 0-343 499-627 1107-627 480 0 980 170 1312 446 244 203 352 414 352 663 0 407-300 683-774 683h-826c-339 0-499 59-499 164 0 130 211 360 384 412 58-7 103-13 122-13 121-13 205-19 243-19 237 0 493 98 691 275 211 184 307 414 307 742 0 190-32 341-121 551zM941-13c211-45 723-83 1037-83 582 0 793-84 793-318 0-377-486-629-1209-629-564 0-935 188-935 473 0 150 45 234 314 557m32 2158c0 381 179 607 473 607 199 0 365-110 468-303 115-226 192-522 192-774 0-361-186-587-480-587-384 0-653 419-653 1038z" transform="scale(.01563)"/><path id="NimbusRomNo9L-Regu-68" d="M1005 2222c269 294 461 402 710 402 320 0 480-229 480-676V684c0-434-64-518-435-556V32h1357v96c-346 64-384 115-384 556v1270c0 671-269 1016-787 1016-378 0-647-154-941-538v1958l-32 19c-218-77-378-128-736-230l-173-51v-102c26 6 45 6 77 6 275 0 326-52 326-327V686c0-449-38-507-409-558V32h1382v96c-371 38-435 115-435 556z" transform="scale(.01563)"/><path id="NimbusRomNo9L-Regu-2d" d="M250 1619v-403h1574v403z" transform="scale(.01563)"/><path id="NimbusRomNo9L-Regu-66" d="M1978 2880h-788v731c0 367 122 562 365 562 135 0 224-63 339-246 103-164 180-227 288-227 148 0 269 114 269 259 0 229-281 393-665 393-397 0-736-171-903-461-166-278-217-506-224-1011H134v-205h525V656c0-471-70-547-531-547V0h1664v109c-525 0-595 71-595 552v2014h781z" transform="scale(.01563)"/></defs><use xlink:href="#NimbusRomNo9L-Regu-53" transform="scale(.99626)"/><use xlink:href="#NimbusRomNo9L-Regu-33" transform="matrix(.99626 0 0 .99626 55.392 0)"/><use xlink:href="#NimbusRomNo9L-Regu-48" transform="matrix(.99626 0 0 .99626 130.111 0)"/><use xlink:href="#NimbusRomNo9L-Regu-69" transform="matrix(.99626 0 0 .99626 202.041 0)"/><use xlink:href="#NimbusRomNo9L-Regu-67" transform="matrix(.99626 0 0 .99626 229.737 0)"/><use xlink:href="#NimbusRomNo9L-Regu-68" transform="matrix(.99626 0 0 .99626 279.55 0)"/><use xlink:href="#NimbusRomNo9L-Regu-2d" transform="matrix(.99626 0 0 .99626 329.363 0)"/><use xlink:href="#NimbusRomNo9L-Regu-65" transform="matrix(.99626 0 0 .99626 362.538 0)"/><use xlink:href="#NimbusRomNo9L-Regu-66" transform="matrix(.99626 0 0 .99626 406.772 0)"/><use xlink:href="#NimbusRomNo9L-Regu-66" transform="matrix(.99626 0 0 .99626 437.456 0)"/></g></g><g id="xtick_4"><path id="line2d_10" d="M213.856 164.676V16.084" clip-path="url(#pfdfe844e7e)" style="fill:none;stroke-dasharray:1.85,.8;stroke-dashoffset:0;stroke:#b0b0b0;stroke-opacity:.5;stroke-width:.5"/><use xlink:href="#mdca05102bb" id="line2d_11" x="213.856" y="164.676" style="stroke:#000;stroke-width:.5"/><use xlink:href="#mf2a953a5d9" id="line2d_12" x="213.856" y="16.084" style="stroke:#000;stroke-width:.5"/><g id="text_4" transform="scale(.08 -.08)rotate(45 4274.255 1786.041)"><defs><path id="NimbusRomNo9L-Regu-34" d="M3021 1497h-653v2855h-282L77 1497v-409h1798V32h493v1056h653zm-1152 0H333l1536 2201z" transform="scale(.01563)"/><path id="NimbusRomNo9L-Regu-43" d="m3968 2906-58 1446h-134c-38-134-141-211-269-211-57 0-153 19-249 58-314 102-634 153-935 153-525 0-1056-198-1453-550-448-397-691-992-691-1696 0-595 192-1146 519-1510 384-416 972-660 1606-660 723 0 1357 295 1747 813l-115 115c-474-454-896-646-1427-646-403 0-762 128-1037 371-352 314-550 890-550 1600 0 1159 595 1907 1523 1907 365 0 697-134 953-390 205-205 301-384 423-800z" transform="scale(.01563)"/><path id="NimbusRomNo9L-Regu-6c" d="M122 4000h236c205 0 269-90 269-390V557c0-346-89-429-493-461V0h1511v109c-403 0-480 64-480 419v3843l-26 13c-333-109-576-173-1017-281z" transform="scale(.01563)"/><path id="NimbusRomNo9L-Regu-78" d="M1779 0h1287v96c-199 0-327 102-525 384l-819 1255 531 767c121 173 313 276 518 276v102H1760v-102c192 0 256-38 256-129 0-78-77-219-237-420-32-38-109-154-192-283l-89 128c-180 268-295 486-295 569 0 90 83 135 275 135v102H154v-102h57c192 0 295-83 493-382l602-917L576 422C384 160 320 115 109 96V0h928v96c-179 0-256 32-256 115 0 39 45 135 128 263l505 787 583-896c25-39 38-77 38-115 0-127-45-154-256-154z" transform="scale(.01563)"/></defs><use xlink:href="#NimbusRomNo9L-Regu-53" transform="scale(.99626)"/><use xlink:href="#NimbusRomNo9L-Regu-34" transform="matrix(.99626 0 0 .99626 55.392 0)"/><use xlink:href="#NimbusRomNo9L-Regu-43" transform="matrix(.99626 0 0 .99626 130.111 0)"/><use xlink:href="#NimbusRomNo9L-Regu-6f" transform="matrix(.99626 0 0 .99626 196.562 0)"/><use xlink:href="#NimbusRomNo9L-Regu-6d" transform="matrix(.99626 0 0 .99626 246.375 0)"/><use xlink:href="#NimbusRomNo9L-Regu-70" transform="matrix(.99626 0 0 .99626 323.883 0)"/><use xlink:href="#NimbusRomNo9L-Regu-6c" transform="matrix(.99626 0 0 .99626 373.696 0)"/><use xlink:href="#NimbusRomNo9L-Regu-65" transform="matrix(.99626 0 0 .99626 401.391 0)"/><use xlink:href="#NimbusRomNo9L-Regu-78" transform="matrix(.99626 0 0 .99626 444.132 0)"/></g></g><g id="xtick_5"><path id="line2d_13" d="M266.842 164.676V16.084" clip-path="url(#pfdfe844e7e)" style="fill:none;stroke-dasharray:1.85,.8;stroke-dashoffset:0;stroke:#b0b0b0;stroke-opacity:.5;stroke-width:.5"/><use xlink:href="#mdca05102bb" id="line2d_14" x="266.842" y="164.676" style="stroke:#000;stroke-width:.5"/><use xlink:href="#mf2a953a5d9" id="line2d_15" x="266.842" y="16.084" style="stroke:#000;stroke-width:.5"/><g id="text_5" transform="scale(.08 -.08)rotate(45 4602.65 2588.72)"><defs><path id="NimbusRomNo9L-Regu-35" d="M1158 3776h1255c102 0 128 13 147 58l243 569-57 45c-96-134-160-166-295-166H1114L416 2759c-6-13-6-19-6-32 0-32 25-51 76-51 205 0 461-45 724-129 736-238 1075-637 1075-1273 0-618-391-1101-890-1101-128 0-237 45-429 187-204 148-352 212-486 212-186 0-275-77-275-238C205 90 506-64 986-64c537 0 998 174 1318 502 294 290 429 656 429 1145 0 463-122 759-442 1080-281 284-646 431-1401 566z" transform="scale(.01563)"/><path id="NimbusRomNo9L-Regu-74" d="M1632 2880H986v742c0 64-7 84-45 84-45-58-83-116-128-180-243-352-519-659-621-685-70-47-109-93-109-126 0-20 7-33 26-33h339V751c0-539 192-815 570-815 313 0 556 154 768 487l-84 70c-134-160-243-224-384-224-236 0-332 174-332 578v1835h646z" transform="scale(.01563)"/></defs><use xlink:href="#NimbusRomNo9L-Regu-53" transform="scale(.99626)"/><use xlink:href="#NimbusRomNo9L-Regu-35" transform="matrix(.99626 0 0 .99626 55.392 0)"/><use xlink:href="#NimbusRomNo9L-Regu-43" transform="matrix(.99626 0 0 .99626 130.111 0)"/><use xlink:href="#NimbusRomNo9L-Regu-6f" transform="matrix(.99626 0 0 .99626 196.562 0)"/><use xlink:href="#NimbusRomNo9L-Regu-6d" transform="matrix(.99626 0 0 .99626 246.375 0)"/><use xlink:href="#NimbusRomNo9L-Regu-70" transform="matrix(.99626 0 0 .99626 323.883 0)"/><use xlink:href="#NimbusRomNo9L-Regu-61" transform="matrix(.99626 0 0 .99626 373.696 0)"/><use xlink:href="#NimbusRomNo9L-Regu-63" transform="matrix(.99626 0 0 .99626 417.93 0)"/><use xlink:href="#NimbusRomNo9L-Regu-74" transform="matrix(.99626 0 0 .99626 462.163 0)"/></g></g><g id="xtick_6"><path id="line2d_16" d="M319.827 164.676V16.084" clip-path="url(#pfdfe844e7e)" style="fill:none;stroke-dasharray:1.85,.8;stroke-dashoffset:0;stroke:#b0b0b0;stroke-opacity:.5;stroke-width:.5"/><use xlink:href="#mdca05102bb" id="line2d_17" x="319.827" y="164.676" style="stroke:#000;stroke-width:.5"/><use xlink:href="#mf2a953a5d9" id="line2d_18" x="319.827" y="16.084" style="stroke:#000;stroke-width:.5"/><g id="text_6" transform="scale(.08 -.08)rotate(45 4881.42 3448.614)"><defs><path id="NimbusRomNo9L-Regu-36" d="M2854 4391c-729-64-1100-186-1568-512C595 3386 218 2656 218 1802c0-554 172-1114 448-1432C909 89 1254-64 1651-64c794 0 1344 605 1344 1485 0 815-467 1331-1203 1331-282 0-416-45-819-288 173 967 889 1658 1894 1824zM1549 2458c550 0 870-458 870-1254 0-700-249-1088-697-1088-564 0-909 598-909 1584 0 325 51 503 179 599 134 101 333 159 557 159" transform="scale(.01563)"/></defs><use xlink:href="#NimbusRomNo9L-Regu-53" transform="scale(.99626)"/><use xlink:href="#NimbusRomNo9L-Regu-36" transform="matrix(.99626 0 0 .99626 55.392 0)"/><use xlink:href="#NimbusRomNo9L-Regu-53" transform="matrix(.99626 0 0 .99626 130.111 0)"/><use xlink:href="#NimbusRomNo9L-Regu-69" transform="matrix(.99626 0 0 .99626 185.503 0)"/><use xlink:href="#NimbusRomNo9L-Regu-6d" transform="matrix(.99626 0 0 .99626 213.198 0)"/><use xlink:href="#NimbusRomNo9L-Regu-70" transform="matrix(.99626 0 0 .99626 290.707 0)"/><use xlink:href="#NimbusRomNo9L-Regu-6c" transform="matrix(.99626 0 0 .99626 340.52 0)"/><use xlink:href="#NimbusRomNo9L-Regu-65" transform="matrix(.99626 0 0 .99626 368.215 0)"/></g></g><g id="xtick_7"><g id="line2d_19"><defs><path id="m1657939dce" d="M0 0v-1.5" style="stroke:#000;stroke-width:.5"/></defs><use xlink:href="#m1657939dce" x="33.705" y="164.676" style="stroke:#000;stroke-width:.5"/></g><g id="line2d_20"><defs><path id="me36daa6ede" d="M0 0v1.5" style="stroke:#000;stroke-width:.5"/></defs><use xlink:href="#me36daa6ede" x="33.705" y="16.084" style="stroke:#000;stroke-width:.5"/></g></g><g id="xtick_8"><use xlink:href="#m1657939dce" id="line2d_21" x="44.303" y="164.676" style="stroke:#000;stroke-width:.5"/><use xlink:href="#me36daa6ede" id="line2d_22" x="44.303" y="16.084" style="stroke:#000;stroke-width:.5"/></g><g id="xtick_9"><use xlink:href="#m1657939dce" id="line2d_23" x="65.497" y="164.676" style="stroke:#000;stroke-width:.5"/><use xlink:href="#me36daa6ede" id="line2d_24" x="65.497" y="16.084" style="stroke:#000;stroke-width:.5"/></g><g id="xtick_10"><use xlink:href="#m1657939dce" id="line2d_25" x="76.094" y="164.676" style="stroke:#000;stroke-width:.5"/><use xlink:href="#me36daa6ede" id="line2d_26" x="76.094" y="16.084" style="stroke:#000;stroke-width:.5"/></g><g id="xtick_11"><use xlink:href="#m1657939dce" id="line2d_27" x="86.691" y="164.676" style="stroke:#000;stroke-width:.5"/><use xlink:href="#me36daa6ede" id="line2d_28" x="86.691" y="16.084" style="stroke:#000;stroke-width:.5"/></g><g id="xtick_12"><use xlink:href="#m1657939dce" id="line2d_29" x="97.288" y="164.676" style="stroke:#000;stroke-width:.5"/><use xlink:href="#me36daa6ede" id="line2d_30" x="97.288" y="16.084" style="stroke:#000;stroke-width:.5"/></g><g id="xtick_13"><use xlink:href="#m1657939dce" id="line2d_31" x="118.482" y="164.676" style="stroke:#000;stroke-width:.5"/><use xlink:href="#me36daa6ede" id="line2d_32" x="118.482" y="16.084" style="stroke:#000;stroke-width:.5"/></g><g id="xtick_14"><use xlink:href="#m1657939dce" id="line2d_33" x="129.079" y="164.676" style="stroke:#000;stroke-width:.5"/><use xlink:href="#me36daa6ede" id="line2d_34" x="129.079" y="16.084" style="stroke:#000;stroke-width:.5"/></g><g id="xtick_15"><use xlink:href="#m1657939dce" id="line2d_35" x="139.676" y="164.676" style="stroke:#000;stroke-width:.5"/><use xlink:href="#me36daa6ede" id="line2d_36" x="139.676" y="16.084" style="stroke:#000;stroke-width:.5"/></g><g id="xtick_16"><use xlink:href="#m1657939dce" id="line2d_37" x="150.274" y="164.676" style="stroke:#000;stroke-width:.5"/><use xlink:href="#me36daa6ede" id="line2d_38" x="150.274" y="16.084" style="stroke:#000;stroke-width:.5"/></g><g id="xtick_17"><use xlink:href="#m1657939dce" id="line2d_39" x="171.468" y="164.676" style="stroke:#000;stroke-width:.5"/><use xlink:href="#me36daa6ede" id="line2d_40" x="171.468" y="16.084" style="stroke:#000;stroke-width:.5"/></g><g id="xtick_18"><use xlink:href="#m1657939dce" id="line2d_41" x="182.065" y="164.676" style="stroke:#000;stroke-width:.5"/><use xlink:href="#me36daa6ede" id="line2d_42" x="182.065" y="16.084" style="stroke:#000;stroke-width:.5"/></g><g id="xtick_19"><use xlink:href="#m1657939dce" id="line2d_43" x="192.662" y="164.676" style="stroke:#000;stroke-width:.5"/><use xlink:href="#me36daa6ede" id="line2d_44" x="192.662" y="16.084" style="stroke:#000;stroke-width:.5"/></g><g id="xtick_20"><use xlink:href="#m1657939dce" id="line2d_45" x="203.259" y="164.676" style="stroke:#000;stroke-width:.5"/><use xlink:href="#me36daa6ede" id="line2d_46" x="203.259" y="16.084" style="stroke:#000;stroke-width:.5"/></g><g id="xtick_21"><use xlink:href="#m1657939dce" id="line2d_47" x="224.453" y="164.676" style="stroke:#000;stroke-width:.5"/><use xlink:href="#me36daa6ede" id="line2d_48" x="224.453" y="16.084" style="stroke:#000;stroke-width:.5"/></g><g id="xtick_22"><use xlink:href="#m1657939dce" id="line2d_49" x="235.05" y="164.676" style="stroke:#000;stroke-width:.5"/><use xlink:href="#me36daa6ede" id="line2d_50" x="235.05" y="16.084" style="stroke:#000;stroke-width:.5"/></g><g id="xtick_23"><use xlink:href="#m1657939dce" id="line2d_51" x="245.648" y="164.676" style="stroke:#000;stroke-width:.5"/><use xlink:href="#me36daa6ede" id="line2d_52" x="245.648" y="16.084" style="stroke:#000;stroke-width:.5"/></g><g id="xtick_24"><use xlink:href="#m1657939dce" id="line2d_53" x="256.245" y="164.676" style="stroke:#000;stroke-width:.5"/><use xlink:href="#me36daa6ede" id="line2d_54" x="256.245" y="16.084" style="stroke:#000;stroke-width:.5"/></g><g id="xtick_25"><use xlink:href="#m1657939dce" id="line2d_55" x="277.439" y="164.676" style="stroke:#000;stroke-width:.5"/><use xlink:href="#me36daa6ede" id="line2d_56" x="277.439" y="16.084" style="stroke:#000;stroke-width:.5"/></g><g id="xtick_26"><use xlink:href="#m1657939dce" id="line2d_57" x="288.036" y="164.676" style="stroke:#000;stroke-width:.5"/><use xlink:href="#me36daa6ede" id="line2d_58" x="288.036" y="16.084" style="stroke:#000;stroke-width:.5"/></g><g id="xtick_27"><use xlink:href="#m1657939dce" id="line2d_59" x="298.633" y="164.676" style="stroke:#000;stroke-width:.5"/><use xlink:href="#me36daa6ede" id="line2d_60" x="298.633" y="16.084" style="stroke:#000;stroke-width:.5"/></g><g id="xtick_28"><use xlink:href="#m1657939dce" id="line2d_61" x="309.23" y="164.676" style="stroke:#000;stroke-width:.5"/><use xlink:href="#me36daa6ede" id="line2d_62" x="309.23" y="16.084" style="stroke:#000;stroke-width:.5"/></g><g id="xtick_29"><use xlink:href="#m1657939dce" id="line2d_63" x="330.424" y="164.676" style="stroke:#000;stroke-width:.5"/><use xlink:href="#me36daa6ede" id="line2d_64" x="330.424" y="16.084" style="stroke:#000;stroke-width:.5"/></g><g id="xtick_30"><use xlink:href="#m1657939dce" id="line2d_65" x="341.021" y="164.676" style="stroke:#000;stroke-width:.5"/><use xlink:href="#me36daa6ede" id="line2d_66" x="341.021" y="16.084" style="stroke:#000;stroke-width:.5"/></g></g><g id="matplotlib.axis_2"><g id="ytick_1"><path id="line2d_67" d="M28.407 157.922H346.32" clip-path="url(#pfdfe844e7e)" style="fill:none;stroke-dasharray:1.85,.8;stroke-dashoffset:0;stroke:#b0b0b0;stroke-opacity:.5;stroke-width:.5"/><g id="line2d_68"><defs><path id="m006430c6cd" d="M0 0h3" style="stroke:#000;stroke-width:.5"/></defs><use xlink:href="#m006430c6cd" x="28.407" y="157.922" style="stroke:#000;stroke-width:.5"/></g><g id="line2d_69"><defs><path id="mc49e37200f" d="M0 0h-3" style="stroke:#000;stroke-width:.5"/></defs><use xlink:href="#mc49e37200f" x="346.32" y="157.922" style="stroke:#000;stroke-width:.5"/></g><g id="text_7" transform="matrix(.08 0 0 -.08 14.73 160.624)"><defs><path id="CMMI10-3a" d="M1229 338c0 184-154 337-339 337-186 0-340-153-340-337C550 153 704 0 890 0c185 0 339 153 339 338" transform="scale(.01563)"/><path id="NimbusRomNo9L-Regu-30" d="M1626 4352c-352 0-621-108-858-332-371-359-614-1095-614-1844 0-697 211-1446 512-1804C902 90 1229-64 1600-64c326 0 602 109 832 333 371 352 614 1095 614 1869 0 1312-582 2214-1420 2214m-20-166c538 0 826-723 826-2061 0-1337-282-2022-832-2022S768 788 768 2119c0 1357 288 2067 838 2067" transform="scale(.01563)"/></defs><use xlink:href="#NimbusRomNo9L-Regu-32" transform="scale(.99626)"/><use xlink:href="#CMMI10-3a" transform="matrix(.99626 0 0 .99626 49.813 0)"/><use xlink:href="#NimbusRomNo9L-Regu-30" transform="matrix(.99626 0 0 .99626 77.409 0)"/></g></g><g id="ytick_2"><path id="line2d_70" d="M28.407 130.905H346.32" clip-path="url(#pfdfe844e7e)" style="fill:none;stroke-dasharray:1.85,.8;stroke-dashoffset:0;stroke:#b0b0b0;stroke-opacity:.5;stroke-width:.5"/><use xlink:href="#m006430c6cd" id="line2d_71" x="28.407" y="130.905" style="stroke:#000;stroke-width:.5"/><use xlink:href="#mc49e37200f" id="line2d_72" x="346.32" y="130.905" style="stroke:#000;stroke-width:.5"/><g id="text_8" transform="matrix(.08 0 0 -.08 14.73 133.607)"><use xlink:href="#NimbusRomNo9L-Regu-32" transform="scale(.99626)"/><use xlink:href="#CMMI10-3a" transform="matrix(.99626 0 0 .99626 49.813 0)"/><use xlink:href="#NimbusRomNo9L-Regu-32" transform="matrix(.99626 0 0 .99626 77.409 0)"/></g></g><g id="ytick_3"><path id="line2d_73" d="M28.407 103.889H346.32" clip-path="url(#pfdfe844e7e)" style="fill:none;stroke-dasharray:1.85,.8;stroke-dashoffset:0;stroke:#b0b0b0;stroke-opacity:.5;stroke-width:.5"/><use xlink:href="#m006430c6cd" id="line2d_74" x="28.407" y="103.889" style="stroke:#000;stroke-width:.5"/><use xlink:href="#mc49e37200f" id="line2d_75" x="346.32" y="103.889" style="stroke:#000;stroke-width:.5"/><g id="text_9" transform="matrix(.08 0 0 -.08 14.73 106.59)"><use xlink:href="#NimbusRomNo9L-Regu-32" transform="scale(.99626)"/><use xlink:href="#CMMI10-3a" transform="matrix(.99626 0 0 .99626 49.813 0)"/><use xlink:href="#NimbusRomNo9L-Regu-34" transform="matrix(.99626 0 0 .99626 77.409 0)"/></g></g><g id="ytick_4"><path id="line2d_76" d="M28.407 76.872H346.32" clip-path="url(#pfdfe844e7e)" style="fill:none;stroke-dasharray:1.85,.8;stroke-dashoffset:0;stroke:#b0b0b0;stroke-opacity:.5;stroke-width:.5"/><use xlink:href="#m006430c6cd" id="line2d_77" x="28.407" y="76.872" style="stroke:#000;stroke-width:.5"/><use xlink:href="#mc49e37200f" id="line2d_78" x="346.32" y="76.872" style="stroke:#000;stroke-width:.5"/><g id="text_10" transform="matrix(.08 0 0 -.08 14.73 79.574)"><use xlink:href="#NimbusRomNo9L-Regu-32" transform="scale(.99626)"/><use xlink:href="#CMMI10-3a" transform="matrix(.99626 0 0 .99626 49.813 0)"/><use xlink:href="#NimbusRomNo9L-Regu-36" transform="matrix(.99626 0 0 .99626 77.409 0)"/></g></g><g id="ytick_5"><path id="line2d_79" d="M28.407 49.855H346.32" clip-path="url(#pfdfe844e7e)" style="fill:none;stroke-dasharray:1.85,.8;stroke-dashoffset:0;stroke:#b0b0b0;stroke-opacity:.5;stroke-width:.5"/><use xlink:href="#m006430c6cd" id="line2d_80" x="28.407" y="49.855" style="stroke:#000;stroke-width:.5"/><use xlink:href="#mc49e37200f" id="line2d_81" x="346.32" y="49.855" style="stroke:#000;stroke-width:.5"/><g id="text_11" transform="matrix(.08 0 0 -.08 14.73 52.557)"><defs><path id="NimbusRomNo9L-Regu-38" d="M1856 2400c634 340 858 608 858 1044 0 524-461 908-1101 908-698 0-1216-428-1216-1011 0-416 121-601 793-1190-691-525-832-723-832-1159C358 372 864-64 1587-64c768 0 1261 423 1261 1082 0 493-218 806-992 1382m-115-659c467-333 621-563 621-921 0-416-288-704-704-704-487 0-813 371-813 928 0 409 141 678 512 979zm-71 775c-569 371-800 665-800 1024 0 371 288 633 692 633 435 0 710-281 710-723 0-365-179-653-544-896-32-19-32-19-58-38" transform="scale(.01563)"/></defs><use xlink:href="#NimbusRomNo9L-Regu-32" transform="scale(.99626)"/><use xlink:href="#CMMI10-3a" transform="matrix(.99626 0 0 .99626 49.813 0)"/><use xlink:href="#NimbusRomNo9L-Regu-38" transform="matrix(.99626 0 0 .99626 77.409 0)"/></g></g><g id="ytick_6"><path id="line2d_82" d="M28.407 22.839H346.32" clip-path="url(#pfdfe844e7e)" style="fill:none;stroke-dasharray:1.85,.8;stroke-dashoffset:0;stroke:#b0b0b0;stroke-opacity:.5;stroke-width:.5"/><use xlink:href="#m006430c6cd" id="line2d_83" x="28.407" y="22.839" style="stroke:#000;stroke-width:.5"/><use xlink:href="#mc49e37200f" id="line2d_84" x="346.32" y="22.839" style="stroke:#000;stroke-width:.5"/><g id="text_12" transform="matrix(.08 0 0 -.08 14.73 25.54)"><use xlink:href="#NimbusRomNo9L-Regu-33" transform="scale(.99626)"/><use xlink:href="#CMMI10-3a" transform="matrix(.99626 0 0 .99626 49.813 0)"/><use xlink:href="#NimbusRomNo9L-Regu-30" transform="matrix(.99626 0 0 .99626 77.409 0)"/></g></g><g id="ytick_7"><g id="line2d_85"><defs><path id="mf06671a056" d="M0 0h1.5" style="stroke:#000;stroke-width:.5"/></defs><use xlink:href="#mf06671a056" x="28.407" y="164.676" style="stroke:#000;stroke-width:.5"/></g><g id="line2d_86"><defs><path id="m190dbc6dd7" d="M0 0h-1.5" style="stroke:#000;stroke-width:.5"/></defs><use xlink:href="#m190dbc6dd7" x="346.32" y="164.676" style="stroke:#000;stroke-width:.5"/></g></g><g id="ytick_8"><use xlink:href="#mf06671a056" id="line2d_87" x="28.407" y="151.168" style="stroke:#000;stroke-width:.5"/><use xlink:href="#m190dbc6dd7" id="line2d_88" x="346.32" y="151.168" style="stroke:#000;stroke-width:.5"/></g><g id="ytick_9"><use xlink:href="#mf06671a056" id="line2d_89" x="28.407" y="144.414" style="stroke:#000;stroke-width:.5"/><use xlink:href="#m190dbc6dd7" id="line2d_90" x="346.32" y="144.414" style="stroke:#000;stroke-width:.5"/></g><g id="ytick_10"><use xlink:href="#mf06671a056" id="line2d_91" x="28.407" y="137.659" style="stroke:#000;stroke-width:.5"/><use xlink:href="#m190dbc6dd7" id="line2d_92" x="346.32" y="137.659" style="stroke:#000;stroke-width:.5"/></g><g id="ytick_11"><use xlink:href="#mf06671a056" id="line2d_93" x="28.407" y="124.151" style="stroke:#000;stroke-width:.5"/><use xlink:href="#m190dbc6dd7" id="line2d_94" x="346.32" y="124.151" style="stroke:#000;stroke-width:.5"/></g><g id="ytick_12"><use xlink:href="#mf06671a056" id="line2d_95" x="28.407" y="117.397" style="stroke:#000;stroke-width:.5"/><use xlink:href="#m190dbc6dd7" id="line2d_96" x="346.32" y="117.397" style="stroke:#000;stroke-width:.5"/></g><g id="ytick_13"><use xlink:href="#mf06671a056" id="line2d_97" x="28.407" y="110.643" style="stroke:#000;stroke-width:.5"/><use xlink:href="#m190dbc6dd7" id="line2d_98" x="346.32" y="110.643" style="stroke:#000;stroke-width:.5"/></g><g id="ytick_14"><use xlink:href="#mf06671a056" id="line2d_99" x="28.407" y="97.134" style="stroke:#000;stroke-width:.5"/><use xlink:href="#m190dbc6dd7" id="line2d_100" x="346.32" y="97.134" style="stroke:#000;stroke-width:.5"/></g><g id="ytick_15"><use xlink:href="#mf06671a056" id="line2d_101" x="28.407" y="90.38" style="stroke:#000;stroke-width:.5"/><use xlink:href="#m190dbc6dd7" id="line2d_102" x="346.32" y="90.38" style="stroke:#000;stroke-width:.5"/></g><g id="ytick_16"><use xlink:href="#mf06671a056" id="line2d_103" x="28.407" y="83.626" style="stroke:#000;stroke-width:.5"/><use xlink:href="#m190dbc6dd7" id="line2d_104" x="346.32" y="83.626" style="stroke:#000;stroke-width:.5"/></g><g id="ytick_17"><use xlink:href="#mf06671a056" id="line2d_105" x="28.407" y="70.118" style="stroke:#000;stroke-width:.5"/><use xlink:href="#m190dbc6dd7" id="line2d_106" x="346.32" y="70.118" style="stroke:#000;stroke-width:.5"/></g><g id="ytick_18"><use xlink:href="#mf06671a056" id="line2d_107" x="28.407" y="63.364" style="stroke:#000;stroke-width:.5"/><use xlink:href="#m190dbc6dd7" id="line2d_108" x="346.32" y="63.364" style="stroke:#000;stroke-width:.5"/></g><g id="ytick_19"><use xlink:href="#mf06671a056" id="line2d_109" x="28.407" y="56.609" style="stroke:#000;stroke-width:.5"/><use xlink:href="#m190dbc6dd7" id="line2d_110" x="346.32" y="56.609" style="stroke:#000;stroke-width:.5"/></g><g id="ytick_20"><use xlink:href="#mf06671a056" id="line2d_111" x="28.407" y="43.101" style="stroke:#000;stroke-width:.5"/><use xlink:href="#m190dbc6dd7" id="line2d_112" x="346.32" y="43.101" style="stroke:#000;stroke-width:.5"/></g><g id="ytick_21"><use xlink:href="#mf06671a056" id="line2d_113" x="28.407" y="36.347" style="stroke:#000;stroke-width:.5"/><use xlink:href="#m190dbc6dd7" id="line2d_114" x="346.32" y="36.347" style="stroke:#000;stroke-width:.5"/></g><g id="ytick_22"><use xlink:href="#mf06671a056" id="line2d_115" x="28.407" y="29.593" style="stroke:#000;stroke-width:.5"/><use xlink:href="#m190dbc6dd7" id="line2d_116" x="346.32" y="29.593" style="stroke:#000;stroke-width:.5"/></g><g id="ytick_23"><use xlink:href="#mf06671a056" id="line2d_117" x="28.407" y="16.084" style="stroke:#000;stroke-width:.5"/><use xlink:href="#m190dbc6dd7" id="line2d_118" x="346.32" y="16.084" style="stroke:#000;stroke-width:.5"/></g><g id="text_13" transform="matrix(0 -.08 -.08 0 9.004 118.598)"><defs><path id="NimbusRomNo9L-Regu-4e" d="M3917-64v3351c0 382 64 618 185 700 90 64 180 90 423 115v122H3021v-122c243-19 333-45 429-102 128-89 185-319 185-714V1136L1171 4224H77v-122c275 0 365-51 621-351V938c0-657-90-779-621-817V0h1504v134c-493 0-602 147-602 794v2511L3808-64z" transform="scale(.01563)"/><path id="NimbusRomNo9L-Regu-7a" d="m2675 864-115 26c-64-320-102-423-186-532-89-108-307-166-633-166H858l1721 2592v96H358l-19-755h115c58 467 154 563 538 563h883L173 96V0h2413z" transform="scale(.01563)"/></defs><use xlink:href="#NimbusRomNo9L-Regu-4e" transform="scale(.99626)"/><use xlink:href="#NimbusRomNo9L-Regu-6f" transform="matrix(.99626 0 0 .99626 71.93 0)"/><use xlink:href="#NimbusRomNo9L-Regu-72" transform="matrix(.99626 0 0 .99626 121.743 0)"/><use xlink:href="#NimbusRomNo9L-Regu-6d" transform="matrix(.99626 0 0 .99626 154.918 0)"/><use xlink:href="#NimbusRomNo9L-Regu-61" transform="matrix(.99626 0 0 .99626 232.427 0)"/><use xlink:href="#NimbusRomNo9L-Regu-6c" transform="matrix(.99626 0 0 .99626 276.66 0)"/><use xlink:href="#NimbusRomNo9L-Regu-69" transform="matrix(.99626 0 0 .99626 304.356 0)"/><use xlink:href="#NimbusRomNo9L-Regu-7a" transform="matrix(.99626 0 0 .99626 332.05 0)"/><use xlink:href="#NimbusRomNo9L-Regu-65" transform="matrix(.99626 0 0 .99626 376.284 0)"/><use xlink:href="#NimbusRomNo9L-Regu-64" transform="matrix(.99626 0 0 .99626 420.518 0)"/><use xlink:href="#NimbusRomNo9L-Regu-73" transform="matrix(.99626 0 0 .99626 495.238 0)"/><use xlink:href="#NimbusRomNo9L-Regu-63" transform="matrix(.99626 0 0 .99626 533.991 0)"/><use xlink:href="#NimbusRomNo9L-Regu-6f" transform="matrix(.99626 0 0 .99626 578.225 0)"/><use xlink:href="#NimbusRomNo9L-Regu-72" transform="matrix(.99626 0 0 .99626 628.038 0)"/><use xlink:href="#NimbusRomNo9L-Regu-65" transform="matrix(.99626 0 0 .99626 661.213 0)"/></g></g><path id="line2d_119" d="M41.653 149.817h26.493v-16.885H41.653v16.885" clip-path="url(#pfdfe844e7e)" style="fill:none;stroke:#000;stroke-linecap:square"/><path id="line2d_120" d="M54.9 149.817h0" clip-path="url(#pfdfe844e7e)" style="fill:none;stroke:#000;stroke-linecap:square"/><path id="line2d_121" d="M54.9 132.932v-14.184" clip-path="url(#pfdfe844e7e)" style="fill:none;stroke:#000;stroke-linecap:square"/><path id="line2d_122" d="M48.276 149.817h13.247" clip-path="url(#pfdfe844e7e)" style="fill:none;stroke:#000;stroke-linecap:square"/><path id="line2d_123" d="M48.276 118.748h13.247" clip-path="url(#pfdfe844e7e)" style="fill:none;stroke:#000;stroke-linecap:square"/><path id="line2d_125" d="M94.639 96.459h26.493V78.223H94.639v18.236" clip-path="url(#pfdfe844e7e)" style="fill:none;stroke:#000;stroke-linecap:square"/><path id="line2d_126" d="M107.885 96.459v8.78" clip-path="url(#pfdfe844e7e)" style="fill:none;stroke:#000;stroke-linecap:square"/><path id="line2d_127" d="M107.885 78.223v-16.21" clip-path="url(#pfdfe844e7e)" style="fill:none;stroke:#000;stroke-linecap:square"/><path id="line2d_128" d="M101.262 105.24h13.246" clip-path="url(#pfdfe844e7e)" style="fill:none;stroke:#000;stroke-linecap:square"/><path id="line2d_129" d="M101.262 62.013h13.246" clip-path="url(#pfdfe844e7e)" style="fill:none;stroke:#000;stroke-linecap:square"/><path id="line2d_131" d="M147.624 105.24h26.493v-2.702h-26.493v2.701" clip-path="url(#pfdfe844e7e)" style="fill:none;stroke:#000;stroke-linecap:square"/><path id="line2d_132" d="M160.87 105.24v1.35" clip-path="url(#pfdfe844e7e)" style="fill:none;stroke:#000;stroke-linecap:square"/><path id="line2d_133" d="M160.87 102.538v-4.053" clip-path="url(#pfdfe844e7e)" style="fill:none;stroke:#000;stroke-linecap:square"/><path id="line2d_134" d="M154.247 106.59h13.247" clip-path="url(#pfdfe844e7e)" style="fill:none;stroke:#000;stroke-linecap:square"/><path id="line2d_135" d="M154.247 98.485h13.247" clip-path="url(#pfdfe844e7e)" style="fill:none;stroke:#000;stroke-linecap:square"/><g id="line2d_136"><defs><path id="m3e29ea55f6" d="M0 3a3 3 0 1 0 0-6 3 3 0 0 0 0 6z" style="stroke:#000"/></defs><g clip-path="url(#pfdfe844e7e)"><use xlink:href="#m3e29ea55f6" x="160.871" y="120.099" style="fill-opacity:0;stroke:#000"/></g></g><path id="line2d_137" d="M200.61 54.583h26.493V34.996H200.61v19.587" clip-path="url(#pfdfe844e7e)" style="fill:none;stroke:#000;stroke-linecap:square"/><path id="line2d_138" d="M213.856 54.583v8.78" clip-path="url(#pfdfe844e7e)" style="fill:none;stroke:#000;stroke-linecap:square"/><path id="line2d_139" d="M213.856 34.996V22.84" clip-path="url(#pfdfe844e7e)" style="fill:none;stroke:#000;stroke-linecap:square"/><path id="line2d_140" d="M207.233 63.364h13.246" clip-path="url(#pfdfe844e7e)" style="fill:none;stroke:#000;stroke-linecap:square"/><path id="line2d_141" d="M207.233 22.839h13.246" clip-path="url(#pfdfe844e7e)" style="fill:none;stroke:#000;stroke-linecap:square"/><path id="line2d_143" d="M253.595 39.049h26.493V26.89h-26.493V39.05" clip-path="url(#pfdfe844e7e)" style="fill:none;stroke:#000;stroke-linecap:square"/><path id="line2d_144" d="M266.842 39.049v6.754" clip-path="url(#pfdfe844e7e)" style="fill:none;stroke:#000;stroke-linecap:square"/><path id="line2d_145" d="M266.842 26.891V22.84" clip-path="url(#pfdfe844e7e)" style="fill:none;stroke:#000;stroke-linecap:square"/><path id="line2d_146" d="M260.219 45.803h13.246" clip-path="url(#pfdfe844e7e)" style="fill:none;stroke:#000;stroke-linecap:square"/><path id="line2d_147" d="M260.219 22.839h13.246" clip-path="url(#pfdfe844e7e)" style="fill:none;stroke:#000;stroke-linecap:square"/><path id="line2d_149" d="M306.58 142.387h26.494v-8.78H306.58v8.78" clip-path="url(#pfdfe844e7e)" style="fill:none;stroke:#000;stroke-linecap:square"/><path id="line2d_150" d="M319.827 142.387v.676" clip-path="url(#pfdfe844e7e)" style="fill:none;stroke:#000;stroke-linecap:square"/><path id="line2d_151" d="M319.827 133.607v-1.35" clip-path="url(#pfdfe844e7e)" style="fill:none;stroke:#000;stroke-linecap:square"/><path id="line2d_152" d="M313.204 143.063h13.246" clip-path="url(#pfdfe844e7e)" style="fill:none;stroke:#000;stroke-linecap:square"/><path id="line2d_153" d="M313.204 132.256h13.246" clip-path="url(#pfdfe844e7e)" style="fill:none;stroke:#000;stroke-linecap:square"/><g id="line2d_154" clip-path="url(#pfdfe844e7e)"><use xlink:href="#m3e29ea55f6" x="319.827" y="157.922" style="fill-opacity:0;stroke:#000"/></g><path id="line2d_155" d="M41.653 143.063h26.493" clip-path="url(#pfdfe844e7e)" style="fill:none;stroke:#00f"/><path id="line2d_156" d="M94.639 90.38h26.493" clip-path="url(#pfdfe844e7e)" style="fill:none;stroke:#00f"/><path id="line2d_157" d="M147.624 102.538h26.493" clip-path="url(#pfdfe844e7e)" style="fill:none;stroke:#00f"/><path id="line2d_158" d="M200.61 47.154h26.493" clip-path="url(#pfdfe844e7e)" style="fill:none;stroke:#00f"/><path id="line2d_159" d="M253.595 39.049h26.493" clip-path="url(#pfdfe844e7e)" style="fill:none;stroke:#00f"/><path id="line2d_160" d="M306.58 137.66h26.494" clip-path="url(#pfdfe844e7e)" style="fill:none;stroke:#00f"/><path id="patch_3" d="M28.407 164.676V16.084" style="fill:none;stroke:#000;stroke-width:.5;stroke-linejoin:miter;stroke-linecap:square"/><path id="patch_4" d="M346.32 164.676V16.084" style="fill:none;stroke:#000;stroke-width:.5;stroke-linejoin:miter;stroke-linecap:square"/><path id="patch_5" d="M28.407 164.676H346.32" style="fill:none;stroke:#000;stroke-width:.5;stroke-linejoin:miter;stroke-linecap:square"/><path id="patch_6" d="M28.407 16.084H346.32" style="fill:none;stroke:#000;stroke-width:.5;stroke-linejoin:miter;stroke-linecap:square"/><g id="text_14" transform="matrix(.096 0 0 -.096 145.33 10.084)"><defs><path id="NimbusRomNo9L-Regu-79" d="M3040 2880h-864v-96c205 0 307-58 307-161 0-26-6-64-25-109L1837 742l-736 1635c-39 91-64 175-64 245 0 117 96 162 371 162v96H90v-90c166-25 275-96 326-205l730-1580 19-52 96-192c179-321 281-552 281-649 0-96-147-501-256-694-89-167-230-289-320-289-38 0-96 13-160 45-121 45-230 71-339 71-147 0-275-128-275-282 0-211 205-371 474-371 428 0 736 359 1081 1284l986 2619c83 206 153 270 307 289z" transform="scale(.01563)"/><path id="NimbusRomNo9L-Regu-6e" d="M102 2579c39 19 103 26 173 26 179 0 237-96 237-410V608c0-365-70-454-397-480V32h1357v96c-326 26-422 102-422 333v1798c307 288 448 365 659 365 313 0 467-198 467-621V666c0-404-83-512-403-538V32h1331v96c-314 32-390 109-390 422v1466c0 602-282 960-756 960-294 0-492-109-928-518v505l-44 13c-314-115-532-186-884-288z" transform="scale(.01563)"/></defs><use xlink:href="#NimbusRomNo9L-Regu-43" transform="scale(.99626)"/><use xlink:href="#NimbusRomNo9L-Regu-61" transform="matrix(.99626 0 0 .99626 66.45 0)"/><use xlink:href="#NimbusRomNo9L-Regu-74" transform="matrix(.99626 0 0 .99626 110.684 0)"/><use xlink:href="#NimbusRomNo9L-Regu-65" transform="matrix(.99626 0 0 .99626 138.379 0)"/><use xlink:href="#NimbusRomNo9L-Regu-67" transform="matrix(.99626 0 0 .99626 181.119 0)"/><use xlink:href="#NimbusRomNo9L-Regu-6f" transform="matrix(.99626 0 0 .99626 230.932 0)"/><use xlink:href="#NimbusRomNo9L-Regu-72" transform="matrix(.99626 0 0 .99626 280.745 0)"/><use xlink:href="#NimbusRomNo9L-Regu-79" transform="matrix(.99626 0 0 .99626 313.92 0)"/><use xlink:href="#NimbusRomNo9L-Regu-43" transform="matrix(.99626 0 0 .99626 388.64 0)"/><use xlink:href="#NimbusRomNo9L-Regu-6f" transform="matrix(.99626 0 0 .99626 455.09 0)"/><use xlink:href="#NimbusRomNo9L-Regu-6d" transform="matrix(.99626 0 0 .99626 504.904 0)"/><use xlink:href="#NimbusRomNo9L-Regu-70" transform="matrix(.99626 0 0 .99626 582.412 0)"/><use xlink:href="#NimbusRomNo9L-Regu-61" transform="matrix(.99626 0 0 .99626 632.225 0)"/><use xlink:href="#NimbusRomNo9L-Regu-72" transform="matrix(.99626 0 0 .99626 676.459 0)"/><use xlink:href="#NimbusRomNo9L-Regu-69" transform="matrix(.99626 0 0 .99626 709.634 0)"/><use xlink:href="#NimbusRomNo9L-Regu-73" transform="matrix(.99626 0 0 .99626 737.33 0)"/><use xlink:href="#NimbusRomNo9L-Regu-6f" transform="matrix(.99626 0 0 .99626 776.083 0)"/><use xlink:href="#NimbusRomNo9L-Regu-6e" transform="matrix(.99626 0 0 .99626 825.896 0)"/></g></g></g><defs><clipPath id="pfdfe844e7e"><path d="M28.407 16.084H346.32v148.592H28.407z"/></clipPath></defs></svg>