<svg xmlns="http://www.w3.org/2000/svg" xmlns:xlink="http://www.w3.org/1999/xlink" xml:space="preserve" id="svg575" width="669.279" height="404.598" version="1.1" viewBox="0 0 501.959 303.448"><defs id="defs1"><style id="style1" type="text/css">*{stroke-linejoin:round;stroke-linecap:butt}</style></defs><g id="figure_1" transform="translate(-40.92 -282.445)"><g id="axes_1" style="stroke-width:1.22912" transform="matrix(.8136 0 0 .8136 683.231 43.826)"><g id="patch_2" style="stroke-width:1.28731" transform="scale(.9548)rotate(42.122 -475.955 -496.79)"><path id="path2" d="M184.214 153.485a115.702 115.702 0 1 0 115.354 106.737l-115.354 8.964z" style="fill:#e41a1c;stroke:#000;stroke-width:1.28731;stroke-linejoin:miter"/></g><g id="patch_3" style="stroke-width:1.28731" transform="scale(.9548)rotate(42.122 -475.955 -496.79)"><path id="path3" d="M299.568 260.222a115.7 115.7 0 0 0-26.326-64.933l-89.028 73.897z" style="fill:#377eb8;stroke:#000;stroke-width:1.28731;stroke-linejoin:miter"/></g><g id="patch_4" style="stroke-width:1.28731" transform="scale(.9548)rotate(42.122 -475.955 -496.79)"><path id="path4" d="M273.242 195.289a115.7 115.7 0 0 0-89.028-41.804v115.701z" style="fill:#4daf4a;stroke:#000;stroke-width:1.28731;stroke-linejoin:miter"/></g><g id="text_1" style="fill:#e41a1c;fill-opacity:1;stroke-width:1.12286" transform="matrix(1.09464 0 0 1.09464 -662.478 183.192)"><g id="g20" style="fill:#e41a1c;fill-opacity:1;stroke-width:1.12286" transform="matrix(.08 0 0 -.08 -55.175 201.484)"><defs id="defs4"><path id="NimbusRomNo9L-Regu-43" d="m3968 2906-58 1446h-134c-38-134-141-211-269-211-57 0-153 19-249 58-314 102-634 153-935 153-525 0-1056-198-1453-550-448-397-691-992-691-1696 0-595 192-1146 519-1510 384-416 972-660 1606-660 723 0 1357 295 1747 813l-115 115c-474-454-896-646-1427-646-403 0-762 128-1037 371-352 314-550 890-550 1600 0 1159 595 1907 1523 1907 365 0 697-134 953-390 205-205 301-384 423-800z" transform="scale(.01563)"/><path id="NimbusRomNo9L-Regu-72" d="M45 2496c89 19 147 26 224 26 160 0 217-103 217-384V538c0-320-44-365-454-442V0h1536v102c-435 0-544 97-544 463v1448c0 206 275 528 448 528 38 0 96-32 166-96 103-90 173-128 256-128 154 0 250 109 250 288 0 211-134 339-352 339-269 0-454-147-768-601v588l-32 13c-339-141-570-223-947-345Z" transform="scale(.01563)"/><path id="NimbusRomNo9L-Regu-6f" d="M1600 2944c-832 0-1414-614-1414-1498C186 582 781-64 1587-64c807 0 1421 678 1421 1562 0 838-589 1446-1408 1446m-83-179c537 0 915-615 915-1491 0-724-288-1159-768-1159-250 0-486 154-621 410-179 333-281 781-281 1235 0 608 300 1005 755 1005" transform="scale(.01563)"/><path id="NimbusRomNo9L-Regu-70" d="M58 2516c57 6 102 6 160 6 217 0 262-64 262-367V-855c0-334-70-406-448-444v-109h1549v115c-480 0-563 71-563 477V199c224-212 377-276 646-276 755 0 1344 720 1344 1652 0 797-448 1369-1069 1369-358 0-640-160-921-506v493l-39 13c-345-134-569-218-921-326Zm960-380c0 193 358 424 652 424 474 0 788-489 788-1236 0-713-314-1196-775-1196-301 0-665 231-665 424z" transform="scale(.01563)"/><path id="NimbusRomNo9L-Regu-73" d="m2016 2010-26 870h-70l-13-13c-57-45-64-51-89-51-39 0-103 13-173 45-141 54-282 83-448 83-506 0-871-328-871-790 0-358 205-615 749-923l371-211c224-128 333-283 333-481 0-283-205-462-531-462-218 0-416 82-538 221-134 157-192 302-275 662H333V-39h83c45 72 70 87 147 87 58 0 147-13 295-50 179-37 352-62 467-62 493 0 902 372 902 821 0 320-153 532-537 763l-692 410c-179 103-275 264-275 437 0 257 199 436 493 436 365 0 557-220 704-793z" transform="scale(.01563)"/><path id="NimbusRomNo9L-Regu-26" d="M4550 2749H3168v-135c320-32 410-96 410-288 0-276-173-622-583-1167-358 443-563 769-845 1321 436 204 596 314 775 513 134 147 217 372 217 583 0 455-358 776-864 776-550 0-985-436-985-987 0-244 51-449 224-930l-243-141C595 1903 269 1448 269 910c0-609 416-974 1094-974 519 0 903 160 1383 582 403-416 716-582 1088-582 409 0 774 269 966 723l-96 71c-205-257-346-340-576-340-358 0-691 199-986 590 282 378 442 615 640 961l167 295c153 263 281 340 601 378zm-2496-61c-192 404-256 647-256 935 0 307 199 525 493 525 295 0 512-231 512-544 0-359-224-634-749-916m-441-474c384-729 608-1081 973-1529-378-301-634-416-903-416-448 0-825 409-825 902 0 410 198 685 755 1043" transform="scale(.01563)"/><path id="NimbusRomNo9L-Regu-75" d="M3066 320h-32c-295 0-365 70-365 365v2195H1658v-122c396 0 473-64 473-383V875c0-178-32-268-121-338-173-140-372-217-564-217-249 0-454 217-454 485v2075H58v-102c307 0 396-96 396-391V770c0-507 308-834 775-834 237 0 486 102 659 275l275 275V-45l26-13c320 128 550 199 877 288z" transform="scale(.01563)"/><path id="NimbusRomNo9L-Regu-6c" d="M122 4000h236c205 0 269-90 269-390V557c0-346-89-429-493-461V0h1511v109c-403 0-480 64-480 419v3843l-26 13c-333-109-576-173-1017-281Z" transform="scale(.01563)"/><path id="NimbusRomNo9L-Regu-74" d="M1632 2880H986v742c0 64-7 84-45 84-45-58-83-116-128-180-243-352-519-659-621-685-70-47-109-93-109-126 0-20 7-33 26-33h339V751c0-539 192-815 570-815 313 0 556 154 768 487l-84 70c-134-160-243-224-384-224-236 0-332 174-332 578v1835h646z" transform="scale(.01563)"/><path id="NimbusRomNo9L-Regu-69" d="m1120 2929-992-350v-95l51 6c77 12 160 19 218 19 153 0 211-103 211-384V640c0-461-64-531-506-531V0h1517v96c-422 32-473 95-473 554v2260ZM819 4352c-173 0-320-147-320-326s141-327 320-327c186 0 333 141 333 327 0 179-147 326-333 326" transform="scale(.01563)"/><path id="NimbusRomNo9L-Regu-76" d="M3053 2854h-890v-96c205-19 301-83 301-206 0-64-13-128-38-193L1792 695l-653 1645c-38 91-57 180-57 238 0 116 70 161 294 180v96H122v-102c243 0 288-64 582-728l768-1849c13-38 32-84 51-135 39-116 77-168 115-168 39 0 84 84 180 321l819 2064c185 437 224 482 416 501z" transform="scale(.01563)"/><path id="NimbusRomNo9L-Regu-61" d="M2829 423c-109-90-186-122-282-122-147 0-192 89-192 371v1248c0 333-32 518-128 672-141 230-416 352-793 352-602 0-1076-314-1076-717 0-147 128-275 276-275 153 0 288 128 288 269 0 25-7 57-13 102-13 58-19 109-19 154 0 173 204 313 460 313 314 0 487-185 487-531v-390c-986-397-1095-448-1370-691-141-128-230-346-230-557 0-403 281-685 672-685 281 0 544 134 934 467 32-333 147-467 410-467 217 0 352 77 576 320zm-992 360c0-199-32-257-167-334-153-90-332-148-467-148-224 0-403 219-403 495v26c0 379 262 611 1037 893z" transform="scale(.01563)"/><path id="NimbusRomNo9L-Regu-6e" d="M102 2579c39 19 103 26 173 26 179 0 237-96 237-410V608c0-365-70-454-397-480V32h1357v96c-326 26-422 102-422 333v1798c307 288 448 365 659 365 313 0 467-198 467-621V666c0-404-83-512-403-538V32h1331v96c-314 32-390 109-390 422v1466c0 602-282 960-756 960-294 0-492-109-928-518v505l-44 13c-314-115-532-186-884-288Z" transform="scale(.01563)"/></defs><use xlink:href="#NimbusRomNo9L-Regu-43" id="use4" style="fill:#e41a1c;fill-opacity:1;stroke-width:1.12286" transform="scale(.99626)"/><use xlink:href="#NimbusRomNo9L-Regu-72" id="use5" style="fill:#e41a1c;fill-opacity:1;stroke-width:1.12286" transform="matrix(.99626 0 0 .99626 66.45 0)"/><use xlink:href="#NimbusRomNo9L-Regu-6f" id="use6" style="fill:#e41a1c;fill-opacity:1;stroke-width:1.12286" transform="matrix(.99626 0 0 .99626 99.625 0)"/><use xlink:href="#NimbusRomNo9L-Regu-70" id="use7" style="fill:#e41a1c;fill-opacity:1;stroke-width:1.12286" transform="matrix(.99626 0 0 .99626 149.438 0)"/><use xlink:href="#NimbusRomNo9L-Regu-73" id="use8" style="fill:#e41a1c;fill-opacity:1;stroke-width:1.12286" transform="matrix(.99626 0 0 .99626 199.252 0)"/><use xlink:href="#NimbusRomNo9L-Regu-26" id="use9" style="fill:#e41a1c;fill-opacity:1;stroke-width:1.12286" transform="matrix(.99626 0 0 .99626 262.912 0)"/><use xlink:href="#NimbusRomNo9L-Regu-43" id="use10" style="fill:#e41a1c;fill-opacity:1;stroke-width:1.12286" transform="matrix(.99626 0 0 .99626 365.327 0)"/><use xlink:href="#NimbusRomNo9L-Regu-75" id="use11" style="fill:#e41a1c;fill-opacity:1;stroke-width:1.12286" transform="matrix(.99626 0 0 .99626 431.777 0)"/><use xlink:href="#NimbusRomNo9L-Regu-6c" id="use12" style="fill:#e41a1c;fill-opacity:1;stroke-width:1.12286" transform="matrix(.99626 0 0 .99626 481.59 0)"/><use xlink:href="#NimbusRomNo9L-Regu-74" id="use13" style="fill:#e41a1c;fill-opacity:1;stroke-width:1.12286" transform="matrix(.99626 0 0 .99626 509.285 0)"/><use xlink:href="#NimbusRomNo9L-Regu-69" id="use14" style="fill:#e41a1c;fill-opacity:1;stroke-width:1.12286" transform="matrix(.99626 0 0 .99626 536.98 0)"/><use xlink:href="#NimbusRomNo9L-Regu-76" id="use15" style="fill:#e41a1c;fill-opacity:1;stroke-width:1.12286" transform="matrix(.99626 0 0 .99626 562.185 0)"/><use xlink:href="#NimbusRomNo9L-Regu-61" id="use16" style="fill:#e41a1c;fill-opacity:1;stroke-width:1.12286" transform="matrix(.99626 0 0 .99626 609.508 0)"/><use xlink:href="#NimbusRomNo9L-Regu-74" id="use17" style="fill:#e41a1c;fill-opacity:1;stroke-width:1.12286" transform="matrix(.99626 0 0 .99626 653.741 0)"/><use xlink:href="#NimbusRomNo9L-Regu-69" id="use18" style="fill:#e41a1c;fill-opacity:1;stroke-width:1.12286" transform="matrix(.99626 0 0 .99626 681.436 0)"/><use xlink:href="#NimbusRomNo9L-Regu-6f" id="use19" style="fill:#e41a1c;fill-opacity:1;stroke-width:1.12286" transform="matrix(.99626 0 0 .99626 709.132 0)"/><use xlink:href="#NimbusRomNo9L-Regu-6e" id="use20" style="fill:#e41a1c;fill-opacity:1;stroke-width:1.12286" transform="matrix(.99626 0 0 .99626 758.945 0)"/></g><g id="g30" style="fill:#e41a1c;fill-opacity:1;stroke-width:1.12286" transform="matrix(.08 0 0 -.08 -27.217 209.693)"><defs id="defs20"><path id="NimbusRomNo9L-Regu-28" d="M1888 4326c-474-307-666-473-902-768-455-556-679-1196-679-1945 0-813 237-1440 800-2093 263-307 429-448 762-653l77 103c-512 403-692 627-864 1107-154 429-224 915-224 1555 0 672 83 1197 256 1594 179 396 371 627 832 998z" transform="scale(.01563)"/><path id="NimbusRomNo9L-Regu-31" d="M1862 4339 710 3757v-90c77 32 148 58 173 71 115 45 224 70 288 70 135 0 192-97 192-303V592c0-213-51-360-153-419-96-57-186-77-455-77V0h1767v96c-506 0-608 64-608 374v3857z" transform="scale(.01563)"/><path id="NimbusRomNo9L-Regu-34" d="M3021 1497h-653v2855h-282L77 1497v-409h1798V32h493v1056h653zm-1152 0H333l1536 2201z" transform="scale(.01563)"/><path id="NimbusRomNo9L-Regu-2c" d="M531-889c429 211 717 601 717 985 0 320-224 570-512 570-224 0-378-147-378-365C358 96 506-25 736-25c38 0 83 6 122 12 44 13 44 13 51 13 51 0 89-38 89-89 0-205-179-442-524-679z" transform="scale(.01563)"/><path id="NimbusRomNo9L-Regu-38" d="M1856 2400c634 340 858 608 858 1044 0 524-461 908-1101 908-698 0-1216-428-1216-1011 0-416 121-601 793-1190-691-525-832-723-832-1159C358 372 864-64 1587-64c768 0 1261 423 1261 1082 0 493-218 806-992 1382m-115-659c467-333 621-563 621-921 0-416-288-704-704-704-487 0-813 371-813 928 0 409 141 678 512 979zm-71 775c-569 371-800 665-800 1024 0 371 288 633 692 633 435 0 710-281 710-723 0-365-179-653-544-896-32-19-32-19-58-38" transform="scale(.01563)"/><path id="NimbusRomNo9L-Regu-33" d="M979 2138c378 0 525-13 679-70 396-141 646-506 646-948 0-537-365-953-838-953-173 0-301 45-538 198-192 115-301 160-410 160-147 0-243-89-243-224C275 77 550-64 998-64c493 0 999 167 1300 429 300 263 467 634 467 1063 0 326-103 627-288 825-128 141-250 218-531 339 441 301 601 538 601 884 0 518-409 876-998 876-320 0-602-108-832-313-192-173-288-340-429-724l96-25c262 467 550 678 954 678 416 0 704-281 704-684 0-231-96-461-256-621-192-192-372-288-807-442z" transform="scale(.01563)"/><path id="NimbusRomNo9L-Regu-39" d="M378-123c716 83 1068 205 1504 519 665 486 1056 1280 1056 2143 0 1054-589 1800-1415 1800-761 0-1331-645-1331-1507 0-779 461-1296 1152-1296 352 0 621 102 960 364C2042 856 1331 172 358 5Zm1939 2413c0-128-26-186-96-243-179-153-416-236-647-236-486 0-793 479-793 1239 0 363 102 746 237 913 108 127 268 197 454 197 557 0 845-549 845-1621z" transform="scale(.01563)"/><path id="NimbusRomNo9L-Regu-68" d="M1005 2222c269 294 461 402 710 402 320 0 480-229 480-676V684c0-434-64-518-435-556V32h1357v96c-346 64-384 115-384 556v1270c0 671-269 1016-787 1016-378 0-647-154-941-538v1958l-32 19c-218-77-378-128-736-230l-173-51v-102c26 6 45 6 77 6 275 0 326-52 326-327V686c0-449-38-507-409-558V32h1382v96c-371 38-435 115-435 556z" transform="scale(.01563)"/><path id="NimbusRomNo9L-Regu-29" d="M243-1133c474 307 666 474 903 768 454 557 678 1197 678 1946 0 819-237 1440-800 2093-262 307-429 448-762 652l-76-102c512-403 684-627 864-1107 153-429 224-915 224-1555 0-666-84-1197-256-1588-180-403-372-633-832-1004Z" transform="scale(.01563)"/></defs><use xlink:href="#NimbusRomNo9L-Regu-28" id="use21" style="fill:#e41a1c;fill-opacity:1;stroke-width:1.12286" transform="scale(.99626)"/><use xlink:href="#NimbusRomNo9L-Regu-31" id="use22" style="fill:#e41a1c;fill-opacity:1;stroke-width:1.12286" transform="matrix(.99626 0 0 .99626 33.175 0)"/><use xlink:href="#NimbusRomNo9L-Regu-34" id="use23" style="fill:#e41a1c;fill-opacity:1;stroke-width:1.12286" transform="matrix(.99626 0 0 .99626 82.988 0)"/><use xlink:href="#NimbusRomNo9L-Regu-2c" id="use24" style="fill:#e41a1c;fill-opacity:1;stroke-width:1.12286" transform="matrix(.99626 0 0 .99626 132.802 0)"/><use xlink:href="#NimbusRomNo9L-Regu-38" id="use25" style="fill:#e41a1c;fill-opacity:1;stroke-width:1.12286" transform="matrix(.99626 0 0 .99626 157.708 0)"/><use xlink:href="#NimbusRomNo9L-Regu-33" id="use26" style="fill:#e41a1c;fill-opacity:1;stroke-width:1.12286" transform="matrix(.99626 0 0 .99626 207.521 0)"/><use xlink:href="#NimbusRomNo9L-Regu-39" id="use27" style="fill:#e41a1c;fill-opacity:1;stroke-width:1.12286" transform="matrix(.99626 0 0 .99626 257.335 0)"/><use xlink:href="#NimbusRomNo9L-Regu-68" id="use28" style="fill:#e41a1c;fill-opacity:1;stroke-width:1.12286" transform="matrix(.99626 0 0 .99626 332.054 0)"/><use xlink:href="#NimbusRomNo9L-Regu-61" id="use29" style="fill:#e41a1c;fill-opacity:1;stroke-width:1.12286" transform="matrix(.99626 0 0 .99626 381.868 0)"/><use xlink:href="#NimbusRomNo9L-Regu-29" id="use30" style="fill:#e41a1c;fill-opacity:1;stroke-width:1.12286" transform="matrix(.99626 0 0 .99626 426.101 0)"/></g></g><g id="text_2" style="stroke-width:.874125" transform="matrix(1.40612 0 0 1.40612 -715.109 89.764)"><g id="g35" style="stroke-width:.874125" transform="matrix(.08 0 0 -.08 126.773 321.979)"><defs id="defs30"><path id="NimbusRomNo9L-Regu-37" d="M2874 4250H506l-378-940 109-52c275 435 390 518 742 518h1389L1101-32h416l1357 4180z" transform="scale(.01563)"/><path id="NimbusRomNo9L-Regu-36" d="M2854 4391c-729-64-1100-186-1568-512C595 3386 218 2656 218 1802c0-554 172-1114 448-1432C909 89 1254-64 1651-64c794 0 1344 605 1344 1485 0 815-467 1331-1203 1331-282 0-416-45-819-288 173 967 889 1658 1894 1824zM1549 2458c550 0 870-458 870-1254 0-700-249-1088-697-1088-564 0-909 598-909 1584 0 325 51 503 179 599 134 101 333 159 557 159" transform="scale(.01563)"/><path id="NimbusRomNo9L-Regu-2e" d="M800 646c-192 0-352-166-352-365C448 96 608-64 794-64c198 0 364 160 364 345 0 199-166 365-358 365" transform="scale(.01563)"/><path id="NimbusRomNo9L-Regu-32" d="m3040 875-83 32c-237-363-320-421-608-421H819l1075 1123c570 593 820 1078 820 1576 0 638-519 1128-1184 1128-352 0-685-140-922-395-205-218-301-422-410-875l135-32c256 625 486 829 928 829 537 0 902-364 902-900 0-497-294-1090-832-1658L192 77V0h2496z" transform="scale(.01563)"/><path id="NimbusRomNo9L-Regu-25" d="M4282 2368c-724 0-1408-746-1408-1544 0-499 307-824 768-824 288 0 524 102 748 325 340 345 551 862 551 1361 0 434-243 682-659 682m44-204c244 0 448-230 448-510 0-364-160-798-403-1098-205-255-390-364-621-364-230 0-390 165-390 409 0 338 179 861 416 1192 173 255 352 371 550 371m-268 2156h-250c-346-312-602-416-998-416-256 0-404 42-557 160-167 130-250 160-448 160-730 0-1415-756-1415-1562 0-445 340-806 756-806 275 0 563 128 774 353 333 340 538 847 538 1317 0 89-13 167-45 282 115-45 230-64 416-64 281 0 448 44 704 187L1286-96h308zm-1818-491c38-127 58-222 58-311 0-716-525-1445-1044-1445-224 0-377 158-377 387 0 266 128 697 301 1014 185 342 428 558 627 558 32 0 45-7 83-39 90-82 166-114 352-164" transform="scale(.01563)"/></defs><use xlink:href="#NimbusRomNo9L-Regu-37" id="use31" style="stroke-width:.874125" transform="scale(.99626)"/><use xlink:href="#NimbusRomNo9L-Regu-36" id="use32" style="stroke-width:.874125" transform="matrix(.99626 0 0 .99626 49.813 0)"/><use xlink:href="#NimbusRomNo9L-Regu-2e" id="use33" style="stroke-width:.874125" transform="matrix(.99626 0 0 .99626 99.626 0)"/><use xlink:href="#NimbusRomNo9L-Regu-32" id="use34" style="stroke-width:.874125" transform="matrix(.99626 0 0 .99626 124.533 0)"/><use xlink:href="#NimbusRomNo9L-Regu-25" id="use35" style="stroke-width:.874125" transform="matrix(.99626 0 0 .99626 174.346 0)"/></g></g><g id="text_3" style="fill:#377eb8;fill-opacity:1;stroke-width:1.13653" transform="translate(-652.824 251.268)scale(1.08146)"><g id="g55" style="fill:#377eb8;fill-opacity:1;stroke-width:1.13653" transform="matrix(.08 0 0 -.08 302.16 219.102)"><defs id="defs35"><path id="NimbusRomNo9L-Regu-50" d="M1293 1875c166-19 275-19 441-19 500 0 845 63 1120 216 384 202 615 588 615 1006 0 266-90 506-263 690-256 279-812 456-1414 456H102v-122c474-51 538-115 538-574V766c0-536-51-600-538-644V0h1792v128c-505 0-601 90-601 565zm0 1897c0 171 45 215 217 215 864 0 1261-297 1261-947 0-612-377-928-1113-928-128 0-218 7-365 19z" transform="scale(.01563)"/><path id="NimbusRomNo9L-Regu-65" d="M2611 1053c-307-489-582-675-992-675-365 0-640 186-825 552-116 244-160 456-173 849h1971c-51 414-115 598-275 802-192 230-487 363-819 363-320 0-621-115-864-333-301-262-474-717-474-1241C160 486 621-64 1357-64c608 0 1088 379 1357 1072zM634 1984c70 495 288 730 678 730s544-179 627-730z" transform="scale(.01563)"/><path id="NimbusRomNo9L-Regu-6d" d="M122 2547c83 19 134 26 204 26 167 0 224-103 224-411V539c0-347-89-443-448-443V0h1421v96c-339 0-435 70-435 322v1816c0 12 51 76 96 121 160 147 435 256 659 256 282 0 423-226 423-679V528c0-361-71-432-436-432V0h1434v96c-365 0-461 109-461 507v1618c192 275 403 390 698 390 365 0 480-173 480-704V557c0-365-51-416-423-461V0h1402v96l-166 19c-192 0-276 115-276 365v1322c0 757-249 1142-742 1142-371 0-698-166-1043-537-115 364-333 537-679 537-281 0-460-90-992-493v480l-44 13c-327-122-544-192-896-288Z" transform="scale(.01563)"/></defs><use xlink:href="#NimbusRomNo9L-Regu-50" id="use36" style="fill:#377eb8;fill-opacity:1;stroke-width:1.13653" transform="scale(.99626)"/><use xlink:href="#NimbusRomNo9L-Regu-65" id="use37" style="fill:#377eb8;fill-opacity:1;stroke-width:1.13653" transform="matrix(.99626 0 0 .99626 55.392 0)"/><use xlink:href="#NimbusRomNo9L-Regu-72" id="use38" style="fill:#377eb8;fill-opacity:1;stroke-width:1.13653" transform="matrix(.99626 0 0 .99626 99.625 0)"/><use xlink:href="#NimbusRomNo9L-Regu-6d" id="use39" style="fill:#377eb8;fill-opacity:1;stroke-width:1.13653" transform="matrix(.99626 0 0 .99626 132.8 0)"/><use xlink:href="#NimbusRomNo9L-Regu-61" id="use40" style="fill:#377eb8;fill-opacity:1;stroke-width:1.13653" transform="matrix(.99626 0 0 .99626 210.309 0)"/><use xlink:href="#NimbusRomNo9L-Regu-6e" id="use41" style="fill:#377eb8;fill-opacity:1;stroke-width:1.13653" transform="matrix(.99626 0 0 .99626 254.542 0)"/><use xlink:href="#NimbusRomNo9L-Regu-65" id="use42" style="fill:#377eb8;fill-opacity:1;stroke-width:1.13653" transform="matrix(.99626 0 0 .99626 304.356 0)"/><use xlink:href="#NimbusRomNo9L-Regu-6e" id="use43" style="fill:#377eb8;fill-opacity:1;stroke-width:1.13653" transform="matrix(.99626 0 0 .99626 348.59 0)"/><use xlink:href="#NimbusRomNo9L-Regu-74" id="use44" style="fill:#377eb8;fill-opacity:1;stroke-width:1.13653" transform="matrix(.99626 0 0 .99626 398.402 0)"/><use xlink:href="#NimbusRomNo9L-Regu-50" id="use45" style="fill:#377eb8;fill-opacity:1;stroke-width:1.13653" transform="matrix(.99626 0 0 .99626 451.004 0)"/><use xlink:href="#NimbusRomNo9L-Regu-6c" id="use46" style="fill:#377eb8;fill-opacity:1;stroke-width:1.13653" transform="matrix(.99626 0 0 .99626 506.396 0)"/><use xlink:href="#NimbusRomNo9L-Regu-61" id="use47" style="fill:#377eb8;fill-opacity:1;stroke-width:1.13653" transform="matrix(.99626 0 0 .99626 534.091 0)"/><use xlink:href="#NimbusRomNo9L-Regu-6e" id="use48" style="fill:#377eb8;fill-opacity:1;stroke-width:1.13653" transform="matrix(.99626 0 0 .99626 578.325 0)"/><use xlink:href="#NimbusRomNo9L-Regu-74" id="use49" style="fill:#377eb8;fill-opacity:1;stroke-width:1.13653" transform="matrix(.99626 0 0 .99626 628.138 0)"/><use xlink:href="#NimbusRomNo9L-Regu-61" id="use50" style="fill:#377eb8;fill-opacity:1;stroke-width:1.13653" transform="matrix(.99626 0 0 .99626 655.833 0)"/><use xlink:href="#NimbusRomNo9L-Regu-74" id="use51" style="fill:#377eb8;fill-opacity:1;stroke-width:1.13653" transform="matrix(.99626 0 0 .99626 700.067 0)"/><use xlink:href="#NimbusRomNo9L-Regu-69" id="use52" style="fill:#377eb8;fill-opacity:1;stroke-width:1.13653" transform="matrix(.99626 0 0 .99626 727.762 0)"/><use xlink:href="#NimbusRomNo9L-Regu-6f" id="use53" style="fill:#377eb8;fill-opacity:1;stroke-width:1.13653" transform="matrix(.99626 0 0 .99626 755.457 0)"/><use xlink:href="#NimbusRomNo9L-Regu-6e" id="use54" style="fill:#377eb8;fill-opacity:1;stroke-width:1.13653" transform="matrix(.99626 0 0 .99626 805.27 0)"/><use xlink:href="#NimbusRomNo9L-Regu-73" id="use55" style="fill:#377eb8;fill-opacity:1;stroke-width:1.13653" transform="matrix(.99626 0 0 .99626 855.083 0)"/></g><g id="g64" style="fill:#377eb8;fill-opacity:1;stroke-width:1.13653" transform="matrix(.08 0 0 -.08 302.16 227.312)"><defs id="defs55"><path id="NimbusRomNo9L-Regu-30" d="M1626 4352c-352 0-621-108-858-332-371-359-614-1095-614-1844 0-697 211-1446 512-1804C902 90 1229-64 1600-64c326 0 602 109 832 333 371 352 614 1095 614 1869 0 1312-582 2214-1420 2214m-20-166c538 0 826-723 826-2061 0-1337-282-2022-832-2022S768 788 768 2119c0 1357 288 2067 838 2067" transform="scale(.01563)"/></defs><use xlink:href="#NimbusRomNo9L-Regu-28" id="use56" style="fill:#377eb8;fill-opacity:1;stroke-width:1.13653" transform="scale(.99626)"/><use xlink:href="#NimbusRomNo9L-Regu-31" id="use57" style="fill:#377eb8;fill-opacity:1;stroke-width:1.13653" transform="matrix(.99626 0 0 .99626 33.175 0)"/><use xlink:href="#NimbusRomNo9L-Regu-2c" id="use58" style="fill:#377eb8;fill-opacity:1;stroke-width:1.13653" transform="matrix(.99626 0 0 .99626 82.988 0)"/><use xlink:href="#NimbusRomNo9L-Regu-39" id="use59" style="fill:#377eb8;fill-opacity:1;stroke-width:1.13653" transform="matrix(.99626 0 0 .99626 107.895 0)"/><use xlink:href="#NimbusRomNo9L-Regu-30" id="use60" style="fill:#377eb8;fill-opacity:1;stroke-width:1.13653" transform="matrix(.99626 0 0 .99626 157.708 0)"/><use xlink:href="#NimbusRomNo9L-Regu-36" id="use61" style="fill:#377eb8;fill-opacity:1;stroke-width:1.13653" transform="matrix(.99626 0 0 .99626 207.521 0)"/><use xlink:href="#NimbusRomNo9L-Regu-68" id="use62" style="fill:#377eb8;fill-opacity:1;stroke-width:1.13653" transform="matrix(.99626 0 0 .99626 282.241 0)"/><use xlink:href="#NimbusRomNo9L-Regu-61" id="use63" style="fill:#377eb8;fill-opacity:1;stroke-width:1.13653" transform="matrix(.99626 0 0 .99626 332.054 0)"/><use xlink:href="#NimbusRomNo9L-Regu-29" id="use64" style="fill:#377eb8;fill-opacity:1;stroke-width:1.13653" transform="matrix(.99626 0 0 .99626 376.288 0)"/></g></g><g id="text_4" style="stroke-width:.807749" transform="matrix(1.52166 0 0 1.52166 -786.786 143.13)"><g id="g68" style="stroke-width:.807749" transform="matrix(.08 0 0 -.08 240.248 244.942)"><use xlink:href="#NimbusRomNo9L-Regu-39" id="use65" style="stroke-width:.807749" transform="scale(.99626)"/><use xlink:href="#NimbusRomNo9L-Regu-2e" id="use66" style="stroke-width:.807749" transform="matrix(.99626 0 0 .99626 49.813 0)"/><use xlink:href="#NimbusRomNo9L-Regu-38" id="use67" style="stroke-width:.807749" transform="matrix(.99626 0 0 .99626 74.72 0)"/><use xlink:href="#NimbusRomNo9L-Regu-25" id="use68" style="stroke-width:.807749" transform="matrix(.99626 0 0 .99626 124.533 0)"/></g></g><g id="text_5" style="fill:#4daf4a;fill-opacity:1;stroke-width:1.02416" transform="matrix(1.20013 0 0 1.20013 -593.989 120.703)"><g id="g76" style="fill:#4daf4a;fill-opacity:1;stroke-width:1.02416" transform="matrix(.08 0 0 -.08 238.309 151.717)"><defs id="defs68"><path id="NimbusRomNo9L-Regu-4f" d="M2310 4352c-1222 0-2092-921-2092-2208 0-601 204-1184 550-1555 371-403 941-653 1504-653 1261 0 2131 896 2131 2183 0 633-185 1177-537 1561-404 442-941 672-1556 672m0-230c295 0 589-115 820-320 345-314 544-915 544-1677 0-377-84-819-212-1152-57-160-166-320-313-467-224-224-512-339-851-339-295 0-583 115-807 313-333 295-544 941-544 1652 0 652 179 1273 448 1574 250 275 563 416 915 416" transform="scale(.01563)"/><path id="NimbusRomNo9L-Regu-55" d="M3910 3317c0 652 77 754 602 818v121H3027v-121c499-38 602-179 602-818V1592c0-434-45-677-147-869-173-307-583-505-1063-505-454 0-768 154-941 453-115 205-160 442-160 844v2045c0 460 71 530 583 575v121H90v-121c505-38 576-109 576-575V1566C666 460 1184-64 2272-64c698 0 1178 224 1427 659 154 268 211 562 211 1055z" transform="scale(.01563)"/><path id="NimbusRomNo9L-Regu-41" d="M4518 128c-288 0-352 64-576 539L2349 4320h-128L890 1168C480 231 403 128 96 128V0h1267v128c-307 0-435 84-435 265 0 77 19 167 51 252l295 756h1676l263-623c77-176 121-344 121-436 0-162-108-214-448-214V0h1632zM1382 1664l736 1752 743-1752z" transform="scale(.01563)"/></defs><use xlink:href="#NimbusRomNo9L-Regu-4f" id="use69" style="fill:#4daf4a;fill-opacity:1;stroke-width:1.02416" transform="scale(.99626)"/><use xlink:href="#NimbusRomNo9L-Regu-74" id="use70" style="fill:#4daf4a;fill-opacity:1;stroke-width:1.02416" transform="matrix(.99626 0 0 .99626 71.93 0)"/><use xlink:href="#NimbusRomNo9L-Regu-68" id="use71" style="fill:#4daf4a;fill-opacity:1;stroke-width:1.02416" transform="matrix(.99626 0 0 .99626 99.625 0)"/><use xlink:href="#NimbusRomNo9L-Regu-65" id="use72" style="fill:#4daf4a;fill-opacity:1;stroke-width:1.02416" transform="matrix(.99626 0 0 .99626 149.438 0)"/><use xlink:href="#NimbusRomNo9L-Regu-72" id="use73" style="fill:#4daf4a;fill-opacity:1;stroke-width:1.02416" transform="matrix(.99626 0 0 .99626 193.672 0)"/><use xlink:href="#NimbusRomNo9L-Regu-55" id="use74" style="fill:#4daf4a;fill-opacity:1;stroke-width:1.02416" transform="matrix(.99626 0 0 .99626 251.754 0)"/><use xlink:href="#NimbusRomNo9L-Regu-41" id="use75" style="fill:#4daf4a;fill-opacity:1;stroke-width:1.02416" transform="matrix(.99626 0 0 .99626 319.7 0)"/><use xlink:href="#NimbusRomNo9L-Regu-41" id="use76" style="fill:#4daf4a;fill-opacity:1;stroke-width:1.02416" transform="matrix(.99626 0 0 .99626 391.63 0)"/></g><g id="g85" style="fill:#4daf4a;fill-opacity:1;stroke-width:1.02416" transform="matrix(.08 0 0 -.08 238.309 159.927)"><use xlink:href="#NimbusRomNo9L-Regu-28" id="use77" style="fill:#4daf4a;fill-opacity:1;stroke-width:1.02416" transform="scale(.99626)"/><use xlink:href="#NimbusRomNo9L-Regu-32" id="use78" style="fill:#4daf4a;fill-opacity:1;stroke-width:1.02416" transform="matrix(.99626 0 0 .99626 33.175 0)"/><use xlink:href="#NimbusRomNo9L-Regu-2c" id="use79" style="fill:#4daf4a;fill-opacity:1;stroke-width:1.02416" transform="matrix(.99626 0 0 .99626 82.988 0)"/><use xlink:href="#NimbusRomNo9L-Regu-37" id="use80" style="fill:#4daf4a;fill-opacity:1;stroke-width:1.02416" transform="matrix(.99626 0 0 .99626 107.895 0)"/><use xlink:href="#NimbusRomNo9L-Regu-32" id="use81" style="fill:#4daf4a;fill-opacity:1;stroke-width:1.02416" transform="matrix(.99626 0 0 .99626 157.708 0)"/><use xlink:href="#NimbusRomNo9L-Regu-30" id="use82" style="fill:#4daf4a;fill-opacity:1;stroke-width:1.02416" transform="matrix(.99626 0 0 .99626 207.521 0)"/><use xlink:href="#NimbusRomNo9L-Regu-68" id="use83" style="fill:#4daf4a;fill-opacity:1;stroke-width:1.02416" transform="matrix(.99626 0 0 .99626 282.241 0)"/><use xlink:href="#NimbusRomNo9L-Regu-61" id="use84" style="fill:#4daf4a;fill-opacity:1;stroke-width:1.02416" transform="matrix(.99626 0 0 .99626 332.054 0)"/><use xlink:href="#NimbusRomNo9L-Regu-29" id="use85" style="fill:#4daf4a;fill-opacity:1;stroke-width:1.02416" transform="matrix(.99626 0 0 .99626 376.288 0)"/></g></g><g id="text_6" style="stroke-width:.863669" transform="matrix(1.42314 0 0 1.42314 -717.321 173.492)"><g id="g90" style="stroke-width:.863669" transform="matrix(.08 0 0 -.08 203.427 208.187)"><use xlink:href="#NimbusRomNo9L-Regu-31" id="use86" style="stroke-width:.863669" transform="scale(.99626)"/><use xlink:href="#NimbusRomNo9L-Regu-34" id="use87" style="stroke-width:.863669" transform="matrix(.99626 0 0 .99626 49.813 0)"/><use xlink:href="#NimbusRomNo9L-Regu-2e" id="use88" style="stroke-width:.863669" transform="matrix(.99626 0 0 .99626 99.626 0)"/><use xlink:href="#NimbusRomNo9L-Regu-30" id="use89" style="stroke-width:.863669" transform="matrix(.99626 0 0 .99626 124.533 0)"/><use xlink:href="#NimbusRomNo9L-Regu-25" id="use90" style="stroke-width:.863669" transform="matrix(.99626 0 0 .99626 174.346 0)"/></g></g></g><g id="axes_2" style="stroke-width:2" transform="matrix(.5 0 0 .5 -199.523 319.109)"><g id="patch_5" style="stroke:#e41a1c;stroke-width:2;stroke-opacity:1"><path id="path134" d="M657.301 153.485a115.7 115.7 0 0 0-109.263 77.647 115.7 115.7 0 0 0 37.39 128.723 115.7 115.7 0 0 0 89.563 23.672l-17.69-114.34Z" style="fill:#b3e2cd;stroke:#e41a1c;stroke-width:1;stroke-linejoin:miter;stroke-opacity:1"/></g><g id="patch_6" style="stroke:#e41a1c;stroke-width:2;stroke-opacity:1"><path id="path135" d="M674.99 383.527a115.7 115.7 0 0 0 57.671-26.548 115.7 115.7 0 0 0 34.98-52.982 115.7 115.7 0 0 0 1.757-63.463 115.7 115.7 0 0 0-31.994-54.836L657.3 269.186z" style="fill:#cbd5e8;stroke:#e41a1c;stroke-width:1;stroke-linejoin:miter;stroke-opacity:1"/></g><g id="patch_7" style="stroke:#e41a1c;stroke-width:2;stroke-opacity:1"><path id="path136" d="M737.404 185.698a115.7 115.7 0 0 0-22.277-16.726l-57.826 100.214z" style="fill:#e6f5c9;stroke:#e41a1c;stroke-width:1;stroke-linejoin:miter;stroke-opacity:1"/></g><g id="patch_8" style="stroke:#e41a1c;stroke-width:2;stroke-opacity:1"><path id="path137" d="M715.127 168.972a115.7 115.7 0 0 0-50.678-15.266l-7.148 115.48z" style="fill:#f1e2cc;stroke:#e41a1c;stroke-width:1;stroke-linejoin:miter;stroke-opacity:1"/></g><g id="patch_9" style="stroke:#e41a1c;stroke-width:2;stroke-opacity:1"><path id="path138" d="M664.45 153.706a116 116 0 0 0-7.149-.22v115.7z" style="fill:#ccc;stroke:#e41a1c;stroke-width:1;stroke-linejoin:miter;stroke-opacity:1"/></g><g id="text_8" style="stroke-width:1.42542" transform="translate(-206.277 -112.368)scale(1.4031)"><g id="g147" style="stroke-width:1.42542" transform="matrix(.08 0 0 -.08 493.002 276.678)"><defs id="defs138"><path id="NimbusRomNo9L-Regu-62" d="m979 4364-32 13c-269-96-441-147-742-230l-186-51v-102c39 6 64 6 109 6 256 0 314-58 314-327V347c0-200 544-411 1056-411 844 0 1497 704 1497 1619 0 787-486 1389-1126 1389-391 0-762-230-890-544zm0-2303c0 249 301 480 634 480 499 0 819-499 819-1280 0-711-307-1120-832-1120-333 0-621 147-621 307z" transform="scale(.01563)"/><path id="NimbusRomNo9L-Regu-64" d="m2202-64 940 333v96h-147c-230 0-281 70-281 366v3633l-32 13c-308-109-532-173-941-281v-102c51 6 89 6 141 6 236 0 294-64 294-328V2669c-243 205-416 275-672 275-736 0-1331-723-1331-1632C173 493 653-64 1357-64c358 0 601 128 819 429V-45Zm-26 717c0-45-45-122-109-192-115-128-275-192-461-192-531 0-883 512-883 1299 0 723 314 1197 800 1197 339 0 653-301 653-640z" transform="scale(.01563)"/></defs><use xlink:href="#NimbusRomNo9L-Regu-41" id="use138" style="stroke-width:1.42542" transform="scale(.99626)"/><use xlink:href="#NimbusRomNo9L-Regu-72" id="use139" style="stroke-width:1.42542" transform="matrix(.99626 0 0 .99626 71.93 0)"/><use xlink:href="#NimbusRomNo9L-Regu-61" id="use140" style="stroke-width:1.42542" transform="matrix(.99626 0 0 .99626 105.105 0)"/><use xlink:href="#NimbusRomNo9L-Regu-62" id="use141" style="stroke-width:1.42542" transform="matrix(.99626 0 0 .99626 149.339 0)"/><use xlink:href="#NimbusRomNo9L-Regu-6c" id="use142" style="stroke-width:1.42542" transform="matrix(.99626 0 0 .99626 199.152 0)"/><use xlink:href="#NimbusRomNo9L-Regu-65" id="use143" style="stroke-width:1.42542" transform="matrix(.99626 0 0 .99626 226.847 0)"/><use xlink:href="#NimbusRomNo9L-Regu-6c" id="use144" style="stroke-width:1.42542" transform="matrix(.99626 0 0 .99626 295.987 0)"/><use xlink:href="#NimbusRomNo9L-Regu-61" id="use145" style="stroke-width:1.42542" transform="matrix(.99626 0 0 .99626 323.682 0)"/><use xlink:href="#NimbusRomNo9L-Regu-6e" id="use146" style="stroke-width:1.42542" transform="matrix(.99626 0 0 .99626 367.916 0)"/><use xlink:href="#NimbusRomNo9L-Regu-64" id="use147" style="stroke-width:1.42542" transform="matrix(.99626 0 0 .99626 417.73 0)"/></g><g id="g156" style="stroke-width:1.42542" transform="matrix(.08 0 0 -.08 497.648 284.888)"><use xlink:href="#NimbusRomNo9L-Regu-28" id="use148" style="stroke-width:1.42542" transform="scale(.99626)"/><use xlink:href="#NimbusRomNo9L-Regu-37" id="use149" style="stroke-width:1.42542" transform="matrix(.99626 0 0 .99626 33.175 0)"/><use xlink:href="#NimbusRomNo9L-Regu-2c" id="use150" style="stroke-width:1.42542" transform="matrix(.99626 0 0 .99626 82.988 0)"/><use xlink:href="#NimbusRomNo9L-Regu-37" id="use151" style="stroke-width:1.42542" transform="matrix(.99626 0 0 .99626 107.895 0)"/><use xlink:href="#NimbusRomNo9L-Regu-38" id="use152" style="stroke-width:1.42542" transform="matrix(.99626 0 0 .99626 157.708 0)"/><use xlink:href="#NimbusRomNo9L-Regu-32" id="use153" style="stroke-width:1.42542" transform="matrix(.99626 0 0 .99626 207.521 0)"/><use xlink:href="#NimbusRomNo9L-Regu-68" id="use154" style="stroke-width:1.42542" transform="matrix(.99626 0 0 .99626 282.241 0)"/><use xlink:href="#NimbusRomNo9L-Regu-61" id="use155" style="stroke-width:1.42542" transform="matrix(.99626 0 0 .99626 332.054 0)"/><use xlink:href="#NimbusRomNo9L-Regu-29" id="use156" style="stroke-width:1.42542" transform="matrix(.99626 0 0 .99626 376.288 0)"/></g></g><g id="text_9" style="stroke-width:2"><g id="g161" style="stroke-width:2" transform="matrix(.08 0 0 -.08 577.792 276.348)"><path id="use157" d="M18.026 58.78h19.536c1.588 0 1.993.202 2.289.902l3.782 8.858-.887.7c-1.494-2.086-2.49-2.584-4.592-2.584H17.34L6.476 42.948c-.094-.202-.094-.295-.094-.498 0-.498.39-.794 1.183-.794 3.192 0 7.177-.7 11.27-2.008 11.458-3.705 16.735-9.916 16.735-19.816 0-9.62-6.087-17.139-13.855-17.139-1.992 0-3.689.7-6.678 2.911-3.175 2.304-5.48 3.3-7.565 3.3-2.895 0-4.28-1.199-4.28-3.705 0-3.798 4.685-6.195 12.157-6.195 8.359 0 15.535 2.708 20.517 7.814 4.576 4.515 6.678 10.212 6.678 17.824 0 7.207-1.9 11.815-6.88 16.812-4.375 4.42-10.057 6.71-21.81 8.81z" style="stroke-width:.0311332"/><use xlink:href="#NimbusRomNo9L-Regu-32" id="use158" style="stroke-width:2" transform="matrix(.99626 0 0 .99626 49.813 0)"/><use xlink:href="#NimbusRomNo9L-Regu-2e" id="use159" style="stroke-width:2" transform="matrix(.99626 0 0 .99626 99.626 0)"/><use xlink:href="#NimbusRomNo9L-Regu-34" id="use160" style="stroke-width:2" transform="matrix(.99626 0 0 .99626 124.533 0)"/><use xlink:href="#NimbusRomNo9L-Regu-25" id="use161" style="stroke-width:2" transform="matrix(.99626 0 0 .99626 174.346 0)"/></g></g><g id="text_10" style="stroke-width:1.40619" transform="matrix(1.4223 0 0 1.4223 -357.442 -78.796)"><g id="g173" style="stroke-width:1.40619" transform="matrix(.08 0 0 -.08 778.675 305.212)"><defs id="defs161"><path id="NimbusRomNo9L-Regu-46" d="M3066 1472v1485h-148c-76-496-192-589-704-589h-928v1398c0 177 32 215 205 215h871c723 0 864-95 972-667h160l-19 910H77v-122c473-38 557-128 557-577V749c0-532-71-615-557-615V0h1792v134c-493 0-583 91-583 558v1414h928c519 0 628-99 704-634z" transform="scale(.01563)"/></defs><use xlink:href="#NimbusRomNo9L-Regu-46" id="use162" style="stroke-width:1.40619" transform="scale(.99626)"/><use xlink:href="#NimbusRomNo9L-Regu-6f" id="use163" style="stroke-width:1.40619" transform="matrix(.99626 0 0 .99626 53.898 0)"/><use xlink:href="#NimbusRomNo9L-Regu-72" id="use164" style="stroke-width:1.40619" transform="matrix(.99626 0 0 .99626 103.711 0)"/><use xlink:href="#NimbusRomNo9L-Regu-61" id="use165" style="stroke-width:1.40619" transform="matrix(.99626 0 0 .99626 136.887 0)"/><path id="use166" d="M227.945 38.854v3.892h-7.675c-1.992 0-3.487.265-5.48.872l-2.194.7c-2.677.872-5.37 1.308-7.97 1.308-9.262 0-16.625-7.223-16.625-16.345 0-6.305 2.677-10.134 9.262-13.434-1.9-1.744-3.69-3.41-4.281-3.892-3.3-2.802-4.592-4.748-4.592-6.693 0-2.055 1.199-3.223 5.277-5.169-7.067-5.214-9.76-8.546-9.76-12.25 0-5.34 7.767-9.76 17.232-9.76 7.472 0 15.255 2.646 20.423 6.942 3.799 3.16 5.48 6.444 5.48 10.32 0 6.336-4.67 10.633-12.049 10.633h-12.858c-5.277 0-7.768.918-7.768 2.553 0 2.023 3.285 5.603 5.978 6.413.903-.109 1.603-.202 1.9-.202 1.883-.203 3.19-.296 3.782-.296 3.69 0 7.674 1.525 10.756 4.28 3.285 2.865 4.78 6.445 4.78 11.551 0 2.958-.499 5.308-1.884 8.577zM195.768-.202c3.285-.7 11.255-1.292 16.143-1.292 9.06 0 12.344-1.308 12.344-4.95 0-5.87-7.565-9.792-18.82-9.792-8.78 0-14.554 2.927-14.554 7.363 0 2.335.7 3.643 4.887 8.67m.499 33.592c0 5.931 2.786 9.45 7.363 9.45 3.097 0 5.681-1.713 7.285-4.717 1.79-3.518 2.989-8.126 2.989-12.049 0-5.62-2.896-9.138-7.472-9.138-5.978 0-10.165 6.523-10.165 16.159z" style="stroke-width:.0218892"/><use xlink:href="#NimbusRomNo9L-Regu-65" id="use167" style="stroke-width:1.40619" transform="matrix(.99626 0 0 .99626 230.933 0)"/><use xlink:href="#NimbusRomNo9L-Regu-70" id="use168" style="stroke-width:1.40619" transform="matrix(.99626 0 0 .99626 300.074 0)"/><use xlink:href="#NimbusRomNo9L-Regu-6c" id="use169" style="stroke-width:1.40619" transform="matrix(.99626 0 0 .99626 349.887 0)"/><use xlink:href="#NimbusRomNo9L-Regu-61" id="use170" style="stroke-width:1.40619" transform="matrix(.99626 0 0 .99626 377.582 0)"/><use xlink:href="#NimbusRomNo9L-Regu-6e" id="use171" style="stroke-width:1.40619" transform="matrix(.99626 0 0 .99626 421.816 0)"/><use xlink:href="#NimbusRomNo9L-Regu-74" id="use172" style="stroke-width:1.40619" transform="matrix(.99626 0 0 .99626 471.629 0)"/><use xlink:href="#NimbusRomNo9L-Regu-73" id="use173" style="stroke-width:1.40619" transform="matrix(.99626 0 0 .99626 499.324 0)"/></g><g id="g182" style="stroke-width:1.40619" transform="matrix(.08 0 0 -.08 778.675 313.422)"><use xlink:href="#NimbusRomNo9L-Regu-28" id="use174" style="stroke-width:1.40619" transform="scale(.99626)"/><path id="use175" d="M51.201 58.78h19.536c1.588 0 1.993.202 2.289.902l3.782 8.858-.887.7c-1.494-2.086-2.49-2.584-4.592-2.584H50.516L39.651 42.948c-.093-.202-.093-.295-.093-.498 0-.498.389-.794 1.183-.794 3.19 0 7.176-.7 11.27-2.008 11.457-3.705 16.734-9.916 16.734-19.816 0-9.62-6.087-17.139-13.854-17.139-1.993 0-3.69.7-6.678 2.911-3.176 2.304-5.48 3.3-7.566 3.3-2.895 0-4.28-1.199-4.28-3.705 0-3.798 4.685-6.195 12.157-6.195 8.36 0 15.535 2.708 20.517 7.814 4.576 4.515 6.678 10.212 6.678 17.824 0 7.207-1.9 11.815-6.88 16.812-4.375 4.42-10.057 6.71-21.81 8.81z" style="stroke-width:.0218892"/><use xlink:href="#NimbusRomNo9L-Regu-2c" id="use176" style="stroke-width:1.40619" transform="matrix(.99626 0 0 .99626 82.988 0)"/><use xlink:href="#NimbusRomNo9L-Regu-32" id="use177" style="stroke-width:1.40619" transform="matrix(.99626 0 0 .99626 107.895 0)"/><path id="use178" d="M175.734 58.78h19.536c1.588 0 1.993.202 2.289.902l3.782 8.858-.887.7c-1.494-2.086-2.49-2.584-4.592-2.584h-20.813l-10.865-23.708c-.093-.202-.093-.295-.093-.498 0-.498.389-.794 1.183-.794 3.19 0 7.176-.7 11.27-2.008 11.457-3.705 16.734-9.916 16.734-19.816 0-9.62-6.087-17.139-13.854-17.139-1.993 0-3.69.7-6.678 2.911-3.176 2.304-5.48 3.3-7.566 3.3-2.895 0-4.28-1.199-4.28-3.705 0-3.798 4.685-6.195 12.157-6.195 8.36 0 15.535 2.708 20.517 7.814 4.576 4.515 6.678 10.212 6.678 17.824 0 7.207-1.9 11.815-6.88 16.812-4.375 4.42-10.057 6.71-21.81 8.81z" style="stroke-width:.0218892"/><use xlink:href="#NimbusRomNo9L-Regu-31" id="use179" style="stroke-width:1.40619" transform="matrix(.99626 0 0 .99626 207.521 0)"/><use xlink:href="#NimbusRomNo9L-Regu-68" id="use180" style="stroke-width:1.40619" transform="matrix(.99626 0 0 .99626 282.241 0)"/><use xlink:href="#NimbusRomNo9L-Regu-61" id="use181" style="stroke-width:1.40619" transform="matrix(.99626 0 0 .99626 332.054 0)"/><use xlink:href="#NimbusRomNo9L-Regu-29" id="use182" style="stroke-width:1.40619" transform="matrix(.99626 0 0 .99626 376.288 0)"/></g></g><g id="text_11" style="stroke-width:2"><g id="g187" style="stroke-width:2" transform="matrix(.08 0 0 -.08 713.212 291.912)"><use xlink:href="#NimbusRomNo9L-Regu-33" id="use183" style="stroke-width:2" transform="scale(.99626)"/><path id="use184" d="M67.84 58.78h19.535c1.588 0 1.993.202 2.289.902l3.782 8.858-.887.7c-1.494-2.086-2.49-2.584-4.592-2.584H67.154L56.29 42.948c-.093-.202-.093-.295-.093-.498 0-.498.389-.794 1.183-.794 3.19 0 7.176-.7 11.27-2.008 11.457-3.705 16.734-9.916 16.734-19.816 0-9.62-6.087-17.139-13.854-17.139-1.993 0-3.69.7-6.678 2.911-3.176 2.304-5.48 3.3-7.566 3.3-2.895 0-4.28-1.199-4.28-3.705 0-3.798 4.685-6.195 12.157-6.195 8.36 0 15.535 2.708 20.517 7.814 4.576 4.515 6.678 10.212 6.678 17.824 0 7.207-1.9 11.815-6.88 16.812-4.375 4.42-10.057 6.71-21.81 8.81z" style="stroke-width:.0311332"/><use xlink:href="#NimbusRomNo9L-Regu-2e" id="use185" style="stroke-width:2" transform="matrix(.99626 0 0 .99626 99.626 0)"/><use xlink:href="#NimbusRomNo9L-Regu-34" id="use186" style="stroke-width:2" transform="matrix(.99626 0 0 .99626 124.533 0)"/><use xlink:href="#NimbusRomNo9L-Regu-25" id="use187" style="stroke-width:2" transform="matrix(.99626 0 0 .99626 174.346 0)"/></g></g><g id="text_12" style="stroke-width:1.37753" transform="matrix(1.45187 0 0 1.45187 -333.723 -79.434)"><g id="g195" style="stroke-width:1.37753" transform="matrix(.08 0 0 -.08 733.718 165.144)"><use xlink:href="#NimbusRomNo9L-Regu-50" id="use188" style="stroke-width:1.37753" transform="scale(.99626)"/><use xlink:href="#NimbusRomNo9L-Regu-6f" id="use189" style="stroke-width:1.37753" transform="matrix(.99626 0 0 .99626 55.392 0)"/><use xlink:href="#NimbusRomNo9L-Regu-74" id="use190" style="stroke-width:1.37753" transform="matrix(.99626 0 0 .99626 105.205 0)"/><use xlink:href="#NimbusRomNo9L-Regu-61" id="use191" style="stroke-width:1.37753" transform="matrix(.99626 0 0 .99626 132.9 0)"/><use xlink:href="#NimbusRomNo9L-Regu-74" id="use192" style="stroke-width:1.37753" transform="matrix(.99626 0 0 .99626 177.134 0)"/><use xlink:href="#NimbusRomNo9L-Regu-6f" id="use193" style="stroke-width:1.37753" transform="matrix(.99626 0 0 .99626 204.829 0)"/><use xlink:href="#NimbusRomNo9L-Regu-65" id="use194" style="stroke-width:1.37753" transform="matrix(.99626 0 0 .99626 254.642 0)"/><use xlink:href="#NimbusRomNo9L-Regu-73" id="use195" style="stroke-width:1.37753" transform="matrix(.99626 0 0 .99626 298.876 0)"/></g><g id="g202" style="stroke-width:1.37753" transform="matrix(.08 0 0 -.08 733.718 173.354)"><use xlink:href="#NimbusRomNo9L-Regu-28" id="use196" style="stroke-width:1.37753" transform="scale(.99626)"/><path id="use197" d="M51.201 58.78h19.536c1.588 0 1.993.202 2.289.902l3.782 8.858-.887.7c-1.494-2.086-2.49-2.584-4.592-2.584H50.516L39.651 42.948c-.093-.202-.093-.295-.093-.498 0-.498.389-.794 1.183-.794 3.19 0 7.176-.7 11.27-2.008 11.457-3.705 16.734-9.916 16.734-19.816 0-9.62-6.087-17.139-13.854-17.139-1.993 0-3.69.7-6.678 2.911-3.176 2.304-5.48 3.3-7.566 3.3-2.895 0-4.28-1.199-4.28-3.705 0-3.798 4.685-6.195 12.157-6.195 8.36 0 15.535 2.708 20.517 7.814 4.576 4.515 6.678 10.212 6.678 17.824 0 7.207-1.9 11.815-6.88 16.812-4.375 4.42-10.057 6.71-21.81 8.81z" style="stroke-width:.0214434"/><use xlink:href="#NimbusRomNo9L-Regu-37" id="use198" style="stroke-width:1.37753" transform="matrix(.99626 0 0 .99626 82.988 0)"/><use xlink:href="#NimbusRomNo9L-Regu-30" id="use199" style="stroke-width:1.37753" transform="matrix(.99626 0 0 .99626 132.802 0)"/><use xlink:href="#NimbusRomNo9L-Regu-68" id="use200" style="stroke-width:1.37753" transform="matrix(.99626 0 0 .99626 207.521 0)"/><use xlink:href="#NimbusRomNo9L-Regu-61" id="use201" style="stroke-width:1.37753" transform="matrix(.99626 0 0 .99626 257.335 0)"/><use xlink:href="#NimbusRomNo9L-Regu-29" id="use202" style="stroke-width:1.37753" transform="matrix(.99626 0 0 .99626 301.568 0)"/></g></g><g id="text_13" style="stroke-width:2"><g id="g206" style="stroke-width:2" transform="matrix(.08 0 0 -.08 690.682 215.51)"><use xlink:href="#NimbusRomNo9L-Regu-33" id="use203" style="stroke-width:2" transform="scale(.99626)"/><use xlink:href="#NimbusRomNo9L-Regu-2e" id="use204" style="stroke-width:2" transform="matrix(.99626 0 0 .99626 49.813 0)"/><use xlink:href="#NimbusRomNo9L-Regu-38" id="use205" style="stroke-width:2" transform="matrix(.99626 0 0 .99626 74.72 0)"/><use xlink:href="#NimbusRomNo9L-Regu-25" id="use206" style="stroke-width:2" transform="matrix(.99626 0 0 .99626 124.533 0)"/></g></g><g id="text_14" style="stroke-width:1.45217" transform="matrix(1.37724 0 0 1.37724 -275.36 -55.502)"><g id="g225" style="stroke-width:1.45217" transform="matrix(.08 0 0 -.08 694.01 145.058)"><defs id="defs206"><path id="NimbusRomNo9L-Regu-56" d="M4461 4231H3149v-135c352 0 467-70 467-250 0-102-45-274-122-466l-940-2347-967 2166c-211 468-262 615-262 711 0 122 89 186 294 186 26 0 96 0 186 13v122H102v-135c314 0 404-89 679-657L2355-64h96l1421 3585c211 505 282 575 589 575z" transform="scale(.01563)"/></defs><use xlink:href="#NimbusRomNo9L-Regu-56" id="use207" style="stroke-width:1.45217" transform="scale(.99626)"/><use xlink:href="#NimbusRomNo9L-Regu-65" id="use208" style="stroke-width:1.45217" transform="matrix(.99626 0 0 .99626 60.872 0)"/><path id="use209" d="M150.436 38.854v3.892h-7.674c-1.993 0-3.487.265-5.48.872l-2.195.7c-2.677.872-5.37 1.308-7.97 1.308-9.262 0-16.625-7.223-16.625-16.345 0-6.305 2.678-10.134 9.262-13.434-1.899-1.744-3.689-3.41-4.28-3.892-3.3-2.802-4.593-4.748-4.593-6.693 0-2.055 1.199-3.223 5.277-5.169-7.067-5.214-9.76-8.546-9.76-12.25 0-5.34 7.768-9.76 17.232-9.76 7.472 0 15.256 2.646 20.424 6.942 3.798 3.16 5.48 6.444 5.48 10.32 0 6.336-4.67 10.633-12.05 10.633h-12.857c-5.277 0-7.768.918-7.768 2.553 0 2.023 3.284 5.603 5.977 6.413.903-.109 1.604-.202 1.9-.202 1.883-.203 3.19-.296 3.782-.296 3.69 0 7.675 1.525 10.757 4.28 3.284 2.865 4.779 6.445 4.779 11.551 0 2.958-.498 5.308-1.884 8.577zM118.26-.202c3.284-.7 11.255-1.292 16.142-1.292 9.06 0 12.345-1.308 12.345-4.95 0-5.87-7.566-9.792-18.82-9.792-8.78 0-14.555 2.927-14.555 7.363 0 2.335.7 3.643 4.888 8.67m.498 33.592c0 5.931 2.786 9.45 7.363 9.45 3.098 0 5.682-1.713 7.285-4.717 1.79-3.518 2.989-8.126 2.989-12.049 0-5.62-2.895-9.138-7.472-9.138-5.978 0-10.165 6.523-10.165 16.159z" style="stroke-width:.0226052"/><use xlink:href="#NimbusRomNo9L-Regu-65" id="use210" style="stroke-width:1.45217" transform="matrix(.99626 0 0 .99626 153.425 0)"/><use xlink:href="#NimbusRomNo9L-Regu-74" id="use211" style="stroke-width:1.45217" transform="matrix(.99626 0 0 .99626 197.658 0)"/><use xlink:href="#NimbusRomNo9L-Regu-61" id="use212" style="stroke-width:1.45217" transform="matrix(.99626 0 0 .99626 225.354 0)"/><use xlink:href="#NimbusRomNo9L-Regu-62" id="use213" style="stroke-width:1.45217" transform="matrix(.99626 0 0 .99626 269.587 0)"/><use xlink:href="#NimbusRomNo9L-Regu-6c" id="use214" style="stroke-width:1.45217" transform="matrix(.99626 0 0 .99626 319.4 0)"/><use xlink:href="#NimbusRomNo9L-Regu-65" id="use215" style="stroke-width:1.45217" transform="matrix(.99626 0 0 .99626 347.096 0)"/><use xlink:href="#NimbusRomNo9L-Regu-73" id="use216" style="stroke-width:1.45217" transform="matrix(.99626 0 0 .99626 391.33 0)"/><use xlink:href="#NimbusRomNo9L-Regu-69" id="use217" style="stroke-width:1.45217" transform="matrix(.99626 0 0 .99626 454.99 0)"/><use xlink:href="#NimbusRomNo9L-Regu-6e" id="use218" style="stroke-width:1.45217" transform="matrix(.99626 0 0 .99626 482.685 0)"/><use xlink:href="#NimbusRomNo9L-Regu-74" id="use219" style="stroke-width:1.45217" transform="matrix(.99626 0 0 .99626 557.404 0)"/><use xlink:href="#NimbusRomNo9L-Regu-68" id="use220" style="stroke-width:1.45217" transform="matrix(.99626 0 0 .99626 585.1 0)"/><use xlink:href="#NimbusRomNo9L-Regu-65" id="use221" style="stroke-width:1.45217" transform="matrix(.99626 0 0 .99626 634.913 0)"/><use xlink:href="#NimbusRomNo9L-Regu-6f" id="use222" style="stroke-width:1.45217" transform="matrix(.99626 0 0 .99626 704.053 0)"/><use xlink:href="#NimbusRomNo9L-Regu-70" id="use223" style="stroke-width:1.45217" transform="matrix(.99626 0 0 .99626 753.866 0)"/><use xlink:href="#NimbusRomNo9L-Regu-65" id="use224" style="stroke-width:1.45217" transform="matrix(.99626 0 0 .99626 803.68 0)"/><use xlink:href="#NimbusRomNo9L-Regu-6e" id="use225" style="stroke-width:1.45217" transform="matrix(.99626 0 0 .99626 847.913 0)"/></g><g id="g234" style="stroke-width:1.45217" transform="matrix(.08 0 0 -.08 694.01 153.268)"><use xlink:href="#NimbusRomNo9L-Regu-28" id="use226" style="stroke-width:1.45217" transform="scale(.99626)"/><use xlink:href="#NimbusRomNo9L-Regu-31" id="use227" style="stroke-width:1.45217" transform="matrix(.99626 0 0 .99626 33.175 0)"/><use xlink:href="#NimbusRomNo9L-Regu-2c" id="use228" style="stroke-width:1.45217" transform="matrix(.99626 0 0 .99626 82.988 0)"/><use xlink:href="#NimbusRomNo9L-Regu-30" id="use229" style="stroke-width:1.45217" transform="matrix(.99626 0 0 .99626 107.895 0)"/><use xlink:href="#NimbusRomNo9L-Regu-39" id="use230" style="stroke-width:1.45217" transform="matrix(.99626 0 0 .99626 157.708 0)"/><use xlink:href="#NimbusRomNo9L-Regu-30" id="use231" style="stroke-width:1.45217" transform="matrix(.99626 0 0 .99626 207.521 0)"/><use xlink:href="#NimbusRomNo9L-Regu-68" id="use232" style="stroke-width:1.45217" transform="matrix(.99626 0 0 .99626 282.241 0)"/><use xlink:href="#NimbusRomNo9L-Regu-61" id="use233" style="stroke-width:1.45217" transform="matrix(.99626 0 0 .99626 332.054 0)"/><use xlink:href="#NimbusRomNo9L-Regu-29" id="use234" style="stroke-width:1.45217" transform="matrix(.99626 0 0 .99626 376.288 0)"/></g></g><g id="text_15" style="stroke-width:2"><g id="g238" style="stroke-width:2" transform="matrix(.08 0 0 -.08 669.023 204.555)"><use xlink:href="#NimbusRomNo9L-Regu-37" id="use235" style="stroke-width:2" transform="scale(.99626)"/><use xlink:href="#NimbusRomNo9L-Regu-2e" id="use236" style="stroke-width:2" transform="matrix(.99626 0 0 .99626 49.813 0)"/><use xlink:href="#NimbusRomNo9L-Regu-33" id="use237" style="stroke-width:2" transform="matrix(.99626 0 0 .99626 74.72 0)"/><use xlink:href="#NimbusRomNo9L-Regu-25" id="use238" style="stroke-width:2" transform="matrix(.99626 0 0 .99626 124.533 0)"/></g></g><g id="text_16" style="stroke-width:1.3705" transform="translate(-321.78 -67.67)scale(1.45932)"><g id="g243" style="stroke-width:1.3705" transform="matrix(.08 0 0 -.08 661.235 139.71)"><use xlink:href="#NimbusRomNo9L-Regu-4f" id="use239" style="stroke-width:1.3705" transform="scale(.99626)"/><use xlink:href="#NimbusRomNo9L-Regu-74" id="use240" style="stroke-width:1.3705" transform="matrix(.99626 0 0 .99626 71.93 0)"/><use xlink:href="#NimbusRomNo9L-Regu-68" id="use241" style="stroke-width:1.3705" transform="matrix(.99626 0 0 .99626 99.625 0)"/><use xlink:href="#NimbusRomNo9L-Regu-65" id="use242" style="stroke-width:1.3705" transform="matrix(.99626 0 0 .99626 149.438 0)"/><use xlink:href="#NimbusRomNo9L-Regu-72" id="use243" style="stroke-width:1.3705" transform="matrix(.99626 0 0 .99626 193.672 0)"/></g><g id="g250" style="stroke-width:1.3705" transform="matrix(.08 0 0 -.08 661.235 147.92)"><use xlink:href="#NimbusRomNo9L-Regu-28" id="use244" style="stroke-width:1.3705" transform="scale(.99626)"/><use xlink:href="#NimbusRomNo9L-Regu-31" id="use245" style="stroke-width:1.3705" transform="matrix(.99626 0 0 .99626 33.175 0)"/><use xlink:href="#NimbusRomNo9L-Regu-34" id="use246" style="stroke-width:1.3705" transform="matrix(.99626 0 0 .99626 82.988 0)"/><use xlink:href="#NimbusRomNo9L-Regu-36" id="use247" style="stroke-width:1.3705" transform="matrix(.99626 0 0 .99626 132.802 0)"/><use xlink:href="#NimbusRomNo9L-Regu-68" id="use248" style="stroke-width:1.3705" transform="matrix(.99626 0 0 .99626 207.521 0)"/><use xlink:href="#NimbusRomNo9L-Regu-61" id="use249" style="stroke-width:1.3705" transform="matrix(.99626 0 0 .99626 257.335 0)"/><use xlink:href="#NimbusRomNo9L-Regu-29" id="use250" style="stroke-width:1.3705" transform="matrix(.99626 0 0 .99626 301.568 0)"/></g></g><g id="text_17" style="stroke-width:2"><g id="g254" style="stroke-width:2" transform="matrix(.08 0 0 -.08 651.146 201.638)"><use xlink:href="#NimbusRomNo9L-Regu-31" id="use251" style="stroke-width:2" transform="scale(.99626)"/><use xlink:href="#NimbusRomNo9L-Regu-2e" id="use252" style="stroke-width:2" transform="matrix(.99626 0 0 .99626 49.813 0)"/><use xlink:href="#NimbusRomNo9L-Regu-30" id="use253" style="stroke-width:2" transform="matrix(.99626 0 0 .99626 74.72 0)"/><use xlink:href="#NimbusRomNo9L-Regu-25" id="use254" style="stroke-width:2" transform="matrix(.99626 0 0 .99626 124.533 0)"/></g></g></g><g id="axes_3" style="stroke-width:2" transform="matrix(.5 0 0 .5 355.463 195.754)"><g id="patch_10" style="stroke:#377eb8;stroke-width:2;stroke-opacity:1"><path id="path281" d="M184.214 529.513a115.74 115.74 0 0 0-81.812 33.888 115.74 115.74 0 0 0-33.888 81.813 115.74 115.74 0 0 0 33.888 81.813 115.74 115.74 0 0 0 81.812 33.888V645.214Z" style="fill:#b3e2cd;stroke:#377eb8;stroke-width:1;stroke-linejoin:miter;stroke-opacity:1"/></g><g id="patch_11" style="stroke:#377eb8;stroke-width:2;stroke-opacity:1"><path id="path282" d="M184.214 760.915a115.7 115.7 0 0 0 79.003-31.171l-79.003-84.53z" style="fill:#fdcdac;stroke:#377eb8;stroke-width:1;stroke-linejoin:miter;stroke-opacity:1"/></g><g id="patch_12" style="stroke:#377eb8;stroke-width:2;stroke-opacity:1"><path id="path283" d="M263.217 729.744a115.7 115.7 0 0 0 24.338-32.496l-103.34-52.034Z" style="fill:#f4cae4;stroke:#377eb8;stroke-width:1;stroke-linejoin:miter;stroke-opacity:1"/></g><g id="patch_13" style="stroke:#377eb8;stroke-width:2;stroke-opacity:1"><path id="path284" d="M287.555 697.248a115.7 115.7 0 0 0 12.262-56.8l-115.603 4.766z" style="fill:#e6f5c9;stroke:#377eb8;stroke-width:1;stroke-linejoin:miter;stroke-opacity:1"/></g><g id="patch_14" style="stroke:#377eb8;stroke-width:2;stroke-opacity:1"><path id="path285" d="M299.817 640.448a115.74 115.74 0 0 0-34.399-77.651 115.74 115.74 0 0 0-78.153-33.244l-3.05 115.66z" style="fill:#f1e2cc;stroke:#377eb8;stroke-width:1;stroke-linejoin:miter;stroke-opacity:1"/></g><g id="patch_15" style="stroke:#377eb8;stroke-width:2;stroke-opacity:1"><path id="path286" d="M187.265 529.553a116 116 0 0 0-3.05-.04v115.7z" style="fill:#ccc;stroke:#377eb8;stroke-width:1;stroke-linejoin:miter;stroke-opacity:1"/></g><g id="text_19" style="stroke-width:1.5581" transform="translate(-8.557 -182.965)scale(1.28361)"><g id="g299" style="stroke-width:1.5581" transform="matrix(.08 0 0 -.08 3.6 642.948)"><defs id="defs286"><path id="NimbusRomNo9L-Regu-63" d="M2547 998c-307-448-537-601-902-601-583 0-992 512-992 1248 0 659 352 1113 870 1113 231 0 314-70 378-307l38-141c51-179 167-294 301-294 166 0 307 122 307 269 0 358-448 659-985 659-314 0-640-128-903-358-320-282-499-717-499-1223C160 531 666-64 1376-64c288 0 544 102 774 301 173 153 295 326 487 704z" transform="scale(.01563)"/></defs><use xlink:href="#NimbusRomNo9L-Regu-50" id="use286" style="stroke-width:1.5581" transform="scale(.99626)"/><use xlink:href="#NimbusRomNo9L-Regu-65" id="use287" style="stroke-width:1.5581" transform="matrix(.99626 0 0 .99626 55.392 0)"/><use xlink:href="#NimbusRomNo9L-Regu-72" id="use288" style="stroke-width:1.5581" transform="matrix(.99626 0 0 .99626 99.625 0)"/><use xlink:href="#NimbusRomNo9L-Regu-6d" id="use289" style="stroke-width:1.5581" transform="matrix(.99626 0 0 .99626 132.8 0)"/><use xlink:href="#NimbusRomNo9L-Regu-61" id="use290" style="stroke-width:1.5581" transform="matrix(.99626 0 0 .99626 210.309 0)"/><use xlink:href="#NimbusRomNo9L-Regu-6e" id="use291" style="stroke-width:1.5581" transform="matrix(.99626 0 0 .99626 254.542 0)"/><use xlink:href="#NimbusRomNo9L-Regu-65" id="use292" style="stroke-width:1.5581" transform="matrix(.99626 0 0 .99626 304.356 0)"/><use xlink:href="#NimbusRomNo9L-Regu-6e" id="use293" style="stroke-width:1.5581" transform="matrix(.99626 0 0 .99626 348.59 0)"/><use xlink:href="#NimbusRomNo9L-Regu-74" id="use294" style="stroke-width:1.5581" transform="matrix(.99626 0 0 .99626 398.402 0)"/><use xlink:href="#NimbusRomNo9L-Regu-63" id="use295" style="stroke-width:1.5581" transform="matrix(.99626 0 0 .99626 451.004 0)"/><use xlink:href="#NimbusRomNo9L-Regu-72" id="use296" style="stroke-width:1.5581" transform="matrix(.99626 0 0 .99626 495.238 0)"/><use xlink:href="#NimbusRomNo9L-Regu-6f" id="use297" style="stroke-width:1.5581" transform="matrix(.99626 0 0 .99626 528.413 0)"/><use xlink:href="#NimbusRomNo9L-Regu-70" id="use298" style="stroke-width:1.5581" transform="matrix(.99626 0 0 .99626 578.226 0)"/><use xlink:href="#NimbusRomNo9L-Regu-73" id="use299" style="stroke-width:1.5581" transform="matrix(.99626 0 0 .99626 628.04 0)"/></g><g id="g306" style="stroke-width:1.5581" transform="matrix(.08 0 0 -.08 30.164 651.158)"><use xlink:href="#NimbusRomNo9L-Regu-28" id="use300" style="stroke-width:1.5581" transform="scale(.99626)"/><use xlink:href="#NimbusRomNo9L-Regu-39" id="use301" style="stroke-width:1.5581" transform="matrix(.99626 0 0 .99626 33.175 0)"/><path id="use302" d="M101.015 58.78h19.536c1.587 0 1.992.202 2.288.902l3.783 8.858-.888.7c-1.494-2.086-2.49-2.584-4.592-2.584H100.33L89.464 42.948c-.093-.202-.093-.295-.093-.498 0-.498.389-.794 1.183-.794 3.191 0 7.176-.7 11.27-2.008 11.457-3.705 16.734-9.916 16.734-19.816 0-9.62-6.086-17.139-13.854-17.139-1.993 0-3.69.7-6.678 2.911-3.176 2.304-5.48 3.3-7.566 3.3-2.895 0-4.28-1.199-4.28-3.705 0-3.798 4.685-6.195 12.157-6.195 8.36 0 15.536 2.708 20.517 7.814 4.577 4.515 6.678 10.212 6.678 17.824 0 7.207-1.9 11.815-6.88 16.812-4.375 4.42-10.056 6.71-21.81 8.81z" style="stroke-width:.0242544"/><use xlink:href="#NimbusRomNo9L-Regu-33" id="use303" style="stroke-width:1.5581" transform="matrix(.99626 0 0 .99626 132.802 0)"/><use xlink:href="#NimbusRomNo9L-Regu-68" id="use304" style="stroke-width:1.5581" transform="matrix(.99626 0 0 .99626 207.521 0)"/><use xlink:href="#NimbusRomNo9L-Regu-61" id="use305" style="stroke-width:1.5581" transform="matrix(.99626 0 0 .99626 257.335 0)"/><use xlink:href="#NimbusRomNo9L-Regu-29" id="use306" style="stroke-width:1.5581" transform="matrix(.99626 0 0 .99626 301.568 0)"/></g></g><g id="text_20" style="stroke-width:2"><g id="g311" style="stroke-width:2" transform="matrix(.08 0 0 -.08 104.5 647.053)"><path id="use307" d="M18.026 58.78h19.536c1.588 0 1.993.202 2.289.902l3.782 8.858-.887.7c-1.494-2.086-2.49-2.584-4.592-2.584H17.34L6.476 42.948c-.094-.202-.094-.295-.094-.498 0-.498.39-.794 1.183-.794 3.192 0 7.177-.7 11.27-2.008 11.458-3.705 16.735-9.916 16.735-19.816 0-9.62-6.087-17.139-13.855-17.139-1.992 0-3.689.7-6.678 2.911-3.175 2.304-5.48 3.3-7.565 3.3-2.895 0-4.28-1.199-4.28-3.705 0-3.798 4.685-6.195 12.157-6.195 8.359 0 15.535 2.708 20.517 7.814 4.576 4.515 6.678 10.212 6.678 17.824 0 7.207-1.9 11.815-6.88 16.812-4.375 4.42-10.057 6.71-21.81 8.81z" style="stroke-width:.0311332"/><use xlink:href="#NimbusRomNo9L-Regu-30" id="use308" style="stroke-width:2" transform="matrix(.99626 0 0 .99626 49.813 0)"/><use xlink:href="#NimbusRomNo9L-Regu-2e" id="use309" style="stroke-width:2" transform="matrix(.99626 0 0 .99626 99.626 0)"/><use xlink:href="#NimbusRomNo9L-Regu-30" id="use310" style="stroke-width:2" transform="matrix(.99626 0 0 .99626 124.533 0)"/><use xlink:href="#NimbusRomNo9L-Regu-25" id="use311" style="stroke-width:2" transform="matrix(.99626 0 0 .99626 174.346 0)"/></g></g><g id="text_21" style="stroke-width:1.69807" transform="matrix(1.1778 0 0 1.1778 -48.577 -135.739)"><g id="g335" style="stroke-width:1.69807" transform="matrix(.08 0 0 -.08 230.926 761.337)"><defs id="defs311"><path id="NimbusRomNo9L-Regu-79" d="M3040 2880h-864v-96c205 0 307-58 307-161 0-26-6-64-25-109L1837 742l-736 1635c-39 91-64 175-64 245 0 117 96 162 371 162v96H90v-90c166-25 275-96 326-205l730-1580 19-52 96-192c179-321 281-552 281-649 0-96-147-501-256-694-89-167-230-289-320-289-38 0-96 13-160 45-121 45-230 71-339 71-147 0-275-128-275-282 0-211 205-371 474-371 428 0 736 359 1081 1284l986 2619c83 206 153 270 307 289z" transform="scale(.01563)"/></defs><use xlink:href="#NimbusRomNo9L-Regu-46" id="use312" style="stroke-width:1.69807" transform="scale(.99626)"/><use xlink:href="#NimbusRomNo9L-Regu-72" id="use313" style="stroke-width:1.69807" transform="matrix(.99626 0 0 .99626 55.392 0)"/><use xlink:href="#NimbusRomNo9L-Regu-75" id="use314" style="stroke-width:1.69807" transform="matrix(.99626 0 0 .99626 88.567 0)"/><use xlink:href="#NimbusRomNo9L-Regu-69" id="use315" style="stroke-width:1.69807" transform="matrix(.99626 0 0 .99626 138.38 0)"/><use xlink:href="#NimbusRomNo9L-Regu-74" id="use316" style="stroke-width:1.69807" transform="matrix(.99626 0 0 .99626 166.075 0)"/><use xlink:href="#NimbusRomNo9L-Regu-61" id="use317" style="stroke-width:1.69807" transform="matrix(.99626 0 0 .99626 218.677 0)"/><use xlink:href="#NimbusRomNo9L-Regu-6e" id="use318" style="stroke-width:1.69807" transform="matrix(.99626 0 0 .99626 262.91 0)"/><use xlink:href="#NimbusRomNo9L-Regu-64" id="use319" style="stroke-width:1.69807" transform="matrix(.99626 0 0 .99626 312.724 0)"/><use xlink:href="#NimbusRomNo9L-Regu-62" id="use320" style="stroke-width:1.69807" transform="matrix(.99626 0 0 .99626 387.444 0)"/><use xlink:href="#NimbusRomNo9L-Regu-65" id="use321" style="stroke-width:1.69807" transform="matrix(.99626 0 0 .99626 437.257 0)"/><use xlink:href="#NimbusRomNo9L-Regu-72" id="use322" style="stroke-width:1.69807" transform="matrix(.99626 0 0 .99626 481.49 0)"/><use xlink:href="#NimbusRomNo9L-Regu-72" id="use323" style="stroke-width:1.69807" transform="matrix(.99626 0 0 .99626 514.666 0)"/><use xlink:href="#NimbusRomNo9L-Regu-79" id="use324" style="stroke-width:1.69807" transform="matrix(.99626 0 0 .99626 547.84 0)"/><use xlink:href="#NimbusRomNo9L-Regu-70" id="use325" style="stroke-width:1.69807" transform="matrix(.99626 0 0 .99626 622.56 0)"/><use xlink:href="#NimbusRomNo9L-Regu-6c" id="use326" style="stroke-width:1.69807" transform="matrix(.99626 0 0 .99626 672.374 0)"/><use xlink:href="#NimbusRomNo9L-Regu-61" id="use327" style="stroke-width:1.69807" transform="matrix(.99626 0 0 .99626 700.069 0)"/><use xlink:href="#NimbusRomNo9L-Regu-6e" id="use328" style="stroke-width:1.69807" transform="matrix(.99626 0 0 .99626 744.303 0)"/><use xlink:href="#NimbusRomNo9L-Regu-74" id="use329" style="stroke-width:1.69807" transform="matrix(.99626 0 0 .99626 794.116 0)"/><use xlink:href="#NimbusRomNo9L-Regu-61" id="use330" style="stroke-width:1.69807" transform="matrix(.99626 0 0 .99626 821.811 0)"/><use xlink:href="#NimbusRomNo9L-Regu-74" id="use331" style="stroke-width:1.69807" transform="matrix(.99626 0 0 .99626 866.045 0)"/><use xlink:href="#NimbusRomNo9L-Regu-69" id="use332" style="stroke-width:1.69807" transform="matrix(.99626 0 0 .99626 893.74 0)"/><use xlink:href="#NimbusRomNo9L-Regu-6f" id="use333" style="stroke-width:1.69807" transform="matrix(.99626 0 0 .99626 921.435 0)"/><use xlink:href="#NimbusRomNo9L-Regu-6e" id="use334" style="stroke-width:1.69807" transform="matrix(.99626 0 0 .99626 971.248 0)"/><use xlink:href="#NimbusRomNo9L-Regu-73" id="use335" style="stroke-width:1.69807" transform="matrix(.99626 0 0 .99626 1021.061 0)"/></g><g id="g342" style="stroke-width:1.69807" transform="matrix(.08 0 0 -.08 230.926 769.547)"><use xlink:href="#NimbusRomNo9L-Regu-28" id="use336" style="stroke-width:1.69807" transform="scale(.99626)"/><use xlink:href="#NimbusRomNo9L-Regu-32" id="use337" style="stroke-width:1.69807" transform="matrix(.99626 0 0 .99626 33.175 0)"/><use xlink:href="#NimbusRomNo9L-Regu-32" id="use338" style="stroke-width:1.69807" transform="matrix(.99626 0 0 .99626 82.988 0)"/><use xlink:href="#NimbusRomNo9L-Regu-38" id="use339" style="stroke-width:1.69807" transform="matrix(.99626 0 0 .99626 132.802 0)"/><use xlink:href="#NimbusRomNo9L-Regu-68" id="use340" style="stroke-width:1.69807" transform="matrix(.99626 0 0 .99626 207.521 0)"/><use xlink:href="#NimbusRomNo9L-Regu-61" id="use341" style="stroke-width:1.69807" transform="matrix(.99626 0 0 .99626 257.335 0)"/><use xlink:href="#NimbusRomNo9L-Regu-29" id="use342" style="stroke-width:1.69807" transform="matrix(.99626 0 0 .99626 301.568 0)"/></g></g><g id="text_22" style="stroke-width:2"><g id="g347" style="stroke-width:2" transform="matrix(.08 0 0 -.08 199.4 711.629)"><use xlink:href="#NimbusRomNo9L-Regu-31" id="use343" style="stroke-width:2" transform="scale(.99626)"/><use xlink:href="#NimbusRomNo9L-Regu-32" id="use344" style="stroke-width:2" transform="matrix(.99626 0 0 .99626 49.813 0)"/><use xlink:href="#NimbusRomNo9L-Regu-2e" id="use345" style="stroke-width:2" transform="matrix(.99626 0 0 .99626 99.626 0)"/><use xlink:href="#NimbusRomNo9L-Regu-30" id="use346" style="stroke-width:2" transform="matrix(.99626 0 0 .99626 124.533 0)"/><use xlink:href="#NimbusRomNo9L-Regu-25" id="use347" style="stroke-width:2" transform="matrix(.99626 0 0 .99626 174.346 0)"/></g></g><g id="text_23" style="stroke-width:1.57693" transform="translate(-84.313 -193.524)scale(1.26829)"><g id="g364" style="stroke-width:1.57693" transform="matrix(.08 0 0 -.08 286.083 719.242)"><use xlink:href="#NimbusRomNo9L-Regu-43" id="use348" style="stroke-width:1.57693" transform="scale(.99626)"/><use xlink:href="#NimbusRomNo9L-Regu-69" id="use349" style="stroke-width:1.57693" transform="matrix(.99626 0 0 .99626 66.45 0)"/><use xlink:href="#NimbusRomNo9L-Regu-74" id="use350" style="stroke-width:1.57693" transform="matrix(.99626 0 0 .99626 94.145 0)"/><use xlink:href="#NimbusRomNo9L-Regu-72" id="use351" style="stroke-width:1.57693" transform="matrix(.99626 0 0 .99626 121.84 0)"/><use xlink:href="#NimbusRomNo9L-Regu-75" id="use352" style="stroke-width:1.57693" transform="matrix(.99626 0 0 .99626 155.016 0)"/><use xlink:href="#NimbusRomNo9L-Regu-73" id="use353" style="stroke-width:1.57693" transform="matrix(.99626 0 0 .99626 204.829 0)"/><use xlink:href="#NimbusRomNo9L-Regu-70" id="use354" style="stroke-width:1.57693" transform="matrix(.99626 0 0 .99626 268.49 0)"/><use xlink:href="#NimbusRomNo9L-Regu-6c" id="use355" style="stroke-width:1.57693" transform="matrix(.99626 0 0 .99626 318.302 0)"/><use xlink:href="#NimbusRomNo9L-Regu-61" id="use356" style="stroke-width:1.57693" transform="matrix(.99626 0 0 .99626 345.997 0)"/><use xlink:href="#NimbusRomNo9L-Regu-6e" id="use357" style="stroke-width:1.57693" transform="matrix(.99626 0 0 .99626 390.231 0)"/><use xlink:href="#NimbusRomNo9L-Regu-74" id="use358" style="stroke-width:1.57693" transform="matrix(.99626 0 0 .99626 440.044 0)"/><use xlink:href="#NimbusRomNo9L-Regu-61" id="use359" style="stroke-width:1.57693" transform="matrix(.99626 0 0 .99626 467.74 0)"/><use xlink:href="#NimbusRomNo9L-Regu-74" id="use360" style="stroke-width:1.57693" transform="matrix(.99626 0 0 .99626 511.973 0)"/><use xlink:href="#NimbusRomNo9L-Regu-69" id="use361" style="stroke-width:1.57693" transform="matrix(.99626 0 0 .99626 539.668 0)"/><use xlink:href="#NimbusRomNo9L-Regu-6f" id="use362" style="stroke-width:1.57693" transform="matrix(.99626 0 0 .99626 567.363 0)"/><use xlink:href="#NimbusRomNo9L-Regu-6e" id="use363" style="stroke-width:1.57693" transform="matrix(.99626 0 0 .99626 617.177 0)"/><use xlink:href="#NimbusRomNo9L-Regu-73" id="use364" style="stroke-width:1.57693" transform="matrix(.99626 0 0 .99626 666.99 0)"/></g><g id="g371" style="stroke-width:1.57693" transform="matrix(.08 0 0 -.08 286.083 727.451)"><use xlink:href="#NimbusRomNo9L-Regu-28" id="use365" style="stroke-width:1.57693" transform="scale(.99626)"/><use xlink:href="#NimbusRomNo9L-Regu-31" id="use366" style="stroke-width:1.57693" transform="matrix(.99626 0 0 .99626 33.175 0)"/><use xlink:href="#NimbusRomNo9L-Regu-30" id="use367" style="stroke-width:1.57693" transform="matrix(.99626 0 0 .99626 82.988 0)"/><use xlink:href="#NimbusRomNo9L-Regu-37" id="use368" style="stroke-width:1.57693" transform="matrix(.99626 0 0 .99626 132.802 0)"/><use xlink:href="#NimbusRomNo9L-Regu-68" id="use369" style="stroke-width:1.57693" transform="matrix(.99626 0 0 .99626 207.521 0)"/><use xlink:href="#NimbusRomNo9L-Regu-61" id="use370" style="stroke-width:1.57693" transform="matrix(.99626 0 0 .99626 257.335 0)"/><use xlink:href="#NimbusRomNo9L-Regu-29" id="use371" style="stroke-width:1.57693" transform="matrix(.99626 0 0 .99626 301.568 0)"/></g></g><g id="text_24" style="stroke-width:2"><g id="g375" style="stroke-width:2" transform="matrix(.08 0 0 -.08 231.478 688.668)"><path id="use372" d="M18.026 58.78h19.536c1.588 0 1.993.202 2.289.902l3.782 8.858-.887.7c-1.494-2.086-2.49-2.584-4.592-2.584H17.34L6.476 42.948c-.094-.202-.094-.295-.094-.498 0-.498.39-.794 1.183-.794 3.192 0 7.177-.7 11.27-2.008 11.458-3.705 16.735-9.916 16.735-19.816 0-9.62-6.087-17.139-13.855-17.139-1.992 0-3.689.7-6.678 2.911-3.175 2.304-5.48 3.3-7.565 3.3-2.895 0-4.28-1.199-4.28-3.705 0-3.798 4.685-6.195 12.157-6.195 8.359 0 15.535 2.708 20.517 7.814 4.576 4.515 6.678 10.212 6.678 17.824 0 7.207-1.9 11.815-6.88 16.812-4.375 4.42-10.057 6.71-21.81 8.81z" style="stroke-width:.0311332"/><use xlink:href="#NimbusRomNo9L-Regu-2e" id="use373" style="stroke-width:2" transform="matrix(.99626 0 0 .99626 49.813 0)"/><use xlink:href="#NimbusRomNo9L-Regu-36" id="use374" style="stroke-width:2" transform="matrix(.99626 0 0 .99626 74.72 0)"/><use xlink:href="#NimbusRomNo9L-Regu-25" id="use375" style="stroke-width:2" transform="matrix(.99626 0 0 .99626 124.533 0)"/></g></g><g id="text_25" style="stroke-width:1.56373" transform="matrix(1.279 0 0 1.279 -93.678 -187.45)"><g id="g391" style="stroke-width:1.56373" transform="matrix(.08 0 0 -.08 308.62 669.806)"><use xlink:href="#NimbusRomNo9L-Regu-4f" id="use376" style="stroke-width:1.56373" transform="scale(.99626)"/><use xlink:href="#NimbusRomNo9L-Regu-6c" id="use377" style="stroke-width:1.56373" transform="matrix(.99626 0 0 .99626 71.93 0)"/><use xlink:href="#NimbusRomNo9L-Regu-69" id="use378" style="stroke-width:1.56373" transform="matrix(.99626 0 0 .99626 99.625 0)"/><use xlink:href="#NimbusRomNo9L-Regu-76" id="use379" style="stroke-width:1.56373" transform="matrix(.99626 0 0 .99626 124.83 0)"/><use xlink:href="#NimbusRomNo9L-Regu-65" id="use380" style="stroke-width:1.56373" transform="matrix(.99626 0 0 .99626 173.15 0)"/><use xlink:href="#NimbusRomNo9L-Regu-70" id="use381" style="stroke-width:1.56373" transform="matrix(.99626 0 0 .99626 242.29 0)"/><use xlink:href="#NimbusRomNo9L-Regu-6c" id="use382" style="stroke-width:1.56373" transform="matrix(.99626 0 0 .99626 292.103 0)"/><use xlink:href="#NimbusRomNo9L-Regu-61" id="use383" style="stroke-width:1.56373" transform="matrix(.99626 0 0 .99626 319.798 0)"/><use xlink:href="#NimbusRomNo9L-Regu-6e" id="use384" style="stroke-width:1.56373" transform="matrix(.99626 0 0 .99626 364.032 0)"/><use xlink:href="#NimbusRomNo9L-Regu-74" id="use385" style="stroke-width:1.56373" transform="matrix(.99626 0 0 .99626 413.845 0)"/><use xlink:href="#NimbusRomNo9L-Regu-61" id="use386" style="stroke-width:1.56373" transform="matrix(.99626 0 0 .99626 441.54 0)"/><use xlink:href="#NimbusRomNo9L-Regu-74" id="use387" style="stroke-width:1.56373" transform="matrix(.99626 0 0 .99626 485.774 0)"/><use xlink:href="#NimbusRomNo9L-Regu-69" id="use388" style="stroke-width:1.56373" transform="matrix(.99626 0 0 .99626 513.469 0)"/><use xlink:href="#NimbusRomNo9L-Regu-6f" id="use389" style="stroke-width:1.56373" transform="matrix(.99626 0 0 .99626 541.164 0)"/><use xlink:href="#NimbusRomNo9L-Regu-6e" id="use390" style="stroke-width:1.56373" transform="matrix(.99626 0 0 .99626 590.977 0)"/><use xlink:href="#NimbusRomNo9L-Regu-73" id="use391" style="stroke-width:1.56373" transform="matrix(.99626 0 0 .99626 640.79 0)"/></g><g id="g398" style="stroke-width:1.56373" transform="matrix(.08 0 0 -.08 308.62 678.016)"><use xlink:href="#NimbusRomNo9L-Regu-28" id="use392" style="stroke-width:1.56373" transform="scale(.99626)"/><use xlink:href="#NimbusRomNo9L-Regu-31" id="use393" style="stroke-width:1.56373" transform="matrix(.99626 0 0 .99626 33.175 0)"/><path id="use394" d="M101.015 58.78h19.536c1.587 0 1.992.202 2.288.902l3.783 8.858-.888.7c-1.494-2.086-2.49-2.584-4.592-2.584H100.33L89.464 42.948c-.093-.202-.093-.295-.093-.498 0-.498.389-.794 1.183-.794 3.191 0 7.176-.7 11.27-2.008 11.457-3.705 16.734-9.916 16.734-19.816 0-9.62-6.086-17.139-13.854-17.139-1.993 0-3.69.7-6.678 2.911-3.176 2.304-5.48 3.3-7.566 3.3-2.895 0-4.28-1.199-4.28-3.705 0-3.798 4.685-6.195 12.157-6.195 8.36 0 15.536 2.708 20.517 7.814 4.577 4.515 6.678 10.212 6.678 17.824 0 7.207-1.9 11.815-6.88 16.812-4.375 4.42-10.056 6.71-21.81 8.81z" style="stroke-width:.0243419"/><use xlink:href="#NimbusRomNo9L-Regu-34" id="use395" style="stroke-width:1.56373" transform="matrix(.99626 0 0 .99626 132.802 0)"/><use xlink:href="#NimbusRomNo9L-Regu-68" id="use396" style="stroke-width:1.56373" transform="matrix(.99626 0 0 .99626 207.521 0)"/><use xlink:href="#NimbusRomNo9L-Regu-61" id="use397" style="stroke-width:1.56373" transform="matrix(.99626 0 0 .99626 257.335 0)"/><use xlink:href="#NimbusRomNo9L-Regu-29" id="use398" style="stroke-width:1.56373" transform="matrix(.99626 0 0 .99626 301.568 0)"/></g></g><g id="text_26" style="stroke-width:2"><g id="g402" style="stroke-width:2" transform="matrix(.08 0 0 -.08 243.77 661.703)"><use xlink:href="#NimbusRomNo9L-Regu-38" id="use399" style="stroke-width:2" transform="scale(.99626)"/><use xlink:href="#NimbusRomNo9L-Regu-2e" id="use400" style="stroke-width:2" transform="matrix(.99626 0 0 .99626 49.813 0)"/><use xlink:href="#NimbusRomNo9L-Regu-31" id="use401" style="stroke-width:2" transform="matrix(.99626 0 0 .99626 74.72 0)"/><use xlink:href="#NimbusRomNo9L-Regu-25" id="use402" style="stroke-width:2" transform="matrix(.99626 0 0 .99626 124.533 0)"/></g></g><g id="text_27" style="stroke-width:1.35768" transform="matrix(1.4731 0 0 1.4731 -136.973 -262.279)"><g id="g411" style="stroke-width:1.35768" transform="matrix(.08 0 0 -.08 273.539 552.289)"><use xlink:href="#NimbusRomNo9L-Regu-56" id="use403" style="stroke-width:1.35768" transform="scale(.99626)"/><use xlink:href="#NimbusRomNo9L-Regu-69" id="use404" style="stroke-width:1.35768" transform="matrix(.99626 0 0 .99626 65.953 0)"/><use xlink:href="#NimbusRomNo9L-Regu-6e" id="use405" style="stroke-width:1.35768" transform="matrix(.99626 0 0 .99626 93.648 0)"/><use xlink:href="#NimbusRomNo9L-Regu-65" id="use406" style="stroke-width:1.35768" transform="matrix(.99626 0 0 .99626 143.46 0)"/><use xlink:href="#NimbusRomNo9L-Regu-79" id="use407" style="stroke-width:1.35768" transform="matrix(.99626 0 0 .99626 186.201 0)"/><use xlink:href="#NimbusRomNo9L-Regu-61" id="use408" style="stroke-width:1.35768" transform="matrix(.99626 0 0 .99626 236.014 0)"/><use xlink:href="#NimbusRomNo9L-Regu-72" id="use409" style="stroke-width:1.35768" transform="matrix(.99626 0 0 .99626 280.248 0)"/><use xlink:href="#NimbusRomNo9L-Regu-64" id="use410" style="stroke-width:1.35768" transform="matrix(.99626 0 0 .99626 313.423 0)"/><use xlink:href="#NimbusRomNo9L-Regu-73" id="use411" style="stroke-width:1.35768" transform="matrix(.99626 0 0 .99626 363.236 0)"/></g><g id="g418" style="stroke-width:1.35768" transform="matrix(.08 0 0 -.08 273.539 560.499)"><use xlink:href="#NimbusRomNo9L-Regu-28" id="use412" style="stroke-width:1.35768" transform="scale(.99626)"/><use xlink:href="#NimbusRomNo9L-Regu-34" id="use413" style="stroke-width:1.35768" transform="matrix(.99626 0 0 .99626 33.175 0)"/><path id="use414" d="M101.015 58.78h19.536c1.587 0 1.992.202 2.288.902l3.783 8.858-.888.7c-1.494-2.086-2.49-2.584-4.592-2.584H100.33L89.464 42.948c-.093-.202-.093-.295-.093-.498 0-.498.389-.794 1.183-.794 3.191 0 7.176-.7 11.27-2.008 11.457-3.705 16.734-9.916 16.734-19.816 0-9.62-6.086-17.139-13.854-17.139-1.993 0-3.69.7-6.678 2.911-3.176 2.304-5.48 3.3-7.566 3.3-2.895 0-4.28-1.199-4.28-3.705 0-3.798 4.685-6.195 12.157-6.195 8.36 0 15.536 2.708 20.517 7.814 4.577 4.515 6.678 10.212 6.678 17.824 0 7.207-1.9 11.815-6.88 16.812-4.375 4.42-10.056 6.71-21.81 8.81z" style="stroke-width:.0211344"/><use xlink:href="#NimbusRomNo9L-Regu-36" id="use415" style="stroke-width:1.35768" transform="matrix(.99626 0 0 .99626 132.802 0)"/><use xlink:href="#NimbusRomNo9L-Regu-68" id="use416" style="stroke-width:1.35768" transform="matrix(.99626 0 0 .99626 207.521 0)"/><use xlink:href="#NimbusRomNo9L-Regu-61" id="use417" style="stroke-width:1.35768" transform="matrix(.99626 0 0 .99626 257.335 0)"/><use xlink:href="#NimbusRomNo9L-Regu-29" id="use418" style="stroke-width:1.35768" transform="matrix(.99626 0 0 .99626 301.568 0)"/></g></g><g id="text_28" style="stroke-width:2"><g id="g423" style="stroke-width:2" transform="matrix(.08 0 0 -.08 222.643 597.603)"><use xlink:href="#NimbusRomNo9L-Regu-32" id="use419" style="stroke-width:2" transform="scale(.99626)"/><use xlink:href="#NimbusRomNo9L-Regu-33" id="use420" style="stroke-width:2" transform="matrix(.99626 0 0 .99626 49.813 0)"/><use xlink:href="#NimbusRomNo9L-Regu-2e" id="use421" style="stroke-width:2" transform="matrix(.99626 0 0 .99626 99.626 0)"/><use xlink:href="#NimbusRomNo9L-Regu-39" id="use422" style="stroke-width:2" transform="matrix(.99626 0 0 .99626 124.533 0)"/><use xlink:href="#NimbusRomNo9L-Regu-25" id="use423" style="stroke-width:2" transform="matrix(.99626 0 0 .99626 174.346 0)"/></g></g><g id="text_29" style="stroke-width:1.33508" transform="matrix(1.49804 0 0 1.49804 -100.13 -257.878)"><g id="g432" style="stroke-width:1.33508" transform="matrix(.08 0 0 -.08 185.893 515.688)"><defs id="defs423"><path id="NimbusRomNo9L-Regu-4e" d="M3917-64v3351c0 382 64 618 185 700 90 64 180 90 423 115v122H3021v-122c243-19 333-45 429-102 128-89 185-319 185-714V1136L1171 4224H77v-122c275 0 365-51 621-351V938c0-657-90-779-621-817V0h1504v134c-493 0-602 147-602 794v2511L3808-64Z" transform="scale(.01563)"/></defs><use xlink:href="#NimbusRomNo9L-Regu-4e" id="use424" style="stroke-width:1.33508" transform="scale(.99626)"/><use xlink:href="#NimbusRomNo9L-Regu-75" id="use425" style="stroke-width:1.33508" transform="matrix(.99626 0 0 .99626 71.93 0)"/><use xlink:href="#NimbusRomNo9L-Regu-72" id="use426" style="stroke-width:1.33508" transform="matrix(.99626 0 0 .99626 121.743 0)"/><use xlink:href="#NimbusRomNo9L-Regu-73" id="use427" style="stroke-width:1.33508" transform="matrix(.99626 0 0 .99626 154.918 0)"/><use xlink:href="#NimbusRomNo9L-Regu-65" id="use428" style="stroke-width:1.33508" transform="matrix(.99626 0 0 .99626 193.672 0)"/><use xlink:href="#NimbusRomNo9L-Regu-72" id="use429" style="stroke-width:1.33508" transform="matrix(.99626 0 0 .99626 237.906 0)"/><use xlink:href="#NimbusRomNo9L-Regu-69" id="use430" style="stroke-width:1.33508" transform="matrix(.99626 0 0 .99626 271.08 0)"/><use xlink:href="#NimbusRomNo9L-Regu-65" id="use431" style="stroke-width:1.33508" transform="matrix(.99626 0 0 .99626 298.776 0)"/><use xlink:href="#NimbusRomNo9L-Regu-73" id="use432" style="stroke-width:1.33508" transform="matrix(.99626 0 0 .99626 343.01 0)"/></g><g id="g437" style="stroke-width:1.33508" transform="matrix(.08 0 0 -.08 185.893 523.898)"><use xlink:href="#NimbusRomNo9L-Regu-28" id="use433" style="stroke-width:1.33508" transform="scale(.99626)"/><use xlink:href="#NimbusRomNo9L-Regu-38" id="use434" style="stroke-width:1.33508" transform="matrix(.99626 0 0 .99626 33.175 0)"/><use xlink:href="#NimbusRomNo9L-Regu-68" id="use435" style="stroke-width:1.33508" transform="matrix(.99626 0 0 .99626 107.895 0)"/><use xlink:href="#NimbusRomNo9L-Regu-61" id="use436" style="stroke-width:1.33508" transform="matrix(.99626 0 0 .99626 157.708 0)"/><use xlink:href="#NimbusRomNo9L-Regu-29" id="use437" style="stroke-width:1.33508" transform="matrix(.99626 0 0 .99626 201.942 0)"/></g></g><g id="text_30" style="stroke-width:2"><g id="g441" style="stroke-width:2" transform="matrix(.08 0 0 -.08 176.829 577.639)"><use xlink:href="#NimbusRomNo9L-Regu-30" id="use438" style="stroke-width:2" transform="scale(.99626)"/><use xlink:href="#NimbusRomNo9L-Regu-2e" id="use439" style="stroke-width:2" transform="matrix(.99626 0 0 .99626 49.813 0)"/><use xlink:href="#NimbusRomNo9L-Regu-34" id="use440" style="stroke-width:2" transform="matrix(.99626 0 0 .99626 74.72 0)"/><use xlink:href="#NimbusRomNo9L-Regu-25" id="use441" style="stroke-width:2" transform="matrix(.99626 0 0 .99626 124.533 0)"/></g></g></g><g id="axes_4" style="stroke-width:2" transform="matrix(.5 0 0 .5 122.517 40.518)"><g id="patch_16" style="stroke:#4daf4a;stroke-width:2;stroke-opacity:1"><path id="path471" d="M657.301 529.513a115.7 115.7 0 0 0-110.017 79.884 115.7 115.7 0 0 0-5.059 47.822l115.076-12.005z" style="fill:#b3e2cd;stroke:#4daf4a;stroke-width:1;stroke-linejoin:miter;stroke-opacity:1"/></g><g id="patch_17" style="stroke:#4daf4a;stroke-width:2;stroke-opacity:1"><path id="path472" d="M542.225 657.22a115.7 115.7 0 0 0 25.11 60.746 115.7 115.7 0 0 0 54.15 37.265 115.7 115.7 0 0 0 65.708 1.756 115.7 115.7 0 0 0 56.061-34.321 115.7 115.7 0 0 0 28.319-59.32 115.7 115.7 0 0 0-8.565-65.172 115.7 115.7 0 0 0-42.682-49.989 115.7 115.7 0 0 0-63.025-18.672v115.7z" style="fill:#ccc;stroke:#4daf4a;stroke-width:1;stroke-linejoin:miter;stroke-opacity:1"/></g><g id="text_32" style="stroke-width:1.42717" transform="matrix(1.40138 0 0 1.40138 -218.35 -224.707)"><g id="g481" style="stroke-width:1.42717" transform="matrix(.08 0 0 -.08 525.214 557.75)"><use xlink:href="#NimbusRomNo9L-Regu-46" id="use472" style="stroke-width:1.42717" transform="scale(.99626)"/><use xlink:href="#NimbusRomNo9L-Regu-61" id="use473" style="stroke-width:1.42717" transform="matrix(.99626 0 0 .99626 53.898 0)"/><use xlink:href="#NimbusRomNo9L-Regu-6c" id="use474" style="stroke-width:1.42717" transform="matrix(.99626 0 0 .99626 98.132 0)"/><use xlink:href="#NimbusRomNo9L-Regu-6c" id="use475" style="stroke-width:1.42717" transform="matrix(.99626 0 0 .99626 125.827 0)"/><use xlink:href="#NimbusRomNo9L-Regu-6f" id="use476" style="stroke-width:1.42717" transform="matrix(.99626 0 0 .99626 153.522 0)"/><path id="use477" d="M257.725 45.33v-1.494c3.394-.7 4.39-1.401 4.39-3.083 0-1.51-.592-3.907-1.697-6.6l-8.966-22.167-8.36 22.37c-1.696 4.576-1.696 4.576-1.696 5.9 0 2.179 1.09 2.88 5.775 3.58v1.494H226.95v-1.494c3.69-.405 4.872-1.495 6.865-6.896.7-1.884 1.4-3.799 1.992-5.589l-9.06-19.863-9.869 26.059c-.389.996-.591 1.992-.591 3.004 0 2.086 1.198 2.88 4.576 3.285v1.494h-17.932v-1.494c2.304-.203 3.097-1.199 5.292-6.29l13.45-34.137c1.183-3.004 1.992-4.405 2.584-4.405.498 0 1.292 1.307 2.49 3.891l11.162 23.957 9.06-23.552c1.4-3.69 1.79-4.296 2.397-4.296.7 0 1.199.903 2.786 4.903l13.746 34.527c1.79 4.203 2.101 4.701 4.094 5.402v1.494z" style="stroke-width:.0222161"/><use xlink:href="#NimbusRomNo9L-Regu-6c" id="use478" style="stroke-width:1.42717" transform="matrix(.99626 0 0 .99626 297.681 0)"/><use xlink:href="#NimbusRomNo9L-Regu-61" id="use479" style="stroke-width:1.42717" transform="matrix(.99626 0 0 .99626 325.377 0)"/><use xlink:href="#NimbusRomNo9L-Regu-6e" id="use480" style="stroke-width:1.42717" transform="matrix(.99626 0 0 .99626 369.61 0)"/><use xlink:href="#NimbusRomNo9L-Regu-64" id="use481" style="stroke-width:1.42717" transform="matrix(.99626 0 0 .99626 419.423 0)"/></g><g id="g488" style="stroke-width:1.42717" transform="matrix(.08 0 0 -.08 535.974 565.96)"><use xlink:href="#NimbusRomNo9L-Regu-28" id="use482" style="stroke-width:1.42717" transform="scale(.99626)"/><use xlink:href="#NimbusRomNo9L-Regu-37" id="use483" style="stroke-width:1.42717" transform="matrix(.99626 0 0 .99626 33.175 0)"/><use xlink:href="#NimbusRomNo9L-Regu-32" id="use484" style="stroke-width:1.42717" transform="matrix(.99626 0 0 .99626 82.988 0)"/><path id="use485" d="M150.828 58.78h19.536c1.588 0 1.992.202 2.288.902l3.783 8.858-.887.7c-1.495-2.086-2.491-2.584-4.593-2.584h-20.812l-10.866-23.708c-.093-.202-.093-.295-.093-.498 0-.498.39-.794 1.183-.794 3.191 0 7.176-.7 11.27-2.008 11.457-3.705 16.734-9.916 16.734-19.816 0-9.62-6.086-17.139-13.854-17.139-1.992 0-3.69.7-6.678 2.911-3.176 2.304-5.48 3.3-7.565 3.3-2.896 0-4.281-1.199-4.281-3.705 0-3.798 4.685-6.195 12.157-6.195 8.36 0 15.536 2.708 20.517 7.814 4.577 4.515 6.678 10.212 6.678 17.824 0 7.207-1.899 11.815-6.88 16.812-4.374 4.42-10.056 6.71-21.81 8.81z" style="stroke-width:.0222161"/><use xlink:href="#NimbusRomNo9L-Regu-68" id="use486" style="stroke-width:1.42717" transform="matrix(.99626 0 0 .99626 207.521 0)"/><use xlink:href="#NimbusRomNo9L-Regu-61" id="use487" style="stroke-width:1.42717" transform="matrix(.99626 0 0 .99626 257.335 0)"/><use xlink:href="#NimbusRomNo9L-Regu-29" id="use488" style="stroke-width:1.42717" transform="matrix(.99626 0 0 .99626 301.568 0)"/></g></g><g id="text_33" style="stroke-width:2"><g id="g493" style="stroke-width:2" transform="matrix(.08 0 0 -.08 595.436 600.582)"><use xlink:href="#NimbusRomNo9L-Regu-32" id="use489" style="stroke-width:2" transform="scale(.99626)"/><use xlink:href="#NimbusRomNo9L-Regu-36" id="use490" style="stroke-width:2" transform="matrix(.99626 0 0 .99626 49.813 0)"/><use xlink:href="#NimbusRomNo9L-Regu-2e" id="use491" style="stroke-width:2" transform="matrix(.99626 0 0 .99626 99.626 0)"/><use xlink:href="#NimbusRomNo9L-Regu-37" id="use492" style="stroke-width:2" transform="matrix(.99626 0 0 .99626 124.533 0)"/><use xlink:href="#NimbusRomNo9L-Regu-25" id="use493" style="stroke-width:2" transform="matrix(.99626 0 0 .99626 174.346 0)"/></g></g><g id="text_34" style="stroke-width:1.54801" transform="matrix(1.29198 0 0 1.29198 -218.154 -212.528)"><g id="g507" style="stroke-width:1.54801" transform="matrix(.08 0 0 -.08 751.85 728.145)"><defs id="defs493"><path id="NimbusRomNo9L-Regu-4b" d="M2643 4109c77-13 141-13 167-13 192 0 268-51 268-179 0-142-147-334-499-660L1446 2224v1310c0 466 71 537 589 575v122H218v-122c499-38 576-121 576-578V750c0-533-71-616-576-616V0h1804v134c-499 0-576 77-576 549v1208l167 135 678-671c487-479 832-933 832-1086 0-90-89-135-269-135-32 0-102 0-179-13V0h1952v134c-333 0-422 64-1005 682L2131 2409l1216 1202c435 415 538 466 973 498v122H2643Z" transform="scale(.01563)"/></defs><use xlink:href="#NimbusRomNo9L-Regu-4b" id="use494" style="stroke-width:1.54801" transform="scale(.99626)"/><use xlink:href="#NimbusRomNo9L-Regu-69" id="use495" style="stroke-width:1.54801" transform="matrix(.99626 0 0 .99626 71.93 0)"/><use xlink:href="#NimbusRomNo9L-Regu-74" id="use496" style="stroke-width:1.54801" transform="matrix(.99626 0 0 .99626 99.625 0)"/><use xlink:href="#NimbusRomNo9L-Regu-63" id="use497" style="stroke-width:1.54801" transform="matrix(.99626 0 0 .99626 127.32 0)"/><use xlink:href="#NimbusRomNo9L-Regu-68" id="use498" style="stroke-width:1.54801" transform="matrix(.99626 0 0 .99626 171.554 0)"/><use xlink:href="#NimbusRomNo9L-Regu-65" id="use499" style="stroke-width:1.54801" transform="matrix(.99626 0 0 .99626 221.367 0)"/><use xlink:href="#NimbusRomNo9L-Regu-6e" id="use500" style="stroke-width:1.54801" transform="matrix(.99626 0 0 .99626 265.6 0)"/><path id="use501" d="M387.145 38.854v3.892h-7.674c-1.993 0-3.487.265-5.48.872l-2.195.7c-2.677.872-5.37 1.308-7.97 1.308-9.262 0-16.625-7.223-16.625-16.345 0-6.305 2.677-10.134 9.262-13.434-1.9-1.744-3.69-3.41-4.28-3.892-3.3-2.802-4.593-4.748-4.593-6.693 0-2.055 1.199-3.223 5.277-5.169-7.067-5.214-9.76-8.546-9.76-12.25 0-5.34 7.768-9.76 17.232-9.76 7.472 0 15.255 2.646 20.424 6.942 3.798 3.16 5.479 6.444 5.479 10.32 0 6.336-4.67 10.633-12.049 10.633h-12.858c-5.277 0-7.767.918-7.767 2.553 0 2.023 3.284 5.603 5.977 6.413.903-.109 1.604-.202 1.9-.202 1.883-.203 3.19-.296 3.782-.296 3.69 0 7.674 1.525 10.757 4.28 3.284 2.865 4.779 6.445 4.779 11.551 0 2.958-.499 5.308-1.884 8.577zM354.969-.202c3.284-.7 11.254-1.292 16.142-1.292 9.06 0 12.345-1.308 12.345-4.95 0-5.87-7.566-9.792-18.82-9.792-8.78 0-14.555 2.927-14.555 7.363 0 2.335.7 3.643 4.888 8.67m.498 33.592c0 5.931 2.786 9.45 7.363 9.45 3.098 0 5.682-1.713 7.285-4.717 1.79-3.518 2.989-8.126 2.989-12.049 0-5.62-2.896-9.138-7.472-9.138-5.978 0-10.165 6.523-10.165 16.159z" style="stroke-width:.0240974"/><use xlink:href="#NimbusRomNo9L-Regu-61" id="use502" style="stroke-width:1.54801" transform="matrix(.99626 0 0 .99626 389.636 0)"/><use xlink:href="#NimbusRomNo9L-Regu-72" id="use503" style="stroke-width:1.54801" transform="matrix(.99626 0 0 .99626 433.87 0)"/><use xlink:href="#NimbusRomNo9L-Regu-64" id="use504" style="stroke-width:1.54801" transform="matrix(.99626 0 0 .99626 467.045 0)"/><use xlink:href="#NimbusRomNo9L-Regu-65" id="use505" style="stroke-width:1.54801" transform="matrix(.99626 0 0 .99626 516.858 0)"/><use xlink:href="#NimbusRomNo9L-Regu-6e" id="use506" style="stroke-width:1.54801" transform="matrix(.99626 0 0 .99626 561.092 0)"/><use xlink:href="#NimbusRomNo9L-Regu-73" id="use507" style="stroke-width:1.54801" transform="matrix(.99626 0 0 .99626 610.905 0)"/></g><g id="g516" style="stroke-width:1.54801" transform="matrix(.08 0 0 -.08 751.85 736.355)"><use xlink:href="#NimbusRomNo9L-Regu-28" id="use508" style="stroke-width:1.54801" transform="scale(.99626)"/><use xlink:href="#NimbusRomNo9L-Regu-31" id="use509" style="stroke-width:1.54801" transform="matrix(.99626 0 0 .99626 33.175 0)"/><use xlink:href="#NimbusRomNo9L-Regu-2c" id="use510" style="stroke-width:1.54801" transform="matrix(.99626 0 0 .99626 82.988 0)"/><use xlink:href="#NimbusRomNo9L-Regu-39" id="use511" style="stroke-width:1.54801" transform="matrix(.99626 0 0 .99626 107.895 0)"/><use xlink:href="#NimbusRomNo9L-Regu-39" id="use512" style="stroke-width:1.54801" transform="matrix(.99626 0 0 .99626 157.708 0)"/><path id="use513" d="M225.548 58.78h19.536c1.587 0 1.992.202 2.288.902l3.783 8.858-.888.7c-1.494-2.086-2.49-2.584-4.592-2.584h-20.812l-10.866-23.708c-.093-.202-.093-.295-.093-.498 0-.498.389-.794 1.183-.794 3.191 0 7.176-.7 11.27-2.008 11.457-3.705 16.734-9.916 16.734-19.816 0-9.62-6.086-17.139-13.854-17.139-1.993 0-3.69.7-6.678 2.911-3.176 2.304-5.48 3.3-7.566 3.3-2.895 0-4.28-1.199-4.28-3.705 0-3.798 4.685-6.195 12.157-6.195 8.36 0 15.536 2.708 20.517 7.814 4.577 4.515 6.678 10.212 6.678 17.824 0 7.207-1.9 11.815-6.88 16.812-4.375 4.42-10.056 6.71-21.81 8.81z" style="stroke-width:.0240974"/><use xlink:href="#NimbusRomNo9L-Regu-68" id="use514" style="stroke-width:1.54801" transform="matrix(.99626 0 0 .99626 282.241 0)"/><use xlink:href="#NimbusRomNo9L-Regu-61" id="use515" style="stroke-width:1.54801" transform="matrix(.99626 0 0 .99626 332.054 0)"/><use xlink:href="#NimbusRomNo9L-Regu-29" id="use516" style="stroke-width:1.54801" transform="matrix(.99626 0 0 .99626 376.288 0)"/></g></g><g id="text_35" style="stroke-width:2"><g id="g521" style="stroke-width:2" transform="matrix(.08 0 0 -.08 698.58 693.524)"><use xlink:href="#NimbusRomNo9L-Regu-37" id="use517" style="stroke-width:2" transform="scale(.99626)"/><use xlink:href="#NimbusRomNo9L-Regu-33" id="use518" style="stroke-width:2" transform="matrix(.99626 0 0 .99626 49.813 0)"/><use xlink:href="#NimbusRomNo9L-Regu-2e" id="use519" style="stroke-width:2" transform="matrix(.99626 0 0 .99626 99.626 0)"/><use xlink:href="#NimbusRomNo9L-Regu-33" id="use520" style="stroke-width:2" transform="matrix(.99626 0 0 .99626 124.533 0)"/><use xlink:href="#NimbusRomNo9L-Regu-25" id="use521" style="stroke-width:2" transform="matrix(.99626 0 0 .99626 174.346 0)"/></g></g></g></g></svg>