<svg xmlns="http://www.w3.org/2000/svg" width="458.281" height="163.759" viewBox="0 -122.819 343.711 122.819">
    <path fill="none" stroke="#000" stroke-miterlimit="10" stroke-width=".399" d="M96.305-119.078H61.754a3.986 3.986 0 0 0-3.984 3.984v34.551a3.984 3.984 0 0 0 3.984 3.984h34.55c2.2 0 3.985-1.78 3.985-3.984v-34.55c0-2.2-1.785-3.985-3.984-3.985Z"/>
    <path d="M63.822-96.988c0 .18-.01.235-.394.235h-.12v.154h2.875l.21-1.285h-.125c-.125.767-.24 1.13-1.096 1.13h-.663c-.234 0-.244-.034-.244-.199v-1.33h.448c.484 0 .539.16.539.583h.124v-1.32h-.124c0 .428-.055.583-.539.583h-.448v-1.196c0-.164.01-.2.244-.2h.643c.762 0 .897.275.976.967h.125l-.14-1.12h-2.805v.154h.12c.384 0 .394.054.394.234zm3.26-1.325v1.335c0 .225-.055.225-.388.225v.154c.174-.005.428-.015.563-.015.13 0 .388.01.558.015v-.154c-.334 0-.389 0-.389-.225v-.916c0-.518.354-.797.673-.797.313 0 .368.269.368.553v1.16c0 .225-.055.225-.388.225v.154c.174-.005.428-.015.563-.015.13 0 .388.01.558.015v-.154c-.26 0-.384 0-.389-.15v-.952c0-.428 0-.582-.154-.762-.07-.084-.235-.184-.523-.184-.364 0-.598.214-.738.523v-.523l-.702.055v.154c.348 0 .388.035.388.28m2.778.458c.03-.742.448-.866.618-.866.513 0 .563.672.563.866zm-.005.105h1.39c.11 0 .124 0 .124-.105 0-.493-.269-.976-.891-.976-.578 0-1.037.513-1.037 1.136 0 .668.523 1.15 1.096 1.15.608 0 .832-.552.832-.647 0-.05-.04-.06-.064-.06-.045 0-.055.03-.065.07-.174.513-.623.513-.673.513a.67.67 0 0 1-.563-.333c-.15-.24-.15-.569-.15-.748m2.492-.503v-.548l-.692.055v.154c.349 0 .389.035.389.28v1.334c0 .225-.055.225-.39.225v.154c.195-.005.43-.015.569-.015.2 0 .433 0 .633.015v-.154h-.105c-.369 0-.379-.055-.379-.235v-.767c0-.493.21-.936.588-.936.035 0 .045 0 .055.005a.22.22 0 0 0-.115.194c0 .14.105.214.215.214.09 0 .214-.06.214-.22s-.154-.303-.369-.303c-.363 0-.543.334-.613.548m2.226.797c-.434 0-.434-.498-.434-.613 0-.134.005-.294.08-.418a.43.43 0 0 1 .354-.2c.433 0 .433.499.433.613 0 .135-.005.294-.08.419a.43.43 0 0 1-.353.2m-.578.195c0-.02 0-.135.084-.235.195.14.399.155.494.155.463 0 .807-.344.807-.728a.67.67 0 0 0-.205-.483.65.65 0 0 1 .449-.194c.01 0 .035 0 .05.005-.055.02-.08.075-.08.134 0 .085.065.145.145.145.05 0 .144-.035.144-.15a.244.244 0 0 0-.254-.244c-.1 0-.319.03-.528.234a.83.83 0 0 0-.528-.18c-.463 0-.807.345-.807.728 0 .22.11.409.234.513a.7.7 0 0 0-.155.414c0 .155.065.344.22.443-.3.085-.459.3-.459.498 0 .36.494.633 1.101.633.588 0 1.106-.254 1.106-.642a.64.64 0 0 0-.323-.568c-.265-.14-.554-.14-.857-.14-.125 0-.34 0-.374-.005-.16-.02-.264-.174-.264-.333m.717 1.574c-.503 0-.847-.254-.847-.519 0-.229.19-.413.409-.428h.294c.428 0 .986 0 .986.428 0 .27-.354.519-.842.519m3.313-2.586a.47.47 0 0 1 .463-.319v-.154a5 5 0 0 1-.373.015c-.09 0-.324-.01-.434-.015v.154c.154.005.234.09.234.214 0 .05-.005.06-.03.12l-.503 1.226-.553-1.34c-.02-.05-.03-.07-.03-.09 0-.13.185-.13.28-.13v-.154c-.13.005-.46.015-.544.015a8 8 0 0 1-.483-.015v.154c.239 0 .334 0 .403.175l.748 1.818c-.025.065-.095.23-.125.294-.11.274-.249.618-.568.618-.025 0-.14 0-.234-.09.155-.02.194-.13.194-.21 0-.129-.094-.209-.209-.209-.1 0-.209.065-.209.215 0 .224.21.403.458.403.314 0 .519-.283.638-.568zM82.579-97.665c0-.638-.498-1.166-1.1-1.166-.624 0-1.107.543-1.107 1.166 0 .643.518 1.12 1.101 1.12a1.11 1.11 0 0 0 1.106-1.12m-1.1.996a.65.65 0 0 1-.57-.333c-.123-.22-.123-.524-.123-.703 0-.194 0-.463.119-.682a.67.67 0 0 1 .568-.334c.22 0 .433.11.563.324s.13.503.13.692c0 .18 0 .449-.11.668a.64.64 0 0 1-.578.368m3.192-.323v.448l.717-.055v-.154c-.348 0-.388-.035-.388-.28V-98.8l-.733.055v.154c.35 0 .39.035.39.28v.886c0 .434-.24.772-.604.772-.418 0-.438-.234-.438-.493v-1.654l-.733.055v.154c.39 0 .39.015.39.459v.747c0 .389 0 .842.756.842.28 0 .498-.14.643-.448m1.682-1.6h.712v-.154h-.712v-.917h-.125c-.005.408-.155.942-.643.962v.11h.424v1.374c0 .613.463.673.643.673.353 0 .493-.354.493-.673v-.284h-.125v.274c0 .369-.15.558-.334.558-.333 0-.333-.453-.333-.538zm1.932.12v-.33l-.718.056v.154c.354 0 .389.03.389.25v2.33c0 .225-.055.225-.389.225v.155c.17-.005.429-.015.558-.015.135 0 .39.01.563.015v-.155c-.334 0-.388 0-.388-.224v-.882c.025.08.234.349.613.349.592 0 1.11-.488 1.11-1.131 0-.633-.483-1.126-1.04-1.126a.9.9 0 0 0-.698.329m.015 1.305v-1.111a.75.75 0 0 1 .643-.398c.363 0 .667.438.667 1 0 .604-.349 1.022-.717 1.022-.2 0-.389-.1-.524-.304-.07-.104-.07-.11-.07-.209m3.844.175v.448l.717-.055v-.154c-.349 0-.389-.035-.389-.28V-98.8l-.732.055v.154c.349 0 .389.035.389.28v.886c0 .434-.24.772-.603.772-.419 0-.439-.234-.439-.493v-1.654l-.732.055v.154c.389 0 .389.015.389.459v.747c0 .389 0 .842.757.842.279 0 .498-.14.643-.448m1.68-1.6h.713v-.154h-.712v-.917H93.7c-.005.408-.155.942-.643.962v.11h.423v1.374c0 .613.464.673.643.673.354 0 .493-.354.493-.673v-.284h-.125v.274c0 .369-.149.558-.333.558-.334 0-.334-.453-.334-.538z"/>
    <path fill="none" stroke="#000" stroke-miterlimit="10" stroke-width=".399" d="M96.305-72.812H61.754a3.984 3.984 0 0 0-3.984 3.984v20.375a3.984 3.984 0 0 0 3.984 3.984h34.55c2.2 0 3.985-1.781 3.985-3.984v-20.375a3.984 3.984 0 0 0-3.984-3.984Z"/>
    <path d="M65.192-57.813c0 .18-.01.235-.394.235h-.12v.154h2.875l.21-1.285h-.125c-.125.767-.24 1.13-1.096 1.13h-.663c-.234 0-.244-.034-.244-.199v-1.33h.448c.484 0 .539.16.539.583h.124v-1.32h-.124c0 .428-.055.583-.539.583h-.448v-1.196c0-.164.01-.2.244-.2h.643c.762 0 .897.275.976.967h.125l-.14-1.12h-2.805v.154h.12c.384 0 .394.054.394.234zm3.26-1.325v1.335c0 .225-.055.225-.388.225v.154c.174-.005.428-.015.563-.015.13 0 .388.01.558.015v-.154c-.334 0-.389 0-.389-.225v-.916c0-.518.354-.798.673-.798.313 0 .368.27.368.554v1.16c0 .225-.055.225-.388.225v.154c.174-.005.428-.015.563-.015.13 0 .388.01.558.015v-.154c-.26 0-.384 0-.389-.15v-.952c0-.428 0-.582-.154-.762-.07-.085-.235-.184-.523-.184-.364 0-.598.214-.738.523v-.523l-.702.055v.154c.348 0 .388.035.388.28m2.778.458c.03-.742.448-.867.618-.867.513 0 .563.673.563.867zm-.005.105h1.39c.11 0 .124 0 .124-.105 0-.493-.269-.976-.891-.976-.578 0-1.037.513-1.037 1.136 0 .668.523 1.15 1.096 1.15.608 0 .832-.552.832-.647 0-.05-.04-.06-.064-.06-.045 0-.055.03-.065.07-.174.513-.623.513-.673.513a.67.67 0 0 1-.563-.333c-.149-.24-.149-.569-.149-.748m2.492-.503v-.548l-.692.055v.154c.349 0 .389.035.389.28v1.334c0 .225-.055.225-.39.225v.154c.195-.005.43-.015.569-.015.2 0 .433 0 .633.015v-.154h-.105c-.369 0-.379-.055-.379-.235v-.767c0-.493.21-.937.588-.937.035 0 .045 0 .055.005a.22.22 0 0 0-.115.195c0 .14.105.214.215.214.09 0 .214-.06.214-.22s-.154-.303-.369-.303c-.363 0-.543.334-.613.548m2.226.797c-.434 0-.434-.498-.434-.613 0-.134.005-.294.08-.418a.43.43 0 0 1 .354-.2c.433 0 .433.499.433.613 0 .135-.005.294-.08.419a.43.43 0 0 1-.353.2m-.578.194c0-.02 0-.134.085-.234.194.14.398.155.493.155.463 0 .807-.344.807-.728a.67.67 0 0 0-.205-.483.65.65 0 0 1 .449-.194c.01 0 .035 0 .05.005-.055.02-.08.074-.08.134 0 .085.065.145.145.145.05 0 .144-.035.144-.15a.244.244 0 0 0-.254-.244c-.1 0-.319.03-.528.234a.83.83 0 0 0-.528-.18c-.463 0-.807.345-.807.728 0 .22.11.409.234.513a.7.7 0 0 0-.155.414c0 .155.065.344.22.443-.3.085-.459.3-.459.498 0 .36.493.633 1.101.633.588 0 1.106-.254 1.106-.642a.64.64 0 0 0-.324-.568c-.264-.14-.553-.14-.856-.14-.125 0-.34 0-.374-.005-.16-.02-.264-.174-.264-.334m.717 1.575c-.503 0-.847-.255-.847-.519 0-.229.19-.413.409-.428h.294c.428 0 .986 0 .986.428 0 .27-.354.519-.842.519m3.313-2.586a.47.47 0 0 1 .463-.319v-.154c-.114.01-.259.014-.374.014-.09 0-.323-.01-.433-.014v.154c.154.005.234.09.234.214 0 .05-.005.06-.03.12l-.503 1.226-.553-1.34c-.02-.05-.03-.07-.03-.09 0-.13.185-.13.28-.13v-.154c-.13.005-.46.014-.544.014-.134 0-.334-.004-.483-.014v.154c.24 0 .334 0 .403.175l.748 1.818a8 8 0 0 1-.125.294c-.11.274-.249.618-.568.618-.025 0-.14 0-.234-.09.155-.02.194-.13.194-.21 0-.129-.094-.209-.209-.209-.1 0-.209.065-.209.215 0 .224.21.403.458.403.314 0 .519-.284.638-.568zM83.55-57.817v.448l.718-.055v-.154c-.349 0-.389-.035-.389-.28v-1.768l-.732.055v.154c.349 0 .389.035.389.28v.886c0 .434-.24.772-.603.772-.419 0-.439-.234-.439-.493v-1.654l-.732.055v.154c.389 0 .389.015.389.459v.747c0 .389 0 .842.757.842.279 0 .498-.14.643-.448m1.856-.574c.11.02.518.1.518.459 0 .254-.174.453-.562.453-.42 0-.599-.284-.693-.707-.015-.065-.02-.085-.07-.085-.065 0-.065.035-.065.124v.658c0 .085 0 .12.055.12.025 0 .03-.005.125-.1.01-.01.01-.02.1-.114.219.209.443.214.548.214.572 0 .802-.334.802-.693a.64.64 0 0 0-.21-.473c-.164-.16-.358-.2-.568-.24-.278-.054-.612-.119-.612-.408 0-.174.13-.378.558-.378.548 0 .572.448.582.603.005.044.05.044.06.044.065 0 .065-.025.065-.12v-.503c0-.084 0-.119-.055-.119-.025 0-.035 0-.1.06a1 1 0 0 1-.084.08c-.19-.14-.394-.14-.468-.14-.608 0-.798.334-.798.613 0 .174.08.314.215.423.16.13.299.16.657.23m2.588.588c.02.2.154.409.388.409.105 0 .409-.07.409-.473v-.28h-.125v.28c0 .289-.124.318-.18.318-.164 0-.184-.224-.184-.249v-.996c0-.21 0-.404-.179-.588a.95.95 0 0 0-.682-.274c-.409 0-.753.234-.753.563 0 .15.1.234.23.234.14 0 .229-.1.229-.23 0-.059-.025-.223-.254-.228.134-.175.378-.23.538-.23.244 0 .528.195.528.638v.185c-.254.015-.603.03-.917.179-.374.17-.498.428-.498.648 0 .403.483.528.797.528.329 0 .558-.2.653-.434m-.035-.817v.498c0 .474-.359.643-.583.643-.244 0-.449-.174-.449-.423 0-.274.21-.688 1.032-.718m1.972.34c-.433 0-.433-.499-.433-.614 0-.134.005-.294.08-.418a.43.43 0 0 1 .353-.2c.434 0 .434.499.434.613 0 .135-.005.294-.08.419a.43.43 0 0 1-.354.2m-.578.193c0-.02 0-.134.085-.234.194.14.399.155.493.155.464 0 .807-.344.807-.728a.67.67 0 0 0-.204-.483.65.65 0 0 1 .448-.194c.01 0 .035 0 .05.005-.055.02-.08.074-.08.134 0 .085.065.145.145.145.05 0 .145-.035.145-.15a.244.244 0 0 0-.255-.244c-.1 0-.318.03-.528.234a.83.83 0 0 0-.528-.18c-.463 0-.807.345-.807.728 0 .22.11.409.234.513a.7.7 0 0 0-.154.414c0 .155.065.344.22.443-.3.085-.46.3-.46.498 0 .36.494.633 1.102.633.588 0 1.106-.254 1.106-.642a.64.64 0 0 0-.324-.568c-.264-.14-.553-.14-.857-.14-.124 0-.339 0-.374-.005-.159-.02-.264-.174-.264-.334m.718 1.575c-.504 0-.847-.255-.847-.519 0-.229.19-.413.408-.428h.294c.429 0 .987 0 .987.428 0 .27-.354.519-.842.519m1.803-2.168c.03-.742.448-.867.618-.867.513 0 .563.673.563.867zm-.005.105h1.39c.11 0 .124 0 .124-.105 0-.493-.269-.976-.891-.976-.578 0-1.037.513-1.037 1.136 0 .668.523 1.15 1.097 1.15.607 0 .831-.552.831-.647 0-.05-.04-.06-.064-.06-.045 0-.055.03-.065.07-.174.513-.623.513-.673.513a.67.67 0 0 1-.563-.333c-.149-.24-.149-.569-.149-.748"/>
    <path fill="none" stroke="#000" stroke-miterlimit="10" stroke-width=".399" d="M118.223-69.371c0-2.023-1.637-3.66-3.66-3.66a3.661 3.661 0 1 0 0 7.324c2.023 0 3.66-1.64 3.66-3.664Z"/>
    <path d="M116.5-69.227c.121 0 .25 0 .25-.143 0-.144-.129-.144-.25-.144h-3.881c-.122 0-.252 0-.252.144 0 .143.13.143.252.143z"/>
    <path fill="none" stroke="#000" stroke-miterlimit="10" stroke-width=".399" d="M57.21-113.836H29.325"/>
    <path fill="none" stroke="#000" stroke-linecap="round" stroke-linejoin="round" stroke-miterlimit="10" stroke-width=".319" d="M56.016-115.43c.097.598 1.195 1.492 1.496 1.594-.301.098-1.399.996-1.496 1.594"/>
    <path d="m11.149-115.564-.718.054v.155c.35 0 .39.035.39.279v2.59c0 .225-.056.225-.39.225v.154c.165-.005.429-.015.553-.015s.37.01.553.015v-.154c-.333 0-.388 0-.388-.225zm2.848 2.39c0-.637-.498-1.165-1.1-1.165-.623 0-1.107.543-1.107 1.166 0 .643.518 1.12 1.101 1.12a1.11 1.11 0 0 0 1.106-1.12m-1.1.997a.65.65 0 0 1-.569-.333c-.124-.22-.124-.524-.124-.703 0-.194 0-.463.12-.682a.67.67 0 0 1 .567-.334c.22 0 .434.11.563.324.13.214.13.503.13.692 0 .18 0 .449-.11.668a.64.64 0 0 1-.578.368M14.86-113.193c0-.812.41-1.021.673-1.021.045 0 .359.005.533.184-.204.015-.234.164-.234.229 0 .13.09.23.23.23.129 0 .228-.085.228-.235 0-.339-.378-.533-.762-.533-.623 0-1.081.538-1.081 1.156 0 .638.493 1.13 1.071 1.13a.82.82 0 0 0 .827-.647c0-.05-.05-.05-.065-.05-.044 0-.054.02-.064.05-.145.463-.469.523-.653.523-.264 0-.703-.214-.703-1.016m3.29.707c.02.2.155.409.39.409.103 0 .408-.07.408-.473v-.28h-.125v.28c0 .289-.125.318-.18.318-.164 0-.184-.224-.184-.249v-.996c0-.21 0-.404-.18-.588a.95.95 0 0 0-.682-.274c-.408 0-.752.234-.752.563 0 .15.1.234.23.234.139 0 .228-.1.228-.229 0-.06-.025-.224-.254-.23.135-.173.379-.228.538-.228.245 0 .528.194.528.637v.185c-.254.015-.602.03-.916.18-.374.168-.498.428-.498.647 0 .403.483.528.796.528.33 0 .559-.2.653-.434m-.035-.817v.499c0 .473-.358.642-.582.642-.245 0-.449-.174-.449-.423 0-.274.21-.688 1.031-.718m1.729-.797h.712v-.154h-.712v-.917h-.125c-.005.408-.154.942-.642.962v.11h.423v1.374c0 .613.463.673.643.673.354 0 .493-.354.493-.673v-.284h-.125v.274c0 .369-.15.558-.334.558-.333 0-.333-.453-.333-.538zm1.957-.21-.698.056v.154c.324 0 .37.03.37.274v1.34c0 .225-.056.225-.39.225v.154c.16-.005.429-.015.549-.015.174 0 .348.01.518.015v-.154c-.329 0-.349-.025-.349-.22zm.02-.866a.26.26 0 0 0-.264-.264.27.27 0 0 0-.264.264c0 .135.11.264.264.264a.26.26 0 0 0 .264-.264m2.828 2.003c0-.638-.498-1.166-1.1-1.166-.623 0-1.107.543-1.107 1.166 0 .643.518 1.12 1.101 1.12a1.11 1.11 0 0 0 1.106-1.12m-1.1.996a.65.65 0 0 1-.569-.333c-.124-.22-.124-.524-.124-.703 0-.194 0-.463.12-.682a.67.67 0 0 1 .567-.334c.22 0 .434.11.563.324.13.214.13.503.13.692 0 .18 0 .449-.11.668a.64.64 0 0 1-.578.368m1.793-1.644v1.335c0 .225-.055.225-.39.225v.154c.175-.005.43-.015.564-.015.13 0 .388.01.558.015v-.154c-.334 0-.389 0-.389-.225v-.916c0-.518.354-.797.673-.797.314 0 .369.269.369.553v1.16c0 .225-.055.225-.39.225v.154c.175-.005.43-.015.564-.015.13 0 .388.01.558.015v-.154c-.26 0-.384 0-.389-.15v-.952c0-.428 0-.582-.154-.762-.07-.084-.234-.184-.523-.184-.364 0-.598.214-.738.523v-.523l-.702.055v.154c.349 0 .389.035.389.28"/>
    <path fill="none" stroke="#000" stroke-miterlimit="10" stroke-width=".399" d="M57.21-108.496H29.325"/>
    <path fill="none" stroke="#000" stroke-linecap="round" stroke-linejoin="round" stroke-miterlimit="10" stroke-width=".319" d="M56.016-110.09c.097.598 1.195 1.492 1.496 1.594-.301.097-1.399.996-1.496 1.594"/>
    <path d="M11.649-107.146c.02.2.154.409.389.409.104 0 .408-.07.408-.473v-.28h-.124v.28c0 .289-.125.318-.18.318-.164 0-.184-.224-.184-.249v-.996c0-.21 0-.404-.18-.588a.95.95 0 0 0-.682-.274c-.409 0-.752.234-.752.563 0 .15.1.234.229.234.14 0 .23-.1.23-.229 0-.06-.026-.224-.255-.23.134-.173.379-.228.538-.228.244 0 .528.194.528.637v.185c-.254.015-.603.03-.917.18-.373.168-.498.428-.498.647 0 .403.483.528.797.528.33 0 .558-.2.653-.434m-.035-.817v.499c0 .473-.359.642-.583.642-.244 0-.448-.174-.448-.423 0-.274.21-.688 1.031-.718m2.81-.802c.044-.054.044-.064.044-.084 0-.065-.04-.065-.129-.065h-1.594l-.055.802h.124c.03-.508.125-.693.673-.693h.568l-1.39 1.879c-.045.054-.045.064-.045.09 0 .069.035.069.13.069h1.644l.084-.932h-.124c-.045.588-.15.807-.727.807h-.588zm1.152-.204-.697.055v.154c.323 0 .368.03.368.274v1.34c0 .225-.055.225-.388.225v.154c.159-.005.428-.015.548-.015.174 0 .348.01.518.015v-.154c-.329 0-.349-.025-.349-.22zm.02-.867a.26.26 0 0 0-.264-.264.27.27 0 0 0-.264.264c0 .135.11.264.264.264a.26.26 0 0 0 .264-.264m1.03 1.355v1.335c0 .225-.055.225-.389.225v.154c.175-.005.429-.015.564-.015.129 0 .388.01.557.015v-.154c-.333 0-.388 0-.388-.225v-.916c0-.518.354-.797.672-.797.314 0 .37.269.37.553v1.16c0 .225-.056.225-.39.225v.154c.175-.005.429-.015.564-.015.129 0 .388.01.557.015v-.154c-.333 0-.388 0-.388-.225v-.916c0-.518.354-.797.672-.797.314 0 .37.269.37.553v1.16c0 .225-.056.225-.39.225v.154c.175-.005.429-.015.563-.015.13 0 .389.01.559.015v-.154c-.26 0-.384 0-.39-.15v-.952c0-.428 0-.582-.154-.762-.07-.084-.234-.184-.523-.184-.418 0-.637.299-.722.488-.07-.433-.439-.488-.663-.488-.363 0-.597.214-.737.523v-.523l-.703.055v.154c.35 0 .39.035.39.28M22.03-107.16v.448l.716-.055v-.154c-.348 0-.388-.035-.388-.28v-1.768l-.733.055v.154c.35 0 .39.035.39.28v.886c0 .434-.24.772-.604.772-.418 0-.438-.234-.438-.493v-1.654l-.733.055v.154c.39 0 .39.015.39.459v.747c0 .389 0 .842.756.842.28 0 .498-.14.643-.448m1.68-1.6h.713v-.154h-.713v-.917h-.124c-.005.408-.155.942-.643.962v.11h.424v1.374c0 .613.463.673.642.673.354 0 .494-.354.494-.673v-.284h-.125v.274c0 .369-.15.558-.334.558-.334 0-.334-.453-.334-.538zm1.624 1.614c0 .225-.055.225-.389.225v.154c.174-.005.429-.015.563-.015.13 0 .389.01.558.015v-.154c-.334 0-.388 0-.388-.225v-.916c0-.518.353-.797.672-.797.314 0 .369.269.369.553v1.16c0 .225-.055.225-.389.225v.154c.175-.005.429-.015.563-.015.13 0 .389.01.558.015v-.154c-.259 0-.383 0-.388-.15v-.952c0-.428 0-.582-.155-.762-.07-.084-.234-.184-.523-.184-.419 0-.638.299-.722.488v-1.743l-.718.054v.155c.349 0 .389.035.389.279z"/>
    <path fill="none" stroke="#000" stroke-miterlimit="10" stroke-width=".399" d="M57.21-103.156H29.325"/>
    <path fill="none" stroke="#000" stroke-linecap="round" stroke-linejoin="round" stroke-miterlimit="10" stroke-width=".319" d="M56.016-104.75c.097.598 1.195 1.492 1.496 1.594-.301.097-1.399.996-1.496 1.593"/>
    <path d="M17.876-102.29c.02.2.154.409.389.409.104 0 .408-.07.408-.473v-.28h-.124v.28c0 .289-.125.318-.18.318-.164 0-.184-.224-.184-.249v-.996c0-.21 0-.404-.18-.588a.95.95 0 0 0-.682-.274c-.408 0-.752.234-.752.563 0 .15.1.234.229.234.14 0 .23-.1.23-.229 0-.06-.026-.224-.255-.23.135-.173.379-.228.538-.228.244 0 .528.194.528.637v.185c-.254.015-.603.03-.916.18-.374.168-.499.428-.499.647 0 .403.484.528.797.528.33 0 .558-.2.653-.434m-.035-.817v.499c0 .473-.359.642-.583.642-.244 0-.448-.174-.448-.423 0-.274.21-.688 1.031-.718m1.415-.518v1.335c0 .225-.055.225-.389.225v.154c.174-.005.428-.015.563-.015.13 0 .389.01.558.015v-.154c-.334 0-.388 0-.388-.225v-.916c0-.518.353-.797.672-.797.314 0 .369.269.369.553v1.16c0 .225-.055.225-.389.225v.154c.174-.005.428-.015.563-.015.13 0 .389.01.558.015v-.154c-.26 0-.383 0-.388-.15v-.952c0-.428 0-.582-.155-.762-.07-.084-.234-.184-.523-.184-.364 0-.598.214-.737.523v-.523l-.703.055v.154c.349 0 .389.035.389.28m3.325.857c-.433 0-.433-.498-.433-.613 0-.134.005-.294.08-.418a.43.43 0 0 1 .353-.2c.434 0 .434.499.434.613 0 .135-.005.294-.08.419a.43.43 0 0 1-.354.2m-.578.195c0-.02 0-.135.085-.235.194.14.398.155.493.155.464 0 .807-.344.807-.728a.67.67 0 0 0-.204-.483.65.65 0 0 1 .448-.194c.01 0 .035 0 .05.005-.055.02-.08.075-.08.134 0 .085.065.145.145.145.05 0 .145-.035.145-.15a.244.244 0 0 0-.255-.244c-.1 0-.318.03-.528.234a.83.83 0 0 0-.528-.18c-.463 0-.807.345-.807.728 0 .22.11.409.234.513a.7.7 0 0 0-.154.414c0 .155.065.344.219.443-.299.085-.458.3-.458.498 0 .36.493.633 1.1.633.589 0 1.107-.254 1.107-.642a.64.64 0 0 0-.324-.568c-.264-.14-.553-.14-.857-.14-.124 0-.339 0-.374-.005-.159-.02-.264-.174-.264-.333m.718 1.574c-.504 0-.847-.254-.847-.519 0-.229.19-.413.408-.428h.294c.429 0 .987 0 .987.428 0 .27-.354.519-.842.519m2.127-4.37-.718.055v.155c.349 0 .389.035.389.279v2.59c0 .225-.055.225-.389.225v.154c.165-.005.429-.015.553-.015s.37.01.553.015v-.154c-.334 0-.388 0-.388-.225zm1.06 2.202c.03-.742.448-.866.618-.866.513 0 .562.672.562.866zm-.005.105h1.39c.11 0 .124 0 .124-.105 0-.493-.269-.976-.891-.976-.579 0-1.037.513-1.037 1.136 0 .668.523 1.15 1.096 1.15.608 0 .832-.552.832-.647 0-.05-.04-.06-.065-.06-.044 0-.054.03-.064.07-.175.513-.623.513-.673.513a.67.67 0 0 1-.563-.333c-.15-.24-.15-.569-.15-.748"/>
    <path fill="none" stroke="#000" stroke-miterlimit="10" stroke-width=".399" d="M57.21-97.816H29.325"/>
    <path fill="none" stroke="#000" stroke-linecap="round" stroke-linejoin="round" stroke-miterlimit="10" stroke-width=".319" d="M56.016-99.41c.097.598 1.195 1.492 1.496 1.594-.301.097-1.399.996-1.496 1.593"/>
    <path d="M20.076-97.123c.02.2.154.409.389.409.104 0 .408-.07.408-.473v-.28h-.124v.28c0 .289-.125.318-.18.318-.164 0-.184-.224-.184-.249v-.996c0-.21 0-.404-.18-.588a.95.95 0 0 0-.682-.274c-.408 0-.752.234-.752.563 0 .15.1.234.229.234.14 0 .23-.1.23-.229 0-.06-.026-.224-.255-.23.135-.173.379-.228.538-.228.244 0 .528.194.528.637v.185c-.254.015-.603.03-.916.18-.374.168-.499.428-.499.647 0 .403.484.528.797.528.33 0 .558-.2.653-.434m-.035-.817v.499c0 .473-.359.642-.583.642-.244 0-.448-.174-.448-.423 0-.274.21-.688 1.031-.718m1.699-.458v-.548l-.693.055v.154c.349 0 .389.035.389.28v1.334c0 .225-.055.225-.389.225v.154c.194-.005.428-.015.568-.015.2 0 .434 0 .633.015v-.154h-.105c-.368 0-.378-.055-.378-.235v-.767c0-.493.209-.936.587-.936.035 0 .045 0 .055.005a.22.22 0 0 0-.114.194c0 .14.104.214.214.214.09 0 .214-.06.214-.22s-.154-.303-.369-.303c-.363 0-.542.334-.612.548m1.677.398c.03-.742.448-.866.618-.866.513 0 .563.672.563.866zm-.005.105h1.39c.11 0 .124 0 .124-.105 0-.493-.269-.976-.891-.976-.578 0-1.037.513-1.037 1.136 0 .668.523 1.15 1.096 1.15.608 0 .832-.552.832-.647 0-.05-.04-.06-.064-.06-.045 0-.055.03-.065.07-.174.513-.623.513-.673.513a.67.67 0 0 1-.563-.333c-.15-.24-.15-.569-.15-.748m3.32.772c.02.2.154.409.388.409.105 0 .409-.07.409-.473v-.28h-.125v.28c0 .289-.124.318-.18.318-.164 0-.184-.224-.184-.249v-.996c0-.21 0-.404-.18-.588a.95.95 0 0 0-.682-.274c-.408 0-.752.234-.752.563 0 .15.1.234.23.234.139 0 .229-.1.229-.229 0-.06-.025-.224-.254-.23.134-.173.378-.228.537-.228.245 0 .529.194.529.637v.185c-.255.015-.603.03-.917.18-.374.168-.498.428-.498.647 0 .403.483.528.797.528.329 0 .558-.2.653-.434m-.035-.817v.499c0 .473-.36.642-.583.642-.244 0-.449-.174-.449-.423 0-.274.21-.688 1.032-.718"/>
    <path fill="none" stroke="#000" stroke-miterlimit="10" stroke-width=".399" d="M57.21-92.477H29.325"/>
    <path fill="none" stroke="#000" stroke-linecap="round" stroke-linejoin="round" stroke-miterlimit="10" stroke-width=".319" d="M56.016-94.07c.097.597 1.195 1.492 1.496 1.593-.301.098-1.399.997-1.496 1.594"/>
    <path d="M9.729-92.975c0-.812.409-1.022.673-1.022.044 0 .358.005.532.185-.204.015-.234.164-.234.229 0 .13.09.23.23.23.13 0 .229-.085.229-.235 0-.339-.379-.533-.762-.533-.623 0-1.082.538-1.082 1.156 0 .638.493 1.13 1.072 1.13a.82.82 0 0 0 .826-.647c0-.05-.05-.05-.064-.05-.045 0-.055.02-.065.05-.145.463-.468.523-.653.523-.264 0-.702-.214-.702-1.016m3.977.02c0-.638-.498-1.166-1.1-1.166-.624 0-1.107.543-1.107 1.166 0 .643.518 1.12 1.101 1.12a1.11 1.11 0 0 0 1.106-1.12m-1.1.996a.65.65 0 0 1-.569-.333c-.124-.22-.124-.524-.124-.703 0-.194 0-.463.12-.682a.67.67 0 0 1 .567-.335c.22 0 .434.11.563.325.13.214.13.503.13.692 0 .18 0 .448-.11.668a.64.64 0 0 1-.578.368M15.778-93.548c.045-.115.13-.329.459-.334v-.154c-.115.01-.26.014-.374.014-.12 0-.349-.01-.433-.014v.154c.184.005.239.12.239.214 0 .045-.01.065-.03.12l-.508 1.27-.558-1.39c-.03-.064-.03-.074-.03-.084 0-.13.194-.13.284-.13v-.154c-.15.005-.429.014-.543.014a8 8 0 0 1-.484-.014v.154c.314 0 .334.03.399.185l.717 1.768c.03.07.04.095.105.095s.085-.045.105-.095zM16.753-93.145c.03-.742.448-.867.618-.867.513 0 .563.673.563.867zm-.005.105h1.39c.11 0 .125 0 .125-.105 0-.493-.27-.976-.892-.976-.578 0-1.036.513-1.036 1.136 0 .668.523 1.15 1.096 1.15.608 0 .832-.552.832-.647 0-.05-.04-.06-.065-.06-.045 0-.055.03-.065.07-.174.513-.622.513-.672.513a.67.67 0 0 1-.563-.333c-.15-.24-.15-.569-.15-.748M19.243-93.543v-.548l-.692.055v.154c.348 0 .388.035.388.28v1.334c0 .225-.054.225-.389.225v.154c.195-.005.429-.015.569-.015.199 0 .433 0 .632.015v-.154h-.104c-.369 0-.379-.055-.379-.235v-.767c0-.493.21-.937.588-.937.035 0 .045 0 .055.005a.22.22 0 0 0-.115.195c0 .14.105.214.215.214.09 0 .214-.06.214-.22 0-.159-.155-.303-.37-.303-.363 0-.542.334-.612.548M22.014-92.268c.02.2.155.409.39.409.104 0 .408-.07.408-.473v-.28h-.125v.28c0 .289-.124.318-.18.318-.164 0-.184-.224-.184-.249v-.996c0-.21 0-.404-.18-.588a.95.95 0 0 0-.682-.274c-.408 0-.752.234-.752.563 0 .15.1.234.23.234.139 0 .229-.1.229-.23 0-.059-.025-.223-.255-.228.135-.175.379-.23.538-.23.245 0 .528.195.528.638v.185c-.254.015-.602.03-.916.179-.374.17-.498.428-.498.648 0 .403.483.528.797.528.329 0 .558-.2.652-.434m-.035-.817v.498c0 .474-.358.643-.582.643-.244 0-.449-.174-.449-.423 0-.274.21-.688 1.031-.718M23.955-92.746c-.434 0-.434-.498-.434-.613 0-.134.005-.294.08-.418a.43.43 0 0 1 .354-.2c.433 0 .433.499.433.613 0 .135-.005.294-.08.419a.43.43 0 0 1-.353.2m-.578.194c0-.02 0-.134.084-.234.195.14.399.155.494.155.463 0 .807-.344.807-.728a.67.67 0 0 0-.205-.483.65.65 0 0 1 .449-.194c.01 0 .035 0 .05.005-.055.02-.08.074-.08.134 0 .085.065.145.145.145.05 0 .144-.035.144-.15a.244.244 0 0 0-.254-.244c-.1 0-.319.03-.528.234a.83.83 0 0 0-.528-.18c-.464 0-.807.345-.807.728 0 .22.109.409.234.513a.7.7 0 0 0-.155.414c0 .155.065.344.22.443-.3.085-.459.3-.459.498 0 .36.493.633 1.101.633.588 0 1.106-.254 1.106-.642a.64.64 0 0 0-.324-.568c-.264-.14-.553-.14-.856-.14-.125 0-.34 0-.374-.005-.16-.02-.264-.174-.264-.334m.717 1.575c-.503 0-.847-.255-.847-.519 0-.229.19-.413.409-.428h.294c.428 0 .986 0 .986.428 0 .27-.354.519-.842.519m1.803-2.168c.03-.742.449-.867.618-.867.513 0 .563.673.563.867zm-.005.105h1.39c.11 0 .125 0 .125-.105 0-.493-.27-.976-.892-.976-.578 0-1.036.513-1.036 1.136 0 .668.523 1.15 1.096 1.15.608 0 .832-.552.832-.647 0-.05-.04-.06-.065-.06-.045 0-.055.03-.065.07-.174.513-.622.513-.672.513a.67.67 0 0 1-.563-.333c-.15-.24-.15-.569-.15-.748"/>
    <path fill="none" stroke="#000" stroke-miterlimit="10" stroke-width=".399" d="M57.21-87.137H29.325"/>
    <path fill="none" stroke="#000" stroke-linecap="round" stroke-linejoin="round" stroke-miterlimit="10" stroke-width=".319" d="M56.016-88.73c.097.597 1.195 1.492 1.496 1.593-.301.098-1.399.996-1.496 1.594"/>
    <path d="M2.492-87.546v-.548l-.693.055v.154c.35 0 .39.035.39.28v1.334c0 .225-.056.225-.39.225v.154c.195-.005.429-.015.569-.015.199 0 .433 0 .632.015v-.154h-.104c-.37 0-.38-.055-.38-.235v-.767c0-.493.21-.936.589-.936.035 0 .045 0 .055.005a.22.22 0 0 0-.115.194c0 .14.105.214.214.214.09 0 .214-.06.214-.22 0-.158-.154-.303-.368-.303-.364 0-.543.334-.613.548m2.778 1.275c.02.2.155.409.389.409.104 0 .408-.07.408-.473v-.28h-.124v.28c0 .289-.125.318-.18.318-.164 0-.184-.224-.184-.249v-.996c0-.21 0-.404-.18-.588a.95.95 0 0 0-.682-.274c-.408 0-.752.234-.752.563 0 .15.1.234.229.234.14 0 .23-.1.23-.229 0-.06-.026-.224-.255-.23.135-.173.379-.228.538-.228.244 0 .528.194.528.637v.185c-.254.015-.603.03-.916.18-.374.168-.498.428-.498.647 0 .403.483.528.796.528.33 0 .559-.2.653-.434m-.035-.817v.499c0 .473-.359.642-.583.642-.244 0-.448-.174-.448-.423 0-.274.21-.688 1.031-.718m1.729-.797h.712v-.154h-.712v-.917h-.125c-.005.408-.154.942-.643.962v.11h.424v1.374c0 .613.463.673.643.673.354 0 .493-.354.493-.673v-.284H7.63v.274c0 .369-.15.558-.334.558-.333 0-.333-.453-.333-.538zm1.633.737c.03-.742.448-.866.618-.866.513 0 .563.672.563.866zm-.005.105h1.39c.11 0 .125 0 .125-.105 0-.493-.27-.976-.892-.976-.578 0-1.037.513-1.037 1.136 0 .668.523 1.15 1.097 1.15.607 0 .832-.552.832-.647 0-.05-.04-.06-.065-.06-.045 0-.055.03-.065.07-.174.513-.623.513-.673.513a.67.67 0 0 1-.562-.333c-.15-.24-.15-.569-.15-.748m3.554.877v.329l.732-.055v-.154c-.348 0-.388-.035-.388-.28v-3.023l-.718.054v.155c.35 0 .389.035.389.279v1.076a.8.8 0 0 0-.628-.31c-.588 0-1.11.49-1.11 1.132 0 .633.487 1.126 1.055 1.126.32 0 .543-.17.668-.329m0-1.335v1.021c0 .09 0 .1-.055.185a.7.7 0 0 1-.588.348c-.224 0-.403-.13-.523-.319-.13-.204-.145-.488-.145-.692 0-.185.01-.483.155-.708a.68.68 0 0 1 .563-.318c.174 0 .384.074.538.299.055.084.055.094.055.184M15.523-87.765v-.33l-.717.056v.154c.354 0 .389.03.389.25v2.33c0 .225-.055.225-.39.225v.155c.17-.005.43-.015.559-.015.134 0 .389.01.563.015v-.155c-.334 0-.389 0-.389-.224v-.882c.025.08.234.349.613.349.593 0 1.111-.488 1.111-1.131 0-.633-.483-1.126-1.041-1.126a.9.9 0 0 0-.698.329m.015 1.305v-1.111a.75.75 0 0 1 .643-.398c.364 0 .668.438.668 1 0 .604-.35 1.022-.718 1.022-.2 0-.388-.1-.523-.304-.07-.104-.07-.11-.07-.209M19.918-86.958c0-.638-.498-1.166-1.1-1.166-.624 0-1.107.543-1.107 1.166 0 .643.518 1.12 1.101 1.12a1.11 1.11 0 0 0 1.106-1.12m-1.1.996a.65.65 0 0 1-.569-.333c-.124-.22-.124-.524-.124-.703 0-.194 0-.463.12-.682a.67.67 0 0 1 .567-.334c.22 0 .434.11.563.324.13.214.13.503.13.692 0 .18 0 .449-.11.668a.64.64 0 0 1-.578.368M23.004-87.566c.09-.25.244-.314.419-.319v-.154c-.11.01-.254.015-.364.015-.144 0-.369-.01-.463-.015v.154c.179.005.289.095.289.24 0 .03 0 .04-.025.104l-.454 1.275-.493-1.39c-.02-.06-.025-.07-.025-.094 0-.135.194-.135.294-.135v-.154c-.144.005-.398.015-.518.015-.15 0-.294-.005-.443-.015v.154c.184 0 .264.01.313.075.025.03.08.18.115.274l-.428 1.206-.474-1.33c-.024-.06-.024-.07-.024-.09 0-.135.194-.135.293-.135v-.154c-.15.005-.428.015-.543.015-.02 0-.284-.005-.463-.015v.154c.249 0 .309.015.369.175l.628 1.763c.024.07.04.11.104.11.065 0 .075-.03.1-.1l.503-1.41.508 1.415c.02.055.035.095.1.095s.08-.045.1-.095zM23.938-87.148c.03-.742.448-.866.618-.866.513 0 .562.672.562.866zm-.005.105h1.39c.11 0 .124 0 .124-.105 0-.493-.269-.976-.891-.976-.579 0-1.037.513-1.037 1.136 0 .668.523 1.15 1.096 1.15.608 0 .832-.552.832-.647 0-.05-.04-.06-.065-.06-.044 0-.054.03-.064.07-.175.513-.623.513-.673.513a.67.67 0 0 1-.563-.333c-.15-.24-.15-.569-.15-.748m2.492-.503v-.548l-.692.055v.154c.348 0 .388.035.388.28v1.334c0 .225-.054.225-.388.225v.154c.194-.005.428-.015.568-.015.2 0 .433 0 .633.015v-.154h-.105c-.369 0-.379-.055-.379-.235v-.767c0-.493.21-.936.588-.936.035 0 .045 0 .055.005a.22.22 0 0 0-.115.194c0 .14.105.214.215.214.09 0 .214-.06.214-.22 0-.158-.155-.303-.37-.303-.362 0-.542.334-.612.548"/>
    <path fill="none" stroke="#000" stroke-miterlimit="10" stroke-width=".399" d="M57.21-81.797H29.325"/>
    <path fill="none" stroke="#000" stroke-linecap="round" stroke-linejoin="round" stroke-miterlimit="10" stroke-width=".319" d="M56.016-83.39c.097.597 1.195 1.492 1.496 1.593-.301.098-1.399.996-1.496 1.594"/>
    <path d="M8.334-81.808c.03-.742.448-.866.618-.866.513 0 .563.672.563.866zm-.005.105h1.39c.11 0 .125 0 .125-.105 0-.493-.27-.976-.892-.976-.578 0-1.037.513-1.037 1.136 0 .668.524 1.15 1.097 1.15.607 0 .832-.552.832-.647 0-.05-.04-.06-.065-.06-.045 0-.055.03-.065.07-.174.513-.623.513-.673.513a.67.67 0 0 1-.562-.333c-.15-.24-.15-.569-.15-.748m4.685-.842c.23 0 .264.065.264.27v1.344c0 .225-.055.225-.389.225v.154c.165-.005.429-.015.553-.015s.369.01.553.015v-.154c-.333 0-.388 0-.388-.225v-1.828l-.194.015c-.245.02-.285.02-.524.04-.01.005-.02.005-.09.005h-.587v-.563c0-.493.428-.693.737-.693.15 0 .329.05.428.165-.204.01-.234.149-.234.229 0 .164.13.229.224.229.115 0 .23-.08.23-.229 0-.294-.274-.503-.643-.503-.438 0-.722.199-.812.274-.114-.175-.324-.274-.573-.274-.468 0-1.051.254-1.051.797v.568h-.394v.154h.394v1.614c0 .225-.055.225-.389.225v.154c.165-.005.429-.015.553-.015s.369.01.553.015v-.154c-.333 0-.388 0-.388-.225v-1.614h1.05v1.614c0 .225-.054.225-.388.225v.154c.165-.005.429-.015.553-.015s.369.01.553.015v-.154c-.333 0-.388 0-.388-.225v-1.614zm-1.116-.154h-1.066v-.563c0-.498.433-.693.727-.693a.58.58 0 0 1 .429.165c-.195.01-.24.13-.24.229 0 .11.06.189.15.214zm2.825 1.06c0-.811.41-1.02.673-1.02.045 0 .359.005.533.184-.204.015-.234.164-.234.229 0 .13.09.23.23.23.129 0 .228-.085.228-.235 0-.339-.378-.533-.762-.533-.623 0-1.081.538-1.081 1.156 0 .638.493 1.13 1.071 1.13a.82.82 0 0 0 .827-.647c0-.05-.05-.05-.065-.05-.044 0-.054.02-.064.05-.145.463-.469.523-.653.523-.264 0-.703-.214-.703-1.016m2.513-1.115-.697.055v.154c.323 0 .368.03.368.274v1.34c0 .225-.055.225-.388.225v.154c.159-.005.428-.015.548-.015.174 0 .349.01.518.015v-.154c-.329 0-.349-.025-.349-.22zm.02-.867a.26.26 0 0 0-.264-.264.27.27 0 0 0-.264.264c0 .135.11.264.264.264a.26.26 0 0 0 .264-.264m1.04 1.813c.03-.742.448-.866.618-.866.513 0 .563.672.563.866zm-.005.105h1.39c.11 0 .124 0 .124-.105 0-.493-.269-.976-.891-.976-.578 0-1.037.513-1.037 1.136 0 .668.524 1.15 1.097 1.15.607 0 .831-.552.831-.647 0-.05-.04-.06-.064-.06-.045 0-.055.03-.065.07-.174.513-.623.513-.673.513a.67.67 0 0 1-.562-.333c-.15-.24-.15-.569-.15-.748m2.209-.563v1.335c0 .225-.055.225-.389.225v.154c.174-.005.428-.015.563-.015.13 0 .389.01.558.015v-.154c-.334 0-.388 0-.388-.225v-.916c0-.518.353-.797.672-.797.314 0 .369.269.369.553v1.16c0 .225-.055.225-.389.225v.154c.174-.005.428-.015.563-.015.13 0 .389.01.558.015v-.154c-.26 0-.383 0-.388-.15v-.952c0-.428 0-.582-.155-.762-.07-.084-.234-.184-.523-.184-.364 0-.598.214-.737.523v-.523l-.703.055v.154c.349 0 .389.035.389.28m2.802.628c0-.812.409-1.021.673-1.021.045 0 .358.005.533.184-.204.015-.234.164-.234.229 0 .13.09.23.229.23.13 0 .23-.085.23-.235 0-.339-.38-.533-.763-.533-.623 0-1.081.538-1.081 1.156 0 .638.493 1.13 1.07 1.13a.82.82 0 0 0 .828-.647c0-.05-.05-.05-.065-.05-.045 0-.055.02-.065.05-.144.463-.468.523-.652.523-.264 0-.703-.214-.703-1.016M27-82.226a.47.47 0 0 1 .464-.319v-.154c-.115.01-.26.015-.374.015-.09 0-.324-.01-.433-.015v.154c.154.005.234.09.234.214 0 .05-.005.06-.03.12l-.503 1.226-.553-1.34c-.02-.05-.03-.07-.03-.09 0-.13.184-.13.279-.13v-.154c-.13.005-.459.015-.543.015a8 8 0 0 1-.483-.015v.154c.239 0 .333 0 .403.175l.748 1.818a8 8 0 0 1-.125.294c-.11.274-.25.618-.568.618-.025 0-.14 0-.234-.09.154-.02.194-.13.194-.21 0-.129-.095-.209-.21-.209-.099 0-.208.065-.208.215 0 .224.209.403.458.403.314 0 .518-.283.638-.568z"/>
    <path fill="none" stroke="#000" stroke-miterlimit="10" stroke-width=".399" d="M100.39-97.816h14.173v24.226"/>
    <path fill="none" stroke="#000" stroke-linecap="round" stroke-linejoin="round" stroke-miterlimit="10" stroke-width=".319" d="M116.156-74.785c-.598.097-1.496 1.195-1.594 1.492-.101-.297-.996-1.395-1.593-1.492"/>
    <path d="M102.706-101.8c.03-.743.448-.868.618-.868.513 0 .563.673.563.867zm-.005.104h1.39c.11 0 .125 0 .125-.105 0-.493-.27-.976-.892-.976-.578 0-1.037.513-1.037 1.136 0 .668.524 1.15 1.097 1.15.607 0 .832-.552.832-.647 0-.05-.04-.06-.065-.06-.045 0-.055.03-.065.07-.174.513-.623.513-.673.513a.67.67 0 0 1-.562-.333c-.15-.24-.15-.569-.15-.748m2.209-.563v1.335c0 .225-.055.225-.389.225v.154c.174-.005.428-.015.563-.015.13 0 .389.01.558.015v-.154c-.334 0-.388 0-.388-.225v-.916c0-.518.353-.798.672-.798.314 0 .369.27.369.554v1.16c0 .225-.055.225-.389.225v.154c.174-.005.428-.015.563-.015.13 0 .389.01.558.015v-.154c-.26 0-.383 0-.388-.15v-.952c0-.428 0-.582-.155-.762-.07-.085-.234-.184-.523-.184-.364 0-.598.214-.737.523v-.523l-.703.055v.154c.349 0 .389.035.389.28m2.777.458c.03-.742.448-.867.618-.867.513 0 .563.673.563.867zm-.005.105h1.39c.11 0 .125 0 .125-.105 0-.493-.27-.976-.892-.976-.578 0-1.036.513-1.036 1.136 0 .668.523 1.15 1.096 1.15.608 0 .832-.552.832-.647 0-.05-.04-.06-.065-.06-.045 0-.055.03-.065.07-.174.513-.622.513-.672.513a.67.67 0 0 1-.563-.333c-.15-.24-.15-.569-.15-.748m2.493-.503v-.548l-.693.055v.154c.35 0 .389.035.389.28v1.334c0 .225-.055.225-.389.225v.154c.195-.005.429-.015.568-.015.2 0 .434 0 .633.015v-.154h-.104c-.37 0-.38-.055-.38-.235v-.767c0-.493.21-.937.589-.937.035 0 .045 0 .055.005a.22.22 0 0 0-.115.195c0 .14.105.214.214.214.09 0 .214-.06.214-.22 0-.159-.154-.303-.368-.303-.364 0-.543.334-.613.548m2.225.797c-.433 0-.433-.498-.433-.613 0-.134.005-.294.08-.418a.43.43 0 0 1 .353-.2c.433 0 .433.499.433.613 0 .135-.004.294-.08.419a.43.43 0 0 1-.353.2m-.578.194c0-.02 0-.134.085-.234.194.14.398.155.493.155.463 0 .807-.344.807-.728a.67.67 0 0 0-.204-.483.65.65 0 0 1 .448-.194c.01 0 .035 0 .05.005-.055.02-.08.074-.08.134 0 .085.065.145.145.145.05 0 .144-.035.144-.15a.244.244 0 0 0-.254-.244c-.1 0-.318.03-.528.234a.83.83 0 0 0-.528-.18c-.463 0-.807.345-.807.728 0 .22.11.409.234.513a.7.7 0 0 0-.154.414c0 .155.065.344.219.443-.299.085-.459.3-.459.498 0 .36.494.633 1.102.633.588 0 1.106-.254 1.106-.642a.64.64 0 0 0-.324-.568c-.264-.14-.553-.14-.857-.14-.125 0-.339 0-.374-.005-.16-.02-.264-.174-.264-.334m.718 1.575c-.504 0-.847-.255-.847-.519 0-.229.189-.413.408-.428h.294c.428 0 .987 0 .987.428 0 .27-.354.519-.842.519m3.312-2.586a.47.47 0 0 1 .464-.319v-.154c-.115.01-.26.014-.374.014-.09 0-.324-.01-.433-.014v.154c.154.005.234.09.234.214 0 .05-.005.06-.03.12l-.503 1.226-.553-1.34c-.02-.05-.03-.07-.03-.09 0-.13.184-.13.279-.13v-.154c-.13.005-.459.014-.543.014-.135 0-.334-.004-.484-.014v.154c.24 0 .334 0 .404.175l.747 1.818a8 8 0 0 1-.124.294c-.11.274-.25.618-.568.618-.025 0-.14 0-.234-.09.154-.02.194-.13.194-.21 0-.129-.095-.209-.21-.209-.099 0-.209.065-.209.215 0 .224.21.403.459.403.314 0 .518-.284.637-.568zM120.407-101.611c0-.638-.498-1.166-1.1-1.166-.624 0-1.107.543-1.107 1.166 0 .643.518 1.12 1.101 1.12a1.11 1.11 0 0 0 1.106-1.12m-1.1.996a.65.65 0 0 1-.569-.333c-.124-.22-.124-.524-.124-.703 0-.194 0-.463.12-.682a.67.67 0 0 1 .567-.335c.22 0 .434.11.563.325.13.214.13.503.13.692 0 .18 0 .448-.11.668a.64.64 0 0 1-.578.368m3.192-.323v.448l.718-.055v-.154c-.35 0-.389-.035-.389-.28v-1.768l-.732.055v.154c.348 0 .388.035.388.28v.886c0 .434-.239.772-.602.772-.419 0-.439-.234-.439-.493v-1.654l-.732.055v.154c.388 0 .388.015.388.459v.747c0 .389 0 .842.758.842.279 0 .498-.14.642-.448m1.682-1.6h.712v-.154h-.712v-.917h-.125c-.005.408-.154.941-.642.961v.11h.423v1.375c0 .613.463.673.643.673.354 0 .493-.354.493-.673v-.284h-.125v.274c0 .369-.15.558-.334.558-.333 0-.333-.453-.333-.538z"/>
    <path d="M112.663-100.118c.025-.065.025-.08.025-.09a.1.1 0 0 0-.1-.1c-.07 0-.09.05-.104.1l-1.699 4.693c-.025.065-.025.08-.025.09a.1.1 0 0 0 .1.1c.07 0 .09-.05.104-.1z"/>
    <path fill="none" stroke="#000" stroke-miterlimit="10" stroke-width=".399" d="M100.39-58.64h14.173v-6.512"/>
    <path fill="none" stroke="#000" stroke-linecap="round" stroke-linejoin="round" stroke-miterlimit="10" stroke-width=".319" d="M112.969-63.957c.597-.098 1.492-1.195 1.593-1.492.098.297.996 1.394 1.594 1.492"/>
    <path d="M102.706-55.993c.03-.742.448-.867.618-.867.513 0 .563.673.563.867zm-.005.105h1.39c.11 0 .125 0 .125-.105 0-.493-.27-.976-.892-.976-.578 0-1.037.513-1.037 1.136 0 .668.524 1.15 1.097 1.15.607 0 .832-.552.832-.647 0-.05-.04-.06-.065-.06-.045 0-.055.03-.065.07-.174.513-.623.513-.673.513a.67.67 0 0 1-.562-.333c-.15-.24-.15-.569-.15-.748m2.209-.563v1.335c0 .225-.055.225-.389.225v.154c.174-.005.428-.015.563-.015.13 0 .389.01.558.015v-.154c-.334 0-.388 0-.388-.225v-.916c0-.518.353-.798.672-.798.314 0 .369.27.369.554v1.16c0 .225-.055.225-.389.225v.154c.174-.005.428-.015.563-.015.13 0 .389.01.558.015v-.154c-.26 0-.383 0-.388-.15v-.952c0-.428 0-.582-.155-.762-.07-.085-.234-.184-.523-.184-.364 0-.598.214-.737.523v-.523l-.703.055v.154c.349 0 .389.035.389.28m2.777.458c.03-.742.448-.867.618-.867.513 0 .563.673.563.867zm-.005.105h1.39c.11 0 .125 0 .125-.105 0-.493-.27-.976-.892-.976-.578 0-1.036.513-1.036 1.136 0 .668.523 1.15 1.096 1.15.608 0 .832-.552.832-.647 0-.05-.04-.06-.065-.06-.045 0-.055.03-.065.07-.174.513-.622.513-.672.513a.67.67 0 0 1-.563-.333c-.15-.24-.15-.569-.15-.748m2.493-.503v-.548l-.693.055v.154c.35 0 .389.035.389.28v1.334c0 .225-.055.225-.389.225v.154c.195-.005.429-.015.568-.015.2 0 .434 0 .633.015v-.154h-.104c-.37 0-.38-.055-.38-.235v-.767c0-.493.21-.937.589-.937.035 0 .045 0 .055.005a.22.22 0 0 0-.115.195c0 .14.105.214.214.214.09 0 .214-.06.214-.22s-.154-.303-.368-.303c-.364 0-.543.334-.613.548m2.225.797c-.433 0-.433-.498-.433-.613 0-.134.005-.294.08-.418a.43.43 0 0 1 .353-.2c.433 0 .433.499.433.613 0 .135-.004.294-.08.419a.43.43 0 0 1-.353.2m-.578.194c0-.02 0-.134.085-.234.194.14.398.155.493.155.463 0 .807-.344.807-.728a.67.67 0 0 0-.204-.483.65.65 0 0 1 .448-.194c.01 0 .035 0 .05.005-.055.02-.08.074-.08.134 0 .085.065.145.145.145.05 0 .144-.035.144-.15a.244.244 0 0 0-.254-.244c-.1 0-.318.03-.528.234a.83.83 0 0 0-.528-.18c-.463 0-.807.345-.807.728 0 .22.11.409.234.513a.7.7 0 0 0-.154.414c0 .155.065.344.219.443-.299.085-.459.3-.459.498 0 .36.494.633 1.102.633.588 0 1.106-.254 1.106-.642a.64.64 0 0 0-.324-.568c-.264-.14-.553-.14-.857-.14-.125 0-.339 0-.374-.005-.16-.02-.264-.174-.264-.334m.718 1.575c-.504 0-.847-.255-.847-.519 0-.229.189-.413.408-.428h.294c.428 0 .987 0 .987.428 0 .27-.354.519-.842.519m3.312-2.586a.47.47 0 0 1 .464-.319v-.154c-.115.01-.26.014-.374.014-.09 0-.324-.01-.433-.014v.154c.154.005.234.09.234.214 0 .05-.005.06-.03.12l-.503 1.226-.553-1.34c-.02-.05-.03-.07-.03-.09 0-.13.184-.13.279-.13v-.154c-.13.005-.459.014-.543.014-.135 0-.334-.004-.484-.014v.154c.24 0 .334 0 .404.175l.747 1.818a8 8 0 0 1-.124.294c-.11.274-.25.618-.568.618-.025 0-.14 0-.234-.09.154-.02.194-.13.194-.21 0-.129-.095-.209-.21-.209-.099 0-.209.065-.209.215 0 .224.21.403.459.403.314 0 .518-.284.637-.568zM120.009-55.13v.448l.717-.055v-.154c-.349 0-.388-.035-.388-.28v-1.768l-.733.055v.154c.349 0 .389.035.389.28v.886c0 .434-.24.772-.603.772-.418 0-.438-.234-.438-.493v-1.654l-.733.055v.154c.389 0 .389.015.389.459v.747c0 .389 0 .842.757.842.279 0 .498-.14.643-.448m1.856-.574c.11.02.518.1.518.459 0 .254-.175.453-.563.453-.419 0-.598-.284-.693-.707-.015-.065-.02-.085-.07-.085-.064 0-.064.035-.064.124v.658c0 .085 0 .12.054.12.025 0 .03-.005.125-.1.01-.01.01-.02.1-.114.219.209.443.214.548.214.573 0 .802-.334.802-.693a.64.64 0 0 0-.21-.473c-.164-.16-.358-.2-.568-.24-.278-.054-.612-.119-.612-.408 0-.174.13-.378.558-.378.548 0 .573.448.583.603.005.044.05.044.06.044.064 0 .064-.025.064-.12v-.503c0-.084 0-.119-.055-.119-.024 0-.034 0-.099.06a1 1 0 0 1-.085.08c-.19-.14-.393-.14-.468-.14-.608 0-.797.334-.797.613 0 .174.08.314.214.423.16.13.299.16.658.23m2.587.588c.02.2.154.409.389.409.104 0 .408-.07.408-.473v-.28h-.125v.28c0 .289-.124.318-.179.318-.164 0-.184-.224-.184-.249v-.996c0-.21 0-.404-.18-.588a.95.95 0 0 0-.682-.274c-.409 0-.752.234-.752.563 0 .15.1.234.229.234.14 0 .23-.1.23-.23 0-.059-.026-.223-.255-.228.134-.175.378-.23.538-.23.244 0 .528.195.528.638v.185c-.254.015-.603.03-.917.179-.373.17-.498.428-.498.648 0 .403.483.528.797.528.33 0 .558-.2.653-.434m-.035-.817v.498c0 .474-.359.643-.583.643-.244 0-.448-.174-.448-.423 0-.274.21-.688 1.03-.718m1.972.34c-.433 0-.433-.499-.433-.614 0-.134.005-.294.08-.418a.43.43 0 0 1 .353-.2c.434 0 .434.499.434.613 0 .135-.005.294-.08.419a.43.43 0 0 1-.354.2m-.577.193c0-.02 0-.134.084-.234.195.14.399.155.493.155.464 0 .808-.344.808-.728a.67.67 0 0 0-.205-.483.65.65 0 0 1 .449-.194c.01 0 .035 0 .05.005-.055.02-.08.074-.08.134 0 .085.065.145.144.145.05 0 .145-.035.145-.15a.244.244 0 0 0-.254-.244c-.1 0-.32.03-.528.234a.83.83 0 0 0-.529-.18c-.463 0-.806.345-.806.728 0 .22.109.409.234.513a.7.7 0 0 0-.155.414c0 .155.065.344.22.443-.3.085-.46.3-.46.498 0 .36.494.633 1.102.633.588 0 1.106-.254 1.106-.642a.64.64 0 0 0-.324-.568c-.264-.14-.553-.14-.857-.14-.124 0-.338 0-.373-.005-.16-.02-.264-.174-.264-.334m.717 1.575c-.503 0-.847-.255-.847-.519 0-.229.19-.413.409-.428h.293c.429 0 .987 0 .987.428 0 .27-.354.519-.842.519m1.803-2.168c.03-.742.448-.867.618-.867.513 0 .563.673.563.867zm-.005.105h1.39c.11 0 .125 0 .125-.105 0-.493-.27-.976-.892-.976-.578 0-1.036.513-1.036 1.136 0 .668.523 1.15 1.096 1.15.608 0 .832-.552.832-.647 0-.05-.04-.06-.065-.06-.045 0-.055.03-.065.07-.174.513-.623.513-.673.513a.67.67 0 0 1-.562-.333c-.15-.24-.15-.569-.15-.748"/>
    <path d="M112.663-60.943c.025-.065.025-.08.025-.09a.1.1 0 0 0-.1-.1c-.07 0-.09.05-.104.1l-1.699 4.693c-.025.065-.025.08-.025.09a.1.1 0 0 0 .1.1c.07 0 .09-.05.104-.1z"/>
    <path fill="none" stroke="#000" stroke-miterlimit="10" stroke-width=".399" d="M118.324-69.371h31.43"/>
    <path fill="none" stroke="#000" stroke-linecap="round" stroke-linejoin="round" stroke-miterlimit="10" stroke-width=".319" d="M148.559-70.965c.101.598 1.195 1.496 1.496 1.594-.3.101-1.395.996-1.496 1.594"/>
    <path d="M135.205-71.672c.025-.065.025-.08.025-.09a.1.1 0 0 0-.1-.1c-.07 0-.09.05-.104.1l-1.699 4.693c-.025.065-.025.08-.025.09a.1.1 0 0 0 .1.1c.07 0 .09-.05.104-.1zM119.33-72.488c0 .18-.01.235-.393.235h-.12v.154h2.875l.21-1.285h-.125c-.125.767-.24 1.13-1.096 1.13h-.663c-.234 0-.244-.034-.244-.199v-1.33h.448c.483 0 .538.16.538.583h.125v-1.32h-.125c0 .428-.055.583-.538.583h-.448v-1.196c0-.164.01-.2.244-.2h.643c.762 0 .897.275.976.967h.125l-.14-1.12h-2.805v.154h.12c.383 0 .393.054.393.234zm3.261-1.325v1.335c0 .225-.055.225-.388.225v.154c.174-.005.428-.015.563-.015.13 0 .388.01.558.015v-.154c-.334 0-.389 0-.389-.225v-.916c0-.518.354-.797.673-.797.313 0 .368.269.368.553v1.16c0 .225-.055.225-.388.225v.154c.174-.005.428-.015.563-.015.13 0 .388.01.558.015v-.154c-.26 0-.384 0-.389-.15v-.952c0-.428 0-.582-.154-.762-.07-.084-.235-.184-.523-.184-.364 0-.598.214-.738.523v-.523l-.702.055v.154c.348 0 .388.035.388.28m2.778.458c.03-.742.448-.866.618-.866.513 0 .563.672.563.866zm-.005.105h1.39c.11 0 .124 0 .124-.105 0-.493-.269-.976-.891-.976-.578 0-1.037.513-1.037 1.136 0 .668.523 1.15 1.096 1.15.608 0 .832-.552.832-.647 0-.05-.04-.06-.064-.06-.045 0-.055.03-.065.07-.174.513-.623.513-.673.513a.67.67 0 0 1-.563-.333c-.15-.24-.15-.569-.15-.748m2.492-.503v-.548l-.692.055v.154c.349 0 .389.035.389.28v1.334c0 .225-.055.225-.39.225v.154c.195-.005.43-.015.569-.015.2 0 .433 0 .633.015v-.154h-.105c-.369 0-.379-.055-.379-.235v-.767c0-.493.21-.936.588-.936.035 0 .045 0 .055.005a.22.22 0 0 0-.115.194c0 .14.105.214.215.214.09 0 .214-.06.214-.22s-.154-.303-.369-.303c-.363 0-.543.334-.613.548m2.226.797c-.434 0-.434-.498-.434-.613 0-.134.005-.294.08-.418a.43.43 0 0 1 .354-.2c.433 0 .433.499.433.613 0 .135-.005.294-.08.419a.43.43 0 0 1-.353.2m-.578.195c0-.02 0-.135.084-.235.195.14.399.155.494.155.463 0 .807-.344.807-.728a.67.67 0 0 0-.205-.483.65.65 0 0 1 .449-.194c.01 0 .035 0 .05.005-.055.02-.08.075-.08.134 0 .085.065.145.144.145.05 0 .145-.035.145-.15a.244.244 0 0 0-.254-.244c-.1 0-.319.03-.528.234a.83.83 0 0 0-.528-.18c-.464 0-.807.345-.807.728 0 .22.11.409.234.513a.7.7 0 0 0-.155.414c0 .155.065.344.22.443-.3.085-.459.3-.459.498 0 .36.493.633 1.101.633.588 0 1.106-.254 1.106-.642a.64.64 0 0 0-.324-.568c-.264-.14-.553-.14-.856-.14-.125 0-.34 0-.374-.005-.16-.02-.264-.174-.264-.333m.717 1.574c-.503 0-.847-.254-.847-.519 0-.229.19-.413.409-.428h.294c.428 0 .986 0 .986.428 0 .27-.354.519-.842.519m3.313-2.586a.47.47 0 0 1 .463-.319v-.154c-.115.01-.259.015-.374.015-.09 0-.323-.01-.433-.015v.154c.154.005.234.09.234.214 0 .05-.005.06-.03.12l-.503 1.226-.553-1.34c-.02-.05-.03-.07-.03-.09 0-.13.185-.13.28-.13v-.154c-.13.005-.46.015-.544.015-.134 0-.334-.005-.483-.015v.154c.239 0 .334 0 .403.175l.748 1.818a8 8 0 0 1-.125.294c-.11.274-.249.618-.568.618-.025 0-.14 0-.234-.09.155-.02.194-.13.194-.21 0-.129-.094-.209-.209-.209-.1 0-.21.065-.21.215 0 .224.21.403.46.403.313 0 .517-.283.637-.568zM136.3-73.355c.03-.742.448-.866.617-.866.513 0 .563.672.563.866zm-.005.105h1.39c.109 0 .124 0 .124-.105 0-.493-.27-.976-.892-.976-.578 0-1.036.513-1.036 1.136 0 .668.523 1.15 1.096 1.15.608 0 .832-.552.832-.647 0-.05-.04-.06-.065-.06-.044 0-.054.03-.064.07-.175.513-.623.513-.673.513a.67.67 0 0 1-.563-.333c-.15-.24-.15-.569-.15-.748m3.09-.02c.15-.189.339-.433.458-.563.155-.18.359-.254.593-.259v-.154c-.13.01-.279.015-.408.015-.15 0-.414-.01-.479-.015v.154c.105.01.145.075.145.155s-.05.144-.075.174l-.309.389-.388-.504c-.045-.05-.045-.06-.045-.09 0-.074.075-.119.174-.124v-.154a8.223 8.223 0 0 1-1.011 0v.154c.349 0 .354.005.588.304l.493.643-.468.593c-.24.289-.534.299-.638.299v.154c.13-.01.284-.015.414-.015.144 0 .353.01.473.015v-.154c-.11-.015-.145-.08-.145-.155 0-.11.145-.274.449-.633l.378.499c.04.054.105.134.105.164 0 .045-.045.12-.18.125v.154c.15-.005.429-.015.539-.015.134 0 .328.005.478.015v-.154c-.27 0-.359-.01-.473-.155zm2.056-.702v-.33l-.717.056v.154c.353 0 .388.03.388.25v2.33c0 .225-.054.225-.388.225v.155c.169-.005.428-.015.558-.015.134 0 .388.01.563.015v-.155c-.334 0-.389 0-.389-.224v-.882c.025.08.234.349.613.349.593 0 1.11-.488 1.11-1.131 0-.633-.482-1.126-1.04-1.126a.9.9 0 0 0-.698.329m.015 1.305v-1.111a.75.75 0 0 1 .643-.398c.363 0 .667.438.667 1 0 .604-.348 1.022-.717 1.022-.2 0-.389-.1-.523-.304-.07-.104-.07-.11-.07-.209M145.833-73.165c0-.638-.498-1.166-1.101-1.166-.623 0-1.106.543-1.106 1.166 0 .643.518 1.12 1.101 1.12a1.11 1.11 0 0 0 1.106-1.12m-1.101.996a.65.65 0 0 1-.568-.333c-.124-.22-.124-.524-.124-.703 0-.194 0-.463.119-.682a.67.67 0 0 1 .568-.334c.22 0 .434.11.563.324.13.214.13.503.13.692 0 .18 0 .449-.11.668a.64.64 0 0 1-.578.368m2.077-1.584v-.548l-.693.055v.154c.35 0 .39.035.39.28v1.334c0 .225-.055.225-.39.225v.154c.195-.005.429-.015.569-.015.199 0 .433 0 .632.015v-.154h-.104c-.37 0-.38-.055-.38-.235v-.767c0-.493.21-.936.589-.936.035 0 .045 0 .055.005a.22.22 0 0 0-.115.194c0 .14.105.214.214.214.09 0 .215-.06.215-.22s-.155-.303-.37-.303c-.363 0-.542.334-.612.548m1.981-.339h.713v-.154h-.713v-.917h-.124c-.005.408-.155.942-.643.962v.11h.423v1.374c0 .613.464.673.643.673.354 0 .493-.354.493-.673V-73h-.124v.274c0 .369-.15.558-.334.558-.334 0-.334-.453-.334-.538z"/>
    <path fill="none" stroke="#000" stroke-miterlimit="10" stroke-width=".399" d="M188.848-97.719h-34.551a3.987 3.987 0 0 0-3.984 3.989v48.722c0 2.2 1.785 3.985 3.984 3.985h34.551a3.983 3.983 0 0 0 3.984-3.985V-93.73a3.984 3.984 0 0 0-3.984-3.989Z"/>
    <path d="M160.717-68.058c0 .18-.01.235-.394.235h-.12v.154h2.875l.21-1.285h-.125c-.125.767-.24 1.13-1.096 1.13h-.663c-.234 0-.244-.034-.244-.199v-1.33h.448c.483 0 .538.16.538.583h.125v-1.32h-.124c0 .428-.055.583-.539.583h-.448v-1.196c0-.164.01-.2.244-.2h.643c.762 0 .897.275.976.967h.125l-.14-1.12h-2.805v.154h.12c.383 0 .393.054.393.234zm3.295-.697c0-.812.409-1.021.673-1.021.045 0 .358.005.533.184-.204.015-.234.164-.234.229 0 .13.09.23.229.23.13 0 .23-.085.23-.235-.001-.339-.38-.533-.763-.533-.623 0-1.081.538-1.081 1.156 0 .638.493 1.13 1.07 1.13a.82.82 0 0 0 .828-.647c0-.05-.05-.05-.065-.05-.045 0-.055.02-.065.05-.144.463-.468.523-.652.523-.265 0-.703-.214-.703-1.016m3.977.02c0-.638-.498-1.166-1.1-1.166-.623 0-1.107.543-1.107 1.166 0 .643.518 1.12 1.102 1.12a1.11 1.11 0 0 0 1.105-1.12m-1.1.996a.65.65 0 0 1-.569-.333c-.124-.22-.124-.524-.124-.703 0-.194 0-.463.12-.682a.67.67 0 0 1 .568-.334c.219 0 .433.11.562.324s.13.503.13.692c0 .18 0 .449-.11.668a.64.64 0 0 1-.577.368m1.793-1.644v1.335c0 .225-.055.225-.39.225v.154c.175-.005.43-.015.564-.015.13 0 .388.01.558.015v-.154c-.334 0-.389 0-.389-.225v-.916c0-.518.354-.797.673-.797.314 0 .369.269.369.553v1.16c0 .225-.055.225-.39.225v.154c.175-.005.43-.015.564-.015.13 0 .388.01.558.015v-.154c-.26 0-.384 0-.389-.15v-.952c0-.428 0-.582-.154-.762-.07-.084-.234-.184-.523-.184-.364 0-.598.214-.738.523v-.523l-.702.055v.154c.349 0 .389.035.389.28m4.566.648c0-.638-.498-1.166-1.101-1.166-.623 0-1.106.543-1.106 1.166 0 .643.518 1.12 1.1 1.12a1.11 1.11 0 0 0 1.107-1.12m-1.101.996a.65.65 0 0 1-.568-.333c-.125-.22-.125-.524-.125-.703 0-.194 0-.463.12-.682a.67.67 0 0 1 .568-.334c.219 0 .433.11.563.324s.13.503.13.692c0 .18 0 .449-.11.668a.64.64 0 0 1-.578.368m1.793-1.644v1.335c0 .225-.055.225-.389.225v.154c.175-.005.429-.015.563-.015.13 0 .389.01.558.015v-.154c-.334 0-.388 0-.388-.225v-.916c0-.518.353-.797.672-.797.314 0 .369.269.369.553v1.16c0 .225-.055.225-.389.225v.154c.174-.005.429-.015.563-.015.13 0 .389.01.558.015v-.154c-.334 0-.388 0-.388-.225v-.916c0-.518.353-.797.672-.797.314 0 .369.269.369.553v1.16c0 .225-.055.225-.389.225v.154c.174-.005.429-.015.563-.015.13 0 .389.01.558.015v-.154c-.259 0-.383 0-.388-.15v-.952c0-.428 0-.582-.155-.762-.07-.084-.234-.184-.523-.184-.418 0-.638.299-.722.488-.07-.433-.439-.488-.663-.488-.364 0-.598.214-.737.523v-.523l-.703.055v.154c.349 0 .389.035.389.28m4.484-.488-.697.055v.154c.324 0 .369.03.369.274v1.34c0 .225-.055.225-.389.225v.154c.16-.005.428-.015.548-.015.174 0 .349.01.518.015v-.154c-.329 0-.349-.025-.349-.22zm.02-.867a.26.26 0 0 0-.264-.264.27.27 0 0 0-.264.264c0 .135.11.264.264.264a.26.26 0 0 0 .264-.264m1.065 1.983c0-.812.409-1.021.673-1.021.045 0 .358.005.533.184-.204.015-.234.164-.234.229 0 .13.09.23.23.23.128 0 .228-.085.228-.235 0-.339-.379-.533-.762-.533-.623 0-1.081.538-1.081 1.156 0 .638.493 1.13 1.071 1.13a.82.82 0 0 0 .827-.647c0-.05-.05-.05-.065-.05-.045 0-.055.02-.065.05-.144.463-.468.523-.652.523-.264 0-.703-.214-.703-1.016m2.667.12c.11.02.518.1.518.458 0 .254-.174.453-.562.453-.42 0-.599-.284-.693-.707-.015-.065-.02-.085-.07-.085-.065 0-.065.035-.065.125v.657c0 .085 0 .12.055.12.025 0 .03-.005.125-.1.01-.01.01-.02.1-.114.219.209.443.214.548.214.572 0 .801-.334.801-.693a.64.64 0 0 0-.209-.473c-.164-.16-.358-.2-.568-.24-.279-.054-.613-.119-.613-.408 0-.174.13-.378.559-.378.548 0 .572.448.582.603.005.044.05.044.06.044.065 0 .065-.025.065-.12v-.502c0-.085 0-.12-.055-.12-.025 0-.035 0-.1.06a1 1 0 0 1-.084.08c-.19-.14-.394-.14-.468-.14-.608 0-.798.334-.798.613 0 .174.08.314.215.423.16.13.298.16.657.23"/>
    <path fill="none" stroke="#000" stroke-miterlimit="10" stroke-width=".399" d="M178.695-40.465v20.8"/>
    <path fill="none" stroke="#000" stroke-linecap="round" stroke-linejoin="round" stroke-miterlimit="10" stroke-width=".319" d="M177.102-39.27c.597-.101 1.492-1.195 1.593-1.496.098.301.997 1.395 1.594 1.496"/>
    <path d="M178.971-2.696c.02-.11.1-.518.459-.518.254 0 .453.174.453.562 0 .42-.284.599-.707.693-.065.015-.085.02-.085.07 0 .065.035.065.124.065h.658c.085 0 .12 0 .12-.055 0-.025-.005-.03-.1-.125-.01-.01-.02-.01-.114-.1a.75.75 0 0 0 .214-.548c0-.572-.334-.801-.693-.801-.264 0-.413.149-.473.209-.16.164-.2.358-.24.568-.054.278-.119.613-.408.613-.174 0-.378-.13-.378-.559 0-.548.448-.572.603-.582.044-.005.044-.05.044-.06 0-.065-.025-.065-.12-.065h-.503c-.084 0-.119 0-.119.055 0 .025 0 .035.06.1a1 1 0 0 1 .08.084c-.14.19-.14.394-.14.468 0 .608.334.798.613.798a.53.53 0 0 0 .423-.215c.13-.16.16-.299.23-.657m.574-2.877h.448l-.055-.717h-.154c0 .349-.035.389-.28.389h-1.768l.055.732h.154c0-.349.035-.389.28-.389h.886c.434 0 .772.24.772.603 0 .419-.234.439-.493.439h-1.654l.055.732h.154c0-.389.015-.389.459-.389h.747c.389 0 .842 0 .842-.757 0-.279-.14-.498-.448-.643m-1.485-1.676h-1.58l.055.717h.155c0-.348.035-.388.279-.388h2.969v-.125c-.005-.005-.075-.045-.309-.18a.78.78 0 0 0 .364-.652c0-.593-.488-1.11-1.131-1.11-.633 0-1.126.487-1.126 1.055 0 .389.234.603.324.683m1.31-.015h-1.026c-.095 0-.1 0-.18-.055a.72.72 0 0 1-.319-.588c0-.224.13-.403.32-.523.204-.13.488-.144.692-.144.184 0 .483.01.707.154.155.105.32.294.32.563 0 .224-.12.404-.305.523-.104.07-.12.07-.209.07m-.399-2.932c.02-.11.1-.518.459-.518.254 0 .453.174.453.563 0 .418-.284.598-.707.692-.065.015-.085.02-.085.07 0 .065.035.065.124.065h.658c.085 0 .12 0 .12-.055 0-.025-.005-.03-.1-.125-.01-.01-.02-.01-.114-.1a.75.75 0 0 0 .214-.547c0-.573-.334-.802-.693-.802a.64.64 0 0 0-.473.209c-.16.164-.2.359-.24.568-.054.279-.119.613-.408.613-.174 0-.378-.13-.378-.558 0-.548.448-.573.603-.583.044-.005.044-.05.044-.06 0-.065-.025-.065-.12-.065h-.503c-.084 0-.119 0-.119.055 0 .025 0 .035.06.1.02.015.064.065.08.084-.14.19-.14.394-.14.469 0 .607.334.797.613.797a.53.53 0 0 0 .423-.215c.13-.159.16-.298.23-.657m-1.235-1.81.055.697h.154c0-.324.03-.369.274-.369h1.34c.225 0 .225.056.225.39h.154c-.005-.16-.015-.43-.015-.549 0-.174.01-.349.015-.518h-.154c0 .329-.025.349-.22.349zm-.867-.02a.26.26 0 0 0-.264.264c0 .155.135.264.264.264.135 0 .264-.11.264-.264a.26.26 0 0 0-.264-.264m2.795-2.375h.329l-.055-.733h-.154c0 .349-.035.389-.28.389h-3.024l.055.717h.155c0-.349.035-.388.279-.388h1.076a.8.8 0 0 0-.31.628c0 .587.49 1.11 1.132 1.11.633 0 1.126-.488 1.126-1.056a.84.84 0 0 0-.33-.667m-1.335 0h1.021c.09 0 .1 0 .185.054.239.15.348.374.348.588 0 .225-.13.404-.319.523-.204.13-.488.145-.692.145-.185 0-.483-.01-.708-.155a.68.68 0 0 1-.319-.562c0-.175.075-.384.3-.539.084-.054.094-.054.184-.054m-.065-2.942a.47.47 0 0 1-.319-.464h-.154c.01.115.014.26.014.374 0 .09-.01.324-.014.434h.154c.005-.155.09-.235.214-.235.05 0 .06.005.12.03l1.226.503-1.34.553c-.05.02-.07.03-.09.03-.13 0-.13-.184-.13-.279h-.154c.005.13.014.459.014.543 0 .135-.004.334-.014.484h.154c0-.24 0-.334.175-.404l1.818-.747c.065.025.23.094.294.124.274.11.618.25.618.568 0 .025 0 .14-.09.235-.02-.155-.13-.195-.21-.195-.129 0-.209.095-.209.21 0 .099.065.209.215.209.224 0 .403-.21.403-.459 0-.314-.284-.518-.568-.637z"/>
    <path fill="none" stroke="#000" stroke-miterlimit="10" stroke-width=".399" d="M164.453-40.465v20.8"/>
    <path fill="none" stroke="#000" stroke-linecap="round" stroke-linejoin="round" stroke-miterlimit="10" stroke-width=".319" d="M162.86-39.27c.597-.101 1.495-1.195 1.593-1.496.101.301.996 1.395 1.594 1.496"/>
    <path d="m162.725-2.598.054.718h.155c0-.35.035-.39.279-.39h2.59c.225 0 .225.056.225.39h.154c-.005-.165-.015-.429-.015-.553s.01-.37.015-.553h-.154c0 .333 0 .388-.225.388zm1.255-1.384.055.698h.154c0-.324.03-.369.274-.369h1.34c.225 0 .225.055.225.389h.154c-.005-.16-.015-.429-.015-.548 0-.175.01-.349.015-.518h-.154c0 .328-.025.348-.22.348zm-.867-.02a.26.26 0 0 0-.264.264c0 .155.135.265.264.265.135 0 .264-.11.264-.265a.26.26 0 0 0-.264-.264m.922-1.353h-.578c-.439 0-.678-.24-.678-.459 0-.015 0-.09.035-.164.02.06.085.15.21.15.114 0 .214-.08.214-.215 0-.144-.1-.22-.22-.22-.184 0-.348.185-.348.45 0 .348.264.771.792.771h.573v.394h.154v-.394h1.614c.225 0 .225.055.225.39h.154c-.005-.195-.015-.43-.015-.569 0-.199 0-.433.015-.632h-.154v.104c0 .369-.055.379-.235.379h-1.604v-.568h-.154zm.891-1.209c-.742-.03-.866-.448-.866-.618 0-.513.672-.562.866-.562zm.105.005v-1.39c0-.11 0-.124-.105-.124-.493 0-.976.269-.976.891 0 .578.513 1.037 1.136 1.037.668 0 1.15-.523 1.15-1.096 0-.608-.552-.832-.647-.832-.05 0-.06.04-.06.064 0 .045.03.055.07.065a.7.7 0 0 1 .513.673.67.67 0 0 1-.333.563c-.24.15-.569.15-.748.15m-.842-2.522v-.713h-.154v.713h-.917v.124c.408.005.942.155.962.643h.11v-.424h1.374c.613 0 .673-.463.673-.642 0-.354-.354-.493-.673-.493h-.284v.124h.274c.369 0 .558.15.558.334 0 .334-.453.334-.538.334zm-.21-1.958.056.698h.154c0-.324.03-.369.274-.369h1.34c.225 0 .225.055.225.389h.154c-.005-.16-.015-.428-.015-.548 0-.175.01-.349.015-.518h-.154c0 .329-.025.348-.22.348zm-.866-.02a.26.26 0 0 0-.264.265c0 .154.135.264.264.264.135 0 .264-.11.264-.264a.26.26 0 0 0-.264-.264m1.355-1.03h1.335c.225 0 .225.056.225.39h.154c-.005-.175-.015-.43-.015-.564 0-.13.01-.388.015-.558h-.154c0 .334 0 .389-.225.389h-.916c-.518 0-.797-.354-.797-.673 0-.313.269-.368.553-.368h1.16c.225 0 .225.055.225.388h.154c-.005-.174-.015-.428-.015-.563 0-.13.01-.388.015-.558h-.154c0 .334 0 .389-.225.389h-.916c-.518 0-.797-.354-.797-.673 0-.314.269-.368.553-.368h1.16c.225 0 .225.054.225.388h.154c-.005-.174-.015-.428-.015-.563 0-.13.01-.388.015-.558h-.154c0 .26 0 .384-.15.389h-.952c-.428 0-.582 0-.762.154-.084.07-.184.235-.184.523 0 .419.299.638.488.723-.433.07-.488.438-.488.662 0 .364.214.598.523.738h-.523l.055.702h.154c0-.349.035-.389.28-.389m.458-4.16c-.742-.03-.866-.448-.866-.618 0-.513.672-.563.866-.563zm.105.005v-1.39c0-.11 0-.125-.105-.125-.493 0-.976.27-.976.892 0 .578.513 1.036 1.136 1.036.668 0 1.15-.523 1.15-1.096 0-.608-.552-.832-.647-.832-.05 0-.06.04-.06.065 0 .045.03.055.07.065a.7.7 0 0 1 .513.673.67.67 0 0 1-.333.562c-.24.15-.569.15-.748.15"/>
    <path fill="none" stroke="#000" stroke-miterlimit="10" stroke-width=".399" d="M192.934-86.437h27.886"/>
    <path fill="none" stroke="#000" stroke-linecap="round" stroke-linejoin="round" stroke-miterlimit="10" stroke-width=".319" d="M219.625-88.031c.102.597 1.195 1.492 1.496 1.594-.3.097-1.394.996-1.496 1.593"/>
    <path d="M225.938-86.022h-.125c-.055.508-.124 1.13-1.001 1.13h-.409c-.234 0-.244-.034-.244-.199v-2.655c0-.17 0-.24.473-.24h.165v-.154c-.18.015-.633.015-.837.015-.194 0-.583 0-.758-.015v.155h.12c.384 0 .394.055.394.234v2.625c0 .18-.01.235-.394.235h-.12v.154h2.596zm.492-.419c0 1.031.808 1.814 1.734 1.814.812 0 1.3-.693 1.3-1.271 0-.05 0-.085-.064-.085-.055 0-.055.03-.06.08-.04.713-.573 1.121-1.116 1.121-.304 0-1.28-.17-1.28-1.654 0-1.49.971-1.659 1.275-1.659.543 0 .986.453 1.086 1.18.01.07.01.085.08.085.08 0 .08-.015.08-.12v-1.18c0-.085 0-.12-.055-.12-.02 0-.04 0-.08.06l-.25.369c-.183-.18-.438-.429-.916-.429-.931 0-1.734.793-1.734 1.81m6.91.015c0-1.016-.752-1.824-1.658-1.824-.892 0-1.654.798-1.654 1.824 0 1.021.767 1.799 1.654 1.799.906 0 1.659-.793 1.659-1.8m-1.653 1.669c-.479 0-1.146-.438-1.146-1.739 0-1.29.727-1.629 1.14-1.629.434 0 1.147.354 1.147 1.63 0 1.32-.683 1.738-1.141 1.738m2.614-.369c0 .18-.01.235-.394.235h-.12v.154h2.875l.21-1.285h-.125c-.124.767-.24 1.13-1.096 1.13h-.663c-.234 0-.244-.034-.244-.199v-1.33h.449c.483 0 .538.16.538.583h.124v-1.32h-.124c0 .428-.055.583-.538.583h-.449v-1.196c0-.164.01-.2.244-.2h.643c.762 0 .897.275.977.967h.124l-.14-1.12h-2.804v.154h.12c.383 0 .393.054.393.234z"/>
    <path fill="none" stroke="#000" stroke-miterlimit="10" stroke-width=".399" d="M192.934-75.059h27.886"/>
    <path fill="none" stroke="#000" stroke-linecap="round" stroke-linejoin="round" stroke-miterlimit="10" stroke-width=".319" d="M219.625-76.652c.102.597 1.195 1.492 1.496 1.593-.3.098-1.394.997-1.496 1.594"/>
    <path d="M224.154-75.117v-1.29c0-.115 0-.174.11-.19.05-.01.194-.01.294-.01.448 0 1.006.02 1.006.743 0 .344-.12.747-.857.747zm1.051.065c.484-.12.872-.424.872-.812 0-.478-.568-.897-1.3-.897h-1.565v.155h.12c.384 0 .394.055.394.234v2.625c0 .18-.01.235-.394.235h-.12v.154c.18-.015.534-.015.728-.015s.548 0 .727.015v-.154h-.12c-.383 0-.393-.055-.393-.235v-1.26h.573c.08 0 .289 0 .463.17.19.179.19.333.19.667 0 .324 0 .523.204.712.204.18.478.21.628.21.388 0 .473-.41.473-.548 0-.03 0-.085-.065-.085-.054 0-.054.045-.06.08-.03.353-.204.443-.329.443-.244 0-.283-.254-.353-.718l-.065-.398c-.09-.319-.334-.483-.608-.578M230.155-75.047c0-1.016-.753-1.824-1.66-1.824-.891 0-1.653.798-1.653 1.824 0 1.021.767 1.799 1.654 1.799.906 0 1.659-.793 1.659-1.8m-1.654 1.669c-.479 0-1.146-.438-1.146-1.739 0-1.29.727-1.629 1.14-1.629.434 0 1.147.354 1.147 1.63 0 1.32-.683 1.738-1.141 1.738m3.057-2.994c0-.18.015-.234.408-.234h.13v-.155c-.174.015-.568.015-.757.015-.195 0-.588 0-.763-.015v.155h.13c.394 0 .409.055.409.234v2.625c0 .18-.016.235-.409.235h-.13v.154c.175-.015.569-.015.758-.015.194 0 .588 0 .762.015v-.154h-.13c-.393 0-.408-.055-.408-.235z"/>
    <path fill="none" stroke="#000" stroke-miterlimit="10" stroke-width=".399" d="M192.934-63.684h27.886"/>
    <path fill="none" stroke="#000" stroke-linecap="round" stroke-linejoin="round" stroke-miterlimit="10" stroke-width=".319" d="M219.625-65.277c.102.597 1.195 1.496 1.496 1.593-.3.102-1.394.997-1.496 1.598"/>
    <path d="M223.586-63.733v1.335c0 .225-.055.225-.389.225v.154c.175-.005.429-.015.564-.015.129 0 .388.01.557.015v-.154c-.333 0-.388 0-.388-.225v-.916c0-.518.354-.798.672-.798.314 0 .37.27.37.554v1.16c0 .225-.056.225-.39.225v.154c.175-.005.429-.015.564-.015.129 0 .388.01.557.015v-.154c-.333 0-.388 0-.388-.225v-.916c0-.518.354-.798.672-.798.314 0 .37.27.37.554v1.16c0 .225-.056.225-.39.225v.154c.175-.005.429-.015.564-.015.129 0 .388.01.558.015v-.154c-.26 0-.384 0-.39-.15v-.952c0-.428 0-.582-.153-.762-.07-.085-.235-.184-.524-.184-.418 0-.637.299-.722.488-.07-.433-.439-.488-.663-.488-.363 0-.597.214-.737.523v-.523l-.703.055v.154c.35 0 .39.035.39.28m5.262 1.335c.02.2.154.409.389.409.104 0 .408-.07.408-.473v-.28h-.125v.28c0 .289-.124.318-.179.318-.164 0-.184-.224-.184-.249v-.996c0-.21 0-.404-.18-.588a.95.95 0 0 0-.682-.274c-.409 0-.752.234-.752.563 0 .15.1.234.229.234.14 0 .23-.1.23-.23 0-.059-.026-.223-.255-.228.134-.175.378-.23.538-.23.244 0 .528.195.528.638v.185c-.254.015-.603.03-.917.18-.373.168-.498.427-.498.647 0 .403.483.528.797.528.33 0 .558-.2.653-.434m-.035-.817v.498c0 .474-.359.643-.583.643-.244 0-.448-.174-.448-.423 0-.274.21-.688 1.03-.718m1.748-1.006-.697.055v.154c.324 0 .369.03.369.274v1.34c0 .225-.055.225-.39.225v.154c.16-.005.43-.015.549-.015.174 0 .349.01.518.015v-.154c-.329 0-.349-.025-.349-.22zm.02-.867a.26.26 0 0 0-.264-.264.27.27 0 0 0-.264.264c0 .135.11.264.264.264a.26.26 0 0 0 .264-.264m1.03 1.355v1.335c0 .225-.055.225-.388.225v.154c.174-.005.428-.015.563-.015.13 0 .388.01.558.015v-.154c-.334 0-.389 0-.389-.225v-.916c0-.518.354-.798.673-.798.313 0 .368.27.368.554v1.16c0 .225-.055.225-.388.225v.154c.174-.005.428-.015.563-.015.13 0 .388.01.558.015v-.154c-.26 0-.384 0-.389-.15v-.952c0-.428 0-.582-.154-.762-.07-.085-.235-.184-.523-.184-.364 0-.598.214-.738.523v-.523l-.702.055v.154c.348 0 .388.035.388.28M234.546-64.012h.712v-.154h-.713v-.917h-.124c-.005.408-.155.941-.643.961v.11h.424v1.375c0 .613.463.673.643.673.353 0 .493-.354.493-.673v-.284h-.125v.274c0 .369-.15.558-.334.558-.333 0-.333-.453-.333-.538zm1.633.737c.03-.742.448-.867.618-.867.513 0 .563.673.563.867zm-.005.105h1.39c.11 0 .124 0 .124-.105 0-.493-.269-.976-.891-.976-.578 0-1.037.513-1.037 1.136 0 .668.523 1.15 1.096 1.15.608 0 .832-.552.832-.647 0-.05-.04-.06-.064-.06-.045 0-.055.03-.065.07-.174.513-.623.513-.673.513a.67.67 0 0 1-.563-.333c-.15-.24-.15-.569-.15-.748m2.209-.563v1.335c0 .225-.055.225-.39.225v.154c.175-.005.43-.015.564-.015.13 0 .388.01.558.015v-.154c-.334 0-.389 0-.389-.225v-.916c0-.518.354-.798.673-.798.314 0 .369.27.369.554v1.16c0 .225-.055.225-.39.225v.154c.175-.005.43-.015.564-.015.13 0 .388.01.558.015v-.154c-.26 0-.384 0-.389-.15v-.952c0-.428 0-.582-.154-.762-.07-.085-.234-.184-.523-.184-.364 0-.598.214-.738.523v-.523l-.702.055v.154c.349 0 .389.035.389.28m3.878 1.335c.02.2.155.409.389.409.104 0 .408-.07.408-.473v-.28h-.124v.28c0 .289-.125.318-.18.318-.164 0-.184-.224-.184-.249v-.996c0-.21 0-.404-.18-.588a.95.95 0 0 0-.682-.274c-.408 0-.752.234-.752.563 0 .15.1.234.229.234.14 0 .23-.1.23-.23 0-.059-.026-.223-.255-.228.135-.175.379-.23.538-.23.244 0 .528.195.528.638v.185c-.254.015-.603.03-.916.18-.374.168-.499.427-.499.647 0 .403.484.528.797.528.33 0 .558-.2.653-.434m-.035-.817v.498c0 .474-.359.643-.583.643-.244 0-.448-.174-.448-.423 0-.274.21-.688 1.031-.718m1.415-.518v1.335c0 .225-.055.225-.389.225v.154c.174-.005.428-.015.563-.015.13 0 .389.01.558.015v-.154c-.334 0-.388 0-.388-.225v-.916c0-.518.353-.798.672-.798.314 0 .369.27.369.554v1.16c0 .225-.055.225-.389.225v.154c.174-.005.428-.015.563-.015.13 0 .389.01.558.015v-.154c-.26 0-.383 0-.388-.15v-.952c0-.428 0-.582-.155-.762-.07-.085-.234-.184-.523-.184-.364 0-.598.214-.737.523v-.523l-.703.055v.154c.349 0 .389.035.389.28m2.802.628c0-.812.409-1.022.673-1.022.045 0 .358.005.533.185-.204.015-.234.164-.234.229 0 .13.09.23.23.23.128 0 .228-.085.228-.235 0-.339-.379-.533-.762-.533-.623 0-1.081.538-1.081 1.156 0 .638.493 1.13 1.07 1.13a.82.82 0 0 0 .828-.647c0-.05-.05-.05-.065-.05-.045 0-.055.02-.065.05-.144.463-.468.523-.652.523-.264 0-.703-.214-.703-1.016m2.19-.17c.029-.742.447-.867.617-.867.513 0 .563.673.563.867zm-.006.105h1.39c.11 0 .124 0 .124-.105 0-.493-.269-.976-.891-.976-.578 0-1.037.513-1.037 1.136 0 .668.523 1.15 1.097 1.15.607 0 .831-.552.831-.647 0-.05-.04-.06-.064-.06-.045 0-.055.03-.065.07-.174.513-.623.513-.673.513a.67.67 0 0 1-.563-.333c-.149-.24-.149-.569-.149-.748M208.042-65.984c.025-.065.025-.08.025-.09a.1.1 0 0 0-.1-.1c-.07 0-.09.05-.104.1l-1.699 4.693c-.025.065-.025.08-.025.09a.1.1 0 0 0 .1.1c.07 0 .09-.05.104-.1z"/>
    <path fill="none" stroke="#000" stroke-miterlimit="10" stroke-width=".399" d="M192.934-52.305h27.886"/>
    <path fill="none" stroke="#000" stroke-linecap="round" stroke-linejoin="round" stroke-miterlimit="10" stroke-width=".319" d="M219.625-53.898c.102.597 1.195 1.496 1.496 1.593-.3.102-1.394.996-1.496 1.594"/>
    <path d="M223.596-52.38c.03-.743.448-.867.618-.867.513 0 .563.672.563.866zm-.005.104h1.39c.11 0 .125 0 .125-.105 0-.493-.27-.976-.892-.976-.578 0-1.037.513-1.037 1.136 0 .668.524 1.15 1.097 1.15.607 0 .832-.552.832-.647 0-.05-.04-.06-.065-.06-.045 0-.055.03-.065.07-.174.513-.623.513-.673.513a.67.67 0 0 1-.562-.333c-.15-.24-.15-.569-.15-.748m2.209-.563v1.335c0 .225-.055.225-.389.225v.154c.174-.005.429-.015.563-.015.13 0 .389.01.558.015v-.154c-.334 0-.388 0-.388-.225v-.916c0-.518.353-.797.672-.797.314 0 .369.269.369.553v1.16c0 .225-.055.225-.389.225v.154c.174-.005.429-.015.563-.015.13 0 .389.01.558.015v-.154c-.26 0-.383 0-.388-.15v-.952c0-.428 0-.582-.155-.762-.07-.084-.234-.184-.523-.184-.364 0-.598.214-.737.523v-.523l-.703.055v.154c.349 0 .389.035.389.28m2.777.458c.03-.742.448-.867.618-.867.513 0 .563.673.563.867zm-.005.105h1.39c.11 0 .125 0 .125-.105 0-.493-.27-.976-.892-.976-.578 0-1.036.513-1.036 1.136 0 .668.523 1.15 1.096 1.15.608 0 .832-.552.832-.647 0-.05-.04-.06-.065-.06-.045 0-.055.03-.065.07-.174.513-.622.513-.672.513a.67.67 0 0 1-.563-.333c-.15-.24-.15-.569-.15-.748m2.493-.503v-.548l-.693.055v.154c.349 0 .389.035.389.28v1.334c0 .225-.055.225-.389.225v.154c.195-.005.429-.015.568-.015.2 0 .434 0 .633.015v-.154h-.104c-.37 0-.38-.055-.38-.235v-.767c0-.493.21-.937.589-.937.035 0 .045 0 .055.006a.22.22 0 0 0-.115.194c0 .14.105.214.214.214.09 0 .214-.06.214-.22s-.154-.303-.368-.303c-.364 0-.543.334-.613.548m2.225.797c-.433 0-.433-.498-.433-.613 0-.134.005-.294.08-.418a.43.43 0 0 1 .353-.2c.434 0 .434.499.434.613 0 .135-.005.294-.08.419a.43.43 0 0 1-.354.2m-.578.194c0-.02 0-.134.085-.234.194.14.398.155.493.155.464 0 .807-.344.807-.728a.67.67 0 0 0-.204-.483.65.65 0 0 1 .448-.194c.01 0 .035 0 .05.005-.055.02-.08.075-.08.134 0 .085.065.145.145.145.05 0 .144-.035.144-.15a.244.244 0 0 0-.254-.244c-.1 0-.318.03-.528.234a.83.83 0 0 0-.528-.18c-.463 0-.807.345-.807.728 0 .22.11.409.234.513a.7.7 0 0 0-.154.414c0 .155.065.344.219.443-.299.085-.459.3-.459.498 0 .36.494.633 1.102.633.588 0 1.106-.254 1.106-.642a.64.64 0 0 0-.324-.568c-.264-.14-.553-.14-.857-.14-.125 0-.339 0-.374-.005-.16-.02-.264-.174-.264-.334m.718 1.575c-.504 0-.847-.255-.847-.519 0-.229.189-.413.408-.428h.294c.429 0 .987 0 .987.428 0 .27-.354.519-.842.519m3.312-2.586a.47.47 0 0 1 .464-.319v-.154a5 5 0 0 1-.374.014c-.09 0-.324-.01-.433-.014v.154c.154.005.234.09.234.214 0 .05-.005.06-.03.12l-.503 1.226-.553-1.34c-.02-.05-.03-.07-.03-.09 0-.13.184-.13.279-.13v-.154a26 26 0 0 1-.543.014 8 8 0 0 1-.484-.014v.154c.24 0 .334 0 .404.175l.747 1.818a8 8 0 0 1-.124.294c-.11.274-.25.618-.568.618-.025 0-.14 0-.234-.09.154-.02.194-.13.194-.21 0-.129-.095-.209-.21-.209-.099 0-.209.065-.209.215 0 .224.21.403.459.403.314 0 .518-.284.637-.568zM239.808-52.998v-.33l-.718.056v.154c.354 0 .389.03.389.25v2.33c0 .225-.055.225-.389.225v.155c.17-.005.428-.015.558-.015.135 0 .389.01.563.015v-.155c-.334 0-.388 0-.388-.224v-.882c.025.08.234.349.612.349.593 0 1.111-.488 1.111-1.131 0-.633-.483-1.126-1.04-1.126a.9.9 0 0 0-.698.329m.015 1.305v-1.111a.75.75 0 0 1 .642-.398c.364 0 .668.438.668 1 0 .604-.349 1.022-.718 1.022-.199 0-.388-.1-.523-.304-.07-.104-.07-.11-.07-.209m2.727-1.086v-.548l-.692.055v.154c.348 0 .388.035.388.28v1.334c0 .225-.054.225-.388.225v.154c.194-.005.428-.015.568-.015.2 0 .433 0 .633.015v-.154h-.105c-.369 0-.379-.055-.379-.235v-.767c0-.493.21-.937.588-.937.035 0 .045 0 .055.006a.22.22 0 0 0-.115.194c0 .14.105.214.215.214.09 0 .214-.06.214-.22s-.155-.303-.37-.303c-.363 0-.542.334-.612.548m2.001-.548-.697.055v.154c.324 0 .369.03.369.274v1.34c0 .225-.055.225-.39.225v.154c.16-.005.43-.015.549-.015.174 0 .349.01.518.015v-.154c-.329 0-.349-.025-.349-.22zm.02-.867a.26.26 0 0 0-.264-.264.27.27 0 0 0-.264.264c0 .135.11.264.264.264a.26.26 0 0 0 .264-.264m1.065 1.983c0-.812.409-1.022.673-1.022.044 0 .358.005.533.185-.204.015-.234.164-.234.229 0 .13.09.23.229.23.13 0 .229-.085.229-.235 0-.339-.379-.533-.762-.533-.623 0-1.081.538-1.081 1.156 0 .638.493 1.13 1.07 1.13a.82.82 0 0 0 .828-.647c0-.05-.05-.05-.065-.05-.045 0-.055.02-.065.05-.144.463-.468.523-.653.523-.264 0-.702-.214-.702-1.016m2.189-.17c.03-.742.448-.867.618-.867.513 0 .563.673.563.867zm-.005.105h1.39c.11 0 .124 0 .124-.105 0-.493-.269-.976-.891-.976-.578 0-1.037.513-1.037 1.136 0 .668.523 1.15 1.096 1.15.608 0 .832-.552.832-.647 0-.05-.04-.06-.064-.06-.045 0-.055.03-.065.07-.174.513-.623.513-.673.513a.67.67 0 0 1-.563-.333c-.149-.24-.149-.569-.149-.748M208.042-54.606c.025-.065.025-.08.025-.09a.1.1 0 0 0-.1-.1c-.07 0-.09.05-.104.1l-1.699 4.693c-.025.065-.025.08-.025.09a.1.1 0 0 0 .1.1c.07 0 .09-.05.104-.1z"/>
    <path fill="none" stroke="#000" stroke-miterlimit="10" stroke-width=".399" d="M36.508-122.621v95.672h177.168v-95.672Z"/>
</svg>
