<svg xmlns="http://www.w3.org/2000/svg" width="671.887" height="327.252" viewBox="0 -245.439 503.915 245.439">
    <path fill="none" stroke="gray" stroke-miterlimit="10" stroke-width=".399" d="M196.594-238.152h-77.07a3.98 3.98 0 0 0-3.985 3.984v77.07c0 2.2 1.781 3.985 3.984 3.985h77.07c2.2 0 3.985-1.785 3.985-3.985v-77.07a3.983 3.983 0 0 0-3.984-3.984Z"/>
    <path fill="gray" d="M127.643-198.984c0 .359-.02.468-.787.468h-.24v.309h5.748l.419-2.57h-.25c-.248 1.534-.477 2.261-2.19 2.261h-1.326c-.468 0-.488-.07-.488-.398v-2.66h.897c.966 0 1.076.319 1.076 1.165h.249v-2.64h-.25c0 .858-.109 1.166-1.075 1.166h-.897v-2.39c0-.329.02-.399.488-.399h1.285c1.524 0 1.794.548 1.953 1.933h.249l-.28-2.242h-5.607v.31h.239c.767 0 .787.109.787.467zm6.521-2.65v2.67c0 .448-.11.448-.777.448v.309c.349-.01.857-.03 1.126-.03.259 0 .777.02 1.115.03v-.309c-.667 0-.776 0-.776-.448v-1.833c0-1.036.707-1.594 1.344-1.594.628 0 .738.538.738 1.106v2.32c0 .45-.11.45-.777.45v.308c.348-.01.856-.03 1.125-.03.259 0 .777.02 1.116.03v-.309c-.518 0-.767 0-.777-.299v-1.902c0-.857 0-1.166-.31-1.524-.138-.17-.467-.369-1.045-.369-.727 0-1.195.429-1.474 1.046v-1.046l-1.405.11v.309c.697 0 .777.07.777.557m5.555.917c.06-1.484.897-1.733 1.236-1.733 1.025 0 1.125 1.344 1.125 1.733zm-.01.21h2.78c.219 0 .248 0 .248-.21 0-.986-.537-1.952-1.782-1.952-1.156 0-2.072 1.025-2.072 2.27 0 1.335 1.045 2.302 2.191 2.302 1.215 0 1.663-1.106 1.663-1.295 0-.1-.08-.12-.129-.12-.09 0-.11.06-.13.14-.348 1.026-1.245 1.026-1.344 1.026-.498 0-.897-.3-1.126-.668-.299-.478-.299-1.135-.299-1.494m4.985-1.007v-1.096l-1.384.11v.309c.697 0 .777.07.777.557v2.67c0 .448-.11.448-.777.448v.309c.388-.01.857-.03 1.135-.03.399 0 .867 0 1.266.03v-.309h-.21c-.737 0-.757-.11-.757-.468v-1.534c0-.986.419-1.873 1.176-1.873.07 0 .09 0 .11.01a.43.43 0 0 0-.23.389c0 .279.21.428.428.428.18 0 .429-.12.429-.438s-.309-.608-.737-.608c-.727 0-1.086.668-1.226 1.096m4.45 1.594c-.866 0-.866-.996-.866-1.225 0-.27.01-.588.16-.837.08-.12.308-.399.707-.399.867 0 .867.996.867 1.226 0 .268-.01.587-.16.836-.08.12-.309.399-.707.399m-1.155.388c0-.04 0-.269.17-.468.388.279.797.309.986.309.926 0 1.613-.688 1.613-1.454 0-.37-.159-.738-.408-.967.359-.338.717-.388.897-.388.02 0 .07 0 .1.01-.11.04-.16.15-.16.269 0 .169.13.288.288.288.1 0 .29-.07.29-.298 0-.17-.12-.489-.508-.489-.2 0-.638.06-1.056.469a1.66 1.66 0 0 0-1.056-.359c-.927 0-1.614.687-1.614 1.455 0 .438.22.816.468 1.025-.13.15-.309.479-.309.827 0 .31.13.688.439.887-.598.169-.917.597-.917.996 0 .717.986 1.265 2.202 1.265 1.175 0 2.211-.508 2.211-1.285 0-.349-.14-.857-.647-1.135-.528-.28-1.106-.28-1.714-.28-.249 0-.677 0-.747-.01-.319-.04-.528-.348-.528-.667m1.435 3.148c-1.006 0-1.694-.508-1.694-1.036 0-.458.379-.827.817-.857h.588c.857 0 1.972 0 1.972.857 0 .538-.707 1.036-1.683 1.036m6.624-5.17c.26-.627.767-.637.927-.637v-.31c-.23.02-.518.03-.747.03-.18 0-.648-.02-.867-.03v.31c.309.01.468.179.468.428 0 .1-.01.12-.06.239l-1.005 2.45-1.106-2.68c-.04-.099-.06-.139-.06-.179 0-.258.368-.258.558-.258v-.31c-.26.01-.917.03-1.086.03-.269 0-.667-.01-.966-.03v.31c.478 0 .667 0 .807.348l1.494 3.636c-.05.13-.19.458-.25.588-.218.548-.497 1.235-1.135 1.235-.05 0-.279 0-.468-.18.309-.04.388-.258.388-.418a.403.403 0 0 0-.418-.418c-.199 0-.418.13-.418.428 0 .448.418.807.916.807.628 0 1.036-.568 1.275-1.135zM165.176-200.339c0-1.275-.996-2.33-2.201-2.33-1.246 0-2.212 1.085-2.212 2.33a2.223 2.223 0 0 0 2.202 2.242 2.22 2.22 0 0 0 2.211-2.242m-2.201 1.993c-.429 0-.867-.21-1.136-.668-.249-.438-.249-1.046-.249-1.404 0-.389 0-.927.24-1.365.268-.458.736-.667 1.135-.667.438 0 .866.219 1.125.647.26.428.26 1.006.26 1.385 0 .358 0 .896-.22 1.334-.219.449-.657.738-1.155.738m6.385-.648v.897l1.435-.11v-.309c-.697 0-.777-.07-.777-.558v-3.536l-1.464.11v.309c.697 0 .777.07.777.557v1.774c0 .866-.478 1.543-1.206 1.543-.837 0-.876-.468-.876-.986v-3.307l-1.465.11v.309c.777 0 .777.03.777.916v1.494c0 .777 0 1.684 1.514 1.684.559 0 .997-.28 1.285-.897m3.364-3.197h1.425v-.31h-1.425v-1.832h-.249c-.01.817-.309 1.883-1.285 1.922v.22h.847v2.749c0 1.225.926 1.345 1.285 1.345.707 0 .986-.708.986-1.345v-.568h-.249v.548c0 .737-.299 1.116-.667 1.116-.668 0-.668-.907-.668-1.076zm3.865.239v-.658l-1.435.11v.309c.708 0 .777.06.777.497v4.662c0 .449-.11.449-.777.449v.309c.339-.01.857-.03 1.116-.03.269 0 .777.02 1.126.03v-.31c-.668 0-.778 0-.778-.448v-1.7630000000000001c.05.16.469.698 1.226.698 1.185 0 2.221-.977 2.221-2.262 0-1.265-.966-2.25-2.082-2.25-.777 0-1.195.437-1.394.657m.03 2.61v-2.222c.288-.508.777-.797 1.284-.797.728 0 1.335.877 1.335 2.002 0 1.206-.697 2.042-1.434 2.042-.399 0-.777-.199-1.046-.607-.14-.21-.14-.22-.14-.419m7.686.348v.897l1.435-.11v-.309c-.698 0-.777-.07-.777-.558v-3.536l-1.464.11v.309c.697 0 .776.07.776.557v1.774c0 .866-.478 1.543-1.205 1.543-.837 0-.876-.468-.876-.986v-3.307l-1.465.11v.309c.777 0 .777.03.777.916v1.494c0 .777 0 1.684 1.514 1.684.558 0 .996-.28 1.285-.897m3.364-3.197h1.424v-.31h-1.424v-1.832h-.249c-.01.817-.31 1.883-1.285 1.922v.22h.847v2.749c0 1.225.926 1.345 1.285 1.345.707 0 .986-.708.986-1.345v-.568h-.25v.548c0 .737-.298 1.116-.667 1.116-.667 0-.667-.907-.667-1.076zM149.206-188.738h1.45c.98 0 1.93-.63 1.93-1.466 0-.781-.846-1.49-1.993-1.49h-2.924v.263h.175c.613 0 .63.087.63.382v4.152c0 .294-.017.382-.63.382h-.175v.263c.677-.024.693-.024 1.17-.024.479 0 .495 0 1.172.024v-.263h-.175c-.614 0-.63-.088-.63-.382zm-.023-.24v-2.127c0-.27.016-.326.382-.326h.829c1.362 0 1.362.868 1.362 1.227 0 .35 0 1.227-1.362 1.227zm9.161-1.92c.215-.526.717-.533.877-.533v-.264c-.231.025-.638.025-.79.025-.15 0-.517 0-.876-.025v.264c.35 0 .542.175.542.39 0 .064-.008.088-.048.175l-1.578 3.857-1.665-4.048c-.032-.08-.048-.112-.048-.143 0-.231.423-.231.622-.231v-.264c-.677.025-.693.025-1.116.025-.382 0-.621 0-1.028-.025v.264c.479 0 .654 0 .781.302l1.993 4.87c.063.15.127.174.215.174.143 0 .167-.064.215-.175zm2.582-.884-1.188.087v.264c.542 0 .606.055.606.446v4.111c0 .36-.096.36-.606.36v.262c.311-.024.757-.024.893-.024.16 0 .59 0 .9.024v-.263c-.51 0-.605 0-.605-.359zm2.383.622a.445.445 0 0 0-.446-.447.443.443 0 1 0 .446.446m-1.195 1.482v.263c.51 0 .582.047.582.438v2.103c0 .36-.096.36-.606.36v.262c.311-.024.757-.024.877-.024.103 0 .581 0 .86.024v-.263c-.518 0-.55-.04-.55-.35v-2.901zm3.46-2.104-1.188.087v.264c.542 0 .606.055.606.446v4.733h.247l.287-.494c.191.27.566.574 1.107.574 1.012 0 1.889-.781 1.889-1.801 0-1.004-.82-1.793-1.793-1.793-.63 0-1.02.342-1.155.486zm.024 3.012c0-.151 0-.167.12-.31.23-.296.605-.463.963-.463.415 0 .725.247.885.486.135.215.247.494.247 1.076 0 .183 0 .749-.287 1.123a1.19 1.19 0 0 1-.924.463c-.383 0-.702-.2-.909-.51-.095-.152-.095-.16-.095-.311z"/>
    <path fill="#00f" d="M137.734-159.8c.175 0 .223 0 .223-.184 0-.71-.39-1.554-1.514-1.554-.988 0-1.761.82-1.761 1.809 0 1.028.86 1.825 1.865 1.825 1.012 0 1.41-.853 1.41-1.036 0-.032-.024-.112-.127-.112-.088 0-.104.056-.12.104a1.16 1.16 0 0 1-1.115.797c-.36 0-.726-.168-.965-.534-.239-.367-.239-.877-.239-1.116zm-2.335-.208c.072-1.116.75-1.307 1.044-1.307.932 0 .964 1.124.972 1.307zm6.68-.39c0-.67-.303-1.1-1.14-1.1-.788 0-1.147.574-1.243.765h-.007v-.765l-1.156.088v.263c.542 0 .606.055.606.446v2.095c0 .36-.096.36-.606.36v.262c.343-.024.693-.024.908-.024.232 0 .566 0 .909.024v-.263c-.51 0-.606 0-.606-.359v-1.442c0-.837.638-1.227 1.124-1.227s.605.343.605.845v1.824c0 .36-.095.36-.605.36v.262c.342-.024.693-.024.908-.024.231 0 .566 0 .909.024v-.263c-.51 0-.606 0-.606-.359zm4.123.597c.175 0 .223 0 .223-.183 0-.71-.39-1.554-1.514-1.554-.988 0-1.76.82-1.76 1.809 0 1.028.86 1.825 1.864 1.825 1.012 0 1.41-.853 1.41-1.036 0-.032-.024-.112-.127-.112-.088 0-.104.056-.12.104a1.16 1.16 0 0 1-1.115.797c-.36 0-.726-.168-.965-.534-.239-.367-.239-.877-.239-1.116zm-2.335-.207c.072-1.116.75-1.307 1.044-1.307.933 0 .964 1.124.972 1.307zm4.274.207c0-.597.247-1.458 1.012-1.474-.048.032-.128.096-.128.279 0 .247.191.359.35.359.192 0 .36-.128.36-.36 0-.278-.256-.501-.606-.501-.518 0-.869.39-1.036.836h-.008v-.836l-1.132.088v.263c.542 0 .606.055.606.446v2.095c0 .36-.096.36-.606.36v.262c.311-.024.75-.024.94-.024.47 0 .487 0 1.005.024v-.263h-.16c-.581 0-.597-.088-.597-.375zm3.212 1.267c-.246-.024-.446-.239-.446-.526 0-.19.048-.263.104-.334.334.199.645.239.836.239.79 0 1.371-.55 1.371-1.172 0-.303-.135-.558-.326-.765.111-.095.374-.263.764-.27-.032.023-.071.063-.071.19 0 .144.103.248.246.248.112 0 .248-.072.248-.255 0-.136-.104-.407-.455-.407-.135 0-.517.032-.884.367a1.53 1.53 0 0 0-.885-.28c-.788 0-1.37.55-1.37 1.172 0 .375.207.654.374.813-.175.2-.239.454-.239.646 0 .326.16.573.335.709-.415.111-.741.422-.741.788 0 .574.82 1.02 1.873 1.02.996 0 1.872-.406 1.872-1.036 0-.43-.255-.764-.518-.9-.47-.247-.86-.247-1.641-.247zm.502-.853c-.74 0-.74-.765-.74-.94 0-.295.04-.502.159-.661a.72.72 0 0 1 .573-.279c.742 0 .742.765.742.94 0 .295-.04.502-.16.662a.75.75 0 0 1-.573.278m.375 1.371c.215 0 1.259 0 1.259.638 0 .43-.614.796-1.403.796-.796 0-1.402-.366-1.402-.796 0-.168.127-.638.78-.638zm5.51-2.598c.198-.454.493-.533.756-.542v-.262c-.279.024-.294.024-.63.024-.031 0-.453 0-.684-.024v.262c.23.016.342.144.342.327a.5.5 0 0 1-.048.2l-.852 1.928-.925-2.088c-.055-.12-.055-.135-.055-.167 0-.191.247-.2.422-.2v-.262a13 13 0 0 1-.877.024c-.167 0-.55 0-.804-.024v.262c.414 0 .526.016.66.32l1.26 2.852c-.358.845-.597 1.402-1.155 1.402-.2 0-.327-.095-.327-.095a.345.345 0 0 0 .239-.335c0-.223-.167-.343-.343-.343-.159 0-.342.104-.342.351 0 .35.342.646.773.646.709 0 1.091-.853 1.123-.933zm7.043-.071c0-1.602-1.267-2.909-2.813-2.909-1.57 0-2.821 1.315-2.821 2.909 0 1.625 1.299 2.868 2.813 2.868 1.546 0 2.82-1.259 2.82-2.868m-2.813 2.605c-.869 0-1.992-.725-1.992-2.725 0-1.904 1.163-2.542 1.984-2.542.86 0 1.992.67 1.992 2.542 0 2.024-1.148 2.725-1.984 2.725m5.957-3.33v.263c.542 0 .605.055.605.446v1.386c0 .686-.414 1.188-1.012 1.188-.685 0-.717-.343-.717-.741v-2.63l-1.211.088v.263c.606 0 .606.023.606.733v1.195c0 .574 0 1.315 1.275 1.315.749 0 1.036-.574 1.075-.646h.008v.646l1.188-.08v-.263c-.542 0-.606-.056-.606-.446v-2.805zm3.525.254h1.188v-.262h-1.188v-1.467h-.247c-.008.726-.335 1.483-1.076 1.507v.222h.718v2.176c0 .932.717 1.076 1.083 1.076.534 0 .853-.478.853-1.076v-.446h-.247v.43c0 .55-.247.845-.55.845-.534 0-.534-.686-.534-.813zm3.907 4.455c-.51 0-.606 0-.606-.359v-1.314c.375.406.781.47 1.036.47 1.012 0 1.889-.781 1.889-1.801 0-.996-.805-1.793-1.769-1.793-.311 0-.773.08-1.18.494v-.494l-1.187.088v.263c.566 0 .606.047.606.382v3.705c0 .359-.096.359-.606.359v.263c.343-.024.694-.024.909-.024.23 0 .566 0 .908.024zm-.606-3.936a1.27 1.27 0 0 1 1.084-.614c.614 0 1.132.677 1.132 1.546 0 .916-.574 1.578-1.22 1.578-.279 0-.645-.12-.9-.518-.096-.136-.096-.144-.096-.295zm5.877-.773v.263c.542 0 .605.055.605.446v1.386c0 .686-.414 1.188-1.012 1.188-.685 0-.717-.343-.717-.741v-2.63l-1.211.088v.263c.605 0 .605.023.605.733v1.195c0 .574 0 1.315 1.275 1.315.75 0 1.036-.574 1.076-.646h.008v.646l1.187-.08v-.263c-.542 0-.606-.056-.606-.446v-2.805zm3.525.254h1.187v-.262h-1.187v-1.467h-.247c-.008.726-.335 1.483-1.076 1.507v.222h.717v2.176c0 .932.718 1.076 1.084 1.076.534 0 .852-.478.852-1.076v-.446h-.246v.43c0 .55-.248.845-.55.845-.534 0-.534-.686-.534-.813zm3.428 2.734a.44.44 0 0 0-.438-.446.44.44 0 0 0-.446.438c0 .27.215.446.438.446.271 0 .446-.215.446-.438m2.83 1.72c-.51 0-.605 0-.605-.358v-1.314c.375.406.78.47 1.036.47 1.012 0 1.888-.781 1.888-1.801 0-.996-.804-1.793-1.768-1.793-.311 0-.774.08-1.18.494v-.494l-1.187.088v.263c.566 0 .605.047.605.382v3.705c0 .359-.095.359-.605.359v.263c.343-.024.693-.024.908-.024.231 0 .566 0 .909.024zm-.605-3.935a1.27 1.27 0 0 1 1.084-.614c.613 0 1.131.677 1.131 1.546 0 .916-.573 1.578-1.219 1.578-.279 0-.645-.12-.9-.518-.096-.136-.096-.144-.096-.295zM196.296-160.614c.2-.454.495-.533.757-.542v-.262c-.279.024-.294.024-.63.024-.031 0-.453 0-.684-.024v.262c.23.016.342.144.342.327a.5.5 0 0 1-.048.2l-.852 1.928-.925-2.088c-.055-.12-.055-.135-.055-.167 0-.191.247-.2.422-.2v-.262c-.358.024-.701.024-.877.024-.167 0-.55 0-.804-.024v.262c.414 0 .526.016.661.32l1.259 2.852c-.358.845-.597 1.402-1.155 1.402-.2 0-.327-.095-.327-.095a.345.345 0 0 0 .239-.335c0-.223-.167-.343-.343-.343-.159 0-.342.104-.342.351 0 .35.342.646.773.646.709 0 1.091-.853 1.123-.933z"/>
    <path fill="none" stroke="gray" stroke-miterlimit="10" stroke-width=".399" d="M196.594-145.629h-77.07a3.984 3.984 0 0 0-3.985 3.984v48.723a3.984 3.984 0 0 0 3.984 3.988h77.07c2.2 0 3.985-1.785 3.985-3.988v-48.722c0-2.2-1.785-3.985-3.984-3.985Z"/>
    <path fill="gray" d="M130.383-115.624c0 .359-.02.468-.787.468h-.24v.309h5.748l.419-2.57h-.25c-.248 1.534-.478 2.261-2.19 2.261h-1.326c-.468 0-.488-.07-.488-.398v-2.66h.897c.966 0 1.076.319 1.076 1.165h.248v-2.64h-.248c0 .858-.11 1.166-1.076 1.166h-.897v-2.39c0-.329.02-.399.488-.399h1.285c1.524 0 1.793.548 1.953 1.932h.249l-.28-2.24h-5.607v.308h.239c.767 0 .787.11.787.468zm6.521-2.65v2.67c0 .448-.11.448-.777.448v.309c.349-.01.857-.03 1.126-.03.259 0 .777.02 1.115.03v-.309c-.667 0-.776 0-.776-.448v-1.833c0-1.036.707-1.594 1.344-1.594.628 0 .737.538.737 1.106v2.32c0 .45-.11.45-.776.45v.308c.348-.01.856-.03 1.125-.03.259 0 .777.02 1.116.03v-.309c-.518 0-.767 0-.777-.299v-1.902c0-.857 0-1.166-.31-1.524-.138-.17-.467-.369-1.045-.369-.727 0-1.195.429-1.474 1.046v-1.046l-1.405.11v.309c.697 0 .777.07.777.557m5.555.917c.06-1.484.897-1.733 1.236-1.733 1.025 0 1.125 1.344 1.125 1.733zm-.01.21h2.78c.219 0 .248 0 .248-.21 0-.986-.537-1.953-1.782-1.953-1.156 0-2.072 1.026-2.072 2.271 0 1.335 1.045 2.302 2.19 2.302 1.216 0 1.664-1.106 1.664-1.295 0-.1-.08-.12-.129-.12-.09 0-.11.06-.13.14-.348 1.026-1.245 1.026-1.344 1.026-.498 0-.897-.3-1.126-.668-.299-.478-.299-1.136-.299-1.494m4.985-1.007v-1.096l-1.384.11v.309c.697 0 .777.07.777.557v2.67c0 .448-.11.448-.777.448v.309c.388-.01.857-.03 1.135-.03.399 0 .867 0 1.266.03v-.309h-.21c-.737 0-.757-.11-.757-.468v-1.534c0-.986.418-1.873 1.176-1.873.07 0 .09 0 .11.01-.03.01-.23.13-.23.389 0 .279.21.428.429.428.179 0 .428-.12.428-.438s-.309-.608-.737-.608c-.727 0-1.086.668-1.226 1.096m4.45 1.594c-.866 0-.866-.996-.866-1.225 0-.27.01-.588.16-.837.079-.12.308-.399.707-.399.866 0 .866.996.866 1.226 0 .268-.01.587-.159.836-.08.12-.309.399-.707.399m-1.155.388c0-.04 0-.269.17-.468.388.279.797.309.986.309.926 0 1.613-.688 1.613-1.454 0-.37-.16-.738-.408-.967.359-.338.717-.388.896-.388.02 0 .07 0 .1.01-.11.04-.16.15-.16.269 0 .169.13.288.29.288.1 0 .288-.07.288-.298 0-.17-.12-.489-.508-.489-.199 0-.637.06-1.056.469a1.66 1.66 0 0 0-1.055-.359c-.927 0-1.614.687-1.614 1.455 0 .438.22.816.468 1.025-.13.15-.309.479-.309.827 0 .31.13.688.439.887-.598.169-.917.597-.917.996 0 .717.986 1.265 2.202 1.265 1.175 0 2.211-.508 2.211-1.285 0-.349-.14-.857-.647-1.135-.528-.28-1.106-.28-1.714-.28-.249 0-.677 0-.747-.01-.319-.04-.528-.348-.528-.667m1.435 3.148c-1.006 0-1.694-.508-1.694-1.036 0-.458.379-.827.817-.857h.588c.856 0 1.972 0 1.972.857 0 .538-.707 1.036-1.683 1.036m6.624-5.17c.26-.627.767-.637.927-.637v-.31c-.23.02-.518.03-.747.03-.18 0-.648-.02-.867-.03v.31c.309.01.468.179.468.428 0 .1-.01.12-.06.239l-1.005 2.45-1.106-2.68c-.04-.099-.06-.139-.06-.179 0-.258.368-.258.558-.258v-.31c-.26.01-.917.03-1.086.03-.269 0-.667-.01-.966-.03v.31c.478 0 .667 0 .807.348l1.494 3.636c-.05.13-.19.458-.25.588-.218.548-.497 1.235-1.135 1.235-.05 0-.279 0-.468-.18.309-.04.388-.258.388-.418 0-.259-.189-.418-.418-.418-.199 0-.418.13-.418.428 0 .448.418.807.916.807.628 0 1.036-.568 1.275-1.135zM167.12-115.634v.897l1.434-.11v-.309c-.698 0-.777-.07-.777-.558v-3.536l-1.464.11v.309c.697 0 .776.07.776.557v1.774c0 .866-.478 1.543-1.205 1.543-.837 0-.876-.468-.876-.986v-3.307l-1.465.11v.309c.777 0 .777.03.777.916v1.494c0 .777 0 1.684 1.514 1.684.558 0 .996-.28 1.285-.897m3.712-1.146c.219.04 1.035.2 1.035.917 0 .508-.348.906-1.125.906-.837 0-1.195-.568-1.385-1.414-.03-.13-.04-.17-.14-.17-.129 0-.129.07-.129.25v1.315c0 .169 0 .239.11.239.05 0 .06-.01.249-.2.02-.02.02-.04.2-.229.437.419.886.429 1.095.429 1.145 0 1.604-.668 1.604-1.385 0-.528-.3-.827-.419-.946-.328-.319-.717-.399-1.135-.478-.558-.11-1.226-.24-1.226-.817 0-.349.26-.757 1.116-.757 1.096 0 1.146.896 1.166 1.205.01.09.1.09.12.09.129 0 .129-.05.129-.24v-1.005c0-.17 0-.24-.11-.24-.05 0-.07 0-.2.12-.029.04-.129.13-.169.16-.378-.28-.786-.28-.936-.28-1.215 0-1.594.668-1.594 1.225 0 .35.16.628.429.847.319.26.597.32 1.315.458m5.174 1.176c.04.398.309.817.777.817.209 0 .817-.14.817-.947v-.557h-.25v.557c0 .578-.248.638-.358.638-.329 0-.368-.448-.368-.498v-1.992c0-.419 0-.807-.36-1.176a1.9 1.9 0 0 0-1.364-.548c-.817 0-1.504.469-1.504 1.126 0 .299.2.468.458.468a.44.44 0 0 0 .459-.458c0-.12-.05-.448-.508-.458.268-.349.757-.458 1.075-.458.489 0 1.056.388 1.056 1.275v.368c-.508.03-1.205.06-1.833.359-.747.338-.996.856-.996 1.295 0 .807.966 1.056 1.594 1.056.657 0 1.116-.399 1.305-.867m-.07-1.634v.996c0 .947-.717 1.285-1.165 1.285-.488 0-.897-.348-.897-.846 0-.548.419-1.375 2.062-1.435m3.945.678c-.866 0-.866-.996-.866-1.225 0-.27.01-.588.16-.837.079-.12.308-.399.706-.399.867 0 .867.996.867 1.226 0 .268-.01.587-.16.836-.079.12-.308.399-.707.399m-1.155.388c0-.04 0-.269.17-.468.388.279.796.309.985.309.927 0 1.614-.688 1.614-1.454 0-.37-.16-.738-.408-.967.358-.338.717-.388.896-.388.02 0 .07 0 .1.01-.11.04-.16.15-.16.269 0 .169.13.288.29.288.099 0 .288-.07.288-.298 0-.17-.12-.489-.508-.489-.199 0-.637.06-1.056.469a1.66 1.66 0 0 0-1.056-.359c-.926 0-1.613.687-1.613 1.455 0 .438.219.816.468 1.025-.13.15-.309.479-.309.827 0 .31.13.688.438.887-.597.169-.916.597-.916.996 0 .717.986 1.265 2.201 1.265 1.176 0 2.212-.508 2.212-1.285 0-.349-.14-.857-.648-1.135-.528-.28-1.106-.28-1.713-.28-.249 0-.678 0-.747-.01-.319-.04-.528-.348-.528-.667m1.434 3.148c-1.005 0-1.693-.508-1.693-1.036 0-.458.378-.827.817-.857h.588c.856 0 1.972 0 1.972.857 0 .538-.707 1.036-1.684 1.036m3.607-4.333c.06-1.484.897-1.733 1.235-1.733 1.026 0 1.126 1.344 1.126 1.733zm-.01.21h2.78c.218 0 .248 0 .248-.21 0-.986-.538-1.953-1.783-1.953-1.155 0-2.072 1.026-2.072 2.271 0 1.335 1.046 2.302 2.192 2.302 1.215 0 1.663-1.106 1.663-1.295 0-.1-.08-.12-.13-.12-.089 0-.109.06-.129.14-.348 1.026-1.245 1.026-1.345 1.026-.498 0-.896-.3-1.125-.668-.299-.478-.299-1.136-.299-1.494"/>
    <path fill="#00f" d="M143.106-95.623c.175 0 .223 0 .223-.183 0-.71-.39-1.554-1.514-1.554-.988 0-1.76.82-1.76 1.809 0 1.028.86 1.825 1.864 1.825 1.012 0 1.41-.853 1.41-1.036 0-.032-.024-.112-.127-.112-.088 0-.104.056-.12.104a1.16 1.16 0 0 1-1.115.797c-.36 0-.726-.168-.965-.534-.239-.367-.239-.877-.239-1.116zm-2.335-.207c.072-1.116.75-1.307 1.044-1.307.933 0 .964 1.124.972 1.307zm6.68-.39c0-.67-.303-1.1-1.14-1.1-.788 0-1.147.574-1.243.765h-.007v-.765l-1.156.088v.263c.542 0 .606.055.606.446v2.095c0 .36-.096.36-.606.36v.262c.343-.024.693-.024.908-.024.232 0 .566 0 .909.024v-.263c-.51 0-.606 0-.606-.359v-1.442c0-.837.638-1.227 1.124-1.227s.605.343.605.845v1.824c0 .36-.095.36-.605.36v.262c.343-.024.693-.024.908-.024.231 0 .566 0 .909.024v-.263c-.51 0-.606 0-.606-.359zm4.123.597c.175 0 .223 0 .223-.183 0-.71-.39-1.554-1.514-1.554-.988 0-1.76.82-1.76 1.809 0 1.028.86 1.825 1.864 1.825 1.012 0 1.41-.853 1.41-1.036 0-.032-.024-.112-.127-.112-.088 0-.104.056-.12.104a1.16 1.16 0 0 1-1.115.797c-.359 0-.726-.168-.965-.534-.239-.367-.239-.877-.239-1.116zm-2.335-.207c.072-1.116.75-1.307 1.044-1.307.933 0 .965 1.124.972 1.307zm4.274.207c0-.597.247-1.458 1.012-1.474-.048.032-.128.096-.128.279 0 .247.192.359.35.359.192 0 .36-.128.36-.36 0-.278-.255-.501-.606-.501-.518 0-.869.39-1.036.837h-.008v-.837l-1.132.088v.263c.542 0 .606.055.606.446v2.095c0 .36-.096.36-.606.36v.262c.311-.024.75-.024.94-.024.471 0 .487 0 1.005.024v-.263h-.16c-.581 0-.597-.088-.597-.374zm3.212 1.267c-.246-.024-.446-.239-.446-.526 0-.19.048-.263.104-.334.335.199.645.239.837.239.788 0 1.37-.55 1.37-1.172 0-.303-.135-.558-.327-.765.112-.095.375-.263.765-.27-.032.023-.071.063-.071.19 0 .144.103.248.246.248.112 0 .248-.072.248-.255 0-.136-.104-.407-.455-.407-.135 0-.518.032-.884.367-.2-.143-.51-.279-.884-.279-.79 0-1.371.55-1.371 1.171 0 .375.207.654.374.813-.175.2-.239.454-.239.646 0 .326.16.573.335.709-.414.111-.741.422-.741.788 0 .574.82 1.02 1.872 1.02.997 0 1.873-.406 1.873-1.035 0-.43-.255-.765-.518-.9-.47-.248-.86-.248-1.641-.248zm.503-.852c-.742 0-.742-.765-.742-.94 0-.295.04-.503.16-.662a.72.72 0 0 1 .574-.279c.74 0 .74.765.74.94 0 .295-.04.502-.159.662a.75.75 0 0 1-.573.279m.374 1.37c.215 0 1.259 0 1.259.638 0 .43-.613.797-1.403.797-.796 0-1.402-.367-1.402-.797 0-.168.127-.638.781-.638zm5.51-2.598c.198-.454.494-.533.756-.542v-.262c-.278.024-.294.024-.63.024-.03 0-.453 0-.684-.024v.262c.23.016.342.144.342.327a.5.5 0 0 1-.048.2l-.852 1.928-.925-2.088c-.055-.12-.055-.135-.055-.167 0-.191.247-.2.422-.2v-.262c-.358.024-.701.024-.877.024-.167 0-.55 0-.804-.024v.262c.414 0 .526.016.661.32l1.26 2.852c-.36.845-.598 1.403-1.156 1.403-.2 0-.327-.096-.327-.096a.345.345 0 0 0 .239-.335c0-.223-.167-.343-.343-.343-.159 0-.342.104-.342.351 0 .35.342.646.773.646.709 0 1.091-.853 1.123-.933zm6.118-1.96c0-.207 0-.59.805-.59v-.262c-.358.024-.717.024-.932.024-.231 0-.582 0-.94-.024v.263c.805 0 .805.382.805.59v2.748c0 1.084-.813 1.745-1.626 1.745-.43 0-1.403-.246-1.403-1.705v-2.996c0-.295.016-.382.63-.382h.175v-.263c-.677.024-.693.024-1.171.024s-.494 0-1.171-.024v.263h.175c.613 0 .63.087.63.382v2.972c0 1.14.988 1.992 2.119 1.992 1.068 0 1.904-.892 1.904-1.984zm4 1.243c0-.127 0-.207-.103-.207-.04 0-.064 0-.192.128-.015.008-.087.08-.111.08-.008 0-.024 0-.072-.032-.127-.088-.358-.176-.717-.176-1.115 0-1.363.606-1.363.988 0 .399.295.63.32.654.318.239.501.27 1.035.366.375.072.988.184.988.725 0 .311-.207.678-.94.678-.805 0-1.036-.622-1.14-1.044-.031-.104-.04-.144-.135-.144-.128 0-.128.064-.128.215v.989c0 .127 0 .207.104.207.048 0 .056-.008.2-.16.04-.04.127-.143.167-.183.358.327.733.343.94.343 1.012 0 1.363-.582 1.363-1.108 0-.382-.231-.94-1.18-1.115a10 10 0 0 0-.542-.096c-.247-.056-.621-.223-.621-.542 0-.239.175-.574.932-.574.893 0 .932.654.948.877.008.064.064.087.12.087.127 0 .127-.055.127-.207zm3.85.972c0-.78-.757-1.179-1.482-1.179-.661 0-1.25.255-1.25.78 0 .24.167.383.374.383a.36.36 0 0 0 .374-.374.36.36 0 0 0-.294-.367c.294-.199.725-.199.78-.199.447 0 .893.311.893.964v.247c-.462.024-.996.048-1.554.28-.701.302-.837.764-.837 1.027 0 .686.805.893 1.355.893.582 0 .94-.327 1.116-.646.04.303.247.606.597.606.08 0 .757-.032.757-.757v-.438h-.247v.438c0 .327-.12.454-.287.454-.295 0-.295-.366-.295-.454zm-.605 1.252c0 .772-.653.98-.972.98-.414 0-.765-.28-.765-.662 0-.526.494-1.067 1.737-1.107zm2.872.573c-.247-.024-.447-.239-.447-.526 0-.19.048-.263.104-.334.335.199.646.239.837.239.789 0 1.37-.55 1.37-1.172 0-.303-.135-.558-.326-.765.111-.095.374-.263.765-.27-.032.023-.072.063-.072.19 0 .144.103.248.247.248.111 0 .247-.072.247-.255 0-.136-.104-.407-.454-.407-.136 0-.518.032-.885.367-.199-.143-.51-.279-.884-.279-.79 0-1.37.55-1.37 1.171 0 .375.206.654.374.813-.176.2-.24.454-.24.646 0 .326.16.573.335.709-.414.111-.74.422-.74.788 0 .574.82 1.02 1.872 1.02.996 0 1.872-.406 1.872-1.035 0-.43-.255-.765-.517-.9-.47-.248-.861-.248-1.642-.248zm.502-.852c-.741 0-.741-.765-.741-.94 0-.295.04-.503.16-.662a.72.72 0 0 1 .573-.279c.741 0 .741.765.741.94 0 .295-.04.502-.16.662a.75.75 0 0 1-.573.279m.374 1.37c.216 0 1.26 0 1.26.638 0 .43-.614.797-1.403.797-.797 0-1.403-.367-1.403-.797 0-.168.128-.638.781-.638zm5.27-1.785c.176 0 .224 0 .224-.183 0-.71-.39-1.554-1.514-1.554-.988 0-1.761.82-1.761 1.809 0 1.028.86 1.825 1.864 1.825 1.012 0 1.41-.853 1.41-1.036 0-.032-.023-.112-.127-.112-.088 0-.103.056-.12.104a1.16 1.16 0 0 1-1.115.797c-.358 0-.725-.168-.964-.534-.24-.367-.24-.877-.24-1.116zm-2.334-.207c.072-1.116.75-1.307 1.044-1.307.932 0 .964 1.124.972 1.307zm4.425 1.586a.44.44 0 0 0-.438-.446.44.44 0 0 0-.447.438c0 .27.215.446.438.446a.44.44 0 0 0 .447-.438m2.83 1.72c-.51 0-.606 0-.606-.358v-1.314c.375.406.781.47 1.036.47 1.012 0 1.888-.781 1.888-1.801 0-.996-.804-1.793-1.768-1.793-.311 0-.773.08-1.18.494v-.494l-1.187.088v.263c.566 0 .605.047.605.382v3.705c0 .359-.095.359-.605.359v.263c.343-.024.693-.024.908-.024.232 0 .566 0 .909.024zm-.606-3.935a1.27 1.27 0 0 1 1.084-.614c.614 0 1.132.677 1.132 1.546 0 .916-.574 1.578-1.22 1.578-.279 0-.645-.12-.9-.518-.096-.136-.096-.144-.096-.295zM196.297-96.436c.2-.454.494-.533.757-.542v-.262c-.279.024-.294.024-.63.024-.031 0-.453 0-.685-.024v.262c.232.016.343.144.343.327a.5.5 0 0 1-.048.2l-.852 1.928-.925-2.088c-.055-.12-.055-.135-.055-.167 0-.191.246-.2.422-.2v-.262c-.359.024-.701.024-.877.024-.167 0-.55 0-.804-.024v.262c.414 0 .525.016.66.32l1.26 2.852c-.358.845-.598 1.403-1.155 1.403-.2 0-.327-.096-.327-.096a.345.345 0 0 0 .239-.335c0-.223-.167-.343-.343-.343-.16 0-.342.104-.342.351 0 .35.342.646.773.646.709 0 1.091-.853 1.123-.933z"/>
    <path fill="none" stroke="gray" stroke-miterlimit="10" stroke-width=".399" d="M236.45-138.742a7.324 7.324 0 1 0-14.648 0 7.324 7.324 0 0 0 14.647 0Z"/>
    <path fill="gray" d="M232.997-138.454c.244 0 .502 0 .502-.287s-.258-.287-.502-.287h-7.76c-.244 0-.502 0-.502.287s.258.287.501.287z"/>
    <path fill="none" stroke="gray" stroke-miterlimit="10" stroke-width=".399" d="M114.879-227.672H58.644"/>
    <path fill="none" stroke="gray" stroke-linecap="round" stroke-linejoin="round" stroke-miterlimit="10" stroke-width=".319" d="M113.683-229.27c.102.602 1.196 1.496 1.496 1.598-.3.097-1.394.996-1.496 1.593"/>
    <path fill="gray" d="m22.297-231.127-1.434.11v.308c.697 0 .777.07.777.558v5.18c0 .448-.11.448-.777.448v.309c.329-.01.856-.03 1.105-.03s.738.02 1.106.03v-.309c-.667 0-.777 0-.777-.448zm5.696 4.781c0-1.275-.996-2.33-2.201-2.33-1.245 0-2.211 1.085-2.211 2.33a2.223 2.223 0 0 0 2.2 2.242 2.22 2.22 0 0 0 2.212-2.242m-2.201 1.993c-.429 0-.867-.21-1.136-.668-.249-.438-.249-1.046-.249-1.404 0-.389 0-.927.24-1.365.268-.458.736-.667 1.135-.667.438 0 .866.219 1.126.647s.259 1.006.259 1.385c0 .358 0 .896-.22 1.334-.219.449-.657.738-1.155.738M29.724-226.386c0-1.623.817-2.042 1.345-2.042.09 0 .718.01 1.066.369-.408.03-.468.329-.468.458 0 .26.18.458.458.458.259 0 .458-.169.458-.468 0-.677-.757-1.066-1.524-1.066-1.245 0-2.161 1.076-2.161 2.311 0 1.275.986 2.262 2.141 2.262 1.335 0 1.654-1.196 1.654-1.295s-.1-.1-.13-.1c-.09 0-.11.04-.129.1-.289.926-.936 1.046-1.305 1.046-.528 0-1.405-.429-1.405-2.033m6.58 1.415c.04.398.308.817.776.817.21 0 .817-.14.817-.947v-.557h-.249v.557c0 .578-.249.638-.359.638-.328 0-.368-.448-.368-.498v-1.992c0-.419 0-.807-.359-1.176a1.9 1.9 0 0 0-1.364-.548c-.817 0-1.504.469-1.504 1.126 0 .299.199.468.458.468a.44.44 0 0 0 .458-.458c0-.12-.05-.448-.508-.458.27-.349.757-.458 1.076-.458.488 0 1.056.388 1.056 1.275v.368c-.508.03-1.205.06-1.833.359-.747.338-.996.856-.996 1.295 0 .807.966 1.056 1.594 1.056.657 0 1.115-.399 1.305-.867m-.07-1.634v.996c0 .947-.718 1.285-1.166 1.285-.488 0-.896-.348-.896-.846 0-.548.418-1.375 2.062-1.435m3.457-1.593h1.424v-.31h-1.424v-1.832h-.249c-.01.817-.31 1.883-1.285 1.922v.22h.847v2.749c0 1.225.926 1.345 1.285 1.345.707 0 .986-.708.986-1.345v-.568h-.25v.548c0 .737-.298 1.116-.667 1.116-.667 0-.667-.907-.667-1.076zm3.914-.419-1.394.11v.309c.647 0 .737.06.737.547v2.68c0 .448-.11.448-.777.448v.309c.319-.01.856-.03 1.095-.03.35 0 .698.02 1.036.03v-.309c-.657 0-.697-.05-.697-.438zm.04-1.733a.52.52 0 0 0-.528-.528.54.54 0 0 0-.528.528c0 .269.22.528.528.528.28 0 .528-.21.528-.528m5.656 4.004c0-1.275-.996-2.33-2.201-2.33-1.245 0-2.211 1.085-2.211 2.33a2.223 2.223 0 0 0 2.201 2.242 2.22 2.22 0 0 0 2.211-2.242m-2.201 1.993c-.428 0-.867-.21-1.136-.668-.249-.438-.249-1.046-.249-1.404 0-.389 0-.927.24-1.365.268-.458.736-.667 1.135-.667.438 0 .866.219 1.126.647s.259 1.006.259 1.385c0 .358 0 .896-.22 1.334-.219.449-.657.738-1.155.738m3.587-3.288v2.67c0 .448-.11.448-.777.448v.309c.348-.01.856-.03 1.125-.03.26 0 .777.02 1.116.03v-.309c-.668 0-.777 0-.777-.448v-1.833c0-1.036.707-1.594 1.345-1.594.627 0 .737.538.737 1.106v2.32c0 .45-.11.45-.777.45v.308c.349-.01.857-.03 1.126-.03.258 0 .776.02 1.115.03v-.309c-.518 0-.767 0-.777-.299v-1.902c0-.857 0-1.166-.309-1.524-.139-.17-.468-.369-1.046-.369-.727 0-1.195.429-1.474 1.046v-1.046l-1.404.11v.309c.697 0 .777.07.777.557"/>
    <path fill="none" stroke="gray" stroke-miterlimit="10" stroke-width=".399" d="M114.879-216.992H58.644"/>
    <path fill="none" stroke="gray" stroke-linecap="round" stroke-linejoin="round" stroke-miterlimit="10" stroke-width=".319" d="M113.683-218.586c.102.597 1.196 1.492 1.496 1.594-.3.097-1.394.996-1.496 1.593"/>
    <path fill="gray" d="M23.297-214.291c.04.398.309.817.777.817.21 0 .817-.14.817-.947v-.557h-.25v.557c0 .578-.248.638-.358.638-.329 0-.368-.448-.368-.498v-1.992c0-.419 0-.807-.359-1.176a1.9 1.9 0 0 0-1.365-.548c-.816 0-1.504.469-1.504 1.126 0 .299.2.468.458.468.28 0 .459-.2.459-.458 0-.12-.05-.448-.508-.458.269-.349.757-.458 1.076-.458.488 0 1.056.388 1.056 1.275v.368c-.509.03-1.206.06-1.834.359-.746.338-.996.856-.996 1.295 0 .807.967 1.056 1.594 1.056.658 0 1.116-.399 1.305-.867m-.07-1.634v.996c0 .947-.717 1.285-1.165 1.285-.488 0-.897-.348-.897-.846 0-.548.419-1.375 2.063-1.435m5.62-1.603c.089-.11.089-.13.089-.17 0-.13-.08-.13-.26-.13H25.49l-.11 1.605h.25c.06-1.017.249-1.385 1.344-1.385h1.136l-2.78 3.755c-.089.11-.089.13-.089.18 0 .139.07.139.26.139h3.286l.17-1.863h-.25c-.09 1.176-.298 1.614-1.454 1.614h-1.175zm2.305-.409-1.395.11v.309c.647 0 .737.06.737.547v2.68c0 .448-.11.448-.777.448v.309c.32-.01.857-.03 1.096-.03.349 0 .698.02 1.036.03v-.309c-.657 0-.697-.05-.697-.438zm.04-1.733a.52.52 0 0 0-.528-.528.54.54 0 0 0-.528.528c0 .269.219.528.528.528.279 0 .528-.21.528-.528m2.06 2.71v2.669c0 .448-.11.448-.777.448v.309c.349-.01.856-.03 1.126-.03.259 0 .776.02 1.115.03v-.309c-.667 0-.777 0-.777-.448v-1.833c0-1.036.708-1.594 1.345-1.594.627 0 .737.538.737 1.106v2.32c0 .45-.11.45-.777.45v.308c.349-.01.857-.03 1.126-.03.259 0 .777.02 1.116.03v-.309c-.668 0-.778 0-.778-.448v-1.833c0-1.036.708-1.594 1.345-1.594.628 0 .737.538.737 1.106v2.32c0 .45-.11.45-.777.45v.308c.35-.01.857-.03 1.126-.03.26 0 .777.02 1.116.03v-.309c-.518 0-.767 0-.777-.299v-1.902c0-.857 0-1.166-.309-1.524-.14-.17-.468-.369-1.046-.369-.837 0-1.275.598-1.444.976-.14-.866-.877-.976-1.325-.976-.727 0-1.196.429-1.474 1.046v-1.046l-1.405.11v.309c.697 0 .777.07.777.557M44.068-214.32v.896l1.435-.11v-.309c-.697 0-.777-.07-.777-.558v-3.536l-1.464.11v.309c.697 0 .777.07.777.557v1.774c0 .866-.478 1.543-1.206 1.543-.837 0-.876-.468-.876-.986v-3.307l-1.465.11v.309c.777 0 .777.03.777.916v1.494c0 .777 0 1.684 1.514 1.684.559 0 .997-.28 1.285-.897m3.364-3.198h1.425v-.31h-1.425v-1.832h-.249c-.01.817-.309 1.883-1.285 1.922v.22h.847v2.749c0 1.225.926 1.345 1.285 1.345.707 0 .986-.708.986-1.345v-.568h-.249v.548c0 .737-.299 1.116-.668 1.116-.667 0-.667-.907-.667-1.076zm3.247 3.227c0 .448-.11.448-.777.448v.309c.349-.01.857-.03 1.126-.03.259 0 .776.02 1.115.03v-.309c-.667 0-.777 0-.777-.448v-1.833c0-1.036.708-1.594 1.345-1.594.628 0 .737.538.737 1.106v2.32c0 .45-.11.45-.777.45v.308c.349-.01.857-.03 1.126-.03.259 0 .777.02 1.116.03v-.309c-.518 0-.767 0-.777-.299v-1.902c0-.857 0-1.166-.31-1.524-.139-.17-.467-.369-1.045-.369-.837 0-1.275.598-1.445.976v-3.486l-1.434.11v.308c.697 0 .777.07.777.558z"/>
    <path fill="none" stroke="gray" stroke-miterlimit="10" stroke-width=".399" d="M114.879-206.312H58.644"/>
    <path fill="none" stroke="gray" stroke-linecap="round" stroke-linejoin="round" stroke-miterlimit="10" stroke-width=".319" d="M113.683-207.906c.102.597 1.196 1.492 1.496 1.593-.3.098-1.394.996-1.496 1.594"/>
    <path fill="gray" d="M35.751-204.58c.04.398.309.817.777.817.21 0 .817-.14.817-.947v-.557h-.25v.557c0 .578-.248.638-.358.638-.329 0-.368-.448-.368-.498v-1.992c0-.419 0-.807-.36-1.176a1.9 1.9 0 0 0-1.364-.548c-.816 0-1.504.469-1.504 1.126 0 .299.2.468.458.468.28 0 .459-.2.459-.458 0-.12-.05-.448-.508-.458.269-.349.757-.458 1.076-.458.488 0 1.055.388 1.055 1.275v.368c-.508.03-1.205.06-1.833.359-.747.338-.996.856-.996 1.295 0 .807.967 1.056 1.594 1.056.658 0 1.116-.399 1.305-.867m-.07-1.634v.996c0 .947-.717 1.285-1.165 1.285-.488 0-.897-.348-.897-.846 0-.548.419-1.375 2.062-1.435m2.83-1.036v2.67c0 .448-.11.448-.777.448v.309c.349-.01.857-.03 1.126-.03.259 0 .776.02 1.115.03v-.309c-.667 0-.777 0-.777-.448v-1.833c0-1.036.708-1.594 1.345-1.594.628 0 .737.538.737 1.106v2.32c0 .45-.11.45-.777.45v.308c.349-.01.857-.03 1.126-.03.259 0 .777.02 1.116.03v-.309c-.519 0-.768 0-.778-.299v-1.902c0-.857 0-1.166-.308-1.524-.14-.17-.468-.369-1.046-.369-.727 0-1.196.429-1.474 1.046v-1.046l-1.405.11v.309c.697 0 .777.07.777.557m6.65 1.714c-.866 0-.866-.996-.866-1.225 0-.27.01-.588.16-.837.08-.12.308-.399.707-.399.867 0 .867.996.867 1.226 0 .268-.01.587-.16.836-.08.12-.309.399-.707.399m-1.155.388c0-.04 0-.269.17-.468.388.279.797.309.986.309.926 0 1.613-.688 1.613-1.454 0-.37-.159-.738-.408-.967.359-.338.717-.388.897-.388.02 0 .07 0 .1.01-.11.04-.16.15-.16.269 0 .169.13.288.289.288.1 0 .289-.07.289-.298 0-.17-.12-.489-.508-.489-.2 0-.638.06-1.056.469a1.66 1.66 0 0 0-1.056-.359c-.927 0-1.614.687-1.614 1.455 0 .438.22.816.468 1.025-.13.15-.308.479-.308.827 0 .31.129.688.438.887-.598.169-.916.597-.916.996 0 .717.985 1.265 2.2 1.265 1.176 0 2.212-.508 2.212-1.285 0-.349-.14-.857-.647-1.135-.528-.28-1.106-.28-1.714-.28-.249 0-.677 0-.747-.01-.319-.04-.528-.348-.528-.667M45.441-202c-1.006 0-1.694-.508-1.694-1.036 0-.458.379-.827.817-.857h.588c.856 0 1.972 0 1.972.857 0 .538-.707 1.036-1.683 1.036m4.254-8.736-1.435.11v.308c.698 0 .777.07.777.558v5.18c0 .448-.11.448-.777.448v.309c.33-.01.857-.03 1.106-.03s.737.02 1.106.03v-.309c-.668 0-.777 0-.777-.448zm2.12 4.403c.06-1.484.896-1.733 1.235-1.733 1.026 0 1.126 1.344 1.126 1.733zm-.01.209h2.78c.218 0 .248 0 .248-.21 0-.985-.538-1.952-1.783-1.952-1.155 0-2.072 1.026-2.072 2.271 0 1.335 1.046 2.302 2.191 2.302 1.216 0 1.664-1.106 1.664-1.295 0-.1-.08-.12-.13-.12-.09 0-.11.06-.129.14-.349 1.026-1.245 1.026-1.345 1.026-.498 0-.896-.3-1.125-.668-.3-.478-.3-1.136-.3-1.494"/>
    <path fill="none" stroke="gray" stroke-miterlimit="10" stroke-width=".399" d="M114.879-195.633H58.644"/>
    <path fill="none" stroke="gray" stroke-linecap="round" stroke-linejoin="round" stroke-miterlimit="10" stroke-width=".319" d="M113.683-197.227c.102.598 1.196 1.493 1.496 1.594-.3.098-1.394.996-1.496 1.594"/>
    <path fill="gray" d="M40.151-194.246c.04.398.309.817.777.817.21 0 .817-.14.817-.947v-.557h-.25v.557c0 .578-.248.638-.358.638-.329 0-.368-.448-.368-.498v-1.992c0-.419 0-.807-.359-1.176a1.9 1.9 0 0 0-1.365-.547c-.816 0-1.504.468-1.504 1.125 0 .299.2.468.458.468.28 0 .459-.2.459-.458 0-.12-.05-.448-.508-.458.269-.349.757-.458 1.076-.458.488 0 1.056.388 1.056 1.275v.368c-.509.03-1.206.06-1.834.359-.746.339-.996.856-.996 1.295 0 .807.967 1.056 1.594 1.056.658 0 1.116-.399 1.305-.867m-.07-1.634v.996c0 .947-.717 1.285-1.165 1.285-.488 0-.897-.348-.897-.846 0-.548.419-1.375 2.063-1.435m3.398-.916v-1.096l-1.385.11v.309c.698 0 .777.07.777.557v2.67c0 .448-.11.448-.777.448v.309c.389-.01.857-.03 1.136-.03.398 0 .867 0 1.265.03v-.309h-.21c-.737 0-.756-.11-.756-.468v-1.534c0-.986.418-1.873 1.175-1.873.07 0 .09 0 .11.01-.03.01-.23.13-.23.389 0 .279.21.428.429.428.18 0 .428-.12.428-.438s-.309-.608-.737-.608c-.727 0-1.086.668-1.225 1.096m3.354.797c.06-1.484.897-1.733 1.236-1.733 1.025 0 1.125 1.344 1.125 1.733zm-.01.21h2.78c.219 0 .248 0 .248-.21 0-.986-.537-1.952-1.782-1.952-1.156 0-2.072 1.025-2.072 2.27 0 1.335 1.045 2.302 2.19 2.302 1.216 0 1.664-1.106 1.664-1.295 0-.1-.08-.12-.129-.12-.09 0-.11.06-.13.14-.348 1.026-1.245 1.026-1.344 1.026-.498 0-.897-.3-1.126-.668-.299-.478-.299-1.135-.299-1.494m6.64 1.543c.039.398.308.817.776.817.21 0 .817-.14.817-.947v-.557h-.25v.557c0 .578-.248.638-.358.638-.329 0-.368-.448-.368-.498v-1.992c0-.419 0-.807-.36-1.176a1.9 1.9 0 0 0-1.364-.547c-.816 0-1.504.468-1.504 1.125 0 .299.2.468.458.468.28 0 .459-.2.459-.458 0-.12-.05-.448-.508-.458.269-.349.757-.458 1.075-.458.489 0 1.056.388 1.056 1.275v.368c-.508.03-1.205.06-1.833.359-.746.339-.996.856-.996 1.295 0 .807.967 1.056 1.594 1.056.658 0 1.116-.399 1.305-.867m-.07-1.634v.996c0 .947-.718 1.285-1.166 1.285-.488 0-.897-.348-.897-.846 0-.548.419-1.375 2.063-1.435"/>
    <path fill="none" stroke="gray" stroke-miterlimit="10" stroke-width=".399" d="M114.879-184.953H58.644"/>
    <path fill="none" stroke="gray" stroke-linecap="round" stroke-linejoin="round" stroke-miterlimit="10" stroke-width=".319" d="M113.683-186.547c.102.598 1.196 1.492 1.496 1.594-.3.098-1.394.996-1.496 1.594"/>
    <path fill="gray" d="M19.457-185.95c0-1.623.817-2.042 1.345-2.042.09 0 .718.01 1.066.369-.408.03-.468.329-.468.458 0 .26.18.458.458.458.259 0 .458-.169.458-.468 0-.677-.757-1.065-1.524-1.065-1.245 0-2.161 1.075-2.161 2.31 0 1.275.986 2.262 2.141 2.262 1.335 0 1.654-1.196 1.654-1.295s-.1-.1-.13-.1c-.09 0-.11.04-.129.1-.289.926-.937 1.046-1.305 1.046-.528 0-1.405-.429-1.405-2.033m7.954.04c0-1.275-.996-2.33-2.201-2.33-1.246 0-2.212 1.085-2.212 2.33a2.223 2.223 0 0 0 2.202 2.242 2.22 2.22 0 0 0 2.211-2.242m-2.201 1.993c-.429 0-.867-.21-1.136-.668-.249-.438-.249-1.046-.249-1.404 0-.389 0-.927.24-1.365.268-.458.736-.667 1.135-.667.438 0 .866.219 1.125.647.26.428.26 1.006.26 1.385 0 .358 0 .896-.22 1.334-.22.449-.657.738-1.155.738M31.563-187.095c.09-.23.26-.657.917-.667v-.31c-.23.02-.518.03-.748.03-.239 0-.697-.02-.866-.03v.31c.368.01.478.239.478.428 0 .09-.02.13-.06.239l-1.016 2.54-1.116-2.78c-.06-.129-.06-.149-.06-.169 0-.258.39-.258.569-.258v-.31c-.3.01-.857.03-1.086.03-.27 0-.668-.01-.966-.03v.31c.627 0 .667.06.796.368l1.435 3.536c.06.14.08.19.209.19.13 0 .17-.09.21-.19zM33.514-186.288c.06-1.484.896-1.733 1.235-1.733 1.026 0 1.126 1.344 1.126 1.733zm-.01.21h2.78c.218 0 .248 0 .248-.21 0-.986-.538-1.952-1.783-1.952-1.156 0-2.072 1.025-2.072 2.27 0 1.335 1.046 2.302 2.191 2.302 1.216 0 1.664-1.106 1.664-1.295 0-.1-.08-.12-.13-.12-.09 0-.11.06-.129.14-.349 1.026-1.245 1.026-1.345 1.026-.498 0-.896-.3-1.125-.668-.3-.478-.3-1.135-.3-1.494M38.497-187.085v-1.096l-1.384.11v.309c.697 0 .777.07.777.557v2.67c0 .448-.11.448-.777.448v.309c.388-.01.856-.03 1.135-.03.399 0 .867 0 1.266.03v-.309h-.21c-.737 0-.757-.11-.757-.468v-1.534c0-.986.419-1.873 1.176-1.873.07 0 .09 0 .11.01a.43.43 0 0 0-.23.389c0 .279.21.428.428.428.18 0 .429-.12.429-.438s-.309-.608-.737-.608c-.727 0-1.086.668-1.226 1.096m5.556 2.55c.04.398.31.817.777.817.21 0 .817-.14.817-.947v-.557h-.249v.557c0 .578-.249.638-.359.638-.328 0-.368-.448-.368-.498v-1.992c0-.419 0-.807-.359-1.176a1.9 1.9 0 0 0-1.364-.547c-.817 0-1.505.468-1.505 1.125 0 .299.2.468.459.468a.44.44 0 0 0 .458-.458c0-.12-.05-.448-.508-.458.269-.349.757-.458 1.076-.458.488 0 1.056.388 1.056 1.275v.368c-.508.03-1.206.06-1.833.359-.747.339-.996.856-.996 1.295 0 .807.966 1.056 1.593 1.056.658 0 1.116-.399 1.305-.867m-.07-1.634v.996c0 .947-.717 1.285-1.165 1.285-.488 0-.896-.348-.896-.846 0-.548.418-1.375 2.062-1.435m3.946.678c-.867 0-.867-.996-.867-1.225 0-.27.01-.588.16-.837.08-.12.308-.399.707-.399.867 0 .867.997.867 1.226 0 .268-.01.587-.16.836-.08.12-.309.399-.707.399m-1.156.388c0-.04 0-.269.17-.468.388.279.797.309.986.309.926 0 1.613-.688 1.613-1.454 0-.37-.159-.738-.408-.967.359-.338.717-.388.897-.388.02 0 .07 0 .1.01-.11.04-.16.15-.16.269 0 .169.13.288.289.288.1 0 .289-.07.289-.298 0-.17-.12-.488-.508-.488-.2 0-.638.06-1.056.468a1.66 1.66 0 0 0-1.056-.359c-.927 0-1.614.687-1.614 1.455 0 .438.22.816.468 1.026-.13.149-.308.478-.308.826 0 .31.129.688.438.887-.598.169-.916.597-.916.996 0 .717.986 1.265 2.2 1.265 1.176 0 2.212-.508 2.212-1.285 0-.349-.14-.857-.647-1.135-.528-.28-1.106-.28-1.714-.28-.249 0-.677 0-.747-.01-.319-.04-.528-.348-.528-.667m1.435 3.148c-1.006 0-1.694-.508-1.694-1.036 0-.458.379-.827.817-.857h.588c.857 0 1.972 0 1.972.857 0 .538-.707 1.036-1.683 1.036m3.606-4.333c.06-1.484.897-1.733 1.236-1.733 1.026 0 1.125 1.344 1.125 1.733zm-.01.21h2.78c.219 0 .248 0 .248-.21 0-.986-.537-1.952-1.782-1.952-1.156 0-2.072 1.025-2.072 2.27 0 1.335 1.045 2.302 2.191 2.302 1.215 0 1.664-1.106 1.664-1.295 0-.1-.08-.12-.13-.12-.09 0-.11.06-.13.14-.348 1.026-1.245 1.026-1.344 1.026-.498 0-.896-.3-1.126-.668-.299-.478-.299-1.135-.299-1.494"/>
    <path fill="none" stroke="gray" stroke-miterlimit="10" stroke-width=".399" d="M114.879-174.273H58.644"/>
    <path fill="none" stroke="gray" stroke-linecap="round" stroke-linejoin="round" stroke-miterlimit="10" stroke-width=".319" d="M113.683-175.867c.102.598 1.196 1.492 1.496 1.594-.3.097-1.394.996-1.496 1.594"/>
    <path fill="gray" d="M4.984-175.091v-1.096l-1.384.11v.309c.697 0 .777.07.777.557v2.67c0 .448-.11.448-.777.448v.309c.388-.01.857-.03 1.135-.03.399 0 .867 0 1.266.03v-.309h-.21c-.737 0-.757-.11-.757-.468v-1.534c0-.986.419-1.873 1.176-1.873.07 0 .09 0 .11.01-.03.01-.23.13-.23.389 0 .279.21.428.428.428.18 0 .429-.12.429-.438s-.309-.608-.737-.608c-.727 0-1.086.668-1.226 1.096m5.557 2.55c.04.398.308.817.776.817.21 0 .817-.14.817-.947v-.557h-.249v.557c0 .578-.249.638-.359.638-.328 0-.368-.448-.368-.498v-1.992c0-.419 0-.807-.359-1.176a1.9 1.9 0 0 0-1.364-.548c-.817 0-1.504.469-1.504 1.126 0 .299.199.468.458.468.279 0 .458-.2.458-.458 0-.12-.05-.448-.508-.458.269-.349.757-.458 1.076-.458.488 0 1.056.388 1.056 1.275v.368c-.508.03-1.205.06-1.833.359-.747.338-.996.856-.996 1.295 0 .807.966 1.056 1.594 1.056.657 0 1.115-.399 1.305-.867m-.07-1.634v.996c0 .947-.718 1.285-1.166 1.285-.488 0-.896-.348-.896-.846 0-.548.418-1.375 2.062-1.435m3.457-1.593h1.424v-.31h-1.424v-1.832h-.249c-.01.817-.31 1.883-1.285 1.922v.22h.847v2.749c0 1.225.926 1.345 1.284 1.345.708 0 .987-.708.987-1.345v-.568h-.25v.548c0 .737-.298 1.116-.667 1.116-.667 0-.667-.907-.667-1.076zm3.267 1.474c.06-1.484.896-1.733 1.235-1.733 1.026 0 1.126 1.344 1.126 1.733zm-.01.209h2.779c.22 0 .249 0 .249-.21 0-.985-.538-1.952-1.783-1.952-1.156 0-2.072 1.026-2.072 2.271 0 1.335 1.046 2.302 2.191 2.302 1.216 0 1.664-1.106 1.664-1.295 0-.1-.08-.12-.13-.12-.09 0-.11.06-.129.14-.349 1.026-1.245 1.026-1.345 1.026-.498 0-.896-.3-1.125-.668-.3-.478-.3-1.136-.3-1.494m7.107 1.753v.658l1.464-.11v-.309c-.697 0-.777-.07-.777-.558v-6.046l-1.434.11v.308c.697 0 .776.07.776.558v2.152a1.59 1.59 0 0 0-1.255-.618c-1.175 0-2.22.976-2.22 2.261 0 1.265.975 2.252 2.11 2.252.639 0 1.087-.34 1.336-.658m0-2.67v2.043c0 .179 0 .199-.11.368-.299.478-.747.697-1.175.697-.449 0-.807-.258-1.046-.637-.26-.409-.29-.976-.29-1.385 0-.368.02-.966.31-1.414.209-.309.587-.638 1.125-.638.349 0 .767.15 1.076.598.11.17.11.19.11.368M31.067-175.53v-.657l-1.434.11v.309c.707 0 .776.06.776.497v4.662c0 .449-.11.449-.776.449v.308c.338-.01.856-.03 1.115-.03.269 0 .777.02 1.126.03v-.308c-.668 0-.777 0-.777-.449v-1.7630000000000001c.05.16.468.698 1.225.698 1.185 0 2.221-.977 2.221-2.262 0-1.265-.966-2.25-2.082-2.25-.777 0-1.195.437-1.394.657m.03 2.61v-2.22c.289-.509.777-.798 1.285-.798.727 0 1.335.877 1.335 2.002 0 1.206-.698 2.042-1.435 2.042-.399 0-.777-.199-1.046-.607-.14-.21-.14-.22-.14-.419M39.86-173.916c0-1.275-.997-2.33-2.202-2.33-1.245 0-2.212 1.085-2.212 2.33a2.224 2.224 0 0 0 2.202 2.242 2.22 2.22 0 0 0 2.211-2.242m-2.202 1.993c-.429 0-.867-.21-1.136-.668-.249-.438-.249-1.046-.249-1.404 0-.389 0-.927.24-1.365a1.34 1.34 0 0 1 1.135-.667c.438 0 .866.219 1.125.647.26.428.26 1.006.26 1.385 0 .358 0 .896-.22 1.334-.219.449-.657.738-1.155.738M46.035-175.13c.18-.499.488-.628.837-.638v-.31c-.22.02-.508.03-.727.03-.29 0-.738-.02-.927-.03v.31c.359.01.578.189.578.478 0 .06 0 .08-.05.209l-.906 2.55-.987-2.78c-.04-.119-.05-.139-.05-.189 0-.268.39-.268.589-.268v-.31c-.29.01-.797.03-1.036.03-.3 0-.588-.01-.887-.03v.31c.368 0 .528.02.627.149.05.06.16.358.23.548l-.857 2.41-.947-2.66c-.05-.119-.05-.139-.05-.179 0-.268.39-.268.589-.268v-.31c-.3.01-.857.03-1.086.03-.04 0-.568-.01-.927-.03v.31c.498 0 .618.03.738.348l1.255 3.526c.05.14.08.22.209.22.13 0 .149-.06.199-.2l1.006-2.819 1.016 2.83c.04.109.07.189.2.189.129 0 .159-.09.199-.19zM47.897-174.294c.06-1.484.897-1.733 1.235-1.733 1.026 0 1.126 1.344 1.126 1.733zm-.01.209h2.78c.218 0 .248 0 .248-.21 0-.985-.538-1.952-1.783-1.952-1.155 0-2.072 1.026-2.072 2.271 0 1.335 1.046 2.302 2.192 2.302 1.215 0 1.663-1.106 1.663-1.295 0-.1-.08-.12-.13-.12-.089 0-.109.06-.128.14-.35 1.026-1.246 1.026-1.345 1.026-.498 0-.897-.3-1.126-.668-.299-.478-.299-1.136-.299-1.494M52.88-175.091v-1.096l-1.384.11v.309c.697 0 .777.07.777.557v2.67c0 .448-.11.448-.777.448v.309c.389-.01.857-.03 1.136-.03.398 0 .867 0 1.265.03v-.309h-.21c-.737 0-.756-.11-.756-.468v-1.534c0-.986.418-1.873 1.175-1.873.07 0 .09 0 .11.01-.03.01-.23.13-.23.389 0 .279.21.428.429.428.18 0 .428-.12.428-.438s-.309-.608-.737-.608c-.727 0-1.086.668-1.225 1.096"/>
    <path fill="none" stroke="gray" stroke-miterlimit="10" stroke-width=".399" d="M114.879-163.594H58.644"/>
    <path fill="none" stroke="gray" stroke-linecap="round" stroke-linejoin="round" stroke-miterlimit="10" stroke-width=".319" d="M113.683-165.187c.102.598 1.196 1.492 1.496 1.594-.3.097-1.394.996-1.496 1.593"/>
    <path fill="gray" d="M16.668-163.614c.06-1.484.896-1.733 1.235-1.733 1.026 0 1.126 1.344 1.126 1.733zm-.01.209h2.779c.219 0 .249 0 .249-.21 0-.985-.538-1.952-1.783-1.952-1.156 0-2.072 1.026-2.072 2.271 0 1.335 1.046 2.302 2.191 2.302 1.216 0 1.664-1.106 1.664-1.295 0-.1-.08-.12-.13-.12-.09 0-.11.06-.129.14-.349 1.026-1.245 1.026-1.345 1.026-.498 0-.896-.3-1.125-.668-.3-.478-.3-1.136-.3-1.494m9.368-1.683c.458 0 .528.129.528.537v2.69c0 .448-.11.448-.777.448v.309c.329-.01.856-.03 1.105-.03.25 0 .738.02 1.106.03v-.309c-.667 0-.777 0-.777-.448v-3.656l-.388.03c-.488.04-.568.04-1.046.08-.02.01-.04.01-.18.01h-1.175v-1.126c0-.986.857-1.384 1.474-1.384.3 0 .658.1.857.328-.408.02-.468.299-.468.458 0 .33.259.459.448.459.23 0 .458-.16.458-.459 0-.587-.548-1.006-1.285-1.006-.876 0-1.444.399-1.624.548-.229-.348-.647-.548-1.145-.548-.936 0-2.102.508-2.102 1.594v1.136h-.787v.309h.787v3.227c0 .448-.11.448-.777.448v.309c.329-.01.857-.03 1.106-.03s.737.02 1.106.03v-.309c-.668 0-.777 0-.777-.448v-3.227h2.101v3.227c0 .448-.11.448-.777.448v.309c.33-.01.857-.03 1.106-.03s.737.02 1.106.03v-.309c-.667 0-.777 0-.777-.448v-3.227zm-2.232-.31h-2.131v-1.125c0-.996.866-1.384 1.454-1.384.24 0 .588.05.857.328-.389.02-.478.259-.478.458 0 .22.12.379.298.429zm5.652 2.122c0-1.623.817-2.042 1.345-2.042.09 0 .718.01 1.066.369-.408.03-.468.329-.468.458 0 .26.18.458.458.458.26 0 .459-.169.459-.468 0-.677-.758-1.066-1.525-1.066-1.245 0-2.161 1.076-2.161 2.311 0 1.275.986 2.262 2.141 2.262 1.335 0 1.654-1.196 1.654-1.295s-.1-.1-.13-.1c-.09 0-.11.04-.129.1-.289.926-.936 1.046-1.305 1.046-.528 0-1.405-.429-1.405-2.033m5.026-2.23-1.395.109v.309c.647 0 .737.06.737.547v2.68c0 .448-.11.448-.777.448v.309c.319-.01.857-.03 1.096-.03.349 0 .697.02 1.036.03v-.309c-.657 0-.697-.05-.697-.438zm.04-1.734a.52.52 0 0 0-.529-.528.54.54 0 0 0-.527.528c0 .269.219.528.527.528.28 0 .529-.21.529-.528m2.08 3.626c.06-1.484.896-1.733 1.235-1.733 1.026 0 1.126 1.344 1.126 1.733zm-.01.209h2.779c.22 0 .249 0 .249-.21 0-.985-.538-1.952-1.783-1.952-1.156 0-2.072 1.026-2.072 2.271 0 1.335 1.046 2.302 2.191 2.302 1.216 0 1.664-1.106 1.664-1.295 0-.1-.08-.12-.13-.12-.09 0-.11.06-.129.14-.349 1.026-1.245 1.026-1.345 1.026-.498 0-.896-.3-1.125-.668-.3-.478-.3-1.136-.3-1.494m4.417-1.126v2.67c0 .448-.11.448-.777.448v.309c.349-.01.857-.03 1.126-.03.259 0 .777.02 1.115.03v-.309c-.667 0-.776 0-.776-.448v-1.833c0-1.036.707-1.594 1.344-1.594.628 0 .737.538.737 1.106v2.32c0 .45-.11.45-.776.45v.308c.348-.01.856-.03 1.125-.03.259 0 .777.02 1.116.03v-.309c-.518 0-.767 0-.777-.299v-1.902c0-.857 0-1.166-.31-1.524-.139-.17-.467-.369-1.045-.369-.727 0-1.195.429-1.474 1.046v-1.046l-1.405.11v.309c.697 0 .777.07.777.557m5.605 1.255c0-1.623.817-2.042 1.345-2.042.09 0 .717.01 1.066.369-.409.03-.469.329-.469.458 0 .26.18.458.459.458.258 0 .458-.169.458-.468 0-.677-.757-1.066-1.524-1.066-1.245 0-2.162 1.076-2.162 2.311 0 1.275.986 2.262 2.142 2.262 1.335 0 1.653-1.196 1.653-1.295s-.1-.1-.13-.1c-.089 0-.109.04-.129.1-.288.926-.936 1.046-1.305 1.046-.527 0-1.404-.429-1.404-2.033M54-164.45c.259-.627.767-.637.926-.637v-.31c-.229.02-.518.03-.747.03-.18 0-.648-.02-.867-.03v.31c.31.01.469.179.469.428 0 .1-.01.12-.06.239l-1.006 2.45-1.106-2.68c-.04-.099-.06-.139-.06-.179 0-.258.369-.258.558-.258v-.31c-.259.01-.916.03-1.085.03-.27 0-.668-.01-.967-.03v.31c.478 0 .667 0 .807.348l1.494 3.636c-.05.13-.19.458-.249.588-.219.548-.498 1.235-1.136 1.235-.05 0-.278 0-.468-.18.31-.04.389-.258.389-.418a.403.403 0 0 0-.419-.418c-.199 0-.418.13-.418.428 0 .448.418.807.916.807.628 0 1.036-.568 1.276-1.135z"/>
    <path fill="none" stroke="gray" stroke-miterlimit="10" stroke-width=".399" d="M200.777-195.633h28.348v48.91"/>
    <path fill="none" stroke="gray" stroke-linecap="round" stroke-linejoin="round" stroke-miterlimit="10" stroke-width=".319" d="M230.718-147.918c-.597.098-1.496 1.195-1.593 1.492-.102-.297-.996-1.394-1.594-1.492"/>
    <path fill="gray" d="M205.413-203.601c.06-1.484.896-1.733 1.235-1.733 1.026 0 1.126 1.344 1.126 1.733zm-.01.21h2.779c.22 0 .249 0 .249-.21 0-.986-.538-1.952-1.783-1.952-1.156 0-2.072 1.025-2.072 2.27 0 1.335 1.046 2.302 2.191 2.302 1.216 0 1.664-1.106 1.664-1.295 0-.1-.08-.12-.13-.12-.09 0-.11.06-.129.14-.349 1.026-1.245 1.026-1.345 1.026-.498 0-.896-.3-1.125-.668-.3-.478-.3-1.135-.3-1.494m4.417-1.127v2.67c0 .448-.11.448-.777.448v.309c.349-.01.857-.03 1.126-.03.259 0 .777.02 1.115.03v-.309c-.667 0-.777 0-.777-.448v-1.833c0-1.036.708-1.594 1.345-1.594.628 0 .737.538.737 1.106v2.32c0 .45-.11.45-.777.45v.308c.349-.01.857-.03 1.126-.03.259 0 .777.02 1.116.03v-.309c-.518 0-.767 0-.777-.298v-1.903c0-.857 0-1.166-.31-1.524-.139-.17-.467-.369-1.045-.369-.727 0-1.195.429-1.474 1.046v-1.046l-1.405.11v.309c.697 0 .777.07.777.557m5.555.917c.06-1.484.897-1.733 1.235-1.733 1.026 0 1.126 1.344 1.126 1.733zm-.01.21h2.78c.219 0 .248 0 .248-.21 0-.986-.538-1.952-1.783-1.952-1.155 0-2.071 1.025-2.071 2.27 0 1.335 1.045 2.302 2.19 2.302 1.216 0 1.664-1.106 1.664-1.295 0-.1-.08-.12-.13-.12-.089 0-.109.06-.129.14-.348 1.026-1.245 1.026-1.344 1.026-.498 0-.897-.3-1.126-.668-.299-.478-.299-1.135-.299-1.494m4.985-1.007v-1.096l-1.384.11v.309c.697 0 .777.07.777.557v2.67c0 .448-.11.448-.777.448v.309c.388-.01.856-.03 1.135-.03.399 0 .867 0 1.266.03v-.309h-.21c-.737 0-.757-.11-.757-.468v-1.534c0-.986.418-1.873 1.176-1.873.07 0 .09 0 .11.01-.03.01-.23.13-.23.389 0 .279.21.428.428.428.18 0 .429-.12.429-.438s-.309-.608-.737-.608c-.728 0-1.086.668-1.226 1.096m4.45 1.594c-.866 0-.866-.996-.866-1.225 0-.27.01-.588.16-.837.079-.12.308-.399.706-.399.867 0 .867.997.867 1.226 0 .268-.01.587-.16.836-.079.12-.308.399-.707.399m-1.155.388c0-.04 0-.269.17-.468.388.279.796.309.985.309.927 0 1.614-.688 1.614-1.454 0-.37-.16-.738-.408-.967.358-.338.717-.388.896-.388.02 0 .07 0 .1.01-.11.04-.16.15-.16.269 0 .169.13.288.29.288.1 0 .288-.07.288-.298 0-.17-.12-.488-.508-.488-.199 0-.637.06-1.056.468a1.66 1.66 0 0 0-1.056-.359c-.926 0-1.613.687-1.613 1.455 0 .438.22.816.468 1.026-.13.149-.309.478-.309.826 0 .31.13.688.439.887-.598.169-.917.597-.917.996 0 .717.986 1.265 2.202 1.265 1.175 0 2.211-.508 2.211-1.285 0-.349-.14-.857-.647-1.135-.529-.28-1.106-.28-1.714-.28-.249 0-.677 0-.747-.01-.319-.04-.528-.348-.528-.667m1.434 3.148c-1.005 0-1.693-.508-1.693-1.036 0-.458.379-.827.817-.857h.588c.856 0 1.972 0 1.972.857 0 .538-.707 1.036-1.684 1.036m6.625-5.17c.26-.627.767-.637.927-.637v-.31c-.23.02-.518.03-.747.03-.18 0-.648-.02-.867-.03v.31c.309.01.468.179.468.428 0 .1-.01.12-.06.239l-1.006 2.45-1.105-2.68c-.04-.099-.06-.139-.06-.179 0-.258.368-.258.558-.258v-.31c-.26.01-.917.03-1.086.03-.269 0-.667-.01-.966-.03v.31c.478 0 .667 0 .807.348l1.494 3.636c-.05.13-.19.458-.25.588-.218.548-.497 1.235-1.135 1.235-.05 0-.279 0-.468-.18.309-.04.388-.258.388-.418 0-.259-.189-.418-.418-.418-.2 0-.418.13-.418.428 0 .448.418.807.916.807.628 0 1.036-.568 1.275-1.135zM240.834-203.223c0-1.275-.996-2.33-2.202-2.33-1.245 0-2.211 1.085-2.211 2.33a2.223 2.223 0 0 0 2.201 2.242 2.22 2.22 0 0 0 2.212-2.242m-2.202 1.993c-.428 0-.866-.21-1.135-.668-.25-.438-.25-1.046-.25-1.404 0-.389 0-.927.24-1.365.269-.458.737-.667 1.135-.667.439 0 .867.219 1.126.647s.259 1.006.259 1.385c0 .358 0 .896-.22 1.334-.219.449-.657.738-1.155.738m6.386-.648v.897l1.434-.11v-.309c-.697 0-.777-.07-.777-.558v-3.536l-1.464.11v.309c.697 0 .777.07.777.557v1.774c0 .866-.478 1.543-1.205 1.543-.837 0-.877-.468-.877-.986v-3.307l-1.464.11v.309c.777 0 .777.03.777.916v1.494c0 .777 0 1.684 1.514 1.684.558 0 .996-.28 1.285-.897m3.364-3.197h1.424v-.31h-1.424v-1.832h-.25c-.01.817-.308 1.883-1.284 1.922v.22h.846v2.749c0 1.225.927 1.345 1.285 1.345.707 0 .986-.708.986-1.345v-.568h-.249v.548c0 .737-.298 1.116-.667 1.116-.667 0-.667-.907-.667-1.076z"/>
    <path fill="gray" d="M225.326-200.236c.05-.129.05-.159.05-.179a.2.2 0 0 0-.2-.199c-.139 0-.179.1-.209.2l-3.396 9.383c-.05.13-.05.16-.05.179 0 .11.09.2.2.2.139 0 .178-.1.208-.2z"/>
    <path fill="none" stroke="gray" stroke-miterlimit="10" stroke-width=".399" d="M200.777-117.281h28.348v-13.477"/>
    <path fill="none" stroke="gray" stroke-linecap="round" stroke-linejoin="round" stroke-miterlimit="10" stroke-width=".319" d="M227.531-129.562c.598-.102 1.492-1.195 1.594-1.496.097.3.996 1.394 1.593 1.496"/>
    <path fill="gray" d="M205.413-111.983c.06-1.484.896-1.733 1.235-1.733 1.026 0 1.126 1.344 1.126 1.733zm-.01.21h2.779c.22 0 .249 0 .249-.21 0-.986-.538-1.952-1.783-1.952-1.156 0-2.072 1.025-2.072 2.27 0 1.335 1.046 2.302 2.191 2.302 1.216 0 1.664-1.106 1.664-1.295 0-.1-.08-.12-.13-.12-.09 0-.11.06-.129.14-.349 1.026-1.245 1.026-1.345 1.026-.498 0-.896-.3-1.125-.668-.3-.478-.3-1.135-.3-1.494m4.417-1.127v2.67c0 .448-.11.448-.777.448v.309c.349-.01.857-.03 1.126-.03.259 0 .777.02 1.115.03v-.309c-.667 0-.777 0-.777-.448v-1.833c0-1.036.708-1.594 1.345-1.594.628 0 .737.538.737 1.106v2.32c0 .45-.11.45-.777.45v.308c.349-.01.857-.03 1.126-.03.259 0 .777.02 1.116.03v-.309c-.518 0-.767 0-.777-.298v-1.903c0-.857 0-1.166-.31-1.524-.139-.17-.467-.369-1.045-.369-.727 0-1.195.429-1.474 1.046v-1.046l-1.405.11v.309c.697 0 .777.07.777.557m5.555.917c.06-1.484.897-1.733 1.235-1.733 1.026 0 1.126 1.344 1.126 1.733zm-.01.21h2.78c.219 0 .248 0 .248-.21 0-.986-.538-1.952-1.783-1.952-1.155 0-2.071 1.025-2.071 2.27 0 1.335 1.045 2.302 2.19 2.302 1.216 0 1.664-1.106 1.664-1.295 0-.1-.08-.12-.13-.12-.089 0-.109.06-.129.14-.348 1.026-1.245 1.026-1.344 1.026-.498 0-.897-.3-1.126-.668-.299-.478-.299-1.135-.299-1.494m4.985-1.007v-1.096l-1.384.11v.309c.697 0 .777.07.777.557v2.67c0 .448-.11.448-.777.448v.309c.388-.01.856-.03 1.135-.03.399 0 .867 0 1.266.03v-.309h-.21c-.737 0-.757-.11-.757-.468v-1.534c0-.986.418-1.873 1.176-1.873.07 0 .09 0 .11.01-.03.01-.23.13-.23.389 0 .279.21.428.428.428.18 0 .429-.12.429-.438s-.309-.608-.737-.608c-.728 0-1.086.668-1.226 1.096m4.45 1.594c-.866 0-.866-.996-.866-1.225 0-.27.01-.588.16-.837.079-.12.308-.399.706-.399.867 0 .867.997.867 1.226 0 .268-.01.587-.16.836-.079.12-.308.399-.707.399m-1.155.388c0-.04 0-.269.17-.468.388.279.796.309.985.309.927 0 1.614-.688 1.614-1.454 0-.37-.16-.738-.408-.967.358-.338.717-.388.896-.388.02 0 .07 0 .1.01-.11.04-.16.15-.16.269 0 .169.13.288.29.288.1 0 .288-.07.288-.298 0-.17-.12-.488-.508-.488-.199 0-.637.06-1.056.468a1.66 1.66 0 0 0-1.056-.359c-.926 0-1.613.687-1.613 1.455 0 .438.22.816.468 1.026-.13.149-.309.478-.309.826 0 .31.13.688.439.887-.598.169-.917.597-.917.996 0 .717.986 1.265 2.202 1.265 1.175 0 2.211-.508 2.211-1.285 0-.349-.14-.857-.647-1.135-.529-.28-1.106-.28-1.714-.28-.249 0-.677 0-.747-.01-.319-.04-.528-.348-.528-.667m1.434 3.148c-1.005 0-1.693-.508-1.693-1.036 0-.458.379-.827.817-.857h.588c.856 0 1.972 0 1.972.857 0 .538-.707 1.036-1.684 1.036m6.625-5.17c.26-.627.767-.637.927-.637v-.31c-.23.02-.518.03-.747.03-.18 0-.648-.02-.867-.03v.31c.309.01.468.179.468.428 0 .1-.01.12-.06.239l-1.006 2.45-1.105-2.68c-.04-.099-.06-.139-.06-.179 0-.258.368-.258.558-.258v-.31c-.26.01-.917.03-1.086.03-.269 0-.667-.01-.966-.03v.31c.478 0 .667 0 .807.348l1.494 3.636c-.05.13-.19.458-.25.588-.218.548-.497 1.235-1.135 1.235-.05 0-.279 0-.468-.18.309-.04.388-.258.388-.418 0-.259-.189-.418-.418-.418-.2 0-.418.13-.418.428 0 .448.418.807.916.807.628 0 1.036-.568 1.275-1.135zM240.037-110.26v.897l1.434-.11v-.309c-.697 0-.777-.07-.777-.558v-3.536l-1.464.11v.309c.697 0 .777.07.777.557v1.774c0 .866-.478 1.543-1.205 1.543-.837 0-.877-.468-.877-.986v-3.307l-1.464.11v.309c.776 0 .776.03.776.916v1.494c0 .777 0 1.684 1.515 1.684.558 0 .996-.28 1.285-.897m3.712-1.145c.219.04 1.036.199 1.036.916 0 .508-.349.906-1.126.906-.836 0-1.195-.567-1.384-1.414-.03-.13-.04-.17-.14-.17-.13 0-.13.07-.13.25v1.315c0 .169 0 .239.11.239.05 0 .06-.01.25-.2.02-.02.02-.04.199-.229.438.419.886.429 1.095.429 1.146 0 1.604-.668 1.604-1.385 0-.528-.299-.827-.418-.946-.329-.319-.718-.399-1.136-.478-.558-.11-1.225-.24-1.225-.817 0-.349.259-.757 1.116-.757 1.095 0 1.145.896 1.165 1.205.01.09.1.09.12.09.129 0 .129-.05.129-.24v-1.005c0-.17 0-.24-.11-.24-.05 0-.07 0-.199.12-.03.04-.13.13-.17.16-.378-.28-.786-.28-.935-.28-1.216 0-1.594.668-1.594 1.226 0 .348.16.627.428.846.319.26.598.32 1.315.459m5.174 1.175c.04.398.31.817.777.817.21 0 .817-.14.817-.947v-.557h-.249v.557c0 .578-.249.638-.359.638-.328 0-.368-.448-.368-.498v-1.992c0-.419 0-.807-.359-1.176a1.9 1.9 0 0 0-1.364-.547c-.817 0-1.505.468-1.505 1.125 0 .299.2.468.459.468.279 0 .458-.2.458-.458 0-.12-.05-.448-.508-.458.269-.349.757-.458 1.076-.458.488 0 1.056.388 1.056 1.275v.368c-.508.03-1.206.06-1.833.359-.747.339-.996.856-.996 1.295 0 .807.966 1.056 1.594 1.056.657 0 1.115-.399 1.304-.867m-.07-1.634v.996c0 .947-.717 1.285-1.165 1.285-.488 0-.896-.348-.896-.846 0-.548.418-1.375 2.062-1.435m3.946.678c-.867 0-.867-.996-.867-1.225 0-.27.01-.588.16-.837.08-.12.308-.399.707-.399.867 0 .867.997.867 1.226 0 .268-.01.587-.16.836-.08.12-.309.399-.707.399m-1.156.388c0-.04 0-.269.17-.468.388.279.797.309.986.309.926 0 1.613-.688 1.613-1.454 0-.37-.159-.738-.408-.967.359-.338.717-.388.897-.388.02 0 .07 0 .1.01-.11.04-.16.15-.16.269 0 .169.13.288.289.288.1 0 .289-.07.289-.298 0-.17-.12-.488-.508-.488-.2 0-.638.06-1.056.468a1.66 1.66 0 0 0-1.056-.359c-.927 0-1.614.687-1.614 1.455 0 .438.22.816.469 1.026-.13.149-.31.478-.31.826 0 .31.13.688.439.887-.598.169-.916.597-.916.996 0 .717.986 1.265 2.2 1.265 1.176 0 2.212-.508 2.212-1.285 0-.349-.14-.857-.647-1.135-.528-.28-1.106-.28-1.714-.28-.249 0-.677 0-.747-.01-.319-.04-.528-.348-.528-.667m1.435 3.148c-1.006 0-1.694-.508-1.694-1.036 0-.458.379-.827.817-.857h.588c.857 0 1.972 0 1.972.857 0 .538-.707 1.036-1.683 1.036m3.606-4.333c.06-1.484.897-1.733 1.236-1.733 1.026 0 1.125 1.344 1.125 1.733zm-.01.21h2.78c.219 0 .248 0 .248-.21 0-.986-.537-1.952-1.782-1.952-1.156 0-2.072 1.025-2.072 2.27 0 1.335 1.046 2.302 2.191 2.302 1.215 0 1.663-1.106 1.663-1.295 0-.1-.08-.12-.129-.12-.09 0-.11.06-.13.14-.348 1.026-1.244 1.026-1.344 1.026-.498 0-.897-.3-1.125-.668-.3-.478-.3-1.135-.3-1.494"/>
    <path fill="gray" d="M225.326-121.885c.05-.129.05-.159.05-.179a.2.2 0 0 0-.2-.199c-.139 0-.179.1-.209.2l-3.396 9.383c-.05.13-.05.16-.05.179 0 .11.09.2.2.2.139 0 .178-.1.208-.2z"/>
    <path fill="none" stroke="gray" stroke-miterlimit="10" stroke-width=".399" d="M236.648-138.742h63.321"/>
    <path fill="none" stroke="gray" stroke-linecap="round" stroke-linejoin="round" stroke-miterlimit="10" stroke-width=".319" d="M298.774-140.336c.101.598 1.195 1.496 1.496 1.594-.301.102-1.395.996-1.496 1.594"/>
    <path fill="gray" d="M270.41-143.343c.049-.13.049-.16.049-.18a.2.2 0 0 0-.2-.199c-.139 0-.179.1-.209.2l-3.396 9.383c-.05.13-.05.16-.05.179 0 .11.09.2.2.2.139 0 .178-.1.208-.2zM238.66-144.976c0 .359-.02.468-.786.468h-.24v.309h5.748l.419-2.57h-.25c-.248 1.534-.478 2.261-2.191 2.261h-1.325c-.468 0-.488-.07-.488-.398v-2.66h.897c.966 0 1.076.319 1.076 1.165h.248v-2.64h-.248c0 .858-.11 1.166-1.076 1.166h-.897v-2.39c0-.329.02-.399.488-.399h1.285c1.524 0 1.793.548 1.953 1.932h.249l-.28-2.24h-5.607v.308h.239c.767 0 .787.11.787.468zm6.522-2.65v2.67c0 .448-.11.448-.777.448v.309c.349-.01.857-.03 1.126-.03.259 0 .777.02 1.115.03v-.309c-.667 0-.776 0-.776-.448v-1.833c0-1.036.707-1.594 1.344-1.594.628 0 .737.538.737 1.106v2.32c0 .45-.11.45-.776.45v.308c.348-.01.856-.03 1.125-.03.259 0 .777.02 1.116.03v-.309c-.518 0-.767 0-.777-.299v-1.902c0-.857 0-1.166-.31-1.524-.139-.17-.467-.369-1.045-.369-.727 0-1.195.429-1.474 1.046v-1.046l-1.405.11v.309c.697 0 .777.07.777.557m5.555.917c.06-1.484.897-1.733 1.236-1.733 1.025 0 1.125 1.344 1.125 1.733zm-.01.21h2.78c.219 0 .248 0 .248-.21 0-.986-.537-1.952-1.782-1.952-1.156 0-2.072 1.025-2.072 2.27 0 1.335 1.045 2.302 2.19 2.302 1.216 0 1.664-1.106 1.664-1.295 0-.1-.08-.12-.129-.12-.09 0-.11.06-.13.14-.348 1.026-1.245 1.026-1.344 1.026-.498 0-.897-.3-1.126-.668-.299-.478-.299-1.136-.299-1.494m4.985-1.007v-1.096l-1.384.11v.309c.697 0 .777.07.777.557v2.67c0 .448-.11.448-.777.448v.309c.388-.01.857-.03 1.135-.03.399 0 .867 0 1.266.03v-.309h-.21c-.737 0-.757-.11-.757-.468v-1.534c0-.986.418-1.873 1.176-1.873.07 0 .09 0 .11.01-.03.01-.23.13-.23.389 0 .279.21.428.428.428.18 0 .429-.12.429-.438s-.309-.608-.737-.608c-.727 0-1.086.668-1.226 1.096m4.45 1.594c-.866 0-.866-.996-.866-1.225 0-.27.01-.588.16-.837.079-.12.308-.399.707-.399.866 0 .866.996.866 1.226 0 .268-.01.587-.159.836-.08.12-.309.399-.707.399m-1.155.388c0-.04 0-.269.17-.468.388.279.796.309.986.309.926 0 1.613-.688 1.613-1.454 0-.37-.16-.738-.408-.967.359-.338.717-.388.896-.388.02 0 .07 0 .1.01-.11.04-.16.15-.16.269 0 .169.13.288.29.288.1 0 .288-.07.288-.298 0-.17-.12-.488-.508-.488-.199 0-.637.06-1.055.468a1.66 1.66 0 0 0-1.056-.359c-.927 0-1.614.687-1.614 1.455 0 .438.22.816.468 1.025-.13.15-.308.479-.308.827 0 .31.129.688.438.887-.598.169-.917.597-.917.996 0 .717.986 1.265 2.202 1.265 1.175 0 2.211-.508 2.211-1.285 0-.349-.14-.857-.647-1.135-.529-.28-1.106-.28-1.714-.28-.249 0-.677 0-.747-.01-.319-.04-.528-.348-.528-.667m1.435 3.148c-1.006 0-1.694-.508-1.694-1.036 0-.458.379-.827.817-.857h.588c.856 0 1.972 0 1.972.857 0 .538-.707 1.036-1.683 1.036m6.624-5.17c.26-.627.768-.637.927-.637v-.31c-.23.02-.518.03-.747.03-.18 0-.648-.02-.867-.03v.31c.309.01.468.179.468.428 0 .1-.01.12-.06.239l-1.005 2.45-1.106-2.68c-.04-.099-.06-.139-.06-.179 0-.258.368-.258.558-.258v-.31c-.26.01-.917.03-1.086.03-.269 0-.667-.01-.966-.03v.31c.478 0 .667 0 .807.348l1.494 3.636c-.05.13-.19.458-.25.588-.218.548-.497 1.235-1.135 1.235-.05 0-.279 0-.468-.18.309-.04.389-.258.389-.418 0-.259-.19-.418-.419-.418-.199 0-.418.13-.418.428 0 .448.418.807.916.807.628 0 1.036-.568 1.275-1.135zM272.618-146.71c.06-1.483.897-1.732 1.235-1.732 1.026 0 1.126 1.344 1.126 1.733zm-.01.21h2.78c.219 0 .248 0 .248-.21 0-.985-.538-1.951-1.783-1.951-1.155 0-2.072 1.025-2.072 2.27 0 1.335 1.046 2.302 2.192 2.302 1.215 0 1.663-1.106 1.663-1.295 0-.1-.08-.12-.13-.12-.089 0-.109.06-.128.14-.35 1.026-1.246 1.026-1.345 1.026-.498 0-.897-.3-1.126-.668-.299-.478-.299-1.136-.299-1.494m6.18-.04c.3-.378.678-.867.917-1.126.309-.358.717-.507 1.185-.517v-.31c-.259.02-.557.03-.816.03-.3 0-.827-.02-.957-.03v.31c.21.02.29.149.29.308 0 .16-.1.29-.15.349l-.618.777-.777-1.006c-.09-.1-.09-.12-.09-.18 0-.149.15-.238.35-.248v-.31c-.26.01-.917.03-1.077.03-.209 0-.677-.01-.946-.03v.31c.697 0 .707.01 1.175.607l.987 1.285-.937 1.185a1.6 1.6 0 0 1-1.274.598v.309c.258-.02.567-.03.826-.03.29 0 .707.02.946.03v-.309c-.219-.03-.288-.16-.288-.309 0-.219.288-.547.896-1.265l.757.996c.08.11.21.27.21.33 0 .089-.09.238-.36.248v.309c.3-.01.858-.03 1.077-.03.269 0 .657.01.956.03v-.309c-.538 0-.717-.02-.946-.309zm4.113-1.404v-.658l-1.434.11v.309c.707 0 .777.06.777.497v4.662c0 .449-.11.449-.777.449v.308c.339-.01.857-.03 1.116-.03.268 0 .777.02 1.125.03v-.308c-.667 0-.777 0-.777-.449v-1.7630000000000001c.05.16.468.698 1.225.698 1.186 0 2.222-.977 2.222-2.262 0-1.265-.967-2.25-2.082-2.25-.777 0-1.195.437-1.395.657m.03 2.61v-2.222c.29-.508.777-.797 1.285-.797.727 0 1.335.877 1.335 2.002 0 1.206-.697 2.042-1.434 2.042-.399 0-.777-.199-1.046-.607-.14-.21-.14-.22-.14-.419M291.692-146.33c0-1.276-.996-2.331-2.202-2.331-1.245 0-2.21 1.085-2.21 2.33a2.223 2.223 0 0 0 2.2 2.242 2.22 2.22 0 0 0 2.212-2.242m-2.202 1.992c-.428 0-.866-.21-1.135-.668-.25-.438-.25-1.046-.25-1.404 0-.389 0-.927.24-1.365.269-.458.737-.667 1.135-.667.439 0 .867.219 1.126.647.26.428.26 1.006.26 1.385 0 .358 0 .896-.22 1.334-.22.449-.657.738-1.156.738m4.155-3.168v-1.096l-1.385.11v.309c.698 0 .777.07.777.557v2.67c0 .448-.11.448-.777.448v.309c.389-.01.857-.03 1.136-.03.398 0 .867 0 1.265.03v-.309h-.21c-.737 0-.756-.11-.756-.468v-1.534c0-.986.418-1.873 1.175-1.873.07 0 .09 0 .11.01-.03.01-.23.13-.23.389 0 .279.21.428.429.428.18 0 .428-.12.428-.438s-.308-.608-.737-.608c-.727 0-1.086.668-1.225 1.096m3.962-.677h1.424v-.31h-1.424v-1.832h-.249c-.01.817-.309 1.883-1.285 1.922v.22h.847v2.749c0 1.225.926 1.345 1.285 1.345.707 0 .986-.708.986-1.345v-.568h-.25v.548c0 .737-.298 1.116-.667 1.116-.667 0-.667-.907-.667-1.076z"/>
    <path fill="none" stroke="gray" stroke-miterlimit="10" stroke-width=".399" d="M381.684-195.434h-77.071a3.98 3.98 0 0 0-3.984 3.985v105.418a3.983 3.983 0 0 0 3.984 3.984h77.071a3.986 3.986 0 0 0 3.984-3.984v-105.418a3.983 3.983 0 0 0-3.984-3.985Z"/>
    <path fill="gray" d="M321.434-136.115c0 .359-.02.468-.787.468h-.24v.309h5.748l.419-2.57h-.25c-.248 1.534-.478 2.261-2.19 2.261h-1.326c-.468 0-.488-.07-.488-.398v-2.66h.897c.966 0 1.076.319 1.076 1.165h.248v-2.64h-.248c0 .858-.11 1.166-1.076 1.166h-.897v-2.39c0-.329.02-.399.488-.399h1.285c1.524 0 1.793.548 1.953 1.932h.249l-.28-2.24h-5.607v.308h.239c.767 0 .787.11.787.468zm6.59-1.395c0-1.623.818-2.042 1.346-2.042.09 0 .717.01 1.065.369-.408.03-.468.329-.468.458 0 .26.18.458.459.458.259 0 .458-.169.458-.468 0-.677-.757-1.066-1.524-1.066-1.246 0-2.162 1.076-2.162 2.311 0 1.275.986 2.262 2.142 2.262 1.335 0 1.653-1.196 1.653-1.295s-.1-.1-.13-.1c-.089 0-.109.04-.128.1-.29.926-.937 1.046-1.306 1.046-.527 0-1.404-.429-1.404-2.033m7.955.04c0-1.275-.997-2.33-2.202-2.33-1.245 0-2.211 1.085-2.211 2.33a2.223 2.223 0 0 0 2.201 2.242 2.22 2.22 0 0 0 2.212-2.242m-2.202 1.993c-.428 0-.866-.21-1.135-.668-.25-.438-.25-1.046-.25-1.404 0-.389 0-.927.24-1.365a1.34 1.34 0 0 1 1.135-.667c.438 0 .867.219 1.126.647s.259 1.006.259 1.385c0 .358 0 .896-.22 1.334-.219.449-.657.738-1.155.738m3.587-3.288v2.67c0 .448-.11.448-.777.448v.309c.349-.01.856-.03 1.125-.03.26 0 .777.02 1.116.03v-.309c-.667 0-.777 0-.777-.448v-1.833c0-1.036.707-1.594 1.345-1.594.627 0 .737.538.737 1.106v2.32c0 .45-.11.45-.777.45v.308c.349-.01.857-.03 1.126-.03.258 0 .777.02 1.115.03v-.309c-.518 0-.767 0-.777-.299v-1.902c0-.857 0-1.166-.308-1.524-.14-.17-.469-.369-1.046-.369-.728 0-1.196.429-1.475 1.046v-1.046l-1.404.11v.309c.697 0 .777.07.777.557m9.131 1.295c0-1.275-.996-2.33-2.202-2.33-1.245 0-2.21 1.085-2.21 2.33a2.223 2.223 0 0 0 2.2 2.242 2.22 2.22 0 0 0 2.212-2.242m-2.202 1.993c-.428 0-.866-.21-1.135-.668-.25-.438-.25-1.046-.25-1.404 0-.389 0-.927.24-1.365.269-.458.737-.667 1.135-.667.439 0 .867.219 1.126.647.26.428.26 1.006.26 1.385 0 .358 0 .896-.22 1.334-.22.449-.657.738-1.156.738m3.587-3.288v2.67c0 .448-.11.448-.777.448v.309c.349-.01.857-.03 1.126-.03.259 0 .777.02 1.115.03v-.309c-.667 0-.776 0-.776-.448v-1.833c0-1.036.707-1.594 1.344-1.594.628 0 .738.538.738 1.106v2.32c0 .45-.11.45-.777.45v.308c.348-.01.856-.03 1.125-.03.259 0 .777.02 1.116.03v-.309c-.668 0-.777 0-.777-.448v-1.833c0-1.036.707-1.594 1.345-1.594.627 0 .736.538.736 1.106v2.32c0 .45-.109.45-.776.45v.308c.348-.01.856-.03 1.125-.03.26 0 .777.02 1.116.03v-.309c-.518 0-.767 0-.777-.299v-1.902c0-.857 0-1.166-.309-1.524-.14-.17-.468-.369-1.046-.369-.837 0-1.275.598-1.444.976-.14-.866-.877-.976-1.325-.976-.727 0-1.195.429-1.474 1.046v-1.046l-1.405.11v.309c.697 0 .777.07.777.557m8.97-.976-1.395.11v.309c.647 0 .737.06.737.547v2.68c0 .448-.11.448-.777.448v.309c.319-.01.857-.03 1.096-.03.348 0 .697.02 1.036.03v-.309c-.658 0-.698-.05-.698-.438zm.04-1.733a.52.52 0 0 0-.529-.528.54.54 0 0 0-.528.528c0 .269.22.528.528.528.28 0 .528-.21.528-.528m2.13 3.964c0-1.623.816-2.042 1.344-2.042.09 0 .717.01 1.066.369-.408.03-.468.329-.468.458 0 .26.179.458.458.458.259 0 .458-.169.458-.468 0-.677-.757-1.066-1.524-1.066-1.245 0-2.161 1.076-2.161 2.311 0 1.275.986 2.262 2.141 2.262 1.335 0 1.654-1.196 1.654-1.295s-.1-.1-.13-.1c-.09 0-.11.04-.13.1-.288.926-.936 1.046-1.304 1.046-.528 0-1.405-.429-1.405-2.033m5.333.24c.22.04 1.036.199 1.036.916 0 .508-.349.906-1.126.906-.836 0-1.195-.568-1.384-1.414-.03-.13-.04-.17-.14-.17-.13 0-.13.07-.13.25v1.315c0 .169 0 .239.11.239.05 0 .06-.01.25-.2.02-.02.02-.04.199-.229.438.419.886.429 1.095.429 1.146 0 1.604-.668 1.604-1.385 0-.528-.299-.827-.418-.946-.329-.319-.718-.399-1.136-.478-.558-.11-1.225-.24-1.225-.817 0-.349.26-.757 1.116-.757 1.095 0 1.145.896 1.165 1.205.01.09.1.09.12.09.129 0 .129-.05.129-.24v-1.005c0-.17 0-.24-.11-.24-.05 0-.069 0-.199.12-.03.04-.13.13-.17.16-.377-.28-.786-.28-.935-.28-1.216 0-1.594.668-1.594 1.225 0 .35.16.628.428.847.32.26.598.32 1.315.458"/>
    <path fill="#00f" d="M337.13-88.736c.175 0 .223 0 .223-.183 0-.71-.39-1.554-1.514-1.554-.988 0-1.76.82-1.76 1.809 0 1.028.86 1.825 1.864 1.825 1.012 0 1.41-.853 1.41-1.036 0-.032-.024-.112-.127-.112-.088 0-.104.056-.12.104a1.16 1.16 0 0 1-1.115.797c-.36 0-.726-.168-.965-.534-.239-.367-.239-.877-.239-1.116zm-2.335-.207c.072-1.116.75-1.307 1.044-1.307.933 0 .964 1.124.972 1.307zm5.74-1.14a.35.35 0 0 0-.255.351.36.36 0 0 0 .374.375.36.36 0 0 0 .375-.383c0-.494-.542-.733-1.29-.733a1.83 1.83 0 0 0-1.858 1.833c0 1.012.829 1.8 1.833 1.8 1.123 0 1.403-.94 1.403-1.035 0-.096-.104-.096-.128-.096-.056 0-.096.008-.12.088-.055.167-.278.797-1.075.797-.494 0-1.203-.383-1.203-1.562 0-1.148.59-1.578 1.17-1.578.073 0 .495 0 .774.144m4.815 1.467c0-.996-.82-1.857-1.873-1.857-1.051 0-1.872.86-1.872 1.857 0 .996.852 1.777 1.872 1.777 1.029 0 1.873-.781 1.873-1.777m-1.873 1.53c-.43 0-.765-.207-.94-.486-.199-.327-.223-.718-.223-1.116 0-.303 0-.781.247-1.123.207-.28.542-.439.916-.439.415 0 .758.2.94.478.216.335.224.765.224 1.084 0 .367-.016.805-.24 1.14-.214.318-.573.462-.924.462m5.996-2.247c0-.67-.303-1.1-1.14-1.1-.788 0-1.147.574-1.243.765h-.007v-.765l-1.156.088v.263c.542 0 .606.055.606.446v2.095c0 .36-.096.36-.606.36v.262c.343-.024.693-.024.908-.024.232 0 .566 0 .909.024v-.263c-.51 0-.606 0-.606-.359v-1.442c0-.837.638-1.227 1.124-1.227s.605.343.605.845v1.824c0 .36-.095.36-.605.36v.262c.342-.024.693-.024.908-.024.231 0 .566 0 .909.024v-.263c-.51 0-.606 0-.606-.359zm4.816.717a1.872 1.872 0 0 0-3.745 0c0 .996.853 1.777 1.873 1.777 1.028 0 1.872-.781 1.872-1.777m-1.872 1.53c-.43 0-.765-.207-.94-.486-.2-.327-.224-.718-.224-1.116 0-.303 0-.781.247-1.123.207-.28.542-.439.917-.439.414 0 .757.2.94.478.215.335.223.765.223 1.084 0 .367-.016.805-.239 1.14-.215.318-.574.462-.924.462m8.346-2.247c0-.646-.28-1.1-1.148-1.1-.733 0-1.1.502-1.227.733-.143-.574-.598-.733-1.115-.733-.773 0-1.14.55-1.244.765h-.007v-.765l-1.156.088v.263c.542 0 .606.055.606.446v2.095c0 .36-.096.36-.606.36v.262c.343-.024.694-.024.909-.024.23 0 .565 0 .908.024v-.263c-.51 0-.606 0-.606-.359v-1.442c0-.837.63-1.227 1.132-1.227.518 0 .606.406.606.845v1.824c0 .36-.096.36-.606.36v.262c.343-.024.693-.024.908-.024.231 0 .566 0 .909.024v-.263c-.51 0-.606 0-.606-.359v-1.442c0-.837.63-1.227 1.132-1.227.517 0 .605.406.605.845v1.824c0 .36-.095.36-.605.36v.262c.342-.024.693-.024.908-.024.231 0 .566 0 .908.024v-.263c-.51 0-.605 0-.605-.359zm2.387-2.494a.445.445 0 0 0-.446-.447.443.443 0 1 0 .446.446m-1.195 1.482v.263c.51 0 .582.047.582.438v2.103c0 .36-.096.36-.606.36v.262c.31-.024.757-.024.877-.024.103 0 .581 0 .86.024v-.263c-.518 0-.55-.04-.55-.35v-2.901zm4.926.263a.35.35 0 0 0-.255.35.36.36 0 0 0 .374.375.36.36 0 0 0 .374-.383c0-.494-.541-.733-1.29-.733a1.83 1.83 0 0 0-1.857 1.833c0 1.012.829 1.8 1.833 1.8 1.123 0 1.402-.94 1.402-1.035 0-.096-.103-.096-.127-.096-.056 0-.096.008-.12.088-.056.167-.279.797-1.076.797-.494 0-1.203-.383-1.203-1.562 0-1.148.59-1.578 1.172-1.578.071 0 .494 0 .773.144m3.668-.184c0-.127 0-.207-.104-.207-.04 0-.064 0-.192.128-.015.008-.087.08-.111.08-.008 0-.024 0-.072-.032-.127-.088-.358-.176-.717-.176-1.115 0-1.363.606-1.363.988 0 .399.295.63.32.654.318.239.501.27 1.035.366.375.072.988.184.988.725 0 .311-.207.678-.94.678-.805 0-1.036-.622-1.14-1.044-.031-.104-.04-.144-.135-.144-.128 0-.128.064-.128.215v.989c0 .127 0 .207.104.207.048 0 .056-.008.2-.16.04-.04.127-.143.167-.183.358.327.733.343.94.343 1.012 0 1.363-.582 1.363-1.108 0-.382-.231-.94-1.18-1.115a10 10 0 0 0-.542-.096c-.247-.056-.621-.223-.621-.542 0-.239.175-.574.932-.574.893 0 .932.654.948.877.008.064.064.087.12.087.127 0 .127-.055.127-.207zm2.12 2.909a.44.44 0 0 0-.438-.446.44.44 0 0 0-.446.438c0 .27.215.446.438.446.271 0 .446-.215.446-.438m2.83 1.72c-.51 0-.605 0-.605-.358v-1.314c.375.406.78.47 1.036.47 1.012 0 1.888-.781 1.888-1.801 0-.996-.804-1.793-1.769-1.793-.31 0-.773.08-1.179.494v-.494l-1.187.088v.263c.565 0 .605.047.605.382v3.705c0 .359-.096.359-.606.359v.263c.343-.024.694-.024.909-.024.231 0 .566 0 .908.024zm-.605-3.935a1.27 1.27 0 0 1 1.084-.614c.613 0 1.131.677 1.131 1.546 0 .916-.574 1.578-1.219 1.578-.279 0-.646-.12-.9-.518-.096-.136-.096-.144-.096-.295zM381.396-89.549c.199-.454.494-.533.756-.542v-.262c-.278.024-.294.024-.629.024-.032 0-.454 0-.685-.024v.262c.231.016.342.144.342.327a.5.5 0 0 1-.048.2l-.852 1.928-.924-2.088c-.056-.12-.056-.135-.056-.167 0-.191.247-.2.422-.2v-.262c-.358.024-.701.024-.876.024-.168 0-.55 0-.805-.024v.262c.414 0 .526.016.661.32l1.26 2.852c-.36.845-.598 1.403-1.156 1.403-.2 0-.327-.096-.327-.096a.345.345 0 0 0 .24-.335c0-.223-.168-.343-.343-.343-.16 0-.343.104-.343.351 0 .35.343.646.773.646.709 0 1.091-.853 1.123-.933z"/>
    <path fill="none" stroke="gray" stroke-miterlimit="10" stroke-width=".399" d="M357.387-81.391v42.063"/>
    <path fill="none" stroke="gray" stroke-linecap="round" stroke-linejoin="round" stroke-miterlimit="10" stroke-width=".319" d="M355.793-80.195c.598-.098 1.496-1.196 1.594-1.493.102.297.996 1.395 1.594 1.493"/>
    <path fill="gray" d="M357.943-5.393c.04-.219.2-1.036.917-1.036.508 0 .906.349.906 1.126 0 .836-.568 1.195-1.414 1.384-.13.03-.17.04-.17.14 0 .13.07.13.25.13h1.315c.169 0 .239 0 .239-.11 0-.05-.01-.06-.2-.25-.02-.02-.04-.02-.229-.199.419-.438.429-.886.429-1.095 0-1.146-.668-1.604-1.385-1.604-.528 0-.827.299-.946.418-.319.329-.399.718-.478 1.136-.11.558-.24 1.225-.817 1.225-.349 0-.757-.259-.757-1.115 0-1.096.896-1.146 1.205-1.166.09-.01.09-.1.09-.12 0-.129-.05-.129-.24-.129h-1.005c-.17 0-.24 0-.24.11 0 .05 0 .07.12.199.04.03.13.13.16.17-.28.378-.28.786-.28.936 0 1.215.668 1.593 1.225 1.593.35 0 .628-.16.847-.428.26-.319.32-.598.458-1.315m1.146-5.752h.897l-.11-1.435h-.309c0 .698-.07.778-.558.778h-3.536l.11 1.464h.309c0-.698.07-.777.557-.777h1.774c.866 0 1.543.478 1.543 1.205 0 .837-.468.877-.986.877h-3.307l.11 1.464h.309c0-.777.03-.777.916-.777h1.494c.777 0 1.684 0 1.684-1.514 0-.558-.28-.996-.897-1.285m-2.968-3.354h-3.158l.11 1.435h.308c0-.698.07-.777.558-.777h5.937v-.25c-.01-.01-.15-.089-.618-.358.23-.15.728-.568.728-1.305 0-1.185-.977-2.221-2.262-2.221-1.265 0-2.25.976-2.25 2.111 0 .778.467 1.206.647 1.365m2.62-.03h-2.053c-.189 0-.199 0-.358-.11a1.44 1.44 0 0 1-.638-1.175c0-.448.26-.806.638-1.045.408-.26.976-.29 1.384-.29.369 0 .967.02 1.415.31.309.209.637.587.637 1.125 0 .448-.239.807-.607 1.046-.21.14-.24.14-.419.14m-.798-5.863c.04-.22.2-1.036.917-1.036.508 0 .906.348.906 1.125 0 .837-.568 1.196-1.414 1.385-.13.03-.17.04-.17.14 0 .129.07.129.25.129h1.315c.169 0 .239 0 .239-.11 0-.05-.01-.06-.2-.249-.02-.02-.04-.02-.229-.2.419-.437.429-.886.429-1.095 0-1.145-.668-1.604-1.385-1.604-.528 0-.827.3-.946.419-.319.328-.399.717-.478 1.135-.11.558-.24 1.226-.817 1.226-.349 0-.757-.26-.757-1.116 0-1.096.896-1.146 1.205-1.166.09-.01.09-.099.09-.119 0-.13-.05-.13-.24-.13h-1.005c-.17 0-.24 0-.24.11 0 .05 0 .07.12.2.04.029.13.129.16.169-.28.378-.28.787-.28.936 0 1.215.668 1.594 1.225 1.594.35 0 .628-.16.847-.429.26-.319.32-.597.458-1.314m-2.47-3.62.11 1.394h.309c0-.648.06-.737.547-.737h2.68c.448 0 .448.109.448.776h.309c-.01-.318-.03-.856-.03-1.095 0-.349.02-.698.03-1.036h-.309c0 .657-.05.697-.438.697zm-1.733-.04a.52.52 0 0 0-.528.527c0 .309.269.528.528.528.269 0 .528-.219.528-.528 0-.279-.21-.528-.528-.528m5.588-4.75h.658l-.11-1.465h-.309c0 .697-.07.777-.558.777h-6.046l.11 1.435h.308c0-.698.07-.777.558-.777h2.152a1.59 1.59 0 0 0-.618 1.255c0 1.175.976 2.22 2.261 2.22 1.265 0 2.252-.975 2.252-2.11 0-.638-.34-1.087-.658-1.336m-2.67 0h2.043c.179 0 .199 0 .368.11.478.298.697.746.697 1.174 0 .449-.258.807-.637 1.046-.409.26-.976.29-1.385.29-.368 0-.966-.02-1.414-.31-.309-.209-.638-.587-.638-1.125 0-.349.15-.767.598-1.076.17-.11.19-.11.368-.11m-.129-5.884c-.627-.26-.637-.767-.637-.927h-.31c.02.23.03.518.03.747 0 .18-.02.648-.03.867h.31c.01-.309.179-.468.428-.468.1 0 .12.01.239.06l2.45 1.005-2.68 1.106c-.099.04-.139.06-.179.06-.258 0-.258-.368-.258-.558h-.31c.01.26.03.917.03 1.086 0 .269-.01.667-.03.966h.31c0-.478 0-.667.348-.807l3.636-1.494c.13.05.458.19.588.25.548.218 1.235.497 1.235 1.135 0 .05 0 .279-.18.468-.04-.309-.258-.388-.418-.388-.259 0-.418.189-.418.418 0 .2.13.418.428.418.448 0 .807-.418.807-.916 0-.628-.568-1.036-1.135-1.275z"/>
    <path fill="none" stroke="gray" stroke-miterlimit="10" stroke-width=".399" d="M328.91-81.391v42.063"/>
    <path fill="none" stroke="gray" stroke-linecap="round" stroke-linejoin="round" stroke-miterlimit="10" stroke-width=".319" d="M327.317-80.195c.597-.098 1.492-1.196 1.594-1.493.097.297.996 1.395 1.593 1.493"/>
    <path fill="gray" d="m325.453-5.194.11 1.434h.308c0-.697.07-.777.558-.777h5.18c.448 0 .448.11.448.777h.309c-.01-.328-.03-.856-.03-1.105s.02-.738.03-1.106h-.309c0 .667 0 .777-.448.777zm2.51-2.768.11 1.395h.309c0-.647.06-.737.547-.737h2.68c.448 0 .448.11.448.777h.309c-.01-.319-.03-.857-.03-1.096 0-.349.02-.697.03-1.036h-.309c0 .657-.05.697-.438.697zm-1.733-.04a.52.52 0 0 0-.528.528c0 .31.269.528.528.528.269 0 .528-.219.528-.528 0-.279-.21-.528-.528-.528m1.843-2.707h-1.156c-.876 0-1.354-.478-1.354-.917 0-.03 0-.18.07-.329.039.12.169.3.418.3.229 0 .428-.16.428-.429 0-.289-.2-.438-.438-.438-.369 0-.698.368-.698.896 0 .697.528 1.544 1.584 1.544h1.146v.787h.309v-.787h3.227c.448 0 .448.11.448.777h.309c-.01-.388-.03-.856-.03-1.136 0-.398 0-.866.03-1.264h-.309v.209c0 .737-.11.757-.468.757h-3.207v-1.136h-.31zm1.783-2.417c-1.484-.06-1.733-.897-1.733-1.236 0-1.025 1.344-1.125 1.733-1.125zm.21.01v-2.78c0-.219 0-.248-.21-.248-.986 0-1.952.537-1.952 1.782 0 1.156 1.025 2.072 2.27 2.072 1.335 0 2.302-1.045 2.302-2.191 0-1.215-1.106-1.663-1.295-1.663-.1 0-.12.08-.12.129 0 .09.06.11.14.13 1.026.348 1.026 1.245 1.026 1.344 0 .498-.3.897-.668 1.126-.478.299-1.135.299-1.494.299m-1.684-5.045v-1.425h-.31v1.425h-1.832v.249c.817.01 1.883.309 1.922 1.285h.22v-.847h2.749c1.225 0 1.345-.927 1.345-1.285 0-.707-.708-.986-1.345-.986h-.568v.249h.548c.737 0 1.116.299 1.116.667 0 .668-.907.668-1.076.668zm-.419-3.915.11 1.395h.309c0-.647.06-.737.547-.737h2.68c.448 0 .448.11.448.777h.309c-.01-.319-.03-.857-.03-1.096 0-.349.02-.697.03-1.036h-.309c0 .657-.05.697-.438.697zm-1.733-.04a.52.52 0 0 0-.528.529c0 .308.269.527.528.527.269 0 .528-.219.528-.527a.52.52 0 0 0-.528-.529m2.71-2.06h2.669c.448 0 .448.11.448.777h.309c-.01-.348-.03-.856-.03-1.125 0-.26.02-.777.03-1.116h-.309c0 .668 0 .777-.448.777h-1.833c-1.036 0-1.594-.707-1.594-1.345 0-.627.538-.737 1.106-.737h2.32c.45 0 .45.11.45.777h.308c-.01-.349-.03-.857-.03-1.126 0-.258.02-.777.03-1.115h-.309c0 .667 0 .777-.448.777h-1.833c-1.036 0-1.594-.707-1.594-1.345 0-.628.538-.737 1.106-.737h2.32c.45 0 .45.11.45.777h.308c-.01-.349-.03-.857-.03-1.126 0-.259.02-.777.03-1.116h-.309c0 .518 0 .767-.298.777h-1.903c-.857 0-1.166 0-1.524.31-.17.139-.369.468-.369 1.045 0 .837.598 1.275.976 1.445-.866.14-.976.876-.976 1.325 0 .727.429 1.195 1.046 1.474h-1.046l.11 1.404h.309c0-.697.07-.777.557-.777m.916-8.322c-1.484-.06-1.733-.896-1.733-1.235 0-1.026 1.344-1.125 1.733-1.125zm.21.01v-2.779c0-.219 0-.249-.21-.249-.986 0-1.952.538-1.952 1.783 0 1.156 1.025 2.072 2.27 2.072 1.335 0 2.302-1.045 2.302-2.191 0-1.216-1.106-1.664-1.295-1.664-.1 0-.12.08-.12.13 0 .09.06.11.14.13 1.026.348 1.026 1.245 1.026 1.344 0 .498-.3.896-.668 1.126-.478.299-1.135.299-1.494.299"/>
    <path fill="none" stroke="gray" stroke-miterlimit="10" stroke-width=".399" d="M385.867-172.879h56.235"/>
    <path fill="none" stroke="gray" stroke-linecap="round" stroke-linejoin="round" stroke-miterlimit="10" stroke-width=".319" d="M440.906-174.472c.101.597 1.195 1.496 1.496 1.593-.3.102-1.395.996-1.496 1.594"/>
    <path fill="gray" d="M451.875-172.043h-.25c-.11 1.016-.249 2.261-2.002 2.261h-.817c-.468 0-.488-.07-.488-.398v-5.31c0-.338 0-.478.947-.478h.328v-.308c-.358.03-1.265.03-1.673.03-.389 0-1.165 0-1.514-.03v.308h.239c.767 0 .787.11.787.468v5.25c0 .359-.02.468-.787.468h-.24v.309h5.19zm.986-.837c0 2.062 1.614 3.626 3.467 3.626 1.624 0 2.6-1.384 2.6-2.54 0-.1 0-.17-.13-.17-.11 0-.11.06-.12.16-.079 1.424-1.145 2.241-2.23 2.241-.608 0-2.56-.338-2.56-3.307 0-2.978 1.942-3.317 2.55-3.317 1.085 0 1.972.907 2.17 2.36.02.14.02.17.16.17.16 0 .16-.03.16-.239v-2.36c0-.17 0-.24-.11-.24-.04 0-.08 0-.16.12l-.497.737c-.369-.359-.877-.857-1.833-.857-1.863 0-3.467 1.584-3.467 3.616m13.82.03c0-2.032-1.505-3.646-3.317-3.646-1.784 0-3.308 1.594-3.308 3.646 0 2.042 1.534 3.596 3.308 3.596 1.812 0 3.317-1.584 3.317-3.596m-3.308 3.337c-.956 0-2.29-.877-2.29-3.476 0-2.58 1.454-3.258 2.28-3.258.867 0 2.291.708 2.291 3.258 0 2.64-1.364 3.476-2.28 3.476m5.23-.737c0 .359-.02.468-.788.468h-.239v.309h5.748l.418-2.57h-.249c-.249 1.534-.478 2.261-2.192 2.261h-1.324c-.468 0-.488-.07-.488-.398v-2.66h.896c.966 0 1.076.319 1.076 1.165h.249v-2.64h-.249c0 .858-.11 1.166-1.076 1.166h-.896v-2.39c0-.329.02-.399.488-.399h1.285c1.524 0 1.793.548 1.952 1.933h.25l-.28-2.242h-5.608v.31h.24c.766 0 .786.109.786.467z"/>
    <path fill="none" stroke="gray" stroke-miterlimit="10" stroke-width=".399" d="M385.867-150.121h56.235"/>
    <path fill="none" stroke="gray" stroke-linecap="round" stroke-linejoin="round" stroke-miterlimit="10" stroke-width=".319" d="M440.906-151.714c.101.597 1.195 1.496 1.496 1.593-.3.102-1.395.996-1.496 1.594"/>
    <path fill="gray" d="M448.308-150.233v-2.58c0-.23 0-.349.22-.379.099-.02.388-.02.587-.02.897 0 2.012.04 2.012 1.484 0 .688-.239 1.495-1.713 1.495zm2.102.13c.966-.24 1.743-.847 1.743-1.625 0-.956-1.135-1.792-2.6-1.792h-3.127v.308h.239c.767 0 .787.11.787.468v5.25c0 .359-.02.468-.787.468h-.24v.309c.36-.03 1.066-.03 1.455-.03s1.096 0 1.454.03v-.309h-.239c-.767 0-.787-.11-.787-.468v-2.52h1.146c.16 0 .578 0 .926.339.379.358.379.667.379 1.334 0 .648 0 1.046.408 1.425.408.358.957.418 1.255.418.777 0 .947-.817.947-1.096 0-.06 0-.169-.13-.169-.11 0-.11.09-.12.16-.06.707-.408.886-.657.886-.488 0-.567-.508-.707-1.434l-.13-.797c-.179-.638-.667-.967-1.215-1.156M460.312-150.094c0-2.032-1.504-3.646-3.317-3.646-1.783 0-3.307 1.594-3.307 3.646 0 2.042 1.534 3.596 3.307 3.596 1.813 0 3.317-1.584 3.317-3.596m-3.307 3.337c-.956 0-2.291-.877-2.291-3.476 0-2.58 1.454-3.258 2.281-3.258.867 0 2.291.708 2.291 3.258 0 2.64-1.365 3.476-2.28 3.476m6.115-5.987c0-.358.03-.468.817-.468h.26v-.308c-.35.03-1.137.03-1.515.03-.389 0-1.175 0-1.524-.03v.308h.259c.787 0 .817.11.817.468v5.25c0 .359-.03.468-.817.468h-.259v.309c.349-.03 1.135-.03 1.514-.03.388 0 1.175 0 1.524.03v-.309h-.259c-.787 0-.817-.11-.817-.468z"/>
    <path fill="none" stroke="gray" stroke-miterlimit="10" stroke-width=".399" d="M385.867-127.363h56.235"/>
    <path fill="none" stroke="gray" stroke-linecap="round" stroke-linejoin="round" stroke-miterlimit="10" stroke-width=".319" d="M440.906-128.957c.101.597 1.195 1.492 1.496 1.593-.3.098-1.395.996-1.496 1.594"/>
    <path fill="gray" d="M447.173-127.464v2.67c0 .448-.11.448-.777.448v.309c.349-.01.856-.03 1.125-.03.26 0 .777.02 1.116.03v-.309c-.667 0-.777 0-.777-.448v-1.833c0-1.036.707-1.594 1.345-1.594.627 0 .737.538.737 1.106v2.32c0 .45-.11.45-.777.45v.308c.349-.01.857-.03 1.126-.03.259 0 .777.02 1.115.03v-.309c-.667 0-.777 0-.777-.448v-1.833c0-1.036.707-1.594 1.345-1.594.628 0 .737.538.737 1.106v2.32c0 .45-.11.45-.777.45v.308c.349-.01.857-.03 1.126-.03.259 0 .777.02 1.115.03v-.309c-.517 0-.766 0-.776-.298v-1.903c0-.857 0-1.166-.31-1.524-.139-.17-.468-.369-1.045-.369-.837 0-1.275.598-1.444.976-.14-.866-.877-.976-1.325-.976-.728 0-1.196.429-1.475 1.046v-1.046l-1.404.11v.309c.697 0 .777.07.777.557m10.523 2.67c.04.398.309.817.777.817.209 0 .817-.14.817-.947v-.557h-.25v.557c0 .578-.248.638-.358.638-.329 0-.369-.448-.369-.498v-1.992c0-.419 0-.807-.358-1.176a1.9 1.9 0 0 0-1.365-.547c-.816 0-1.504.468-1.504 1.125 0 .299.2.468.458.468.28 0 .459-.2.459-.458 0-.12-.05-.448-.509-.458.27-.349.758-.458 1.076-.458.488 0 1.056.388 1.056 1.275v.368c-.508.03-1.205.06-1.833.359-.747.339-.996.856-.996 1.295 0 .807.967 1.056 1.594 1.056.657 0 1.116-.399 1.305-.867m-.07-1.634v.996c0 .947-.717 1.285-1.165 1.285-.488 0-.897-.348-.897-.846 0-.548.419-1.375 2.062-1.435m3.497-2.012-1.394.11v.309c.647 0 .737.06.737.547v2.68c0 .448-.11.448-.777.448v.309c.319-.01.856-.03 1.095-.03.35 0 .698.02 1.036.03v-.309c-.657 0-.697-.05-.697-.438zm.04-1.733a.52.52 0 0 0-.528-.528.54.54 0 0 0-.528.528c0 .269.22.528.528.528.28 0 .528-.21.528-.528m2.06 2.71v2.669c0 .448-.11.448-.777.448v.309c.35-.01.857-.03 1.126-.03.26 0 .777.02 1.116.03v-.309c-.668 0-.777 0-.777-.448v-1.833c0-1.036.707-1.594 1.344-1.594.628 0 .738.538.738 1.106v2.32c0 .45-.11.45-.777.45v.308c.348-.01.856-.03 1.125-.03.26 0 .777.02 1.116.03v-.309c-.518 0-.767 0-.777-.298v-1.903c0-.857 0-1.166-.309-1.524-.14-.17-.468-.369-1.046-.369-.727 0-1.195.429-1.474 1.046v-1.046l-1.405.11v.309c.698 0 .777.07.777.557M469.104-128.021h1.424v-.31h-1.425v-1.832h-.249c-.01.817-.309 1.883-1.285 1.922v.22h.847v2.749c0 1.225.927 1.345 1.285 1.345.707 0 .986-.708.986-1.345v-.568h-.249v.548c0 .737-.299 1.116-.667 1.116-.668 0-.668-.907-.668-1.076zm3.266 1.474c.06-1.484.897-1.733 1.236-1.733 1.025 0 1.125 1.344 1.125 1.733zm-.01.21h2.78c.219 0 .248 0 .248-.21 0-.986-.537-1.952-1.782-1.952-1.156 0-2.072 1.025-2.072 2.27 0 1.335 1.045 2.302 2.19 2.302 1.216 0 1.664-1.106 1.664-1.295 0-.1-.08-.12-.13-.12-.089 0-.109.06-.128.14-.35 1.026-1.246 1.026-1.346 1.026-.497 0-.896-.3-1.125-.668-.299-.478-.299-1.135-.299-1.494m4.417-1.127v2.67c0 .448-.109.448-.776.448v.309c.348-.01.856-.03 1.125-.03.26 0 .777.02 1.116.03v-.309c-.668 0-.777 0-.777-.448v-1.833c0-1.036.707-1.594 1.345-1.594.627 0 .737.538.737 1.106v2.32c0 .45-.11.45-.777.45v.308c.348-.01.857-.03 1.126-.03.258 0 .776.02 1.115.03v-.309c-.518 0-.767 0-.777-.298v-1.903c0-.857 0-1.166-.309-1.524-.14-.17-.468-.369-1.046-.369-.727 0-1.195.429-1.474 1.046v-1.046l-1.404.11v.309c.697 0 .776.07.776.557m7.757 2.67c.04.398.309.817.777.817.21 0 .817-.14.817-.947v-.557h-.25v.557c0 .578-.248.638-.358.638-.329 0-.368-.448-.368-.498v-1.992c0-.419 0-.807-.359-1.176a1.9 1.9 0 0 0-1.365-.547c-.816 0-1.504.468-1.504 1.125 0 .299.2.468.458.468.28 0 .459-.2.459-.458 0-.12-.05-.448-.508-.458.269-.349.757-.458 1.076-.458.488 0 1.055.388 1.055 1.275v.368c-.508.03-1.205.06-1.833.359-.746.339-.995.856-.995 1.295 0 .807.966 1.056 1.593 1.056.658 0 1.116-.399 1.305-.867m-.07-1.634v.996c0 .947-.717 1.285-1.165 1.285-.488 0-.897-.348-.897-.846 0-.548.419-1.375 2.063-1.435m2.83-1.036v2.67c0 .448-.11.448-.777.448v.309c.349-.01.857-.03 1.126-.03.259 0 .777.02 1.115.03v-.309c-.667 0-.777 0-.777-.448v-1.833c0-1.036.708-1.594 1.345-1.594.628 0 .737.538.737 1.106v2.32c0 .45-.11.45-.777.45v.308c.349-.01.857-.03 1.126-.03.259 0 .777.02 1.116.03v-.309c-.519 0-.768 0-.778-.298v-1.903c0-.857 0-1.166-.308-1.524-.14-.17-.468-.369-1.046-.369-.727 0-1.196.429-1.474 1.046v-1.046l-1.405.11v.309c.697 0 .777.07.777.557m5.605 1.255c0-1.623.817-2.042 1.345-2.042.09 0 .717.01 1.065.369-.408.03-.468.329-.468.458 0 .26.18.458.459.458.258 0 .458-.169.458-.468 0-.677-.757-1.065-1.524-1.065-1.246 0-2.162 1.075-2.162 2.31 0 1.275.986 2.262 2.142 2.262 1.334 0 1.653-1.196 1.653-1.295 0-.1-.1-.1-.13-.1-.089 0-.109.04-.129.1-.289.926-.936 1.046-1.305 1.046-.527 0-1.404-.429-1.404-2.033m4.377-.338c.06-1.484.897-1.733 1.236-1.733 1.026 0 1.125 1.344 1.125 1.733zm-.01.21h2.78c.219 0 .249 0 .249-.21 0-.986-.538-1.952-1.783-1.952-1.156 0-2.072 1.025-2.072 2.27 0 1.335 1.046 2.302 2.191 2.302 1.215 0 1.664-1.106 1.664-1.295 0-.1-.08-.12-.13-.12-.09 0-.11.06-.13.14-.348 1.026-1.245 1.026-1.344 1.026-.498 0-.896-.3-1.125-.668-.3-.478-.3-1.135-.3-1.494M416.083-131.967c.05-.129.05-.159.05-.179a.2.2 0 0 0-.2-.199c-.139 0-.179.1-.209.2l-3.397 9.383c-.05.13-.05.16-.05.179 0 .11.09.2.2.2.14 0 .18-.1.21-.2z"/>
    <path fill="none" stroke="gray" stroke-miterlimit="10" stroke-width=".399" d="M385.867-104.605h56.235"/>
    <path fill="none" stroke="gray" stroke-linecap="round" stroke-linejoin="round" stroke-miterlimit="10" stroke-width=".319" d="M440.906-106.2c.101.598 1.195 1.493 1.496 1.594-.3.098-1.395.996-1.496 1.594"/>
    <path fill="gray" d="M447.193-104.76c.06-1.484.896-1.733 1.235-1.733 1.026 0 1.126 1.344 1.126 1.733zm-.01.21h2.779c.22 0 .249 0 .249-.21 0-.986-.538-1.953-1.783-1.953-1.156 0-2.072 1.026-2.072 2.271 0 1.335 1.046 2.302 2.191 2.302 1.216 0 1.664-1.106 1.664-1.295 0-.1-.08-.12-.13-.12-.09 0-.11.06-.129.14-.349 1.026-1.245 1.026-1.345 1.026-.498 0-.896-.3-1.125-.668-.3-.478-.3-1.135-.3-1.494m4.417-1.127v2.67c0 .448-.11.448-.777.448v.309c.349-.01.857-.03 1.126-.03.259 0 .777.02 1.115.03v-.309c-.667 0-.777 0-.777-.448v-1.833c0-1.036.708-1.594 1.345-1.594.628 0 .737.538.737 1.106v2.32c0 .45-.11.45-.777.45v.308c.349-.01.857-.03 1.126-.03.259 0 .777.02 1.116.03v-.309c-.518 0-.767 0-.777-.299v-1.902c0-.857 0-1.166-.31-1.524-.139-.17-.467-.369-1.045-.369-.727 0-1.195.429-1.474 1.046v-1.046l-1.405.11v.309c.697 0 .777.07.777.557m5.555.917c.06-1.484.897-1.733 1.236-1.733 1.025 0 1.125 1.344 1.125 1.733zm-.01.21h2.78c.219 0 .248 0 .248-.21 0-.986-.538-1.953-1.783-1.953-1.155 0-2.071 1.026-2.071 2.271 0 1.335 1.045 2.302 2.19 2.302 1.216 0 1.664-1.106 1.664-1.295 0-.1-.08-.12-.13-.12-.089 0-.109.06-.129.14-.348 1.026-1.245 1.026-1.344 1.026-.498 0-.897-.3-1.126-.668-.299-.478-.299-1.135-.299-1.494m4.985-1.007v-1.096l-1.384.11v.309c.697 0 .777.07.777.557v2.67c0 .448-.11.448-.777.448v.309c.388-.01.857-.03 1.135-.03.399 0 .867 0 1.266.03v-.309h-.21c-.737 0-.757-.11-.757-.468v-1.534c0-.986.418-1.873 1.176-1.873.07 0 .09 0 .11.01-.03.01-.23.13-.23.389 0 .279.21.428.428.428.18 0 .429-.12.429-.438s-.309-.608-.737-.608c-.728 0-1.086.668-1.226 1.096m4.45 1.594c-.866 0-.866-.996-.866-1.225 0-.27.01-.588.16-.837.079-.12.308-.399.706-.399.867 0 .867.997.867 1.226 0 .268-.01.587-.159.836-.08.12-.31.399-.708.399m-1.155.388c0-.04 0-.269.17-.468.388.279.796.309.985.309.927 0 1.614-.688 1.614-1.454 0-.37-.16-.738-.408-.967.358-.338.717-.388.896-.388.02 0 .07 0 .1.01-.11.04-.16.15-.16.269 0 .169.13.288.29.288.1 0 .288-.07.288-.298 0-.17-.12-.489-.508-.489-.199 0-.637.06-1.056.469a1.66 1.66 0 0 0-1.056-.359c-.926 0-1.613.687-1.613 1.455 0 .438.22.816.468 1.025-.13.15-.309.479-.309.827 0 .31.13.688.439.887-.598.169-.917.597-.917.996 0 .717.986 1.265 2.201 1.265 1.176 0 2.212-.508 2.212-1.285 0-.349-.14-.857-.647-1.135-.529-.28-1.106-.28-1.714-.28-.249 0-.677 0-.747-.01-.319-.04-.528-.348-.528-.667m1.435 3.148c-1.006 0-1.694-.508-1.694-1.036 0-.458.379-.827.817-.857h.588c.856 0 1.972 0 1.972.857 0 .538-.707 1.036-1.683 1.036m6.624-5.17c.26-.627.767-.637.927-.637v-.31c-.23.02-.518.03-.747.03-.18 0-.648-.02-.867-.03v.31c.309.01.468.179.468.428 0 .1-.01.12-.06.239l-1.005 2.45-1.106-2.68c-.04-.099-.06-.139-.06-.179 0-.258.368-.258.558-.258v-.31c-.26.01-.917.03-1.086.03-.269 0-.667-.01-.966-.03v.31c.478 0 .667 0 .807.348l1.494 3.636c-.05.13-.19.458-.25.588-.218.548-.497 1.235-1.135 1.235-.05 0-.279 0-.468-.18.309-.04.388-.258.388-.418 0-.259-.189-.418-.418-.418-.2 0-.418.13-.418.428 0 .448.418.807.916.807.628 0 1.036-.568 1.275-1.135zM479.635-105.995v-.658l-1.434.11v.309c.707 0 .777.06.777.497v4.662c0 .449-.11.449-.777.449v.309c.338-.01.856-.03 1.116-.03.268 0 .776.02 1.125.03v-.31c-.667 0-.777 0-.777-.448v-1.7630000000000001c.05.16.468.698 1.225.698 1.186 0 2.222-.977 2.222-2.262 0-1.265-.967-2.25-2.082-2.25-.777 0-1.196.437-1.395.657m.03 2.61v-2.222c.29-.508.777-.797 1.285-.797.727 0 1.335.877 1.335 2.002 0 1.206-.698 2.042-1.434 2.042-.4 0-.778-.199-1.046-.607-.14-.21-.14-.22-.14-.419m5.455-2.172v-1.096l-1.384.11v.309c.697 0 .777.07.777.557v2.67c0 .448-.11.448-.777.448v.309c.389-.01.857-.03 1.135-.03.399 0 .867 0 1.266.03v-.309h-.21c-.737 0-.757-.11-.757-.468v-1.534c0-.986.419-1.873 1.176-1.873.07 0 .09 0 .11.01-.03.01-.23.13-.23.389 0 .279.21.428.428.428.18 0 .429-.12.429-.438s-.309-.608-.737-.608c-.727 0-1.086.668-1.226 1.096m4.002-1.096-1.394.11v.309c.647 0 .737.06.737.547v2.68c0 .448-.11.448-.777.448v.309c.319-.01.857-.03 1.096-.03.349 0 .697.02 1.036.03v-.309c-.657 0-.697-.05-.697-.438zm.04-1.733a.52.52 0 0 0-.528-.528.54.54 0 0 0-.527.528c0 .269.219.528.527.528.28 0 .529-.21.529-.528m2.13 3.964c0-1.623.817-2.042 1.345-2.042.09 0 .717.01 1.066.369-.408.03-.468.329-.468.458 0 .26.18.458.458.458.259 0 .458-.169.458-.468 0-.677-.757-1.065-1.524-1.065-1.245 0-2.161 1.075-2.161 2.31 0 1.275.986 2.262 2.141 2.262 1.335 0 1.654-1.196 1.654-1.295 0-.1-.1-.1-.13-.1-.09 0-.11.04-.13.1-.288.926-.936 1.046-1.304 1.046-.528 0-1.405-.429-1.405-2.033m4.378-.338c.06-1.484.897-1.733 1.235-1.733 1.026 0 1.126 1.344 1.126 1.733zm-.01.21h2.78c.218 0 .248 0 .248-.21 0-.986-.538-1.953-1.783-1.953-1.155 0-2.072 1.026-2.072 2.271 0 1.335 1.046 2.302 2.192 2.302 1.215 0 1.663-1.106 1.663-1.295 0-.1-.08-.12-.13-.12-.089 0-.109.06-.129.14-.349 1.026-1.245 1.026-1.345 1.026-.498 0-.896-.3-1.125-.668-.3-.478-.3-1.135-.3-1.494M416.083-109.21c.05-.129.05-.159.05-.179a.2.2 0 0 0-.2-.199c-.139 0-.179.1-.209.2l-3.397 9.383c-.05.13-.05.16-.05.179 0 .11.09.2.2.2.14 0 .18-.1.21-.2z"/>
    <path fill="none" stroke="gray" stroke-miterlimit="10" stroke-width=".399" d="M73.02-245.242v191.344h354.332v-191.344Z"/>
    <path fill="gray" d="M79.65-66.128c0-.53.044-.674 1.12-.674h.315v-.416c-.344.029-1.578.029-2.008.029s-1.678 0-2.023-.03v.417h.316c1.076 0 1.119.143 1.119.674v7.617c0 .53-.043.674-1.12.674h-.315v.416c.345-.029 1.578-.029 2.009-.029s1.678 0 2.022.029v-.416h-.315c-1.076 0-1.12-.143-1.12-.674zm8.338 5.221c0-1.334 0-1.735-.33-2.194-.416-.56-1.09-.646-1.578-.646-1.39 0-1.936 1.19-2.05 1.478h-.015v-1.478l-1.95.158v.416c.974 0 1.09.1 1.09.803v3.887c0 .646-.159.646-1.09.646v.416c.372-.029 1.147-.029 1.548-.029.416 0 1.19 0 1.564.029v-.416c-.918 0-1.09 0-1.09-.646v-2.667c0-1.507.99-2.31 1.879-2.31.89 0 1.09.731 1.09 1.606v3.371c0 .646-.158.646-1.09.646v.416c.373-.029 1.147-.029 1.549-.029.416 0 1.19 0 1.564.029v-.416c-.718 0-1.076 0-1.09-.43zM91.428-63.187h2.022v-.417h-2.022v-2.639h-.316c-.014 1.349-.53 2.726-1.836 2.769v.287h1.22v3.987c0 1.592 1.06 1.922 1.82 1.922.905 0 1.378-.889 1.378-1.922v-.817h-.316v.788c0 1.033-.415 1.636-.975 1.636-.975 0-.975-1.334-.975-1.578zm8.547 2.438c.315 0 .344 0 .344-.272 0-1.45-.775-2.798-2.51-2.798-1.636 0-2.898 1.478-2.898 3.257 0 1.893 1.463 3.284 3.055 3.284 1.707 0 2.353-1.549 2.353-1.85 0-.086-.072-.143-.158-.143-.115 0-.143.071-.172.143-.373 1.205-1.334 1.535-1.936 1.535-.603 0-2.052-.402-2.052-2.883v-.273zm-3.96-.272c.115-2.253 1.378-2.51 1.78-2.51 1.534 0 1.62 2.022 1.635 2.51zm7.105.258c0-1.392.574-2.697 1.678-2.697.115 0 .144 0 .201.014-.115.058-.344.144-.344.531 0 .416.33.574.559.574.287 0 .574-.187.574-.574 0-.43-.388-.832-1.004-.832-1.22 0-1.636 1.32-1.722 1.592h-.014v-1.592l-1.922.158v.416c.975 0 1.09.1 1.09.803v3.887c0 .646-.158.646-1.09.646v.416c.401-.029 1.19-.029 1.62-.029.388 0 1.407 0 1.736.029v-.416h-.287c-1.047 0-1.075-.158-1.075-.674zm5.534-2.424h1.621v-.417h-1.65v-1.678c0-1.29.66-1.95 1.249-1.95.115 0 .33.028.502.114a.58.58 0 0 0-.416.56c0 .33.23.56.56.56.344 0 .573-.23.573-.575 0-.53-.516-.947-1.205-.947-1.004 0-2.137.775-2.137 2.238v1.678h-1.12v.417h1.12v4.704c0 .646-.158.646-1.09.646v.416c.401-.029 1.19-.029 1.62-.029.388 0 1.406 0 1.736.029v-.416h-.287c-1.047 0-1.076-.158-1.076-.674zm7.362 1.936c0-.774 0-1.348-.63-1.908-.503-.459-1.148-.66-1.78-.66-1.175 0-2.08.775-2.08 1.707 0 .416.273.617.603.617a.565.565 0 0 0 .588-.588c0-.588-.516-.588-.731-.588.33-.603 1.018-.86 1.592-.86.66 0 1.506.544 1.506 1.835v.574c-2.883.043-3.973 1.248-3.973 2.353 0 1.133 1.32 1.491 2.194 1.491.947 0 1.593-.573 1.865-1.262.057.674.502 1.19 1.119 1.19.301 0 1.133-.2 1.133-1.348v-.803h-.315v.803c0 .818-.345.933-.546.933-.545 0-.545-.76-.545-.976zm-.932 1.807c0 1.406-1.047 1.88-1.664 1.88-.703 0-1.29-.517-1.29-1.205 0-1.894 2.438-2.066 2.954-2.095zm7.612-3.285c-.172 0-.703 0-.703.589 0 .344.244.588.588.588.33 0 .603-.2.603-.617 0-.961-1.004-1.65-2.166-1.65-1.679 0-3.012 1.492-3.012 3.3 0 1.836 1.376 3.241 2.997 3.241 1.894 0 2.324-1.72 2.324-1.85s-.1-.129-.143-.129c-.13 0-.144.043-.187.215-.315 1.018-1.09 1.449-1.865 1.449-.875 0-2.036-.76-2.036-2.94 0-2.382 1.219-2.97 1.936-2.97.545 0 1.334.215 1.664.774m6.545 1.98c.315 0 .344 0 .344-.272 0-1.45-.775-2.798-2.51-2.798-1.636 0-2.898 1.478-2.898 3.257 0 1.893 1.463 3.284 3.055 3.284 1.707 0 2.353-1.549 2.353-1.85 0-.086-.072-.143-.158-.143-.114 0-.143.071-.172.143-.373 1.205-1.334 1.535-1.936 1.535-.603 0-2.052-.402-2.052-2.883v-.273zm-3.96-.272c.115-2.253 1.378-2.51 1.78-2.51 1.534 0 1.62 2.022 1.635 2.51z"/>
    <path fill="none" stroke="#0ff" stroke-miterlimit="10" d="M133.945-155.938h63.809v-7.988h-63.809ZM139.316-91.762h58.438v-7.988h-58.438ZM333.344-84.871h49.496v-7.89h-49.496Z"/>
</svg>
